<svg width="17" height="14" viewBox="0 0 17 14" fill="none" xmlns="http://www.w3.org/2000/svg">
<path d="M16.2723 2.46945C15.6897 2.72056 15.0569 2.90137 14.404 2.97168C15.077 2.56989 15.5893 1.93708 15.8304 1.18373C15.2076 1.55538 14.5045 1.82659 13.7712 1.96721C13.1786 1.3344 12.3348 0.942662 11.4007 0.942662C9.60268 0.942662 8.15625 2.39913 8.15625 4.18708C8.15625 4.4382 8.18638 4.68931 8.23661 4.93038C5.54464 4.78976 3.14397 3.50405 1.54688 1.5353C1.26562 2.01744 1.10491 2.56989 1.10491 3.17257C1.10491 4.29757 1.67746 5.29199 2.55134 5.87458C2.01897 5.85449 1.51674 5.70382 1.08482 5.46275C1.08482 5.4728 1.08482 5.49288 1.08482 5.50293C1.08482 7.07994 2.19978 8.38574 3.68638 8.68708C3.41518 8.75739 3.12388 8.79757 2.83259 8.79757C2.62165 8.79757 2.42076 8.77748 2.21987 8.74735C2.6317 10.0331 3.82701 10.9672 5.25335 10.9973C4.13839 11.8712 2.74219 12.3835 1.22545 12.3835C0.954241 12.3835 0.703125 12.3735 0.441964 12.3433C1.87835 13.2674 3.58594 13.7998 5.42411 13.7998C11.3906 13.7998 14.6551 8.85784 14.6551 4.56878C14.6551 4.42815 14.6551 4.28753 14.6451 4.1469C15.2779 3.68485 15.8304 3.1123 16.2723 2.46945Z" fill="#373F41"/>
</svg>
