<svg width="62" height="70" viewBox="0 0 62 70" fill="none" xmlns="http://www.w3.org/2000/svg">
<g clip-path="url(#clip0)">
<path d="M26.9785 16.6458C26.9785 17.739 26.0922 18.6252 24.999 18.6252C23.9058 18.6252 23.0195 17.739 23.0195 16.6458C23.0195 15.5525 23.9058 14.6663 24.999 14.6663C26.0922 14.6663 26.9785 15.5525 26.9785 16.6458Z" fill="#3A3129"/>
<path d="M37.7715 36.5178C33.4796 36.5178 29.9665 35.4303 28.2712 33.2847C26.5382 31.0912 25.7005 28.6388 26.7485 24.1364C26.7485 24.1364 24.1868 25.0679 20.7325 24.7187C17.2781 24.3693 16.075 22.1569 16.8123 18.8967C17.5498 15.6364 20.1115 12.7643 21.237 11.9103L18.9082 9.89199C18.9082 9.89199 26.5921 6.92062 31.284 15.8516C31.284 15.8516 31.2915 15.8466 31.3024 15.8391C33.7746 13.8848 36.9052 12.9686 39.3951 12.9686C39.6284 12.9686 39.8586 12.977 40.0793 12.9937C40.1121 12.9962 40.146 13.0003 40.1789 13.0031C39.917 11.1784 38.7653 6.52635 33.735 3.643C27.3695 -0.00546509 17.1381 -0.0552536 11.3431 4.22192L14.0565 6.43754C14.0565 6.43754 4.1801 9.26578 1.26585 19.3752H4.87546C4.87546 19.3752 1.20934 25.4561 0.666016 34.8876H4.23692C4.23692 34.8876 2.06329 44.5911 6.64327 52.3536C6.64327 52.3536 7.80766 43.7759 17.2005 39.39C26.5933 35.0041 35.1322 40.9813 37.8879 42.5728C40.6436 44.164 45.0295 46.4928 50.3857 46.3764C55.7421 46.2599 59.2352 41.2918 61.0983 36.5178C61.0983 36.5178 41.3054 36.5178 37.7715 36.5178Z" fill="#EF4138"/>
<path d="M39.1795 30.4981C39.1795 30.4981 38.169 32.4442 36.0731 33.2675C33.9774 34.0909 30.6091 33.1928 29.5611 30.4981C28.5132 27.8035 28.9249 23.986 30.9085 20.4305C32.892 16.8753 36.9138 15.3347 39.9279 15.7149C42.3856 16.0251 44.5198 17.439 46.0478 20.8151C47.6085 24.2632 47.427 29.2354 44.0033 33.627C44.0033 33.627 43.3841 30.5395 40.0029 29.4502C37.2146 28.5519 35.3247 29.2256 32.368 26.6494C32.368 26.6494 32.4429 28.4397 34.2767 29.4127C36.1106 30.3857 39.1795 30.4981 39.1795 30.4981Z" fill="#F37D3A"/>
<path d="M45.0588 56.3753C44.7647 56.3753 44.468 56.361 44.1769 56.3326C39.9058 55.918 30.4483 47.9023 23.2246 40.7683C23.4742 40.7511 23.7579 40.7401 24.0734 40.7401C26.3674 40.7401 30.0728 41.3087 34.6971 44.018C41.2022 47.8293 49.5318 52.2183 52.2555 53.6418C51.0179 54.6153 48.3284 56.3753 45.0588 56.3753Z" fill="#F37D3A"/>
<path d="M27.2868 69.042C24.9904 68.3963 20.4953 65.8732 18.2592 62.2236C17.0636 60.2724 16.5514 56.8731 16.8162 52.6521C17.0221 49.3715 17.6998 45.9028 18.6735 43.0493L27.2868 69.042Z" fill="#F37D3A"/>
<path d="M15.2097 66.7284C13.3095 66.0105 11.801 64.8522 10.7128 63.2716C8.24524 59.6883 8.69928 54.6725 9.97044 51.2914C11.1498 48.1544 13.5201 45.3552 15.5464 44.0074C14.9333 45.6922 14.181 48.7318 13.716 52.2104C12.9398 58.0166 14.2954 64.0965 15.2097 66.7284Z" fill="#F37D3A"/>
<path d="M26.9785 16.6458C26.9785 17.739 26.0922 18.6252 24.999 18.6252C23.9058 18.6252 23.0195 17.739 23.0195 16.6458C23.0195 15.5525 23.9058 14.6663 24.999 14.6663C26.0922 14.6663 26.9785 15.5525 26.9785 16.6458Z" fill="#13141A"/>
<path d="M45.0588 56.3753C44.7647 56.3753 44.468 56.361 44.1769 56.3326C39.9058 55.918 30.4483 47.9023 23.2246 40.7683C23.4742 40.7511 23.7579 40.7401 24.0734 40.7401C26.3674 40.7401 30.0728 41.3087 34.6971 44.018C41.2022 47.8293 49.5318 52.2183 52.2555 53.6418C51.0179 54.6153 48.3284 56.3753 45.0588 56.3753Z" fill="#F37D3A"/>
<path d="M27.2868 69.042C24.9904 68.3963 20.4953 65.8732 18.2592 62.2236C17.0636 60.2724 16.5514 56.8731 16.8162 52.6521C17.0221 49.3715 17.6998 45.9028 18.6735 43.0493L27.2868 69.042Z" fill="#F37D3A"/>
<path d="M15.2097 66.7284C13.3095 66.0105 11.801 64.8522 10.7128 63.2716C8.24524 59.6883 8.69928 54.6725 9.97044 51.2914C11.1498 48.1544 13.5201 45.3552 15.5464 44.0074C14.9333 45.6922 14.181 48.7318 13.716 52.2104C12.9398 58.0166 14.2954 64.0965 15.2097 66.7284Z" fill="#F37D3A"/>
<path d="M53.0306 43.3451C47.6035 45.2228 39.8825 42.6024 32.7441 39.7672C35.0813 40.8062 36.8812 41.9867 37.8959 42.5728C40.6517 44.1641 45.0375 46.4928 50.3937 46.3764C55.75 46.26 59.2432 41.2918 61.1062 36.5178C61.1062 36.5178 57.264 41.8805 53.0306 43.3451Z" fill="#CC4238"/>
<path d="M17.2037 39.3898C19.0366 38.5338 20.8365 38.074 22.5678 37.8978C14.2599 38.645 8.27051 41.9689 6.29885 47.3461C6.29885 47.3461 3.54661 44.3283 3.74983 39.1919C3.60795 42.727 3.99817 47.8647 6.64645 52.3534C6.64645 52.3534 7.81084 43.7756 17.2037 39.3898Z" fill="#CC4238"/>
<path d="M0.666016 34.8877H4.23676C4.23676 34.8877 3.97297 36.2311 3.79457 38.3106C4.08816 34.8877 9.2622 32.8592 10.2753 32.3073C4.41282 32.2959 0.666016 34.8877 0.666016 34.8877Z" fill="#CC4238"/>
<path d="M3.0524 23.3775C4.84097 19.3618 10.0187 18.1423 10.0187 18.1423C4.68379 17.5444 1.26367 19.3754 1.26367 19.3754H4.87328C4.87328 19.3754 4.00592 20.8143 3.0524 23.3775Z" fill="#CC4238"/>
<path d="M9.67188 8.5088C13.0971 6.46628 18.1106 7.84044 18.1106 7.84044C14.9371 4.66709 11.3382 4.22226 11.3382 4.22226L14.0516 6.43788C14.0516 6.43788 12.0977 6.99822 9.67188 8.5088Z" fill="#CC4238"/>
<path d="M45.0588 56.3759C48.3284 56.3759 51.0179 54.6159 52.2555 53.6424C52.2555 53.6424 49.0436 54.636 44.9044 54.2911C40.7652 53.9461 23.2246 40.7689 23.2246 40.7689C30.4483 47.9029 39.9058 55.9186 44.1769 56.3331C44.468 56.3615 44.7647 56.3759 45.0588 56.3759Z" fill="#F7934B"/>
<path d="M21.2773 42.9254C22.4308 45.7883 24.3372 50.4468 25.2486 52.2619L25.2875 52.3393C26.6026 54.9592 30.0959 61.9182 35.2491 63.2779C36.1726 63.5215 37.0963 63.6843 37.9941 63.7614C40.3482 63.9637 42.086 63.5401 43.0074 63.2226L21.2773 42.9254Z" fill="#F37D3A"/>
<path d="M33.3093 60.23C29.1782 57.6201 21.2773 42.9254 21.2773 42.9254C22.4308 45.7883 24.3372 50.4468 25.2486 52.2619L25.2875 52.3393C26.6026 54.9592 30.0959 61.9182 35.2491 63.2779C36.1726 63.5215 37.0963 63.6843 37.9941 63.7614C40.3482 63.9637 42.086 63.5402 43.0074 63.2226C43.0074 63.2226 37.4402 62.8401 33.3093 60.23Z" fill="#F7934B"/>
<path d="M16.8162 52.6521C16.5513 56.8731 17.0638 60.2724 18.2592 62.2236C20.4953 65.8732 24.9903 68.3963 27.2868 69.042C27.2868 69.042 21.9077 65.8824 19.0587 59.8457C16.2095 53.809 18.6735 43.0493 18.6735 43.0493C17.6998 45.9028 17.0219 49.3715 16.8162 52.6521Z" fill="#F7934B"/>
<path d="M10.2704 56.7748C9.83214 49.7382 15.5464 44.0074 15.5464 44.0074C13.5201 45.3552 11.1498 48.1544 9.97044 51.2914C8.69928 54.6725 8.24524 59.6883 10.7128 63.2716C11.801 64.8522 13.3095 66.0105 15.2097 66.7284C15.2097 66.7284 10.7087 63.8115 10.2704 56.7748Z" fill="#F7934B"/>
<path d="M42.0685 30.5655C43.666 31.893 44.0139 33.6271 44.0139 33.6271C47.4376 29.2355 47.6191 24.2632 46.0585 20.8152C44.5304 17.4391 42.3962 16.0252 39.9385 15.715C39.64 15.6774 39.3311 15.6595 39.0156 15.6596C41.4086 15.6767 45.2668 19.3339 44.8853 23.7991C44.5029 28.275 42.0685 30.5655 42.0685 30.5655Z" fill="#F7934B"/>
</g>
<defs>
<clipPath id="clip0">
<rect width="61.7647" height="70" fill="white"/>
</clipPath>
</defs>
</svg>
