<svg width="108" height="27" viewBox="0 0 108 27" fill="none" xmlns="http://www.w3.org/2000/svg">
<path d="M18.5822 14.1835C18.5822 8.63967 21.9852 4.86829 27.5043 4.86829C32.7092 4.86829 35.6264 7.37349 35.6264 11.0594H30.4215C30.4215 9.93435 29.5917 9.06107 27.5329 9.06107C25.4165 9.06107 24.2447 11.4825 24.2447 13.9582C24.2447 16.1808 25.2744 18.4047 27.476 18.4047C29.3345 18.4047 30.3356 17.7856 30.3356 16.4346H28.0765V12.7765H35.7685V22.2603H32.1656C32.1656 22.2603 32.1656 21.5284 32.1656 20.8814C31.9367 21.0786 30.478 22.6267 27.3326 22.6267C22.1 22.6263 18.5822 19.3045 18.5822 14.1835ZM7.08704 22.2603C7.08704 22.2603 4.51317 22.2603 1.59595 22.2603L7.83065 5.26285H13.2635L19.4686 22.2603H13.9496L13.1783 20.1496H7.83099L7.08704 22.2603ZM10.4897 10.75L8.77389 16.5472H12.2917L10.4897 10.75Z" fill="#A2B5CD"/>
<path d="M37.6755 5.26282H51.0299V9.76536H43.1666V12.2417H49.4576V16.4342H43.166V22.2602H37.6755V5.26282ZM54.4908 22.2602H49.0001L55.262 5.26282H60.6962L66.8737 22.2602H61.4112L60.467 20.1496H55.1769L54.4908 22.2602ZM57.8938 10.7499L56.1763 16.5757H59.6941L57.8938 10.7499Z" fill="#A2B5CD"/>
<path d="M73.1309 14.0702L90.4895 0.582764L107.332 14.1272L90.4895 26.3977L73.1309 14.0702Z" fill="#A2B5CD"/>
<path d="M80.5369 13.2548C78.9073 15.4208 78.5353 15.2531 77.7065 15.337V16.0969C77.7924 16.0969 78.9073 16.2941 79.5933 15.7034C79.9084 15.4781 80.5945 14.6618 80.5945 14.6618H82.8539L82.3106 16.2092H84.4549L86.4569 10.2156C86.3993 10.2722 84.3688 10.2156 83.54 10.4124C82.3103 10.7215 82.0528 11.2571 80.5369 13.2548Z" fill="white"/>
<path d="M87.8865 16.3786C88.8014 16.3786 89.4013 15.9002 89.4013 15.9002C89.2875 16.4057 88.9165 16.8848 88.5153 17.1104C87.8289 17.5603 86.9429 17.1939 86.3992 17.1104L86.0276 17.8422C86.0286 17.8422 87.4583 18.3193 88.5159 18.3193C89.8604 18.3193 90.8326 17.0541 91.175 15.7869C91.3473 15.1681 92.0048 12.2123 92.0048 12.2123H90.3459L90.1449 12.9448C90.0607 12.6069 89.5726 12.0712 88.7438 12.0712C87.1152 12.0712 86.1138 13.2539 86.1138 14.4926C86.1134 15.7872 87.1428 16.3786 87.8865 16.3786Z" fill="white"/>
<path d="M95.1498 12.9457H96.0072L96.2071 12.2132H95.4639C95.4639 12.2132 95.6938 11.3695 96.2933 11.1442C96.9797 10.8907 97.6658 10.9746 97.6658 10.9746V10.2156C97.6658 10.2156 96.4374 10.2156 96.2933 10.2156C94.8354 10.2156 94.0053 11.2571 93.7487 12.2129H92.8052L92.69 12.9454H93.5188L92.5759 16.2092H94.2921L95.1498 12.9457Z" fill="white"/>
<path d="M99.4964 15.4503L99.2951 16.2093H100.811L101.955 12.213H100.297L100.039 13.0011C100.039 13.0011 99.553 12.1292 98.638 12.1292C97.2073 12.1292 96.0066 13.2545 96.0066 14.6062C96.0066 15.6756 96.8068 16.3504 97.58 16.3504C98.3529 16.3504 99.0676 16.0122 99.4964 15.4503Z" fill="white"/>
<path d="M89.7163 14.1272C89.7163 14.9995 88.9441 15.62 88.1439 15.62C87.544 15.62 87.0283 15.2539 87.0283 14.4939C87.0283 13.8184 87.6568 12.8892 88.6579 12.8892C89.4598 12.8888 89.7163 13.508 89.7163 14.1272Z" fill="#A2B5CD"/>
<path d="M83.1679 11.3967C83.454 11.2572 84.0549 11.3128 84.0549 11.3128L83.0827 13.8455H81.1956C81.1952 13.8452 82.4815 11.7074 83.1679 11.3967Z" fill="#A2B5CD"/>
<path d="M99.5249 13.93C99.5249 14.8033 98.7813 15.5908 97.8943 15.5908C97.3516 15.5908 96.9214 15.1124 96.9214 14.5489C96.9214 13.6766 97.6946 12.9176 98.5524 12.9176C99.0964 12.9179 99.5249 13.3953 99.5249 13.93Z" fill="#A2B5CD"/>
</svg>
