<svg width="119" height="28" viewBox="0 0 119 28" fill="none" xmlns="http://www.w3.org/2000/svg">
<path d="M18.6803 16.912C19.627 14.8555 19.8132 12.5236 19.2051 10.34C18.597 8.15644 17.2349 6.26596 15.3663 5.012C16.8677 3.451 18.4935 1.904 20.2094 0.427002C18.2075 1.6311 16.3077 3.00077 14.5292 4.522C12.5986 3.50348 10.3777 3.19713 8.24812 3.65563C6.11854 4.11412 4.21331 5.30881 2.85988 7.03437C1.50646 8.75993 0.789371 10.9086 0.831864 13.111C0.874356 15.3135 1.67378 17.4322 3.09273 19.103C1.30081 23.03 1.01714 26.18 2.56691 27.244C4.26197 28.385 7.94267 26.313 10.1774 22.946C10.1774 22.946 6.75959 26.061 4.88464 25.347C3.72924 24.906 3.72924 23.114 4.67709 20.552C6.47295 21.885 8.67949 22.527 10.9009 22.3628C13.1223 22.1986 15.2132 21.2389 16.7985 19.656L17.1306 20.286C21.2126 19.95 33.3962 19.621 33.3962 19.621C33.3685 19.04 25.3014 19.6 18.6803 16.912ZM1.95116 12.915C1.95263 11.5198 2.29987 10.1472 2.96111 8.92286C3.62236 7.69851 4.57649 6.66146 5.73622 5.9066C6.89596 5.15174 8.22427 4.70316 9.59962 4.6019C10.975 4.50065 12.3535 4.74995 13.609 5.327C9.56474 8.90607 6.18801 13.1903 3.6393 17.976C2.54091 16.5232 1.94747 14.7441 1.95116 12.915ZM10.1912 21.252C8.34126 21.2556 6.5444 20.6265 5.0922 19.467C6.72499 15.743 10.0459 10.745 14.5776 5.859C16.2799 6.9435 17.5312 8.62055 18.0958 10.574C18.6604 12.5275 18.4992 14.6225 17.6425 16.464C16.2123 15.8145 14.891 14.943 13.7266 13.881L16.2104 18.599C15.4414 19.4363 14.5099 20.1041 13.4742 20.5606C12.4386 21.0171 11.3209 21.2524 10.1912 21.252Z" fill="#A2B5CD"/>
<path d="M74.5549 12.047L76.077 9.99599H70.7635L72.0711 8.23899H77.3916L78.9206 6.18799H68.3074L61.0083 15.988H71.6214L73.1435 13.937H67.83L69.2345 12.047H74.5549Z" fill="#A2B5CD"/>
<path d="M81.9232 6.18799L74.624 15.988H79.9237L87.2159 6.18799H81.9232Z" fill="#A2B5CD"/>
<path d="M99.5655 6.18799L95.8641 11.158L94.7294 6.18799H90.5921L83.293 15.988H86.7938L90.4606 11.067L91.5884 15.988H95.7672L103.066 6.18799H99.5655Z" fill="#A2B5CD"/>
<path d="M116.876 6.18797H108.366C107.675 6.18715 106.993 6.34931 106.374 6.66159C105.756 6.97386 105.218 7.42765 104.803 7.98697L100.41 13.888C100.238 14.1151 100.146 14.3932 100.147 14.679C100.147 15.0268 100.283 15.3605 100.525 15.6071C100.768 15.8537 101.097 15.9931 101.441 15.995H109.95C110.643 15.9963 111.326 15.8344 111.945 15.5222C112.565 15.2099 113.104 14.7558 113.52 14.196L114.579 12.796H115.81L117.346 10.696H110.829L108.753 13.461C108.646 13.6068 108.506 13.7251 108.345 13.8066C108.184 13.888 108.006 13.9302 107.826 13.93H106.325C106.235 13.93 106.149 13.8938 106.085 13.8295C106.022 13.7652 105.986 13.6779 105.986 13.587C105.985 13.5133 106.01 13.4416 106.055 13.384L109.515 8.69397C109.622 8.54774 109.762 8.4291 109.923 8.34763C110.084 8.26616 110.262 8.22414 110.442 8.22497H111.943C111.987 8.22497 112.032 8.23384 112.073 8.25108C112.114 8.26832 112.151 8.29358 112.183 8.32543C112.214 8.35728 112.239 8.39509 112.256 8.43671C112.273 8.47832 112.282 8.52293 112.282 8.56797C112.28 8.64122 112.256 8.71209 112.213 8.77097L111.645 9.53397H116.931L117.865 8.27397C118.011 8.07933 118.1 7.84726 118.123 7.60401C118.145 7.36076 118.1 7.11605 117.992 6.89755C117.884 6.67905 117.717 6.49548 117.512 6.3676C117.306 6.23973 117.069 6.17266 116.827 6.17397L116.876 6.18797Z" fill="#A2B5CD"/>
<path d="M63.9625 7.50395C63.9625 7.15679 63.8261 6.82384 63.5835 6.57835C63.3409 6.33287 63.0118 6.19495 62.6687 6.19495H54.1588C53.4665 6.1936 52.7834 6.35547 52.1637 6.66775C51.544 6.98002 51.0048 7.43409 50.5888 7.99395L46.1955 13.895C46.0523 14.0903 45.9654 14.322 45.9444 14.5643C45.9235 14.8065 45.9693 15.05 46.0768 15.2675C46.1843 15.485 46.3493 15.6682 46.5534 15.7966C46.7576 15.925 46.9929 15.9937 47.2333 15.995H55.7432C56.4354 15.9963 57.1185 15.8344 57.7382 15.5222C58.3579 15.2099 58.8971 14.7558 59.3132 14.196L63.7065 8.29496C63.875 8.06673 63.965 7.78886 63.9625 7.50395ZM58.047 8.78496L54.5877 13.468C54.4804 13.6142 54.3405 13.7328 54.1795 13.8143C54.0184 13.8958 53.8407 13.9378 53.6606 13.937H52.1316C52.0693 13.9363 52.0083 13.9183 51.9554 13.8848C51.9025 13.8514 51.8597 13.8038 51.8318 13.7474C51.8039 13.6909 51.792 13.6278 51.7973 13.5649C51.8026 13.502 51.8249 13.4418 51.8618 13.391L55.3211 8.70096C55.4296 8.55593 55.5697 8.43818 55.7305 8.35684C55.8913 8.2755 56.0684 8.23276 56.2482 8.23196H57.7495C57.8395 8.23196 57.9257 8.26809 57.9893 8.33242C58.0528 8.39674 58.0886 8.48399 58.0886 8.57495C58.0866 8.6482 58.0625 8.71908 58.0194 8.77795L58.047 8.78496Z" fill="#A2B5CD"/>
<path d="M43.9471 11.326C44.9755 11.0901 45.8876 10.4922 46.5208 9.63901L47.5309 8.28801C47.6768 8.09336 47.766 7.86129 47.7883 7.61805C47.8106 7.3748 47.7652 7.13009 47.6572 6.91159C47.5493 6.69308 47.383 6.50951 47.1773 6.38164C46.9715 6.25377 46.7345 6.18669 46.4931 6.18801H35.7554L28.4563 15.988H39.5676C40.2599 15.9894 40.943 15.8275 41.5626 15.5152C42.1823 15.2029 42.7216 14.7489 43.1376 14.189L44.1685 12.789C44.3046 12.608 44.3775 12.3864 44.376 12.159C44.3757 11.9943 44.3374 11.832 44.2642 11.6849C44.1909 11.5379 44.0847 11.4102 43.954 11.312L43.9471 11.326ZM39.0348 12.6L38.3776 13.482C38.2698 13.6278 38.1299 13.7462 37.9689 13.8276C37.808 13.909 37.6304 13.9513 37.4505 13.951H35.285L36.6687 12.061H38.7443C38.8342 12.061 38.9204 12.0971 38.984 12.1615C39.0476 12.2258 39.0833 12.313 39.0833 12.404C39.0833 12.4776 39.0589 12.5491 39.0141 12.607L39.0348 12.6ZM41.8715 8.79201L41.3111 9.54101C41.2022 9.68514 41.0619 9.80184 40.9011 9.88199C40.7402 9.96214 40.5633 10.0036 40.384 10.003H38.2185L39.5261 8.24601H41.6016C41.6462 8.24601 41.6903 8.25488 41.7314 8.27212C41.7725 8.28935 41.8099 8.31462 41.8414 8.34647C41.8728 8.37832 41.8978 8.41613 41.9149 8.45775C41.9319 8.49936 41.9407 8.54396 41.9407 8.58901C41.9387 8.66225 41.9146 8.73313 41.8715 8.79201Z" fill="#A2B5CD"/>
</svg>
