<svg width="85" height="26" viewBox="0 0 85 26" fill="none" xmlns="http://www.w3.org/2000/svg">
<path d="M12.7921 0C5.66629 0 0 5.84295 0 12.9603C0 20.1556 5.66629 26 12.7921 26C19.9556 26 25.5459 20.1567 25.5459 12.9626C25.5471 5.84522 19.9556 0 12.7921 0ZM12.7921 5.50127C18.6104 5.50127 22.8728 9.21204 24.6739 12.9626C22.8728 16.7703 18.6104 20.4987 12.7921 20.4987C6.9362 20.4987 2.70803 16.7691 0.908076 12.9626C2.70803 9.21326 6.93742 5.50353 12.7921 5.50353V5.50127V5.50127ZM12.7921 6.09109C9.00179 6.09109 5.91153 9.17201 5.91153 12.9603C5.91153 16.8058 9.00179 19.8703 12.7921 19.8703C16.5825 19.8703 19.6321 16.8057 19.6321 12.9626C19.6321 9.17428 16.5825 6.09109 12.7921 6.09109Z" fill="#A2B5CD"/>
<path d="M37.7756 1.5426C31.0852 1.5426 26.4224 6.64307 26.4224 12.8469V12.9217C26.4224 19.2022 31.1802 24.1715 37.6062 24.1715C41.7943 24.1715 44.2967 22.6671 46.5333 20.2492L43.4816 17.1685C41.775 18.7276 40.2381 19.7387 37.7552 19.7387C34.0219 19.7387 31.4258 16.5949 31.4258 12.8469V12.7901C31.4258 9.04083 34.0789 5.97537 37.7552 5.97537C39.9348 5.97537 41.6408 6.90826 43.3279 8.45038L46.3797 4.90915C44.3517 2.91147 41.8886 1.5426 37.7756 1.5426Z" fill="#A2B5CD"/>
<path d="M48.3381 1.92151V23.7882H58.7042C63.6116 23.7882 66.8521 21.7923 66.8521 17.7969V17.7198C66.8521 14.789 65.2999 13.322 62.777 12.3524C64.332 11.4778 65.639 10.1077 65.639 7.63375V7.57703C65.639 6.07146 65.1457 4.85384 64.1414 3.84525C62.8921 2.60888 60.9398 1.92151 58.4557 1.92151H48.3381ZM52.9982 6.12742H57.7374C59.7654 6.12742 60.8818 6.94569 60.8818 8.3733V8.45043C60.8818 10.0681 59.537 10.753 57.4144 10.753L52.9982 10.7553V6.12742V6.12742ZM52.9982 14.7525H58.5529C60.9957 14.7525 62.0948 15.6668 62.0948 17.1322V17.2071C62.0948 18.8247 60.8074 19.5664 58.7042 19.5664L52.9982 19.5687V14.7525V14.7525Z" fill="#A2B5CD"/>
<path d="M76.2468 1.59937C71.8124 1.59937 68.6298 4.22501 68.6298 8.20088V8.25987C68.6298 12.6012 71.4706 13.82 75.8492 14.9431C79.488 15.8932 80.2451 16.5017 80.2451 17.7198V17.7969C80.2451 19.071 79.05 19.8522 77.0984 19.8522C74.5962 19.8522 72.5501 18.8224 70.5973 17.2048L67.7556 20.6122C70.3706 22.9534 73.7056 24.0967 77.0035 24.0967V24.0944C81.7036 24.0944 85 21.6569 85 17.3205V17.2638C85 13.439 82.4995 11.8559 78.0833 10.6963C74.3318 9.72426 73.3825 9.24965 73.3825 7.82203V7.76532C73.3825 6.69948 74.3493 5.84385 76.1881 5.84385C78.0269 5.84385 79.9223 6.66067 81.8557 8.01032L84.3382 4.37835C82.1392 2.60846 79.4307 1.59937 76.2468 1.59937Z" fill="#A2B5CD"/>
</svg>
