<svg width="64" height="28" viewBox="0 0 64 28" fill="none" xmlns="http://www.w3.org/2000/svg">
<path d="M41.7817 0.413361C41.696 0.413361 41.6109 0.434587 41.5252 0.475706L39.3478 1.30555C39.1139 1.39133 38.9436 1.4601 38.8372 1.51316C38.7312 1.56663 38.6785 1.64643 38.6785 1.75257C38.6785 1.9018 38.7575 1.99832 38.9169 2.04061C39.0759 2.08291 39.2576 2.14119 39.4593 2.2158C39.6613 2.29042 39.8422 2.41848 40.0016 2.59923C40.1614 2.78039 40.2407 3.08372 40.2407 3.50947V19.542C40.2407 19.8823 40.2031 20.1378 40.1286 20.3082C40.0545 20.4782 39.9428 20.6069 39.7942 20.6922C39.6452 20.7768 39.4745 20.8407 39.2837 20.883C39.0924 20.9253 38.8909 20.9786 38.6784 21.0433C38.5087 21.0852 38.3706 21.1334 38.2638 21.186C38.1574 21.2395 38.1044 21.3406 38.1044 21.4903C38.1044 21.6387 38.2053 21.7289 38.407 21.7609C38.609 21.792 38.7632 21.8089 38.8696 21.8089C39.1461 21.8089 39.5031 21.7885 39.9387 21.7478C40.3754 21.7071 40.7864 21.686 41.1721 21.686C41.5355 21.686 41.8876 21.7071 42.2288 21.7478C42.5707 21.7885 42.9329 21.8089 43.3159 21.8089C43.486 21.8089 43.6505 21.7872 43.8102 21.7453C43.9692 21.7026 44.0493 21.6182 44.0493 21.4909C44.0493 21.3417 43.9586 21.2518 43.7785 21.2203C43.598 21.1884 43.3794 21.1297 43.1247 21.0439C42.9753 21.0024 42.8213 20.9122 42.6615 20.7745C42.5025 20.6361 42.4236 20.3869 42.4236 20.0257V15.5037C42.4236 15.398 42.4979 15.3441 42.6465 15.3441C42.7103 15.3441 42.8063 15.4082 42.9342 15.5355L47.748 20.0891C47.9815 20.3229 48.0979 20.4931 48.0979 20.5985C48.0979 20.705 48.0397 20.8007 47.9229 20.8853C47.8054 20.9702 47.663 21.0233 47.4921 21.0436C47.2159 21.0867 46.9929 21.135 46.8227 21.1876C46.653 21.2411 46.5687 21.3414 46.5687 21.4906C46.5687 21.6395 46.6422 21.7287 46.7916 21.7606C46.9402 21.7917 47.1845 21.8086 47.5245 21.8086C47.9066 21.8086 48.289 21.7882 48.672 21.7475C49.0541 21.7068 49.4585 21.6858 49.8836 21.6858C50.3726 21.6858 50.8189 21.7068 51.2229 21.7475C51.6266 21.7882 51.9988 21.8086 52.3387 21.8086C52.8914 21.8086 53.1674 21.7027 53.1674 21.49C53.1674 21.3839 53.099 21.2982 52.9607 21.2344C52.8221 21.1709 52.6364 21.0918 52.4028 20.9956C52.1689 20.8998 51.8975 20.7772 51.5891 20.6284C51.2806 20.4787 50.9676 20.2564 50.6488 19.9588L45.1333 14.9487C45.0903 14.9068 45.0369 14.8482 44.9739 14.7735C44.9098 14.6989 44.8781 14.6089 44.8781 14.5023C44.8781 14.4173 45.1545 14.1888 45.7068 13.8165C46.2591 13.4442 46.8919 13.0458 47.604 12.6201C48.3161 12.1947 49.0063 11.796 49.6761 11.4237C50.3456 11.0514 50.7973 10.8124 51.0316 10.7055C51.1372 10.6632 51.2805 10.6151 51.4619 10.5621C51.6424 10.5094 51.8177 10.4507 51.9886 10.3869C52.158 10.3234 52.3007 10.2539 52.4183 10.1792C52.535 10.1046 52.5932 10.0248 52.5932 9.93984C52.5932 9.76986 52.5302 9.66292 52.4027 9.62063C52.2748 9.57833 52.1369 9.55641 51.9886 9.55641C51.669 9.55641 51.2916 9.56722 50.856 9.58757C50.4201 9.60792 49.9993 9.61873 49.5964 9.61873C49.1705 9.61873 48.7402 9.60792 48.3051 9.58757C47.8695 9.56722 47.4817 9.55641 47.1414 9.55641C47.035 9.55641 46.9344 9.58897 46.8388 9.65242C46.7431 9.71666 46.6956 9.79086 46.6956 9.87625C46.6956 10.0043 46.7584 10.1055 46.8867 10.1805C47.0138 10.2547 47.1524 10.3289 47.3014 10.4031C47.4504 10.4777 47.5877 10.5738 47.716 10.6911C47.8428 10.8084 47.9066 10.9739 47.9066 11.1861C47.9066 11.2931 47.7841 11.4471 47.5398 11.6493C47.2956 11.8512 46.9932 12.0808 46.6314 12.3358C46.2708 12.5919 45.8719 12.8577 45.4359 13.1351C45 13.412 44.5913 13.6618 44.2087 13.8857C43.8262 14.1095 43.4913 14.2902 43.2044 14.4287C42.9175 14.5672 42.7527 14.6363 42.71 14.6363C42.5191 14.6363 42.4236 14.4658 42.4236 14.1251V0.988665C42.4236 0.75444 42.3866 0.600271 42.3109 0.526047C42.2368 0.451031 42.1562 0.413202 42.0706 0.413202H41.7817L41.7817 0.413361ZM9.55498 1.95333C8.53285 1.95333 7.62309 1.98354 6.82531 2.04498C6.02674 2.10683 5.23423 2.13787 4.44681 2.13787H1.54468C1.43788 2.13787 1.316 2.14271 1.17732 2.15348C1.03905 2.16386 0.906968 2.18576 0.779451 2.21769C0.651934 2.25001 0.540337 2.30371 0.445097 2.37793C0.348667 2.45255 0.30127 2.55324 0.30127 2.68093C0.30127 2.85131 0.369705 2.95325 0.507982 2.98517C0.646258 3.0167 0.896209 3.05386 1.25762 3.09615C1.46962 3.1177 1.69788 3.13403 1.94255 3.14479C2.18722 3.15516 2.4211 3.17686 2.64425 3.20838C2.86701 3.2403 3.05287 3.29359 3.2015 3.3686C3.35054 3.44282 3.42503 3.55418 3.42503 3.70341V18.722C3.42503 19.1904 3.38267 19.5521 3.29739 19.8074C3.21251 20.0636 3.1013 20.2596 2.96303 20.3985C2.82475 20.5369 2.67078 20.6334 2.50102 20.6865C2.33086 20.74 2.16061 20.7776 1.99048 20.7987C1.50153 20.8837 1.18314 20.9903 1.0341 21.1179C0.885066 21.2452 0.811191 21.3737 0.811191 21.5014C0.811191 21.6658 0.885066 21.7578 1.0341 21.7782C1.18314 21.7985 1.29936 21.8088 1.38464 21.8088C1.76719 21.8088 2.22391 21.7884 2.7551 21.7477C3.28668 21.7066 3.78683 21.6859 4.25506 21.6859H11.7897C13.1518 21.6859 14.434 21.4568 15.637 20.9995C16.8401 20.5418 17.8882 19.9197 18.782 19.1316C19.6754 18.344 20.383 17.4181 20.9046 16.3535C21.4262 15.2897 21.6873 14.1612 21.6873 12.9693C21.6873 11.0533 21.368 9.39801 20.7297 8.00357C20.0909 6.6098 19.2233 5.46558 18.127 4.57139C17.0308 3.67759 15.7484 3.01765 14.2804 2.5919C12.8111 2.16615 11.2368 1.95347 9.55506 1.95347L9.55498 1.95333ZM8.84889 2.90722C9.50998 2.90722 10.2141 2.98702 10.9609 3.14663C11.7073 3.30623 12.4435 3.55689 13.1688 3.89725C13.894 4.23802 14.5927 4.66337 15.2646 5.17411C15.936 5.68486 16.5289 6.29236 17.041 6.99463C17.5534 7.6973 17.9579 8.49556 18.2564 9.38936C18.5552 10.2832 18.7047 11.2734 18.7047 12.3583C18.7047 13.4444 18.5552 14.408 18.2564 15.2487C17.9579 16.089 17.5639 16.824 17.0733 17.452C16.5824 18.0801 16.0279 18.617 15.409 19.0643C14.7901 19.5116 14.1718 19.868 13.5529 20.1341C12.9345 20.4003 12.3368 20.5969 11.7609 20.7246C11.1847 20.853 10.6837 20.9166 10.2573 20.9166C9.74481 20.9166 9.24416 20.853 8.75362 20.7246C8.26228 20.5969 7.82525 20.4003 7.44111 20.1341C7.05696 19.868 6.7477 19.5331 6.51338 19.1285C6.27907 18.7243 6.16159 18.2446 6.16159 17.6908V3.9291C6.16159 3.82296 6.17725 3.70578 6.20953 3.5781C6.24141 3.45081 6.34243 3.33883 6.51338 3.24267C6.68394 3.1469 6.95084 3.06688 7.31347 3.00263C7.67569 2.93919 8.18739 2.90724 8.84889 2.90724V2.90722ZM58.7598 9.03333C57.762 9.03333 56.9015 9.24685 56.1803 9.67299C55.4586 10.0991 54.8586 10.6374 54.3808 11.2878C53.903 11.9382 53.5484 12.6628 53.3149 13.4624C53.0814 14.2616 52.9643 15.0337 52.9643 15.7798C52.9643 17.7841 53.4443 19.3662 54.4051 20.5281C55.3655 21.6897 56.7282 22.2707 58.4928 22.2707C59.3217 22.2707 60.0283 22.1476 60.6129 21.9022C61.1971 21.6568 61.6801 21.3783 62.0631 21.0687C62.4456 20.759 62.722 20.4703 62.8918 20.2045C63.0628 19.9384 63.1477 19.7738 63.1477 19.7095C63.1477 19.5395 63.0509 19.4545 62.86 19.4545C62.7325 19.4545 62.6151 19.5239 62.5095 19.6628C62.4027 19.8008 62.2539 19.9492 62.0631 20.1092C61.8718 20.2692 61.6064 20.4119 61.2661 20.54C60.9254 20.6681 60.448 20.7314 59.8315 20.7314C58.8536 20.7314 58.0612 20.5776 57.4555 20.2675C56.8498 19.9583 56.3829 19.5575 56.0533 19.0667C55.7238 18.5768 55.5007 18.0113 55.384 17.3709C55.2668 16.7313 55.209 16.0706 55.209 15.3871V14.715C55.209 14.5234 55.229 14.3736 55.27 14.2667H63.027C63.3032 14.2667 63.4778 14.2191 63.5519 14.1233C63.6256 14.0275 63.6634 13.8309 63.6634 13.5329C63.6634 13.1929 63.5783 12.767 63.4081 12.2567C63.2383 11.7459 62.9627 11.2512 62.5806 10.7728C62.1984 10.294 61.694 9.88431 61.0676 9.54395C60.4411 9.20319 59.6726 9.03333 58.7601 9.03333H58.7598ZM23.3249 9.55639C23.091 9.55639 22.9 9.56765 22.7514 9.58883C22.6024 9.61038 22.5279 9.69482 22.5279 9.84445C22.5279 9.95099 22.5911 10.0312 22.719 10.0839C22.8465 10.1373 23.1021 10.2167 23.4842 10.3233C23.6755 10.366 23.8781 10.4194 24.0901 10.4829C24.3025 10.5467 24.4089 10.6963 24.4089 10.9305C24.4089 11.3994 24.4036 11.9263 24.3933 12.5116C24.3829 13.097 24.3783 13.6989 24.3783 14.3166C24.3783 14.9135 24.3727 15.5091 24.3628 16.1053C24.3524 16.7022 24.3478 17.2448 24.3478 17.7344C24.3478 18.4163 24.4056 19.0345 24.5228 19.5879C24.6399 20.1414 24.8413 20.6202 25.1286 21.0256C25.4159 21.4302 25.8092 21.7378 26.3085 21.9509C26.8082 22.1635 27.4306 22.2707 28.1745 22.2707C28.8129 22.2707 29.3815 22.1708 29.8812 21.9721C30.3809 21.7734 30.8165 21.5521 31.1887 21.3075C31.5605 21.0629 31.8639 20.8444 32.0978 20.6528C32.3317 20.4617 32.5122 20.3654 32.6401 20.3654C32.7891 20.3654 32.863 20.4933 32.863 20.7482V21.4827C32.863 21.6319 32.873 21.7537 32.8941 21.8499C32.9144 21.946 32.9866 21.9933 33.1102 21.9933C33.2604 21.9933 33.6573 21.9307 34.3013 21.805C34.9453 21.6789 35.83 21.5316 36.9569 21.3636C37.1904 21.3209 37.3556 21.2797 37.4513 21.237C37.5461 21.1955 37.5951 21.1112 37.5951 20.9852C37.5951 20.8172 37.472 20.7228 37.2277 20.7021C36.9831 20.6806 36.5528 20.6697 35.9364 20.6697C35.7877 20.6697 35.6119 20.6283 35.4103 20.5425C35.2078 20.4575 35.1077 20.2446 35.1077 19.9034C35.1077 18.2854 35.1278 16.6732 35.1693 15.0662C35.2099 13.4585 35.2309 11.8455 35.2309 10.2273C35.2309 9.92962 35.1455 9.74368 34.9738 9.66867C34.8036 9.59405 34.6649 9.55644 34.5585 9.55644C34.2377 9.55644 33.9233 9.56725 33.6133 9.5876C33.3041 9.60795 32.9892 9.61817 32.67 9.61817C32.3934 9.61817 32.1222 9.60795 31.8568 9.5876C31.5906 9.56725 31.32 9.55644 31.0443 9.55644C30.8741 9.55644 30.7145 9.57316 30.5654 9.60508C30.4168 9.637 30.3425 9.70552 30.3425 9.81206C30.3425 9.93975 30.4646 10.0459 30.7093 10.1313C30.9535 10.2163 31.1396 10.2806 31.2672 10.3233C31.6497 10.4298 31.9474 10.5096 32.1594 10.5627C32.3718 10.6162 32.5366 10.6638 32.6538 10.7061C32.7705 10.7484 32.8454 10.8017 32.8773 10.8663C32.9088 10.9298 32.9253 11.0046 32.9253 11.0895C32.9253 12.2387 32.9145 13.3773 32.8941 14.5049C32.873 15.6333 32.863 16.7717 32.863 17.9221C32.863 18.2409 32.8257 18.5718 32.7516 18.9121C32.6778 19.2529 32.5131 19.5556 32.2584 19.8218C32.0042 20.0875 31.6269 20.3054 31.1284 20.4758C30.6298 20.6466 29.935 20.7321 29.0444 20.7321C28.2593 20.7321 27.6438 20.5557 27.1982 20.2046C26.7523 19.8535 26.5301 19.3483 26.5301 18.6883C26.5301 17.2622 26.5401 15.8417 26.5613 14.4264C26.5812 13.0107 26.5911 11.5901 26.5911 10.1633C26.5911 9.92991 26.5648 9.77053 26.5114 9.68515C26.4576 9.59976 26.3238 9.55672 26.1098 9.55672C25.8747 9.55672 25.6393 9.56753 25.4038 9.58788C25.1686 9.60823 24.9332 9.61845 24.6977 9.61845C24.4626 9.61845 24.233 9.60823 24.0103 9.58788C23.7875 9.56753 23.5583 9.55672 23.3247 9.55672L23.3249 9.55639ZM59.2133 9.80266C59.8935 9.80266 60.4565 9.989 60.9032 10.3613C61.3491 10.7336 61.5725 11.1957 61.5725 11.7491C61.5725 12.0472 61.5358 12.2914 61.4604 12.4829C61.3863 12.6745 61.2326 12.8335 60.9991 12.9611C60.7651 13.0888 60.4351 13.1799 60.0103 13.233C59.5851 13.2864 59.0218 13.3127 58.3204 13.3127C57.6402 13.3127 57.1139 13.3069 56.7421 13.2966C56.3703 13.2862 56.0938 13.2701 55.9133 13.2486C55.7328 13.2278 55.6258 13.2007 55.5939 13.1687C55.5628 13.1372 55.5466 13.0892 55.5466 13.0253C55.5466 12.7704 55.6317 12.462 55.8019 12.1001C55.9716 11.7386 56.2103 11.3874 56.5192 11.0471C56.8276 10.7071 57.2102 10.4149 57.6673 10.1699C58.124 9.92566 58.6395 9.80265 59.2133 9.80265L59.2133 9.80266ZM42.872 24.1908C42.2328 24.1908 41.7276 24.5581 41.7276 25.1591C41.7276 25.7799 42.0788 25.9633 42.8128 26.1815C43.3926 26.3555 43.5961 26.4895 43.5961 26.7576C43.5961 27.0956 43.3634 27.2639 42.8776 27.2639C42.5504 27.2639 42.2079 27.1052 41.9748 26.8518L41.6037 27.2141C41.8954 27.5568 42.3321 27.7751 42.8378 27.7751C43.7252 27.7751 44.121 27.348 44.121 26.7227C44.121 26.1023 43.6952 25.8836 43.0102 25.6753C42.4109 25.497 42.2525 25.3775 42.2525 25.1342C42.2525 24.9011 42.4259 24.7021 42.8328 24.7021C43.1747 24.7021 43.4224 24.8116 43.6403 25.035L44.0077 24.6622C43.7005 24.3645 43.3426 24.1909 42.872 24.1909L42.872 24.1908ZM2.54477 24.2451V26.2613C2.54477 27.219 2.99104 27.7751 3.84859 27.7751C4.71132 27.7751 5.18231 27.2445 5.18231 26.2713V24.2451H4.66116V26.2813C4.66116 26.9165 4.40371 27.2532 3.85856 27.2532C3.33773 27.2532 3.06532 26.9013 3.06532 26.2457V24.245H2.54481L2.54477 24.2451ZM16.5649 24.2451V27.7203H17.0854V24.2451H16.5649ZM48.3935 24.2451V27.7203H48.914V24.2451H48.3935ZM59.5425 24.2451L60.7871 26.3455V27.7203H61.3083V26.3455L62.5517 24.2451H61.9521L61.4066 25.2083C61.2831 25.4322 61.1092 25.765 61.0498 25.8935C60.9901 25.765 60.8122 25.4174 60.6931 25.204L60.1526 24.2451H59.5425L59.5425 24.2451ZM9.53191 24.2459V27.7204H10.0369V25.9186C10.0369 25.7251 10.0325 25.2432 10.0325 25.1143C10.0867 25.2037 10.2062 25.4125 10.2903 25.5414L11.6732 27.7204H12.1694V24.2459H11.6632V26.0377C11.6632 26.2316 11.6688 26.7276 11.6688 26.8569C11.619 26.7675 11.4705 26.5097 11.3812 26.3656L10.0624 24.2459H9.53194H9.53191ZM21.2667 24.2459L22.4709 27.7204H23.0213L24.2111 24.2459H23.6563L22.9421 26.4548C22.8776 26.6583 22.778 26.9708 22.7485 27.0957C22.7186 26.9708 22.6196 26.6632 22.5555 26.4597L21.8314 24.2458H21.2666L21.2667 24.2459ZM28.3654 24.2459V27.7204H30.676V27.2141H28.8865V26.1175H29.8827V25.6112H28.8865V24.7521H30.6013V24.2458H28.3654V24.2459ZM34.8851 24.2459V27.7204H35.3957V26.3457H36.1789L36.8676 27.7204H37.4684L36.7592 26.3008C37.2302 26.1815 37.5226 25.8391 37.5226 25.2833C37.5226 24.5679 37.0123 24.2459 36.4074 24.2459H34.8851ZM53.0949 24.2459V24.7571H54.1061V27.7204H54.6266V24.7571H55.6378V24.2459H53.0949H53.0949ZM35.3955 24.7371H36.4073C36.7592 24.7371 36.997 24.9359 36.997 25.2982C36.997 25.6757 36.7544 25.8544 36.4073 25.8544H35.3955V24.7371Z" fill="#A2B5CD"/>
</svg>
