<svg width="762" height="572" viewBox="0 0 762 572" fill="none" xmlns="http://www.w3.org/2000/svg">
<g filter="url(#filter0_dd)">
<rect x="40" y="38" width="682" height="492" rx="10" fill="white"/>
</g>
<mask id="mask0" mask-type="alpha" maskUnits="userSpaceOnUse" x="40" y="38" width="682" height="492">
<rect x="40" y="38" width="682" height="492" rx="10" fill="white"/>
</mask>
<g mask="url(#mask0)">
<rect x="40" y="38" width="61" height="492" fill="#172940"/>
<path opacity="0.25" d="M93.7628 102.743H47.8813V104.655H93.7628V102.743Z" fill="#8196B1"/>
<path opacity="0.5" d="M722 213L722 144L101 144L101 213L722 213Z" fill="#F0F4F9"/>
<path d="M722 68L722 38L101 38L101 68L722 68Z" fill="#F0F4F9"/>
<path d="M722 68L722 38L586 38L586 68L722 68Z" fill="#E4EAF1"/>
<path d="M722 562L722 514L101 514L101 562L722 562Z" fill="#F0F4F9"/>
<path d="M722 562L722 514L586 514L586 562L722 562Z" fill="#E4EAF1"/>
</g>
<path d="M416.586 241H324.823C322.712 241 321 242.712 321 244.824V252.473C321 254.585 322.712 256.297 324.823 256.297H416.586C418.698 256.297 420.41 254.585 420.41 252.473V244.824C420.41 242.712 418.698 241 416.586 241Z" fill="#F0F4F9"/>
<path d="M473.586 101H381.823C379.712 101 378 102.712 378 104.824V112.473C378 114.585 379.712 116.297 381.823 116.297H473.586C475.698 116.297 477.41 114.585 477.41 112.473V104.824C477.41 102.712 475.698 101 473.586 101Z" fill="#F0F4F9"/>
<path d="M367.411 109.209C367.411 99.7049 359.708 92 350.206 92C340.703 92 333 99.7049 333 109.209C333 118.714 340.703 126.419 350.206 126.419C359.708 126.419 367.411 118.714 367.411 109.209Z" fill="#F0F4F9"/>
<path fill-rule="evenodd" clip-rule="evenodd" d="M401.403 187.603C400.866 187.073 400.866 186.213 401.403 185.683L408.68 178.5L401.403 171.317C400.866 170.787 400.866 169.927 401.403 169.397C401.94 168.868 402.81 168.868 403.347 169.397L411.597 177.54C412.134 178.07 412.134 178.93 411.597 179.46L403.347 187.603C402.81 188.132 401.94 188.132 401.403 187.603Z" fill="#A2B5CD"/>
<path d="M359.159 165H315.841C314.272 165 313 165.26 313 165.58V174.42C313 174.74 314.272 175 315.841 175H359.159C360.728 175 362 174.74 362 174.42V165.58C362 165.26 360.728 165 359.159 165Z" fill="#A2B5CD"/>
<path d="M370.308 182H305.692C304.205 182 303 183.119 303 184.5V189.5C303 190.881 304.205 192 305.692 192H370.308C371.795 192 373 190.881 373 189.5V184.5C373 183.119 371.795 182 370.308 182Z" fill="#A2B5CD"/>
<path d="M497.159 165H453.841C452.272 165 451 165.26 451 165.58V174.42C451 174.74 452.272 175 453.841 175H497.159C498.728 175 500 174.74 500 174.42V165.58C500 165.26 498.728 165 497.159 165Z" fill="#A2B5CD"/>
<path d="M508.308 182H443.692C442.205 182 441 183.119 441 184.5V189.5C441 190.881 442.205 192 443.692 192H508.308C509.795 192 511 190.881 511 189.5V184.5C511 183.119 509.795 182 508.308 182Z" fill="#A2B5CD"/>
<path d="M70.2437 75.9574C69.7655 75.9574 69.3779 75.5698 69.3779 75.0916C69.3779 74.6134 69.7655 74.2258 70.2437 74.2258C70.7219 74.2258 71.1096 74.6134 71.1096 75.0916C71.1096 75.5698 70.7219 75.9574 70.2437 75.9574ZM81.7356 70.5554C81.1813 69.2619 79.2719 68.7999 77.2393 69.6622C75.2068 70.5246 72.5891 71.664 70.1869 71.2944C67.7848 70.9249 65.6291 68.492 66.707 65.0736C66.707 65.0736 67.7848 66.9214 70.8337 67.9069C73.8826 68.8923 77.6089 67.5065 79.4875 65.6279C79.4875 65.6279 76.5618 65.7203 74.4677 63.1642C72.3735 60.6081 70.9569 60.639 70.0638 60.9777C70.0638 60.9777 70.9261 59.7766 70.4025 57.8057C69.879 55.8347 69.725 54.6336 70.6797 53.0938C70.6797 53.0938 67.9389 53.063 65.8755 55.1264C63.8121 57.1897 63.9866 61.0188 64.3459 62.0761C64.3459 62.0761 60.1166 66.3505 60.1987 72.5078C60.2808 78.665 62.2717 80.5128 62.2717 80.5128C62.2717 80.5128 60.2089 84.075 63.5042 86.9083C63.5042 86.9083 66.4606 82.0116 70.6797 78.3469C74.8988 74.6821 78.3788 73.8197 82.2591 73.789C82.2591 73.789 82.29 71.8489 81.7356 70.5554Z" fill="#49C8F4"/>
<path d="M71.2319 86.1527C71.0504 86.1527 70.8725 86.1475 70.7012 86.1373C70.7871 85.4629 71.2373 82.2748 72.2988 80.2125C73.7803 77.3345 76.058 75.5892 79.6807 75.02C78.9733 75.586 77.4298 76.9955 76.044 79.4473C74.3688 82.4111 74.2649 85.1506 74.2619 85.6965C73.8926 85.7944 72.7457 86.1527 71.2319 86.1527Z" fill="#478AC9"/>
<path d="M75.5281 85.2085C75.5667 84.4738 75.8018 81.9659 77.2278 79.5723C78.6019 77.2658 80.3723 75.5682 82.1099 74.8833C82.0543 79.3663 79.8994 82.7472 75.5281 85.2085Z" fill="#478AC9"/>
<path d="M69.5408 85.9814C67.7652 85.59 66.631 85.0623 66.2688 84.7379C67.3854 83.2461 69.5489 80.9231 71.5763 79.1174C71.514 79.2275 69.975 82.2434 69.5408 85.9814Z" fill="#478AC9"/>
<path d="M63.6866 78.8221C63.6866 78.8221 58.3972 73.0368 62.3564 64.7832C61.2717 66.6299 60.1561 69.3151 60.1987 72.5063C60.2808 78.6636 62.2717 80.5113 62.2717 80.5113C62.8623 79.6856 63.1567 79.293 63.6866 78.8221Z" fill="#39A8DF"/>
<path d="M61.6646 82.519C61.5288 83.7807 61.7994 85.4415 63.5042 86.9073C63.5042 86.9073 65.6624 83.3332 68.9221 80.0067L68.9225 80.0061C68.2185 80.7032 64.4323 84.5137 63.6866 84.9258C62.9748 85.3191 61.4959 84.2997 61.6646 82.519Z" fill="#39A8DF"/>
<path d="M61.6882 82.334C61.692 82.3098 61.6947 82.2861 61.6991 82.2617C61.6954 82.2856 61.6917 82.3097 61.6882 82.334Z" fill="#39A8DF"/>
<path d="M70.5942 66.8345C69.7052 66.4472 68.9821 65.7192 68.463 65.0281C67.675 63.9791 66.7068 65.075 66.7068 65.075C66.7068 65.075 67.7847 66.9228 70.8335 67.9083C72.8854 68.5715 75.2441 68.1606 77.1399 67.2484C75.267 67.9174 72.5761 67.6979 70.5942 66.8345Z" fill="#39A8DF"/>
<path d="M66.4447 54.6191C66.2512 54.7721 66.0606 54.94 65.8756 55.1251C63.8122 57.1884 63.9867 61.0175 64.346 62.0748C64.346 62.0748 65.178 61.229 65.028 60.2671C64.8133 58.8921 64.7539 56.5218 66.4447 54.6191Z" fill="#39A8DF"/>
<path d="M70.8223 80.8521C70.0886 82.0182 69.2796 84.7588 68.8381 85.014C68.3966 85.269 67.2976 85.4162 66.2688 84.7366C66.631 85.061 67.7652 85.5887 69.5408 85.9801C69.7783 83.9356 70.3463 82.1072 70.8223 80.8521Z" fill="#55A9DE"/>
<path d="M74.2619 85.6965C74.2649 85.1506 74.3688 82.4111 76.044 79.4473C77.4298 76.9955 78.9733 75.5861 79.6807 75.02C74.6864 78.2017 73.6068 84.6874 73.3418 85.1289C73.0769 85.5704 71.6298 86.1373 70.7012 86.1373C70.8725 86.1475 71.0504 86.1527 71.2319 86.1527C72.7457 86.1527 73.8926 85.7944 74.2619 85.6965Z" fill="#55A9DE"/>
<path d="M79.906 80.3136C78.4958 82.5465 75.7006 83.8247 75.6901 83.8295C75.5811 84.4575 75.5419 84.9463 75.5281 85.2085C79.8994 82.7472 82.0543 79.3662 82.1099 74.8833C82.1099 74.8833 81.319 78.0764 79.906 80.3136Z" fill="#55A9DE"/>
<path d="M199.462 442H138.538C137.137 442 136 443.119 136 444.5V449.5C136 450.881 137.137 452 138.538 452H199.462C200.863 452 202 450.881 202 449.5V444.5C202 443.119 200.863 442 199.462 442Z" fill="#F0F4F9"/>
<path d="M199.462 461H138.538C137.137 461 136 462.119 136 463.5V468.5C136 469.881 137.137 471 138.538 471H199.462C200.863 471 202 469.881 202 468.5V463.5C202 462.119 200.863 461 199.462 461Z" fill="#F0F4F9"/>
<path d="M284.462 442H223.538C222.137 442 221 443.119 221 444.5V449.5C221 450.881 222.137 452 223.538 452H284.462C285.863 452 287 450.881 287 449.5V444.5C287 443.119 285.863 442 284.462 442Z" fill="#F0F4F9"/>
<path d="M284.462 461H223.538C222.137 461 221 462.119 221 463.5V468.5C221 469.881 222.137 471 223.538 471H284.462C285.863 471 287 469.881 287 468.5V463.5C287 462.119 285.863 461 284.462 461Z" fill="#F0F4F9"/>
<path d="M241.462 366H180.538C179.137 366 178 367.007 178 368.25V372.75C178 373.993 179.137 375 180.538 375H241.462C242.863 375 244 373.993 244 372.75V368.25C244 367.007 242.863 366 241.462 366Z" fill="#F0F4F9"/>
<path d="M231.308 379H190.692C189.758 379 189 380.007 189 381.25V385.75C189 386.993 189.758 388 190.692 388H231.308C232.242 388 233 386.993 233 385.75V381.25C233 380.007 232.242 379 231.308 379Z" fill="#F0F4F9"/>
<path d="M234.87 321H187.13C185.402 321 184 321.908 184 323.029V353.971C184 355.092 185.402 356 187.13 356H234.87C236.598 356 238 355.092 238 353.971V323.029C238 321.908 236.598 321 234.87 321Z" fill="#E4EAF1"/>
<path d="M205.182 289.665C204.963 287.243 206.749 285.088 209.179 285.024C220.078 284.736 230.913 287.035 240.786 291.76C251.984 297.119 261.53 305.401 268.415 315.731C275.301 326.062 279.272 338.059 279.909 350.457C280.546 362.856 277.827 375.197 272.037 386.179C266.247 397.161 257.601 406.378 247.011 412.857C236.421 419.337 224.279 422.839 211.865 422.995C199.451 423.15 187.225 419.954 176.476 413.742C167 408.266 158.981 400.625 153.06 391.47C151.74 389.428 152.509 386.737 154.63 385.549C156.752 384.362 159.421 385.13 160.76 387.159C165.894 394.938 172.777 401.436 180.881 406.119C190.258 411.538 200.925 414.327 211.755 414.191C222.585 414.056 233.178 411 242.416 405.348C251.655 399.695 259.198 391.654 264.249 382.073C269.3 372.492 271.673 361.726 271.117 350.909C270.561 340.093 267.096 329.626 261.089 320.614C255.082 311.602 246.755 304.377 236.985 299.701C228.542 295.661 219.292 293.654 209.973 293.813C207.542 293.854 205.401 292.086 205.182 289.665Z" fill="#68B0F4"/>
<rect x="321" y="281" width="150" height="10" rx="5" fill="#F0F4F9"/>
<rect x="492" y="281" width="42" height="10" rx="4" fill="#E4EAF1"/>
<rect x="596" y="281" width="42" height="10" rx="4" fill="#E4EAF1"/>
<rect x="544" y="281" width="42" height="10" rx="4" fill="#E4EAF1"/>
<rect x="648" y="281" width="42" height="10" rx="4" fill="#E4EAF1"/>
<rect x="321" y="281" width="109" height="10" rx="5" fill="#CCE6FF"/>
<rect x="321" y="311" width="150" height="10" rx="5" fill="#F0F4F9"/>
<rect x="492" y="311" width="42" height="10" rx="4" fill="#E4EAF1"/>
<rect x="596" y="311" width="42" height="10" rx="4" fill="#E4EAF1"/>
<rect x="544" y="311" width="42" height="10" rx="4" fill="#E4EAF1"/>
<rect x="648" y="311" width="42" height="10" rx="4" fill="#E4EAF1"/>
<rect x="321" y="311" width="99" height="10" rx="5" fill="#CCE6FF"/>
<rect x="321" y="341" width="150" height="10" rx="5" fill="#F0F4F9"/>
<rect x="492" y="341" width="42" height="10" rx="4" fill="#E4EAF1"/>
<rect x="596" y="341" width="42" height="10" rx="4" fill="#E4EAF1"/>
<rect x="544" y="341" width="42" height="10" rx="4" fill="#E4EAF1"/>
<rect x="648" y="341" width="42" height="10" rx="4" fill="#E4EAF1"/>
<rect x="321" y="341" width="94" height="10" rx="5" fill="#CCE6FF"/>
<rect x="321" y="371" width="150" height="10" rx="5" fill="#F0F4F9"/>
<rect x="492" y="371" width="42" height="10" rx="4" fill="#E4EAF1"/>
<rect x="596" y="371" width="42" height="10" rx="4" fill="#E4EAF1"/>
<rect x="544" y="371" width="42" height="10" rx="4" fill="#E4EAF1"/>
<rect x="648" y="371" width="42" height="10" rx="4" fill="#E4EAF1"/>
<rect x="321" y="371" width="88" height="10" rx="5" fill="#CCE6FF"/>
<rect x="321" y="401" width="150" height="10" rx="5" fill="#F0F4F9"/>
<rect x="492" y="401" width="42" height="10" rx="4" fill="#E4EAF1"/>
<rect x="596" y="401" width="42" height="10" rx="4" fill="#E4EAF1"/>
<rect x="544" y="401" width="42" height="10" rx="4" fill="#E4EAF1"/>
<rect x="648" y="401" width="42" height="10" rx="4" fill="#E4EAF1"/>
<rect x="321" y="401" width="82" height="10" rx="5" fill="#CCE6FF"/>
<rect x="321" y="431" width="150" height="10" rx="5" fill="#F0F4F9"/>
<rect x="492" y="431" width="42" height="10" rx="4" fill="#E4EAF1"/>
<rect x="596" y="431" width="42" height="10" rx="4" fill="#E4EAF1"/>
<rect x="544" y="431" width="42" height="10" rx="4" fill="#E4EAF1"/>
<rect x="648" y="431" width="42" height="10" rx="4" fill="#E4EAF1"/>
<rect x="321" y="431" width="78" height="10" rx="5" fill="#CCE6FF"/>
<rect x="321" y="461" width="150" height="10" rx="5" fill="#F0F4F9"/>
<rect x="492" y="461" width="42" height="10" rx="4" fill="#E4EAF1"/>
<rect x="596" y="461" width="42" height="10" rx="4" fill="#E4EAF1"/>
<rect x="544" y="461" width="42" height="10" rx="4" fill="#E4EAF1"/>
<rect x="648" y="461" width="42" height="10" rx="4" fill="#E4EAF1"/>
<rect x="321" y="461" width="74" height="10" rx="5" fill="#CCE6FF"/>
<path fill-rule="evenodd" clip-rule="evenodd" d="M211 453L211 441L213 441L213 453L211 453Z" fill="#F0F4F9"/>
<path fill-rule="evenodd" clip-rule="evenodd" d="M211 472L211 460L213 460L213 472L211 472Z" fill="#F0F4F9"/>
<defs>
<filter id="filter0_dd" x="0" y="0" width="762" height="572" filterUnits="userSpaceOnUse" color-interpolation-filters="sRGB">
<feFlood flood-opacity="0" result="BackgroundImageFix"/>
<feColorMatrix in="SourceAlpha" type="matrix" values="0 0 0 0 0 0 0 0 0 0 0 0 0 0 0 0 0 0 127 0"/>
<feOffset dy="2"/>
<feGaussianBlur stdDeviation="20"/>
<feColorMatrix type="matrix" values="0 0 0 0 0.0901961 0 0 0 0 0.160784 0 0 0 0 0.25098 0 0 0 0.05 0"/>
<feBlend mode="normal" in2="BackgroundImageFix" result="effect1_dropShadow"/>
<feColorMatrix in="SourceAlpha" type="matrix" values="0 0 0 0 0 0 0 0 0 0 0 0 0 0 0 0 0 0 127 0"/>
<feOffset dy="5"/>
<feGaussianBlur stdDeviation="5"/>
<feColorMatrix type="matrix" values="0 0 0 0 0.0901961 0 0 0 0 0.160784 0 0 0 0 0.25098 0 0 0 0.1 0"/>
<feBlend mode="normal" in2="effect1_dropShadow" result="effect2_dropShadow"/>
<feBlend mode="normal" in="SourceGraphic" in2="effect2_dropShadow" result="shape"/>
</filter>
</defs>
</svg>
