<svg width="521" height="288" viewBox="0 0 521 288" fill="none" xmlns="http://www.w3.org/2000/svg">
<path d="M3.584 150.184H5.06V161.74H11.486V163H3.584V150.184ZM16.939 163.126C16.087 163.126 15.337 162.934 14.689 162.55C14.041 162.166 13.537 161.62 13.177 160.912C12.829 160.204 12.655 159.376 12.655 158.428C12.655 157.48 12.829 156.652 13.177 155.944C13.537 155.236 14.041 154.69 14.689 154.306C15.337 153.922 16.087 153.73 16.939 153.73C17.791 153.73 18.541 153.922 19.189 154.306C19.837 154.69 20.335 155.236 20.683 155.944C21.043 156.652 21.223 157.48 21.223 158.428C21.223 159.376 21.043 160.204 20.683 160.912C20.335 161.62 19.837 162.166 19.189 162.55C18.541 162.934 17.791 163.126 16.939 163.126ZM16.939 161.92C17.839 161.92 18.529 161.626 19.009 161.038C19.489 160.438 19.729 159.568 19.729 158.428C19.729 157.324 19.483 156.472 18.991 155.872C18.499 155.26 17.815 154.954 16.939 154.954C16.051 154.954 15.361 155.26 14.869 155.872C14.377 156.472 14.131 157.324 14.131 158.428C14.131 159.568 14.371 160.438 14.851 161.038C15.343 161.626 16.039 161.92 16.939 161.92ZM27.7078 153.73C28.0078 153.73 28.2838 153.766 28.5358 153.838L28.4998 155.17C28.2238 155.074 27.9058 155.026 27.5458 155.026C26.6698 155.026 26.0158 155.302 25.5838 155.854C25.1638 156.394 24.9538 157.054 24.9538 157.834V163H23.4958V156.484C23.4958 155.548 23.4478 154.702 23.3518 153.946H24.7378L24.8818 155.62C25.1098 155.008 25.4758 154.54 25.9798 154.216C26.4838 153.892 27.0598 153.73 27.7078 153.73ZM37.4195 158.428H30.7775C30.7895 159.58 31.0535 160.45 31.5695 161.038C32.0975 161.626 32.8595 161.92 33.8555 161.92C34.9115 161.92 35.8835 161.566 36.7715 160.858L37.2575 161.92C36.8615 162.292 36.3515 162.586 35.7275 162.802C35.1155 163.018 34.4855 163.126 33.8375 163.126C32.4215 163.126 31.3115 162.712 30.5075 161.884C29.7035 161.044 29.3015 159.898 29.3015 158.446C29.3015 157.522 29.4815 156.706 29.8415 155.998C30.2015 155.278 30.7055 154.72 31.3535 154.324C32.0015 153.928 32.7395 153.73 33.5675 153.73C34.7675 153.73 35.7095 154.126 36.3935 154.918C37.0775 155.698 37.4195 156.778 37.4195 158.158V158.428ZM33.5855 154.864C32.8295 154.864 32.2115 155.092 31.7315 155.548C31.2635 156.004 30.9635 156.646 30.8315 157.474H36.1055C36.0335 156.622 35.7815 155.974 35.3495 155.53C34.9295 155.086 34.3415 154.864 33.5855 154.864ZM49.6765 153.73C51.6805 153.73 52.6825 154.924 52.6825 157.312V163H51.2245V157.384C51.2245 156.532 51.0745 155.914 50.7745 155.53C50.4865 155.146 50.0125 154.954 49.3525 154.954C48.5845 154.954 47.9845 155.212 47.5525 155.728C47.1205 156.244 46.9045 156.946 46.9045 157.834V163H45.4465V157.384C45.4465 156.544 45.2965 155.932 44.9965 155.548C44.6965 155.152 44.2165 154.954 43.5565 154.954C42.7885 154.954 42.1825 155.212 41.7385 155.728C41.3065 156.244 41.0905 156.946 41.0905 157.834V163H39.6325V156.484C39.6325 155.548 39.5845 154.702 39.4885 153.946H40.8745L41.0185 155.53C41.2705 154.954 41.6425 154.51 42.1345 154.198C42.6385 153.886 43.2205 153.73 43.8805 153.73C44.6005 153.73 45.1885 153.874 45.6445 154.162C46.1005 154.45 46.4365 154.894 46.6525 155.494C46.9285 154.954 47.3305 154.528 47.8585 154.216C48.3985 153.892 49.0045 153.73 49.6765 153.73ZM60.1462 153.946H61.6042V163H60.1462V153.946ZM61.7842 150.112V151.768H60.0022V150.112H61.7842ZM68.9533 153.73C69.7453 153.73 70.4473 153.928 71.0593 154.324C71.6713 154.72 72.1453 155.278 72.4813 155.998C72.8173 156.706 72.9853 157.528 72.9853 158.464C72.9853 159.4 72.8173 160.222 72.4813 160.93C72.1453 161.626 71.6713 162.166 71.0593 162.55C70.4593 162.934 69.7573 163.126 68.9533 163.126C68.2453 163.126 67.6273 162.97 67.0993 162.658C66.5713 162.346 66.1693 161.902 65.8933 161.326V166.888H64.4353V156.484C64.4353 155.548 64.3873 154.702 64.2913 153.946H65.6772L65.8213 155.692C66.0733 155.068 66.4693 154.588 67.0093 154.252C67.5613 153.904 68.2093 153.73 68.9533 153.73ZM68.6833 161.92C69.5713 161.92 70.2553 161.62 70.7353 161.02C71.2273 160.42 71.4733 159.568 71.4733 158.464C71.4733 157.36 71.2273 156.502 70.7353 155.89C70.2433 155.266 69.5593 154.954 68.6833 154.954C67.7833 154.954 67.0933 155.254 66.6133 155.854C66.1333 156.454 65.8933 157.312 65.8933 158.428C65.8933 159.544 66.1333 160.408 66.6133 161.02C67.0933 161.62 67.7833 161.92 68.6833 161.92ZM78.2882 163.126C76.7642 163.126 75.5582 162.736 74.6702 161.956L75.1562 160.876C75.6482 161.26 76.1462 161.536 76.6502 161.704C77.1542 161.872 77.7182 161.956 78.3422 161.956C79.0262 161.956 79.5422 161.842 79.8902 161.614C80.2502 161.374 80.4302 161.032 80.4302 160.588C80.4302 160.228 80.3102 159.94 80.0702 159.724C79.8302 159.508 79.4342 159.34 78.8822 159.22L77.3522 158.86C76.5962 158.692 76.0082 158.392 75.5882 157.96C75.1802 157.528 74.9762 157.012 74.9762 156.412C74.9762 155.62 75.2942 154.978 75.9302 154.486C76.5662 153.982 77.4062 153.73 78.4502 153.73C79.0862 153.73 79.6862 153.832 80.2502 154.036C80.8142 154.24 81.2882 154.534 81.6722 154.918L81.1862 155.98C80.3342 155.272 79.4222 154.918 78.4502 154.918C77.8022 154.918 77.2982 155.044 76.9382 155.296C76.5902 155.536 76.4162 155.878 76.4162 156.322C76.4162 156.694 76.5242 156.988 76.7402 157.204C76.9682 157.42 77.3282 157.588 77.8202 157.708L79.3502 158.086C80.1902 158.278 80.8142 158.578 81.2222 158.986C81.6302 159.382 81.8342 159.904 81.8342 160.552C81.8342 161.332 81.5162 161.956 80.8802 162.424C80.2442 162.892 79.3802 163.126 78.2882 163.126ZM91.7359 153.946V163H90.3139V161.434C90.0259 161.986 89.6239 162.406 89.1079 162.694C88.5919 162.982 88.0099 163.126 87.3619 163.126C86.2939 163.126 85.4839 162.826 84.9319 162.226C84.3799 161.626 84.1039 160.738 84.1039 159.562V153.946H85.5619V159.526C85.5619 160.342 85.7299 160.942 86.0659 161.326C86.4019 161.71 86.9119 161.902 87.5959 161.902C88.3999 161.902 89.0479 161.644 89.5399 161.128C90.0319 160.6 90.2779 159.91 90.2779 159.058V153.946H91.7359ZM104.591 153.73C106.595 153.73 107.597 154.924 107.597 157.312V163H106.139V157.384C106.139 156.532 105.989 155.914 105.689 155.53C105.401 155.146 104.927 154.954 104.267 154.954C103.499 154.954 102.899 155.212 102.467 155.728C102.035 156.244 101.819 156.946 101.819 157.834V163H100.361V157.384C100.361 156.544 100.211 155.932 99.9106 155.548C99.6106 155.152 99.1306 154.954 98.4706 154.954C97.7026 154.954 97.0966 155.212 96.6526 155.728C96.2206 156.244 96.0046 156.946 96.0046 157.834V163H94.5466V156.484C94.5466 155.548 94.4986 154.702 94.4026 153.946H95.7886L95.9326 155.53C96.1846 154.954 96.5566 154.51 97.0486 154.198C97.5526 153.886 98.1346 153.73 98.7946 153.73C99.5146 153.73 100.103 153.874 100.559 154.162C101.015 154.45 101.351 154.894 101.567 155.494C101.843 154.954 102.245 154.528 102.773 154.216C103.313 153.892 103.919 153.73 104.591 153.73ZM123.034 149.752V163H121.594V161.362C121.33 161.926 120.928 162.364 120.388 162.676C119.86 162.976 119.242 163.126 118.534 163.126C117.742 163.126 117.04 162.928 116.428 162.532C115.828 162.136 115.36 161.584 115.024 160.876C114.688 160.156 114.52 159.328 114.52 158.392C114.52 157.456 114.682 156.64 115.006 155.944C115.342 155.236 115.816 154.69 116.428 154.306C117.04 153.922 117.742 153.73 118.534 153.73C119.242 153.73 119.86 153.886 120.388 154.198C120.916 154.498 121.312 154.924 121.576 155.476V149.752H123.034ZM118.822 161.92C119.71 161.92 120.394 161.62 120.874 161.02C121.354 160.408 121.594 159.544 121.594 158.428C121.594 157.324 121.354 156.472 120.874 155.872C120.394 155.26 119.71 154.954 118.822 154.954C117.934 154.954 117.238 155.254 116.734 155.854C116.242 156.454 115.996 157.3 115.996 158.392C115.996 159.508 116.242 160.378 116.734 161.002C117.238 161.614 117.934 161.92 118.822 161.92ZM129.597 163.126C128.745 163.126 127.995 162.934 127.347 162.55C126.699 162.166 126.195 161.62 125.835 160.912C125.487 160.204 125.313 159.376 125.313 158.428C125.313 157.48 125.487 156.652 125.835 155.944C126.195 155.236 126.699 154.69 127.347 154.306C127.995 153.922 128.745 153.73 129.597 153.73C130.449 153.73 131.199 153.922 131.847 154.306C132.495 154.69 132.993 155.236 133.341 155.944C133.701 156.652 133.881 157.48 133.881 158.428C133.881 159.376 133.701 160.204 133.341 160.912C132.993 161.62 132.495 162.166 131.847 162.55C131.199 162.934 130.449 163.126 129.597 163.126ZM129.597 161.92C130.497 161.92 131.187 161.626 131.667 161.038C132.147 160.438 132.387 159.568 132.387 158.428C132.387 157.324 132.141 156.472 131.649 155.872C131.157 155.26 130.473 154.954 129.597 154.954C128.709 154.954 128.019 155.26 127.527 155.872C127.035 156.472 126.789 157.324 126.789 158.428C126.789 159.568 127.029 160.438 127.509 161.038C128.001 161.626 128.697 161.92 129.597 161.92ZM136.154 149.752H137.612V163H136.154V149.752ZM144.187 163.126C143.335 163.126 142.585 162.934 141.937 162.55C141.289 162.166 140.785 161.62 140.425 160.912C140.077 160.204 139.903 159.376 139.903 158.428C139.903 157.48 140.077 156.652 140.425 155.944C140.785 155.236 141.289 154.69 141.937 154.306C142.585 153.922 143.335 153.73 144.187 153.73C145.039 153.73 145.789 153.922 146.437 154.306C147.085 154.69 147.583 155.236 147.931 155.944C148.291 156.652 148.471 157.48 148.471 158.428C148.471 159.376 148.291 160.204 147.931 160.912C147.583 161.62 147.085 162.166 146.437 162.55C145.789 162.934 145.039 163.126 144.187 163.126ZM144.187 161.92C145.087 161.92 145.777 161.626 146.257 161.038C146.737 160.438 146.977 159.568 146.977 158.428C146.977 157.324 146.731 156.472 146.239 155.872C145.747 155.26 145.063 154.954 144.187 154.954C143.299 154.954 142.609 155.26 142.117 155.872C141.625 156.472 141.379 157.324 141.379 158.428C141.379 159.568 141.619 160.438 142.099 161.038C142.591 161.626 143.287 161.92 144.187 161.92ZM154.956 153.73C155.256 153.73 155.532 153.766 155.784 153.838L155.748 155.17C155.472 155.074 155.154 155.026 154.794 155.026C153.918 155.026 153.264 155.302 152.832 155.854C152.412 156.394 152.202 157.054 152.202 157.834V163H150.744V156.484C150.744 155.548 150.696 154.702 150.6 153.946H151.986L152.13 155.62C152.358 155.008 152.724 154.54 153.228 154.216C153.732 153.892 154.308 153.73 154.956 153.73ZM165.019 163.126C163.495 163.126 162.289 162.736 161.401 161.956L161.887 160.876C162.379 161.26 162.877 161.536 163.381 161.704C163.885 161.872 164.449 161.956 165.073 161.956C165.757 161.956 166.273 161.842 166.621 161.614C166.981 161.374 167.161 161.032 167.161 160.588C167.161 160.228 167.041 159.94 166.801 159.724C166.561 159.508 166.165 159.34 165.613 159.22L164.083 158.86C163.327 158.692 162.739 158.392 162.319 157.96C161.911 157.528 161.707 157.012 161.707 156.412C161.707 155.62 162.025 154.978 162.661 154.486C163.297 153.982 164.137 153.73 165.181 153.73C165.817 153.73 166.417 153.832 166.981 154.036C167.545 154.24 168.019 154.534 168.403 154.918L167.917 155.98C167.065 155.272 166.153 154.918 165.181 154.918C164.533 154.918 164.029 155.044 163.669 155.296C163.321 155.536 163.147 155.878 163.147 156.322C163.147 156.694 163.255 156.988 163.471 157.204C163.699 157.42 164.059 157.588 164.551 157.708L166.081 158.086C166.921 158.278 167.545 158.578 167.953 158.986C168.361 159.382 168.565 159.904 168.565 160.552C168.565 161.332 168.247 161.956 167.611 162.424C166.975 162.892 166.111 163.126 165.019 163.126ZM170.888 153.946H172.346V163H170.888V153.946ZM172.526 150.112V151.768H170.744V150.112H172.526ZM177.121 155.098V160.048C177.121 160.72 177.259 161.194 177.535 161.47C177.811 161.734 178.201 161.866 178.705 161.866C179.041 161.866 179.365 161.812 179.677 161.704V162.946C179.305 163.066 178.885 163.126 178.417 163.126C177.553 163.126 176.875 162.886 176.383 162.406C175.903 161.914 175.663 161.194 175.663 160.246V155.098H173.899V153.946H175.663V151.624L177.121 151.102V153.946H179.713V155.098H177.121ZM194.138 153.946V163H192.698V161.362C192.434 161.926 192.032 162.364 191.492 162.676C190.964 162.976 190.346 163.126 189.638 163.126C188.834 163.126 188.126 162.934 187.514 162.55C186.914 162.166 186.446 161.626 186.11 160.93C185.786 160.222 185.624 159.4 185.624 158.464C185.624 157.528 185.792 156.706 186.128 155.998C186.464 155.278 186.932 154.72 187.532 154.324C188.144 153.928 188.846 153.73 189.638 153.73C190.346 153.73 190.964 153.886 191.492 154.198C192.02 154.51 192.422 154.948 192.698 155.512V153.946H194.138ZM189.926 161.92C190.814 161.92 191.498 161.62 191.978 161.02C192.458 160.408 192.698 159.544 192.698 158.428C192.698 157.312 192.458 156.454 191.978 155.854C191.498 155.254 190.814 154.954 189.926 154.954C189.038 154.954 188.342 155.266 187.838 155.89C187.346 156.502 187.1 157.36 187.1 158.464C187.1 159.568 187.346 160.42 187.838 161.02C188.33 161.62 189.026 161.92 189.926 161.92ZM207.001 153.73C209.005 153.73 210.007 154.924 210.007 157.312V163H208.549V157.384C208.549 156.532 208.399 155.914 208.099 155.53C207.811 155.146 207.337 154.954 206.677 154.954C205.909 154.954 205.309 155.212 204.877 155.728C204.445 156.244 204.229 156.946 204.229 157.834V163H202.771V157.384C202.771 156.544 202.621 155.932 202.321 155.548C202.021 155.152 201.541 154.954 200.881 154.954C200.113 154.954 199.507 155.212 199.063 155.728C198.631 156.244 198.415 156.946 198.415 157.834V163H196.957V156.484C196.957 155.548 196.909 154.702 196.813 153.946H198.199L198.343 155.53C198.595 154.954 198.967 154.51 199.459 154.198C199.963 153.886 200.545 153.73 201.205 153.73C201.925 153.73 202.513 153.874 202.969 154.162C203.425 154.45 203.761 154.894 203.977 155.494C204.253 154.954 204.655 154.528 205.183 154.216C205.723 153.892 206.329 153.73 207.001 153.73ZM220.355 158.428H213.713C213.725 159.58 213.989 160.45 214.505 161.038C215.033 161.626 215.795 161.92 216.791 161.92C217.847 161.92 218.819 161.566 219.707 160.858L220.193 161.92C219.797 162.292 219.287 162.586 218.663 162.802C218.051 163.018 217.421 163.126 216.773 163.126C215.357 163.126 214.247 162.712 213.443 161.884C212.639 161.044 212.237 159.898 212.237 158.446C212.237 157.522 212.417 156.706 212.777 155.998C213.137 155.278 213.641 154.72 214.289 154.324C214.937 153.928 215.675 153.73 216.503 153.73C217.703 153.73 218.645 154.126 219.329 154.918C220.013 155.698 220.355 156.778 220.355 158.158V158.428ZM216.521 154.864C215.765 154.864 215.147 155.092 214.667 155.548C214.199 156.004 213.899 156.646 213.767 157.474H219.041C218.969 156.622 218.717 155.974 218.285 155.53C217.865 155.086 217.277 154.864 216.521 154.864ZM224.459 155.098V160.048C224.459 160.72 224.597 161.194 224.873 161.47C225.149 161.734 225.539 161.866 226.043 161.866C226.379 161.866 226.703 161.812 227.015 161.704V162.946C226.643 163.066 226.223 163.126 225.755 163.126C224.891 163.126 224.213 162.886 223.721 162.406C223.241 161.914 223.001 161.194 223.001 160.246V155.098H221.237V153.946H223.001V151.624L224.459 151.102V153.946H227.051V155.098H224.459ZM230.656 161.146V162.46C230.656 162.964 230.572 163.426 230.404 163.846C230.236 164.266 229.954 164.674 229.558 165.07L228.874 164.548C229.342 164.008 229.606 163.492 229.666 163H228.802V161.146H230.656ZM241.712 163.126C240.836 163.126 240.068 162.934 239.408 162.55C238.76 162.166 238.256 161.626 237.896 160.93C237.548 160.222 237.374 159.4 237.374 158.464C237.374 157.528 237.554 156.706 237.914 155.998C238.274 155.278 238.784 154.72 239.444 154.324C240.116 153.928 240.896 153.73 241.784 153.73C242.396 153.73 242.984 153.838 243.548 154.054C244.124 154.258 244.598 154.546 244.97 154.918L244.484 155.998C244.028 155.638 243.584 155.374 243.152 155.206C242.732 155.038 242.3 154.954 241.856 154.954C240.932 154.954 240.206 155.266 239.678 155.89C239.15 156.502 238.886 157.36 238.886 158.464C238.886 159.556 239.144 160.408 239.66 161.02C240.188 161.62 240.92 161.92 241.856 161.92C242.3 161.92 242.732 161.836 243.152 161.668C243.584 161.5 244.028 161.236 244.484 160.876L244.97 161.956C244.586 162.316 244.1 162.604 243.512 162.82C242.936 163.024 242.336 163.126 241.712 163.126ZM250.57 163.126C249.718 163.126 248.968 162.934 248.32 162.55C247.672 162.166 247.168 161.62 246.808 160.912C246.46 160.204 246.286 159.376 246.286 158.428C246.286 157.48 246.46 156.652 246.808 155.944C247.168 155.236 247.672 154.69 248.32 154.306C248.968 153.922 249.718 153.73 250.57 153.73C251.422 153.73 252.172 153.922 252.82 154.306C253.468 154.69 253.966 155.236 254.314 155.944C254.674 156.652 254.854 157.48 254.854 158.428C254.854 159.376 254.674 160.204 254.314 160.912C253.966 161.62 253.468 162.166 252.82 162.55C252.172 162.934 251.422 163.126 250.57 163.126ZM250.57 161.92C251.47 161.92 252.16 161.626 252.64 161.038C253.12 160.438 253.36 159.568 253.36 158.428C253.36 157.324 253.114 156.472 252.622 155.872C252.13 155.26 251.446 154.954 250.57 154.954C249.682 154.954 248.992 155.26 248.5 155.872C248.008 156.472 247.762 157.324 247.762 158.428C247.762 159.568 248.002 160.438 248.482 161.038C248.974 161.626 249.67 161.92 250.57 161.92ZM261.645 153.73C263.817 153.73 264.903 154.924 264.903 157.312V163H263.445V157.384C263.445 156.544 263.277 155.932 262.941 155.548C262.605 155.152 262.077 154.954 261.357 154.954C260.517 154.954 259.845 155.212 259.341 155.728C258.837 156.244 258.585 156.94 258.585 157.816V163H257.127V156.484C257.127 155.548 257.079 154.702 256.983 153.946H258.369L258.513 155.566C258.789 154.978 259.203 154.528 259.755 154.216C260.307 153.892 260.937 153.73 261.645 153.73ZM270.716 163.126C269.192 163.126 267.986 162.736 267.098 161.956L267.584 160.876C268.076 161.26 268.574 161.536 269.078 161.704C269.582 161.872 270.146 161.956 270.77 161.956C271.454 161.956 271.97 161.842 272.318 161.614C272.678 161.374 272.858 161.032 272.858 160.588C272.858 160.228 272.738 159.94 272.498 159.724C272.258 159.508 271.862 159.34 271.31 159.22L269.78 158.86C269.024 158.692 268.436 158.392 268.016 157.96C267.608 157.528 267.404 157.012 267.404 156.412C267.404 155.62 267.722 154.978 268.358 154.486C268.994 153.982 269.834 153.73 270.878 153.73C271.514 153.73 272.114 153.832 272.678 154.036C273.242 154.24 273.716 154.534 274.1 154.918L273.614 155.98C272.762 155.272 271.85 154.918 270.878 154.918C270.23 154.918 269.726 155.044 269.366 155.296C269.018 155.536 268.844 155.878 268.844 156.322C268.844 156.694 268.952 156.988 269.168 157.204C269.396 157.42 269.756 157.588 270.248 157.708L271.778 158.086C272.618 158.278 273.242 158.578 273.65 158.986C274.058 159.382 274.262 159.904 274.262 160.552C274.262 161.332 273.944 161.956 273.308 162.424C272.672 162.892 271.808 163.126 270.716 163.126ZM284.164 158.428H277.522C277.534 159.58 277.798 160.45 278.314 161.038C278.842 161.626 279.604 161.92 280.6 161.92C281.656 161.92 282.628 161.566 283.516 160.858L284.002 161.92C283.606 162.292 283.096 162.586 282.472 162.802C281.86 163.018 281.23 163.126 280.582 163.126C279.166 163.126 278.056 162.712 277.252 161.884C276.448 161.044 276.046 159.898 276.046 158.446C276.046 157.522 276.226 156.706 276.586 155.998C276.946 155.278 277.45 154.72 278.098 154.324C278.746 153.928 279.484 153.73 280.312 153.73C281.512 153.73 282.454 154.126 283.138 154.918C283.822 155.698 284.164 156.778 284.164 158.158V158.428ZM280.33 154.864C279.574 154.864 278.956 155.092 278.476 155.548C278.008 156.004 277.708 156.646 277.576 157.474H282.85C282.778 156.622 282.526 155.974 282.094 155.53C281.674 155.086 281.086 154.864 280.33 154.864ZM290.175 163.126C289.299 163.126 288.531 162.934 287.871 162.55C287.223 162.166 286.719 161.626 286.359 160.93C286.011 160.222 285.837 159.4 285.837 158.464C285.837 157.528 286.017 156.706 286.377 155.998C286.737 155.278 287.247 154.72 287.907 154.324C288.579 153.928 289.359 153.73 290.247 153.73C290.859 153.73 291.447 153.838 292.011 154.054C292.587 154.258 293.061 154.546 293.433 154.918L292.947 155.998C292.491 155.638 292.047 155.374 291.615 155.206C291.195 155.038 290.763 154.954 290.319 154.954C289.395 154.954 288.669 155.266 288.141 155.89C287.613 156.502 287.349 157.36 287.349 158.464C287.349 159.556 287.607 160.408 288.123 161.02C288.651 161.62 289.383 161.92 290.319 161.92C290.763 161.92 291.195 161.836 291.615 161.668C292.047 161.5 292.491 161.236 292.947 160.876L293.433 161.956C293.049 162.316 292.563 162.604 291.975 162.82C291.399 163.024 290.799 163.126 290.175 163.126ZM297.25 155.098V160.048C297.25 160.72 297.388 161.194 297.664 161.47C297.94 161.734 298.33 161.866 298.834 161.866C299.17 161.866 299.494 161.812 299.806 161.704V162.946C299.434 163.066 299.014 163.126 298.546 163.126C297.682 163.126 297.004 162.886 296.512 162.406C296.032 161.914 295.792 161.194 295.792 160.246V155.098H294.028V153.946H295.792V151.624L297.25 151.102V153.946H299.842V155.098H297.25ZM309.177 158.428H302.535C302.547 159.58 302.811 160.45 303.327 161.038C303.855 161.626 304.617 161.92 305.613 161.92C306.669 161.92 307.641 161.566 308.529 160.858L309.015 161.92C308.619 162.292 308.109 162.586 307.485 162.802C306.873 163.018 306.243 163.126 305.595 163.126C304.179 163.126 303.069 162.712 302.265 161.884C301.461 161.044 301.059 159.898 301.059 158.446C301.059 157.522 301.239 156.706 301.599 155.998C301.959 155.278 302.463 154.72 303.111 154.324C303.759 153.928 304.497 153.73 305.325 153.73C306.525 153.73 307.467 154.126 308.151 154.918C308.835 155.698 309.177 156.778 309.177 158.158V158.428ZM305.343 154.864C304.587 154.864 303.969 155.092 303.489 155.548C303.021 156.004 302.721 156.646 302.589 157.474H307.863C307.791 156.622 307.539 155.974 307.107 155.53C306.687 155.086 306.099 154.864 305.343 154.864ZM313.282 155.098V160.048C313.282 160.72 313.42 161.194 313.696 161.47C313.972 161.734 314.362 161.866 314.866 161.866C315.202 161.866 315.526 161.812 315.838 161.704V162.946C315.466 163.066 315.046 163.126 314.578 163.126C313.714 163.126 313.036 162.886 312.544 162.406C312.064 161.914 311.824 161.194 311.824 160.246V155.098H310.06V153.946H311.824V151.624L313.282 151.102V153.946H315.874V155.098H313.282ZM325.209 153.946V163H323.787V161.434C323.499 161.986 323.097 162.406 322.581 162.694C322.065 162.982 321.483 163.126 320.835 163.126C319.767 163.126 318.957 162.826 318.405 162.226C317.853 161.626 317.577 160.738 317.577 159.562V153.946H319.035V159.526C319.035 160.342 319.203 160.942 319.539 161.326C319.875 161.71 320.385 161.902 321.069 161.902C321.873 161.902 322.521 161.644 323.013 161.128C323.505 160.6 323.751 159.91 323.751 159.058V153.946H325.209ZM332.231 153.73C332.531 153.73 332.807 153.766 333.059 153.838L333.023 155.17C332.747 155.074 332.429 155.026 332.069 155.026C331.193 155.026 330.539 155.302 330.107 155.854C329.687 156.394 329.477 157.054 329.477 157.834V163H328.019V156.484C328.019 155.548 327.971 154.702 327.875 153.946H329.261L329.405 155.62C329.633 155.008 329.999 154.54 330.503 154.216C331.007 153.892 331.583 153.73 332.231 153.73ZM347.208 153.946V163H345.768V161.362C345.504 161.926 345.102 162.364 344.562 162.676C344.034 162.976 343.416 163.126 342.708 163.126C341.904 163.126 341.196 162.934 340.584 162.55C339.984 162.166 339.516 161.626 339.18 160.93C338.856 160.222 338.694 159.4 338.694 158.464C338.694 157.528 338.862 156.706 339.198 155.998C339.534 155.278 340.002 154.72 340.602 154.324C341.214 153.928 341.916 153.73 342.708 153.73C343.416 153.73 344.034 153.886 344.562 154.198C345.09 154.51 345.492 154.948 345.768 155.512V153.946H347.208ZM342.996 161.92C343.884 161.92 344.568 161.62 345.048 161.02C345.528 160.408 345.768 159.544 345.768 158.428C345.768 157.312 345.528 156.454 345.048 155.854C344.568 155.254 343.884 154.954 342.996 154.954C342.108 154.954 341.412 155.266 340.908 155.89C340.416 156.502 340.17 157.36 340.17 158.464C340.17 159.568 340.416 160.42 340.908 161.02C341.4 161.62 342.096 161.92 342.996 161.92ZM358.001 149.752V163H356.561V161.362C356.297 161.926 355.895 162.364 355.355 162.676C354.827 162.976 354.209 163.126 353.501 163.126C352.709 163.126 352.007 162.928 351.395 162.532C350.795 162.136 350.327 161.584 349.991 160.876C349.655 160.156 349.487 159.328 349.487 158.392C349.487 157.456 349.649 156.64 349.973 155.944C350.309 155.236 350.783 154.69 351.395 154.306C352.007 153.922 352.709 153.73 353.501 153.73C354.209 153.73 354.827 153.886 355.355 154.198C355.883 154.498 356.279 154.924 356.543 155.476V149.752H358.001ZM353.789 161.92C354.677 161.92 355.361 161.62 355.841 161.02C356.321 160.408 356.561 159.544 356.561 158.428C356.561 157.324 356.321 156.472 355.841 155.872C355.361 155.26 354.677 154.954 353.789 154.954C352.901 154.954 352.205 155.254 351.701 155.854C351.209 156.454 350.963 157.3 350.963 158.392C350.963 159.508 351.209 160.378 351.701 161.002C352.205 161.614 352.901 161.92 353.789 161.92ZM360.82 153.946H362.278V163H360.82V153.946ZM362.458 150.112V151.768H360.676V150.112H362.458ZM369.627 153.73C370.419 153.73 371.121 153.928 371.733 154.324C372.345 154.72 372.819 155.278 373.155 155.998C373.491 156.706 373.659 157.528 373.659 158.464C373.659 159.4 373.491 160.222 373.155 160.93C372.819 161.626 372.345 162.166 371.733 162.55C371.133 162.934 370.431 163.126 369.627 163.126C368.919 163.126 368.301 162.97 367.773 162.658C367.245 162.346 366.843 161.902 366.567 161.326V166.888H365.109V156.484C365.109 155.548 365.061 154.702 364.965 153.946H366.351L366.495 155.692C366.747 155.068 367.143 154.588 367.683 154.252C368.235 153.904 368.883 153.73 369.627 153.73ZM369.357 161.92C370.245 161.92 370.929 161.62 371.409 161.02C371.901 160.42 372.147 159.568 372.147 158.464C372.147 157.36 371.901 156.502 371.409 155.89C370.917 155.266 370.233 154.954 369.357 154.954C368.457 154.954 367.767 155.254 367.287 155.854C366.807 156.454 366.567 157.312 366.567 158.428C366.567 159.544 366.807 160.408 367.287 161.02C367.767 161.62 368.457 161.92 369.357 161.92ZM375.902 153.946H377.36V163H375.902V153.946ZM377.54 150.112V151.768H375.758V150.112H377.54ZM383.251 163.126C381.727 163.126 380.521 162.736 379.633 161.956L380.119 160.876C380.611 161.26 381.109 161.536 381.613 161.704C382.117 161.872 382.681 161.956 383.305 161.956C383.989 161.956 384.505 161.842 384.853 161.614C385.213 161.374 385.393 161.032 385.393 160.588C385.393 160.228 385.273 159.94 385.033 159.724C384.793 159.508 384.397 159.34 383.845 159.22L382.315 158.86C381.559 158.692 380.971 158.392 380.551 157.96C380.143 157.528 379.939 157.012 379.939 156.412C379.939 155.62 380.257 154.978 380.893 154.486C381.529 153.982 382.369 153.73 383.413 153.73C384.049 153.73 384.649 153.832 385.213 154.036C385.777 154.24 386.251 154.534 386.635 154.918L386.149 155.98C385.297 155.272 384.385 154.918 383.413 154.918C382.765 154.918 382.261 155.044 381.901 155.296C381.553 155.536 381.379 155.878 381.379 156.322C381.379 156.694 381.487 156.988 381.703 157.204C381.931 157.42 382.291 157.588 382.783 157.708L384.313 158.086C385.153 158.278 385.777 158.578 386.185 158.986C386.593 159.382 386.797 159.904 386.797 160.552C386.797 161.332 386.479 161.956 385.843 162.424C385.207 162.892 384.343 163.126 383.251 163.126ZM392.919 163.126C392.043 163.126 391.275 162.934 390.615 162.55C389.967 162.166 389.463 161.626 389.103 160.93C388.755 160.222 388.581 159.4 388.581 158.464C388.581 157.528 388.761 156.706 389.121 155.998C389.481 155.278 389.991 154.72 390.651 154.324C391.323 153.928 392.103 153.73 392.991 153.73C393.603 153.73 394.191 153.838 394.755 154.054C395.331 154.258 395.805 154.546 396.177 154.918L395.691 155.998C395.235 155.638 394.791 155.374 394.359 155.206C393.939 155.038 393.507 154.954 393.063 154.954C392.139 154.954 391.413 155.266 390.885 155.89C390.357 156.502 390.093 157.36 390.093 158.464C390.093 159.556 390.351 160.408 390.867 161.02C391.395 161.62 392.127 161.92 393.063 161.92C393.507 161.92 393.939 161.836 394.359 161.668C394.791 161.5 395.235 161.236 395.691 160.876L396.177 161.956C395.793 162.316 395.307 162.604 394.719 162.82C394.143 163.024 393.543 163.126 392.919 163.126ZM398.033 153.946H399.491V163H398.033V153.946ZM399.671 150.112V151.768H397.889V150.112H399.671ZM406.84 153.73C409.012 153.73 410.098 154.924 410.098 157.312V163H408.64V157.384C408.64 156.544 408.472 155.932 408.136 155.548C407.8 155.152 407.272 154.954 406.552 154.954C405.712 154.954 405.04 155.212 404.536 155.728C404.032 156.244 403.78 156.94 403.78 157.816V163H402.322V156.484C402.322 155.548 402.274 154.702 402.178 153.946H403.564L403.708 155.566C403.984 154.978 404.398 154.528 404.95 154.216C405.502 153.892 406.132 153.73 406.84 153.73ZM420.915 153.946V162.928C420.915 164.272 420.567 165.286 419.871 165.97C419.187 166.666 418.173 167.014 416.829 167.014C415.449 167.014 414.261 166.702 413.265 166.078L413.517 164.89C414.093 165.214 414.633 165.448 415.137 165.592C415.653 165.736 416.217 165.808 416.829 165.808C417.705 165.808 418.365 165.574 418.809 165.106C419.253 164.65 419.475 163.966 419.475 163.054V160.912C419.199 161.488 418.791 161.938 418.251 162.262C417.723 162.574 417.093 162.73 416.361 162.73C415.569 162.73 414.861 162.544 414.237 162.172C413.625 161.8 413.151 161.272 412.815 160.588C412.479 159.904 412.311 159.118 412.311 158.23C412.311 157.342 412.479 156.556 412.815 155.872C413.151 155.188 413.625 154.66 414.237 154.288C414.861 153.916 415.569 153.73 416.361 153.73C417.081 153.73 417.705 153.886 418.233 154.198C418.773 154.51 419.181 154.948 419.457 155.512V153.946H420.915ZM416.649 161.506C417.525 161.506 418.209 161.218 418.701 160.642C419.205 160.054 419.457 159.25 419.457 158.23C419.457 157.21 419.205 156.412 418.701 155.836C418.209 155.248 417.525 154.954 416.649 154.954C415.761 154.954 415.059 155.248 414.543 155.836C414.039 156.412 413.787 157.21 413.787 158.23C413.787 159.25 414.039 160.054 414.543 160.642C415.059 161.218 415.761 161.506 416.649 161.506ZM435.986 158.428H429.344C429.356 159.58 429.62 160.45 430.136 161.038C430.664 161.626 431.426 161.92 432.422 161.92C433.478 161.92 434.45 161.566 435.338 160.858L435.824 161.92C435.428 162.292 434.918 162.586 434.294 162.802C433.682 163.018 433.052 163.126 432.404 163.126C430.988 163.126 429.878 162.712 429.074 161.884C428.27 161.044 427.868 159.898 427.868 158.446C427.868 157.522 428.048 156.706 428.408 155.998C428.768 155.278 429.272 154.72 429.92 154.324C430.568 153.928 431.306 153.73 432.134 153.73C433.334 153.73 434.276 154.126 434.96 154.918C435.644 155.698 435.986 156.778 435.986 158.158V158.428ZM432.152 154.864C431.396 154.864 430.778 155.092 430.298 155.548C429.83 156.004 429.53 156.646 429.398 157.474H434.672C434.6 156.622 434.348 155.974 433.916 155.53C433.496 155.086 432.908 154.864 432.152 154.864ZM438.199 149.752H439.657V163H438.199V149.752ZM442.488 153.946H443.946V163H442.488V153.946ZM444.126 150.112V151.768H442.344V150.112H444.126ZM448.721 155.098V160.048C448.721 160.72 448.859 161.194 449.135 161.47C449.411 161.734 449.801 161.866 450.305 161.866C450.641 161.866 450.965 161.812 451.277 161.704V162.946C450.905 163.066 450.485 163.126 450.017 163.126C449.153 163.126 448.475 162.886 447.983 162.406C447.503 161.914 447.263 161.194 447.263 160.246V155.098H445.499V153.946H447.263V151.624L448.721 151.102V153.946H451.313V155.098H448.721ZM454.918 161.146V163H453.064V161.146H454.918ZM9.056 189.144C7.844 189.144 6.788 188.88 5.888 188.352C5 187.824 4.316 187.068 3.836 186.084C3.356 185.088 3.116 183.918 3.116 182.574C3.116 181.23 3.356 180.072 3.836 179.1C4.316 178.116 5 177.36 5.888 176.832C6.788 176.304 7.844 176.04 9.056 176.04C9.944 176.04 10.754 176.178 11.486 176.454C12.23 176.718 12.872 177.12 13.412 177.66L12.854 178.794C12.242 178.266 11.636 177.888 11.036 177.66C10.448 177.432 9.794 177.318 9.074 177.318C7.67 177.318 6.578 177.774 5.798 178.686C5.03 179.598 4.646 180.894 4.646 182.574C4.646 184.266 5.03 185.574 5.798 186.498C6.566 187.41 7.658 187.866 9.074 187.866C9.794 187.866 10.448 187.752 11.036 187.524C11.636 187.296 12.242 186.918 12.854 186.39L13.412 187.524C12.872 188.064 12.23 188.472 11.486 188.748C10.754 189.012 9.944 189.144 9.056 189.144ZM23.1109 179.946V189H21.6889V187.434C21.4009 187.986 20.9989 188.406 20.4829 188.694C19.9669 188.982 19.3849 189.126 18.7369 189.126C17.6689 189.126 16.8589 188.826 16.3069 188.226C15.7549 187.626 15.4789 186.738 15.4789 185.562V179.946H16.9369V185.526C16.9369 186.342 17.1049 186.942 17.4409 187.326C17.7769 187.71 18.2869 187.902 18.9709 187.902C19.7749 187.902 20.4229 187.644 20.9149 187.128C21.4069 186.6 21.6529 185.91 21.6529 185.058V179.946H23.1109ZM30.1336 179.73C30.4336 179.73 30.7096 179.766 30.9616 179.838L30.9256 181.17C30.6496 181.074 30.3316 181.026 29.9716 181.026C29.0956 181.026 28.4416 181.302 28.0096 181.854C27.5896 182.394 27.3796 183.054 27.3796 183.834V189H25.9216V182.484C25.9216 181.548 25.8736 180.702 25.7776 179.946H27.1636L27.3076 181.62C27.5356 181.008 27.9016 180.54 28.4056 180.216C28.9096 179.892 29.4856 179.73 30.1336 179.73ZM40.2413 179.946V189H38.8013V187.362C38.5373 187.926 38.1353 188.364 37.5953 188.676C37.0673 188.976 36.4493 189.126 35.7413 189.126C34.9373 189.126 34.2293 188.934 33.6173 188.55C33.0173 188.166 32.5493 187.626 32.2133 186.93C31.8893 186.222 31.7273 185.4 31.7273 184.464C31.7273 183.528 31.8953 182.706 32.2313 181.998C32.5673 181.278 33.0353 180.72 33.6353 180.324C34.2473 179.928 34.9493 179.73 35.7413 179.73C36.4493 179.73 37.0673 179.886 37.5953 180.198C38.1233 180.51 38.5253 180.948 38.8013 181.512V179.946H40.2413ZM36.0293 187.92C36.9173 187.92 37.6013 187.62 38.0813 187.02C38.5613 186.408 38.8013 185.544 38.8013 184.428C38.8013 183.312 38.5613 182.454 38.0813 181.854C37.6013 181.254 36.9173 180.954 36.0293 180.954C35.1413 180.954 34.4453 181.266 33.9413 181.89C33.4493 182.502 33.2033 183.36 33.2033 184.464C33.2033 185.568 33.4493 186.42 33.9413 187.02C34.4333 187.62 35.1293 187.92 36.0293 187.92ZM47.5783 179.73C48.3703 179.73 49.0723 179.922 49.6843 180.306C50.2963 180.69 50.7703 181.236 51.1063 181.944C51.4423 182.64 51.6103 183.456 51.6103 184.392C51.6103 185.328 51.4423 186.156 51.1063 186.876C50.7703 187.584 50.2963 188.136 49.6843 188.532C49.0723 188.928 48.3703 189.126 47.5783 189.126C46.8703 189.126 46.2523 188.97 45.7243 188.658C45.1963 188.346 44.7943 187.902 44.5183 187.326V189H43.0603V175.752H44.5183V181.548C44.7823 180.96 45.1783 180.51 45.7063 180.198C46.2463 179.886 46.8703 179.73 47.5783 179.73ZM47.3083 187.92C48.1843 187.92 48.8683 187.614 49.3603 187.002C49.8523 186.378 50.0983 185.508 50.0983 184.392C50.0983 183.3 49.8523 182.454 49.3603 181.854C48.8803 181.254 48.1963 180.954 47.3083 180.954C46.4083 180.954 45.7183 181.254 45.2383 181.854C44.7583 182.454 44.5183 183.312 44.5183 184.428C44.5183 185.544 44.7583 186.408 45.2383 187.02C45.7183 187.62 46.4083 187.92 47.3083 187.92ZM53.8532 179.946H55.3112V189H53.8532V179.946ZM55.4912 176.112V177.768H53.7092V176.112H55.4912ZM60.0863 181.098V186.048C60.0863 186.72 60.2243 187.194 60.5003 187.47C60.7763 187.734 61.1663 187.866 61.6703 187.866C62.0063 187.866 62.3303 187.812 62.6423 187.704V188.946C62.2703 189.066 61.8503 189.126 61.3823 189.126C60.5183 189.126 59.8403 188.886 59.3483 188.406C58.8683 187.914 58.6283 187.194 58.6283 186.246V181.098H56.8643V179.946H58.6283V177.624L60.0863 177.102V179.946H62.6783V181.098H60.0863ZM72.0133 179.946V189H70.5913V187.434C70.3033 187.986 69.9013 188.406 69.3853 188.694C68.8693 188.982 68.2873 189.126 67.6393 189.126C66.5713 189.126 65.7613 188.826 65.2093 188.226C64.6573 187.626 64.3813 186.738 64.3813 185.562V179.946H65.8393V185.526C65.8393 186.342 66.0073 186.942 66.3433 187.326C66.6793 187.71 67.1893 187.902 67.8733 187.902C68.6773 187.902 69.3253 187.644 69.8173 187.128C70.3093 186.6 70.5553 185.91 70.5553 185.058V179.946H72.0133ZM79.0359 179.73C79.3359 179.73 79.6119 179.766 79.8639 179.838L79.8279 181.17C79.5519 181.074 79.2339 181.026 78.8739 181.026C77.9979 181.026 77.3439 181.302 76.9119 181.854C76.4919 182.394 76.2819 183.054 76.2819 183.834V189H74.8239V182.484C74.8239 181.548 74.7759 180.702 74.6799 179.946H76.0659L76.2099 181.62C76.4379 181.008 76.8039 180.54 77.3079 180.216C77.8119 179.892 78.3879 179.73 79.0359 179.73ZM90.5568 179.73C91.3488 179.73 92.0508 179.928 92.6628 180.324C93.2748 180.72 93.7488 181.278 94.0848 181.998C94.4208 182.706 94.5888 183.528 94.5888 184.464C94.5888 185.4 94.4208 186.222 94.0848 186.93C93.7488 187.626 93.2748 188.166 92.6628 188.55C92.0628 188.934 91.3608 189.126 90.5568 189.126C89.8488 189.126 89.2308 188.97 88.7028 188.658C88.1748 188.346 87.7728 187.902 87.4968 187.326V192.888H86.0388V182.484C86.0388 181.548 85.9908 180.702 85.8948 179.946H87.2808L87.4248 181.692C87.6768 181.068 88.0728 180.588 88.6128 180.252C89.1648 179.904 89.8128 179.73 90.5568 179.73ZM90.2868 187.92C91.1748 187.92 91.8588 187.62 92.3388 187.02C92.8308 186.42 93.0768 185.568 93.0768 184.464C93.0768 183.36 92.8308 182.502 92.3388 181.89C91.8468 181.266 91.1628 180.954 90.2868 180.954C89.3868 180.954 88.6968 181.254 88.2168 181.854C87.7368 182.454 87.4968 183.312 87.4968 184.428C87.4968 185.544 87.7368 186.408 88.2168 187.02C88.6968 187.62 89.3868 187.92 90.2868 187.92ZM100.576 189.126C99.7237 189.126 98.9737 188.934 98.3257 188.55C97.6777 188.166 97.1737 187.62 96.8137 186.912C96.4657 186.204 96.2917 185.376 96.2917 184.428C96.2917 183.48 96.4657 182.652 96.8137 181.944C97.1737 181.236 97.6777 180.69 98.3257 180.306C98.9737 179.922 99.7237 179.73 100.576 179.73C101.428 179.73 102.178 179.922 102.826 180.306C103.474 180.69 103.972 181.236 104.32 181.944C104.68 182.652 104.86 183.48 104.86 184.428C104.86 185.376 104.68 186.204 104.32 186.912C103.972 187.62 103.474 188.166 102.826 188.55C102.178 188.934 101.428 189.126 100.576 189.126ZM100.576 187.92C101.476 187.92 102.166 187.626 102.646 187.038C103.126 186.438 103.366 185.568 103.366 184.428C103.366 183.324 103.12 182.472 102.628 181.872C102.136 181.26 101.452 180.954 100.576 180.954C99.6877 180.954 98.9977 181.26 98.5057 181.872C98.0137 182.472 97.7677 183.324 97.7677 184.428C97.7677 185.568 98.0077 186.438 98.4877 187.038C98.9797 187.626 99.6757 187.92 100.576 187.92ZM111.345 179.73C111.645 179.73 111.921 179.766 112.173 179.838L112.137 181.17C111.861 181.074 111.543 181.026 111.183 181.026C110.307 181.026 109.653 181.302 109.221 181.854C108.801 182.394 108.591 183.054 108.591 183.834V189H107.133V182.484C107.133 181.548 107.085 180.702 106.989 179.946H108.375L108.519 181.62C108.747 181.008 109.113 180.54 109.617 180.216C110.121 179.892 110.697 179.73 111.345 179.73ZM116.301 181.098V186.048C116.301 186.72 116.439 187.194 116.715 187.47C116.991 187.734 117.381 187.866 117.885 187.866C118.221 187.866 118.545 187.812 118.857 187.704V188.946C118.485 189.066 118.065 189.126 117.597 189.126C116.733 189.126 116.055 188.886 115.563 188.406C115.083 187.914 114.843 187.194 114.843 186.246V181.098H113.079V179.946H114.843V177.624L116.301 177.102V179.946H118.893V181.098H116.301ZM128.624 179.946V189H127.184V187.362C126.92 187.926 126.518 188.364 125.978 188.676C125.45 188.976 124.832 189.126 124.124 189.126C123.32 189.126 122.612 188.934 122 188.55C121.4 188.166 120.932 187.626 120.596 186.93C120.272 186.222 120.11 185.4 120.11 184.464C120.11 183.528 120.278 182.706 120.614 181.998C120.95 181.278 121.418 180.72 122.018 180.324C122.63 179.928 123.332 179.73 124.124 179.73C124.832 179.73 125.45 179.886 125.978 180.198C126.506 180.51 126.908 180.948 127.184 181.512V179.946H128.624ZM124.412 187.92C125.3 187.92 125.984 187.62 126.464 187.02C126.944 186.408 127.184 185.544 127.184 184.428C127.184 183.312 126.944 182.454 126.464 181.854C125.984 181.254 125.3 180.954 124.412 180.954C123.524 180.954 122.828 181.266 122.324 181.89C121.832 182.502 121.586 183.36 121.586 184.464C121.586 185.568 121.832 186.42 122.324 187.02C122.816 187.62 123.512 187.92 124.412 187.92ZM139.88 189.126C139.028 189.126 138.278 188.934 137.63 188.55C136.982 188.166 136.478 187.62 136.118 186.912C135.77 186.204 135.596 185.376 135.596 184.428C135.596 183.48 135.77 182.652 136.118 181.944C136.478 181.236 136.982 180.69 137.63 180.306C138.278 179.922 139.028 179.73 139.88 179.73C140.732 179.73 141.482 179.922 142.13 180.306C142.778 180.69 143.276 181.236 143.624 181.944C143.984 182.652 144.164 183.48 144.164 184.428C144.164 185.376 143.984 186.204 143.624 186.912C143.276 187.62 142.778 188.166 142.13 188.55C141.482 188.934 140.732 189.126 139.88 189.126ZM139.88 187.92C140.78 187.92 141.47 187.626 141.95 187.038C142.43 186.438 142.67 185.568 142.67 184.428C142.67 183.324 142.424 182.472 141.932 181.872C141.44 181.26 140.756 180.954 139.88 180.954C138.992 180.954 138.302 181.26 137.81 181.872C137.318 182.472 137.072 183.324 137.072 184.428C137.072 185.568 137.312 186.438 137.792 187.038C138.284 187.626 138.98 187.92 139.88 187.92ZM154.411 175.752V189H152.971V187.362C152.707 187.926 152.305 188.364 151.765 188.676C151.237 188.976 150.619 189.126 149.911 189.126C149.119 189.126 148.417 188.928 147.805 188.532C147.205 188.136 146.737 187.584 146.401 186.876C146.065 186.156 145.897 185.328 145.897 184.392C145.897 183.456 146.059 182.64 146.383 181.944C146.719 181.236 147.193 180.69 147.805 180.306C148.417 179.922 149.119 179.73 149.911 179.73C150.619 179.73 151.237 179.886 151.765 180.198C152.293 180.498 152.689 180.924 152.953 181.476V175.752H154.411ZM150.199 187.92C151.087 187.92 151.771 187.62 152.251 187.02C152.731 186.408 152.971 185.544 152.971 184.428C152.971 183.324 152.731 182.472 152.251 181.872C151.771 181.26 151.087 180.954 150.199 180.954C149.311 180.954 148.615 181.254 148.111 181.854C147.619 182.454 147.373 183.3 147.373 184.392C147.373 185.508 147.619 186.378 148.111 187.002C148.615 187.614 149.311 187.92 150.199 187.92ZM157.23 179.946H158.688V189H157.23V179.946ZM158.868 176.112V177.768H157.086V176.112H158.868ZM165.263 189.126C164.411 189.126 163.661 188.934 163.013 188.55C162.365 188.166 161.861 187.62 161.501 186.912C161.153 186.204 160.979 185.376 160.979 184.428C160.979 183.48 161.153 182.652 161.501 181.944C161.861 181.236 162.365 180.69 163.013 180.306C163.661 179.922 164.411 179.73 165.263 179.73C166.115 179.73 166.865 179.922 167.513 180.306C168.161 180.69 168.659 181.236 169.007 181.944C169.367 182.652 169.547 183.48 169.547 184.428C169.547 185.376 169.367 186.204 169.007 186.912C168.659 187.62 168.161 188.166 167.513 188.55C166.865 188.934 166.115 189.126 165.263 189.126ZM165.263 187.92C166.163 187.92 166.853 187.626 167.333 187.038C167.813 186.438 168.053 185.568 168.053 184.428C168.053 183.324 167.807 182.472 167.315 181.872C166.823 181.26 166.139 180.954 165.263 180.954C164.375 180.954 163.685 181.26 163.193 181.872C162.701 182.472 162.455 183.324 162.455 184.428C162.455 185.568 162.695 186.438 163.175 187.038C163.667 187.626 164.363 187.92 165.263 187.92ZM184.487 179.946V189H183.047V187.362C182.783 187.926 182.381 188.364 181.841 188.676C181.313 188.976 180.695 189.126 179.987 189.126C179.183 189.126 178.475 188.934 177.863 188.55C177.263 188.166 176.795 187.626 176.459 186.93C176.135 186.222 175.973 185.4 175.973 184.464C175.973 183.528 176.141 182.706 176.477 181.998C176.813 181.278 177.281 180.72 177.881 180.324C178.493 179.928 179.195 179.73 179.987 179.73C180.695 179.73 181.313 179.886 181.841 180.198C182.369 180.51 182.771 180.948 183.047 181.512V179.946H184.487ZM180.275 187.92C181.163 187.92 181.847 187.62 182.327 187.02C182.807 186.408 183.047 185.544 183.047 184.428C183.047 183.312 182.807 182.454 182.327 181.854C181.847 181.254 181.163 180.954 180.275 180.954C179.387 180.954 178.691 181.266 178.187 181.89C177.695 182.502 177.449 183.36 177.449 184.464C177.449 185.568 177.695 186.42 178.187 187.02C178.679 187.62 179.375 187.92 180.275 187.92ZM199.974 175.752V189H198.534V187.362C198.27 187.926 197.868 188.364 197.328 188.676C196.8 188.976 196.182 189.126 195.474 189.126C194.682 189.126 193.98 188.928 193.368 188.532C192.768 188.136 192.3 187.584 191.964 186.876C191.628 186.156 191.46 185.328 191.46 184.392C191.46 183.456 191.622 182.64 191.946 181.944C192.282 181.236 192.756 180.69 193.368 180.306C193.98 179.922 194.682 179.73 195.474 179.73C196.182 179.73 196.8 179.886 197.328 180.198C197.856 180.498 198.252 180.924 198.516 181.476V175.752H199.974ZM195.762 187.92C196.65 187.92 197.334 187.62 197.814 187.02C198.294 186.408 198.534 185.544 198.534 184.428C198.534 183.324 198.294 182.472 197.814 181.872C197.334 181.26 196.65 180.954 195.762 180.954C194.874 180.954 194.178 181.254 193.674 181.854C193.182 182.454 192.936 183.3 192.936 184.392C192.936 185.508 193.182 186.378 193.674 187.002C194.178 187.614 194.874 187.92 195.762 187.92ZM210.371 179.946V189H208.949V187.434C208.661 187.986 208.259 188.406 207.743 188.694C207.227 188.982 206.645 189.126 205.997 189.126C204.929 189.126 204.119 188.826 203.567 188.226C203.015 187.626 202.739 186.738 202.739 185.562V179.946H204.197V185.526C204.197 186.342 204.365 186.942 204.701 187.326C205.037 187.71 205.547 187.902 206.231 187.902C207.035 187.902 207.683 187.644 208.175 187.128C208.667 186.6 208.913 185.91 208.913 185.058V179.946H210.371ZM213.181 179.946H214.639V189H213.181V179.946ZM214.819 176.112V177.768H213.037V176.112H214.819ZM226.682 179.73C227.474 179.73 228.176 179.928 228.788 180.324C229.4 180.72 229.874 181.278 230.21 181.998C230.546 182.706 230.714 183.528 230.714 184.464C230.714 185.4 230.546 186.222 230.21 186.93C229.874 187.626 229.4 188.166 228.788 188.55C228.188 188.934 227.486 189.126 226.682 189.126C225.974 189.126 225.356 188.97 224.828 188.658C224.3 188.346 223.898 187.902 223.622 187.326V192.888H222.164V182.484C222.164 181.548 222.116 180.702 222.02 179.946H223.406L223.55 181.692C223.802 181.068 224.198 180.588 224.738 180.252C225.29 179.904 225.938 179.73 226.682 179.73ZM226.412 187.92C227.3 187.92 227.984 187.62 228.464 187.02C228.956 186.42 229.202 185.568 229.202 184.464C229.202 183.36 228.956 182.502 228.464 181.89C227.972 181.266 227.288 180.954 226.412 180.954C225.512 180.954 224.822 181.254 224.342 181.854C223.862 182.454 223.622 183.312 223.622 184.428C223.622 185.544 223.862 186.408 224.342 187.02C224.822 187.62 225.512 187.92 226.412 187.92ZM232.957 175.752H234.415V189H232.957V175.752ZM245.22 179.946V189H243.78V187.362C243.516 187.926 243.114 188.364 242.574 188.676C242.046 188.976 241.428 189.126 240.72 189.126C239.916 189.126 239.208 188.934 238.596 188.55C237.996 188.166 237.528 187.626 237.192 186.93C236.868 186.222 236.706 185.4 236.706 184.464C236.706 183.528 236.874 182.706 237.21 181.998C237.546 181.278 238.014 180.72 238.614 180.324C239.226 179.928 239.928 179.73 240.72 179.73C241.428 179.73 242.046 179.886 242.574 180.198C243.102 180.51 243.504 180.948 243.78 181.512V179.946H245.22ZM241.008 187.92C241.896 187.92 242.58 187.62 243.06 187.02C243.54 186.408 243.78 185.544 243.78 184.428C243.78 183.312 243.54 182.454 243.06 181.854C242.58 181.254 241.896 180.954 241.008 180.954C240.12 180.954 239.424 181.266 238.92 181.89C238.428 182.502 238.182 183.36 238.182 184.464C238.182 185.568 238.428 186.42 238.92 187.02C239.412 187.62 240.108 187.92 241.008 187.92ZM251.837 189.126C250.961 189.126 250.193 188.934 249.533 188.55C248.885 188.166 248.381 187.626 248.021 186.93C247.673 186.222 247.499 185.4 247.499 184.464C247.499 183.528 247.679 182.706 248.039 181.998C248.399 181.278 248.909 180.72 249.569 180.324C250.241 179.928 251.021 179.73 251.909 179.73C252.521 179.73 253.109 179.838 253.673 180.054C254.249 180.258 254.723 180.546 255.095 180.918L254.609 181.998C254.153 181.638 253.709 181.374 253.277 181.206C252.857 181.038 252.425 180.954 251.981 180.954C251.057 180.954 250.331 181.266 249.803 181.89C249.275 182.502 249.011 183.36 249.011 184.464C249.011 185.556 249.269 186.408 249.785 187.02C250.313 187.62 251.045 187.92 251.981 187.92C252.425 187.92 252.857 187.836 253.277 187.668C253.709 187.5 254.153 187.236 254.609 186.876L255.095 187.956C254.711 188.316 254.225 188.604 253.637 188.82C253.061 189.024 252.461 189.126 251.837 189.126ZM264.529 184.428H257.887C257.899 185.58 258.163 186.45 258.679 187.038C259.207 187.626 259.969 187.92 260.965 187.92C262.021 187.92 262.993 187.566 263.881 186.858L264.367 187.92C263.971 188.292 263.461 188.586 262.837 188.802C262.225 189.018 261.595 189.126 260.947 189.126C259.531 189.126 258.421 188.712 257.617 187.884C256.813 187.044 256.411 185.898 256.411 184.446C256.411 183.522 256.591 182.706 256.951 181.998C257.311 181.278 257.815 180.72 258.463 180.324C259.111 179.928 259.849 179.73 260.677 179.73C261.877 179.73 262.819 180.126 263.503 180.918C264.187 181.698 264.529 182.778 264.529 184.158V184.428ZM260.695 180.864C259.939 180.864 259.321 181.092 258.841 181.548C258.373 182.004 258.073 182.646 257.941 183.474H263.215C263.143 182.622 262.891 181.974 262.459 181.53C262.039 181.086 261.451 180.864 260.695 180.864ZM270.954 179.73C271.254 179.73 271.53 179.766 271.782 179.838L271.746 181.17C271.47 181.074 271.152 181.026 270.792 181.026C269.916 181.026 269.262 181.302 268.83 181.854C268.41 182.394 268.2 183.054 268.2 183.834V189H266.742V182.484C266.742 181.548 266.694 180.702 266.598 179.946H267.984L268.128 181.62C268.356 181.008 268.722 180.54 269.226 180.216C269.73 179.892 270.306 179.73 270.954 179.73ZM281.062 179.946V189H279.622V187.362C279.358 187.926 278.956 188.364 278.416 188.676C277.888 188.976 277.27 189.126 276.562 189.126C275.758 189.126 275.05 188.934 274.438 188.55C273.838 188.166 273.37 187.626 273.034 186.93C272.71 186.222 272.548 185.4 272.548 184.464C272.548 183.528 272.716 182.706 273.052 181.998C273.388 181.278 273.856 180.72 274.456 180.324C275.068 179.928 275.77 179.73 276.562 179.73C277.27 179.73 277.888 179.886 278.416 180.198C278.944 180.51 279.346 180.948 279.622 181.512V179.946H281.062ZM276.85 187.92C277.738 187.92 278.422 187.62 278.902 187.02C279.382 186.408 279.622 185.544 279.622 184.428C279.622 183.312 279.382 182.454 278.902 181.854C278.422 181.254 277.738 180.954 276.85 180.954C275.962 180.954 275.266 181.266 274.762 181.89C274.27 182.502 274.024 183.36 274.024 184.464C274.024 185.568 274.27 186.42 274.762 187.02C275.254 187.62 275.95 187.92 276.85 187.92ZM285.825 181.098V186.048C285.825 186.72 285.963 187.194 286.239 187.47C286.515 187.734 286.905 187.866 287.409 187.866C287.745 187.866 288.069 187.812 288.381 187.704V188.946C288.009 189.066 287.589 189.126 287.121 189.126C286.257 189.126 285.579 188.886 285.087 188.406C284.607 187.914 284.367 187.194 284.367 186.246V181.098H282.603V179.946H284.367V177.624L285.825 177.102V179.946H288.417V181.098H285.825ZM296.811 181.098V186.048C296.811 186.72 296.949 187.194 297.225 187.47C297.501 187.734 297.891 187.866 298.395 187.866C298.731 187.866 299.055 187.812 299.367 187.704V188.946C298.995 189.066 298.575 189.126 298.107 189.126C297.243 189.126 296.565 188.886 296.073 188.406C295.593 187.914 295.353 187.194 295.353 186.246V181.098H293.589V179.946H295.353V177.624L296.811 177.102V179.946H299.403V181.098H296.811ZM305.372 179.73C305.672 179.73 305.948 179.766 306.2 179.838L306.164 181.17C305.888 181.074 305.57 181.026 305.21 181.026C304.334 181.026 303.68 181.302 303.248 181.854C302.828 182.394 302.618 183.054 302.618 183.834V189H301.16V182.484C301.16 181.548 301.112 180.702 301.016 179.946H302.402L302.546 181.62C302.774 181.008 303.14 180.54 303.644 180.216C304.148 179.892 304.724 179.73 305.372 179.73ZM307.681 179.946H309.139V189H307.681V179.946ZM309.319 176.112V177.768H307.537V176.112H309.319ZM315.03 189.126C313.506 189.126 312.3 188.736 311.412 187.956L311.898 186.876C312.39 187.26 312.888 187.536 313.392 187.704C313.896 187.872 314.46 187.956 315.084 187.956C315.768 187.956 316.284 187.842 316.632 187.614C316.992 187.374 317.172 187.032 317.172 186.588C317.172 186.228 317.052 185.94 316.812 185.724C316.572 185.508 316.176 185.34 315.624 185.22L314.094 184.86C313.338 184.692 312.75 184.392 312.33 183.96C311.922 183.528 311.718 183.012 311.718 182.412C311.718 181.62 312.036 180.978 312.672 180.486C313.308 179.982 314.148 179.73 315.192 179.73C315.828 179.73 316.428 179.832 316.992 180.036C317.556 180.24 318.03 180.534 318.414 180.918L317.928 181.98C317.076 181.272 316.164 180.918 315.192 180.918C314.544 180.918 314.04 181.044 313.68 181.296C313.332 181.536 313.158 181.878 313.158 182.322C313.158 182.694 313.266 182.988 313.482 183.204C313.71 183.42 314.07 183.588 314.562 183.708L316.092 184.086C316.932 184.278 317.556 184.578 317.964 184.986C318.372 185.382 318.576 185.904 318.576 186.552C318.576 187.332 318.258 187.956 317.622 188.424C316.986 188.892 316.122 189.126 315.03 189.126ZM322.756 181.098V186.048C322.756 186.72 322.894 187.194 323.17 187.47C323.446 187.734 323.836 187.866 324.34 187.866C324.676 187.866 325 187.812 325.312 187.704V188.946C324.94 189.066 324.52 189.126 324.052 189.126C323.188 189.126 322.51 188.886 322.018 188.406C321.538 187.914 321.298 187.194 321.298 186.246V181.098H319.534V179.946H321.298V177.624L322.756 177.102V179.946H325.348V181.098H322.756ZM327.105 179.946H328.563V189H327.105V179.946ZM328.743 176.112V177.768H326.961V176.112H328.743ZM339.512 179.946C339.416 180.702 339.368 181.548 339.368 182.484V192.888H337.91V187.398C337.646 187.95 337.25 188.376 336.722 188.676C336.194 188.976 335.576 189.126 334.868 189.126C334.064 189.126 333.356 188.934 332.744 188.55C332.144 188.166 331.676 187.626 331.34 186.93C331.016 186.222 330.854 185.4 330.854 184.464C330.854 183.528 331.022 182.706 331.358 181.998C331.694 181.278 332.162 180.72 332.762 180.324C333.374 179.928 334.076 179.73 334.868 179.73C335.6 179.73 336.236 179.898 336.776 180.234C337.316 180.558 337.718 181.026 337.982 181.638L338.162 179.946H339.512ZM335.156 187.92C336.044 187.92 336.728 187.62 337.208 187.02C337.688 186.408 337.928 185.544 337.928 184.428C337.928 183.312 337.688 182.454 337.208 181.854C336.728 181.254 336.044 180.954 335.156 180.954C334.268 180.954 333.572 181.266 333.068 181.89C332.576 182.502 332.33 183.36 332.33 184.464C332.33 185.568 332.576 186.42 333.068 187.02C333.56 187.62 334.256 187.92 335.156 187.92ZM349.765 179.946V189H348.343V187.434C348.055 187.986 347.653 188.406 347.137 188.694C346.621 188.982 346.039 189.126 345.391 189.126C344.323 189.126 343.513 188.826 342.961 188.226C342.409 187.626 342.133 186.738 342.133 185.562V179.946H343.591V185.526C343.591 186.342 343.759 186.942 344.095 187.326C344.431 187.71 344.941 187.902 345.625 187.902C346.429 187.902 347.077 187.644 347.569 187.128C348.061 186.6 348.307 185.91 348.307 185.058V179.946H349.765ZM360.154 184.428H353.512C353.524 185.58 353.788 186.45 354.304 187.038C354.832 187.626 355.594 187.92 356.59 187.92C357.646 187.92 358.618 187.566 359.506 186.858L359.992 187.92C359.596 188.292 359.086 188.586 358.462 188.802C357.85 189.018 357.22 189.126 356.572 189.126C355.156 189.126 354.046 188.712 353.242 187.884C352.438 187.044 352.036 185.898 352.036 184.446C352.036 183.522 352.216 182.706 352.576 181.998C352.936 181.278 353.44 180.72 354.088 180.324C354.736 179.928 355.474 179.73 356.302 179.73C357.502 179.73 358.444 180.126 359.128 180.918C359.812 181.698 360.154 182.778 360.154 184.158V184.428ZM356.32 180.864C355.564 180.864 354.946 181.092 354.466 181.548C353.998 182.004 353.698 182.646 353.566 183.474H358.84C358.768 182.622 358.516 181.974 358.084 181.53C357.664 181.086 357.076 180.864 356.32 180.864ZM363.969 187.146V189H362.115V187.146H363.969ZM382.35 176.184L376.752 189H375.456L369.858 176.184H371.424L376.122 187.128L380.82 176.184H382.35ZM383.777 179.946H385.235V189H383.777V179.946ZM385.415 176.112V177.768H383.633V176.112H385.415ZM396.022 179.964L392.116 189H390.73L386.878 179.964H388.408L391.468 187.416L394.564 179.964H396.022ZM405.497 179.946V189H404.057V187.362C403.793 187.926 403.391 188.364 402.851 188.676C402.323 188.976 401.705 189.126 400.997 189.126C400.193 189.126 399.485 188.934 398.873 188.55C398.273 188.166 397.805 187.626 397.469 186.93C397.145 186.222 396.983 185.4 396.983 184.464C396.983 183.528 397.151 182.706 397.487 181.998C397.823 181.278 398.291 180.72 398.891 180.324C399.503 179.928 400.205 179.73 400.997 179.73C401.705 179.73 402.323 179.886 402.851 180.198C403.379 180.51 403.781 180.948 404.057 181.512V179.946H405.497ZM401.285 187.92C402.173 187.92 402.857 187.62 403.337 187.02C403.817 186.408 404.057 185.544 404.057 184.428C404.057 183.312 403.817 182.454 403.337 181.854C402.857 181.254 402.173 180.954 401.285 180.954C400.397 180.954 399.701 181.266 399.197 181.89C398.705 182.502 398.459 183.36 398.459 184.464C398.459 185.568 398.705 186.42 399.197 187.02C399.689 187.62 400.385 187.92 401.285 187.92ZM418.36 179.73C420.364 179.73 421.366 180.924 421.366 183.312V189H419.908V183.384C419.908 182.532 419.758 181.914 419.458 181.53C419.17 181.146 418.696 180.954 418.036 180.954C417.268 180.954 416.668 181.212 416.236 181.728C415.804 182.244 415.588 182.946 415.588 183.834V189H414.13V183.384C414.13 182.544 413.98 181.932 413.68 181.548C413.38 181.152 412.9 180.954 412.24 180.954C411.472 180.954 410.866 181.212 410.422 181.728C409.99 182.244 409.774 182.946 409.774 183.834V189H408.316V182.484C408.316 181.548 408.268 180.702 408.172 179.946H409.558L409.702 181.53C409.954 180.954 410.326 180.51 410.818 180.198C411.322 179.886 411.904 179.73 412.564 179.73C413.284 179.73 413.872 179.874 414.328 180.162C414.784 180.45 415.12 180.894 415.336 181.494C415.612 180.954 416.014 180.528 416.542 180.216C417.082 179.892 417.688 179.73 418.36 179.73ZM431.714 179.946V189H430.292V187.434C430.004 187.986 429.602 188.406 429.086 188.694C428.57 188.982 427.988 189.126 427.34 189.126C426.272 189.126 425.462 188.826 424.91 188.226C424.358 187.626 424.082 186.738 424.082 185.562V179.946H425.54V185.526C425.54 186.342 425.708 186.942 426.044 187.326C426.38 187.71 426.89 187.902 427.574 187.902C428.378 187.902 429.026 187.644 429.518 187.128C430.01 186.6 430.256 185.91 430.256 185.058V179.946H431.714ZM437.585 189.126C436.061 189.126 434.855 188.736 433.967 187.956L434.453 186.876C434.945 187.26 435.443 187.536 435.947 187.704C436.451 187.872 437.015 187.956 437.639 187.956C438.323 187.956 438.839 187.842 439.187 187.614C439.547 187.374 439.727 187.032 439.727 186.588C439.727 186.228 439.607 185.94 439.367 185.724C439.127 185.508 438.731 185.34 438.179 185.22L436.649 184.86C435.893 184.692 435.305 184.392 434.885 183.96C434.477 183.528 434.273 183.012 434.273 182.412C434.273 181.62 434.591 180.978 435.227 180.486C435.863 179.982 436.703 179.73 437.747 179.73C438.383 179.73 438.983 179.832 439.547 180.036C440.111 180.24 440.585 180.534 440.969 180.918L440.483 181.98C439.631 181.272 438.719 180.918 437.747 180.918C437.099 180.918 436.595 181.044 436.235 181.296C435.887 181.536 435.713 181.878 435.713 182.322C435.713 182.694 435.821 182.988 436.037 183.204C436.265 183.42 436.625 183.588 437.117 183.708L438.647 184.086C439.487 184.278 440.111 184.578 440.519 184.986C440.927 185.382 441.131 185.904 441.131 186.552C441.131 187.332 440.813 187.956 440.177 188.424C439.541 188.892 438.677 189.126 437.585 189.126ZM7.922 205.73C10.094 205.73 11.18 206.924 11.18 209.312V215H9.722V209.384C9.722 208.544 9.554 207.932 9.218 207.548C8.882 207.152 8.354 206.954 7.634 206.954C6.794 206.954 6.122 207.212 5.618 207.728C5.114 208.244 4.862 208.94 4.862 209.816V215H3.404V208.484C3.404 207.548 3.356 206.702 3.26 205.946H4.646L4.79 207.566C5.066 206.978 5.48 206.528 6.032 206.216C6.584 205.892 7.214 205.73 7.922 205.73ZM21.5113 210.428H14.8693C14.8813 211.58 15.1453 212.45 15.6613 213.038C16.1893 213.626 16.9513 213.92 17.9473 213.92C19.0033 213.92 19.9753 213.566 20.8633 212.858L21.3493 213.92C20.9533 214.292 20.4433 214.586 19.8193 214.802C19.2073 215.018 18.5773 215.126 17.9293 215.126C16.5133 215.126 15.4033 214.712 14.5993 213.884C13.7953 213.044 13.3933 211.898 13.3933 210.446C13.3933 209.522 13.5733 208.706 13.9333 207.998C14.2933 207.278 14.7973 206.72 15.4453 206.324C16.0933 205.928 16.8313 205.73 17.6593 205.73C18.8593 205.73 19.8013 206.126 20.4853 206.918C21.1693 207.698 21.5113 208.778 21.5113 210.158V210.428ZM17.6773 206.864C16.9213 206.864 16.3033 207.092 15.8233 207.548C15.3553 208.004 15.0553 208.646 14.9233 209.474H20.1973C20.1253 208.622 19.8733 207.974 19.4413 207.53C19.0213 207.086 18.4333 206.864 17.6773 206.864ZM27.5223 215.126C26.6463 215.126 25.8783 214.934 25.2183 214.55C24.5703 214.166 24.0663 213.626 23.7063 212.93C23.3583 212.222 23.1843 211.4 23.1843 210.464C23.1843 209.528 23.3643 208.706 23.7243 207.998C24.0843 207.278 24.5943 206.72 25.2543 206.324C25.9263 205.928 26.7063 205.73 27.5943 205.73C28.2063 205.73 28.7943 205.838 29.3583 206.054C29.9343 206.258 30.4083 206.546 30.7803 206.918L30.2943 207.998C29.8383 207.638 29.3943 207.374 28.9623 207.206C28.5423 207.038 28.1103 206.954 27.6663 206.954C26.7423 206.954 26.0163 207.266 25.4883 207.89C24.9603 208.502 24.6963 209.36 24.6963 210.464C24.6963 211.556 24.9543 212.408 25.4703 213.02C25.9983 213.62 26.7303 213.92 27.6663 213.92C28.1103 213.92 28.5423 213.836 28.9623 213.668C29.3943 213.5 29.8383 213.236 30.2943 212.876L30.7803 213.956C30.3963 214.316 29.9103 214.604 29.3223 214.82C28.7463 215.024 28.1463 215.126 27.5223 215.126ZM41.8478 205.73C42.6398 205.73 43.3418 205.922 43.9538 206.306C44.5658 206.69 45.0398 207.236 45.3758 207.944C45.7118 208.64 45.8798 209.456 45.8798 210.392C45.8798 211.328 45.7118 212.156 45.3758 212.876C45.0398 213.584 44.5658 214.136 43.9538 214.532C43.3418 214.928 42.6398 215.126 41.8478 215.126C41.1398 215.126 40.5218 214.97 39.9938 214.658C39.4658 214.346 39.0638 213.902 38.7878 213.326V215H37.3298V201.752H38.7878V207.548C39.0518 206.96 39.4478 206.51 39.9758 206.198C40.5158 205.886 41.1398 205.73 41.8478 205.73ZM41.5778 213.92C42.4538 213.92 43.1378 213.614 43.6298 213.002C44.1218 212.378 44.3678 211.508 44.3678 210.392C44.3678 209.3 44.1218 208.454 43.6298 207.854C43.1498 207.254 42.4658 206.954 41.5778 206.954C40.6778 206.954 39.9878 207.254 39.5078 207.854C39.0278 208.454 38.7878 209.312 38.7878 210.428C38.7878 211.544 39.0278 212.408 39.5078 213.02C39.9878 213.62 40.6778 213.92 41.5778 213.92ZM48.1228 205.946H49.5808V215H48.1228V205.946ZM49.7608 202.112V203.768H47.9788V202.112H49.7608ZM56.9298 205.73C57.7218 205.73 58.4238 205.922 59.0358 206.306C59.6478 206.69 60.1218 207.236 60.4578 207.944C60.7938 208.64 60.9618 209.456 60.9618 210.392C60.9618 211.328 60.7938 212.156 60.4578 212.876C60.1218 213.584 59.6478 214.136 59.0358 214.532C58.4238 214.928 57.7218 215.126 56.9298 215.126C56.2218 215.126 55.6038 214.97 55.0758 214.658C54.5478 214.346 54.1458 213.902 53.8698 213.326V215H52.4118V201.752H53.8698V207.548C54.1338 206.96 54.5298 206.51 55.0578 206.198C55.5978 205.886 56.2218 205.73 56.9298 205.73ZM56.6598 213.92C57.5358 213.92 58.2198 213.614 58.7118 213.002C59.2038 212.378 59.4498 211.508 59.4498 210.392C59.4498 209.3 59.2038 208.454 58.7118 207.854C58.2318 207.254 57.5478 206.954 56.6598 206.954C55.7598 206.954 55.0698 207.254 54.5898 207.854C54.1098 208.454 53.8698 209.312 53.8698 210.428C53.8698 211.544 54.1098 212.408 54.5898 213.02C55.0698 213.62 55.7598 213.92 56.6598 213.92ZM70.7828 210.428H64.1408C64.1528 211.58 64.4168 212.45 64.9328 213.038C65.4608 213.626 66.2228 213.92 67.2188 213.92C68.2748 213.92 69.2468 213.566 70.1348 212.858L70.6208 213.92C70.2248 214.292 69.7148 214.586 69.0908 214.802C68.4788 215.018 67.8488 215.126 67.2008 215.126C65.7848 215.126 64.6748 214.712 63.8708 213.884C63.0668 213.044 62.6648 211.898 62.6648 210.446C62.6648 209.522 62.8448 208.706 63.2048 207.998C63.5648 207.278 64.0688 206.72 64.7168 206.324C65.3648 205.928 66.1028 205.73 66.9308 205.73C68.1308 205.73 69.0728 206.126 69.7568 206.918C70.4408 207.698 70.7828 208.778 70.7828 210.158V210.428ZM66.9488 206.864C66.1928 206.864 65.5748 207.092 65.0948 207.548C64.6268 208.004 64.3268 208.646 64.1948 209.474H69.4688C69.3968 208.622 69.1448 207.974 68.7128 207.53C68.2928 207.086 67.7048 206.864 66.9488 206.864ZM77.5138 205.73C79.6858 205.73 80.7718 206.924 80.7718 209.312V215H79.3138V209.384C79.3138 208.544 79.1458 207.932 78.8098 207.548C78.4738 207.152 77.9458 206.954 77.2258 206.954C76.3858 206.954 75.7138 207.212 75.2098 207.728C74.7058 208.244 74.4538 208.94 74.4538 209.816V215H72.9958V208.484C72.9958 207.548 72.9478 206.702 72.8518 205.946H74.2378L74.3818 207.566C74.6578 206.978 75.0718 206.528 75.6238 206.216C76.1758 205.892 76.8058 205.73 77.5138 205.73ZM91.4991 201.752V215H90.0591V213.362C89.7951 213.926 89.3931 214.364 88.8531 214.676C88.3251 214.976 87.7071 215.126 86.9991 215.126C86.2071 215.126 85.5051 214.928 84.8931 214.532C84.2931 214.136 83.8251 213.584 83.4891 212.876C83.1531 212.156 82.9851 211.328 82.9851 210.392C82.9851 209.456 83.1471 208.64 83.4711 207.944C83.8071 207.236 84.2811 206.69 84.8931 206.306C85.5051 205.922 86.2071 205.73 86.9991 205.73C87.7071 205.73 88.3251 205.886 88.8531 206.198C89.3811 206.498 89.7771 206.924 90.0411 207.476V201.752H91.4991ZM87.2871 213.92C88.1751 213.92 88.8591 213.62 89.3391 213.02C89.8191 212.408 90.0591 211.544 90.0591 210.428C90.0591 209.324 89.8191 208.472 89.3391 207.872C88.8591 207.26 88.1751 206.954 87.2871 206.954C86.3991 206.954 85.7031 207.254 85.1991 207.854C84.7071 208.454 84.4611 209.3 84.4611 210.392C84.4611 211.508 84.7071 212.378 85.1991 213.002C85.7031 213.614 86.3991 213.92 87.2871 213.92ZM101.896 205.946V215H100.474V213.434C100.186 213.986 99.7841 214.406 99.2681 214.694C98.7521 214.982 98.1701 215.126 97.5221 215.126C96.4541 215.126 95.6441 214.826 95.0921 214.226C94.5401 213.626 94.2641 212.738 94.2641 211.562V205.946H95.7221V211.526C95.7221 212.342 95.8901 212.942 96.2261 213.326C96.5621 213.71 97.0721 213.902 97.7561 213.902C98.5601 213.902 99.2081 213.644 99.7001 213.128C100.192 212.6 100.438 211.91 100.438 211.058V205.946H101.896ZM114.751 205.73C116.755 205.73 117.757 206.924 117.757 209.312V215H116.299V209.384C116.299 208.532 116.149 207.914 115.849 207.53C115.561 207.146 115.087 206.954 114.427 206.954C113.659 206.954 113.059 207.212 112.627 207.728C112.195 208.244 111.979 208.946 111.979 209.834V215H110.521V209.384C110.521 208.544 110.371 207.932 110.071 207.548C109.771 207.152 109.291 206.954 108.631 206.954C107.863 206.954 107.257 207.212 106.813 207.728C106.381 208.244 106.165 208.946 106.165 209.834V215H104.707V208.484C104.707 207.548 104.659 206.702 104.563 205.946H105.949L106.093 207.53C106.345 206.954 106.717 206.51 107.209 206.198C107.713 205.886 108.295 205.73 108.955 205.73C109.675 205.73 110.263 205.874 110.719 206.162C111.175 206.45 111.511 206.894 111.727 207.494C112.003 206.954 112.405 206.528 112.933 206.216C113.473 205.892 114.079 205.73 114.751 205.73ZM132.798 210.428H126.156C126.168 211.58 126.432 212.45 126.948 213.038C127.476 213.626 128.238 213.92 129.234 213.92C130.29 213.92 131.262 213.566 132.15 212.858L132.636 213.92C132.24 214.292 131.73 214.586 131.106 214.802C130.494 215.018 129.864 215.126 129.216 215.126C127.8 215.126 126.69 214.712 125.886 213.884C125.082 213.044 124.68 211.898 124.68 210.446C124.68 209.522 124.86 208.706 125.22 207.998C125.58 207.278 126.084 206.72 126.732 206.324C127.38 205.928 128.118 205.73 128.946 205.73C130.146 205.73 131.088 206.126 131.772 206.918C132.456 207.698 132.798 208.778 132.798 210.158V210.428ZM128.964 206.864C128.208 206.864 127.59 207.092 127.11 207.548C126.642 208.004 126.342 208.646 126.21 209.474H131.484C131.412 208.622 131.16 207.974 130.728 207.53C130.308 207.086 129.72 206.864 128.964 206.864ZM142.898 215H141.152L138.29 211.436L135.464 215H133.682L137.444 210.338L133.898 205.946H135.662L138.29 209.276L140.918 205.946H142.7L139.172 210.338L142.898 215ZM146.352 213.146V215H144.498V213.146H146.352ZM165.903 202.184V215H164.535V205.478L160.377 215H159.333L155.139 205.55L155.157 215H153.789V202.184H155.013L159.873 213.236L164.679 202.184H165.903ZM176.858 205.946V215H175.418V213.362C175.154 213.926 174.752 214.364 174.212 214.676C173.684 214.976 173.066 215.126 172.358 215.126C171.554 215.126 170.846 214.934 170.234 214.55C169.634 214.166 169.166 213.626 168.83 212.93C168.506 212.222 168.344 211.4 168.344 210.464C168.344 209.528 168.512 208.706 168.848 207.998C169.184 207.278 169.652 206.72 170.252 206.324C170.864 205.928 171.566 205.73 172.358 205.73C173.066 205.73 173.684 205.886 174.212 206.198C174.74 206.51 175.142 206.948 175.418 207.512V205.946H176.858ZM172.646 213.92C173.534 213.92 174.218 213.62 174.698 213.02C175.178 212.408 175.418 211.544 175.418 210.428C175.418 209.312 175.178 208.454 174.698 207.854C174.218 207.254 173.534 206.954 172.646 206.954C171.758 206.954 171.062 207.266 170.558 207.89C170.066 208.502 169.82 209.36 169.82 210.464C169.82 211.568 170.066 212.42 170.558 213.02C171.05 213.62 171.746 213.92 172.646 213.92ZM187.255 205.946V215H185.833V213.434C185.545 213.986 185.143 214.406 184.627 214.694C184.111 214.982 183.529 215.126 182.881 215.126C181.813 215.126 181.003 214.826 180.451 214.226C179.899 213.626 179.623 212.738 179.623 211.562V205.946H181.081V211.526C181.081 212.342 181.249 212.942 181.585 213.326C181.921 213.71 182.431 213.902 183.115 213.902C183.919 213.902 184.567 213.644 185.059 213.128C185.551 212.6 185.797 211.91 185.797 211.058V205.946H187.255ZM194.278 205.73C194.578 205.73 194.854 205.766 195.106 205.838L195.07 207.17C194.794 207.074 194.476 207.026 194.116 207.026C193.24 207.026 192.586 207.302 192.154 207.854C191.734 208.394 191.524 209.054 191.524 209.834V215H190.066V208.484C190.066 207.548 190.018 206.702 189.922 205.946H191.308L191.452 207.62C191.68 207.008 192.046 206.54 192.55 206.216C193.054 205.892 193.63 205.73 194.278 205.73ZM196.588 205.946H198.046V215H196.588V205.946ZM198.226 202.112V203.768H196.444V202.112H198.226ZM203.937 215.126C202.413 215.126 201.207 214.736 200.319 213.956L200.805 212.876C201.297 213.26 201.795 213.536 202.299 213.704C202.803 213.872 203.367 213.956 203.991 213.956C204.675 213.956 205.191 213.842 205.539 213.614C205.899 213.374 206.079 213.032 206.079 212.588C206.079 212.228 205.959 211.94 205.719 211.724C205.479 211.508 205.083 211.34 204.531 211.22L203.001 210.86C202.245 210.692 201.657 210.392 201.237 209.96C200.829 209.528 200.625 209.012 200.625 208.412C200.625 207.62 200.943 206.978 201.579 206.486C202.215 205.982 203.055 205.73 204.099 205.73C204.735 205.73 205.335 205.832 205.899 206.036C206.463 206.24 206.937 206.534 207.321 206.918L206.835 207.98C205.983 207.272 205.071 206.918 204.099 206.918C203.451 206.918 202.947 207.044 202.587 207.296C202.239 207.536 202.065 207.878 202.065 208.322C202.065 208.694 202.173 208.988 202.389 209.204C202.617 209.42 202.977 209.588 203.469 209.708L204.999 210.086C205.839 210.278 206.463 210.578 206.871 210.986C207.279 211.382 207.483 211.904 207.483 212.552C207.483 213.332 207.165 213.956 206.529 214.424C205.893 214.892 205.029 215.126 203.937 215.126ZM222.474 201.752V215H221.034V213.362C220.77 213.926 220.368 214.364 219.828 214.676C219.3 214.976 218.682 215.126 217.974 215.126C217.182 215.126 216.48 214.928 215.868 214.532C215.268 214.136 214.8 213.584 214.464 212.876C214.128 212.156 213.96 211.328 213.96 210.392C213.96 209.456 214.122 208.64 214.446 207.944C214.782 207.236 215.256 206.69 215.868 206.306C216.48 205.922 217.182 205.73 217.974 205.73C218.682 205.73 219.3 205.886 219.828 206.198C220.356 206.498 220.752 206.924 221.016 207.476V201.752H222.474ZM218.262 213.92C219.15 213.92 219.834 213.62 220.314 213.02C220.794 212.408 221.034 211.544 221.034 210.428C221.034 209.324 220.794 208.472 220.314 207.872C219.834 207.26 219.15 206.954 218.262 206.954C217.374 206.954 216.678 207.254 216.174 207.854C215.682 208.454 215.436 209.3 215.436 210.392C215.436 211.508 215.682 212.378 216.174 213.002C216.678 213.614 217.374 213.92 218.262 213.92ZM232.871 205.946V215H231.449V213.434C231.161 213.986 230.759 214.406 230.243 214.694C229.727 214.982 229.145 215.126 228.497 215.126C227.429 215.126 226.619 214.826 226.067 214.226C225.515 213.626 225.239 212.738 225.239 211.562V205.946H226.697V211.526C226.697 212.342 226.865 212.942 227.201 213.326C227.537 213.71 228.047 213.902 228.731 213.902C229.535 213.902 230.183 213.644 230.675 213.128C231.167 212.6 231.413 211.91 231.413 211.058V205.946H232.871ZM235.681 205.946H237.139V215H235.681V205.946ZM237.319 202.112V203.768H235.537V202.112H237.319ZM249.182 205.73C251.354 205.73 252.44 206.924 252.44 209.312V215H250.982V209.384C250.982 208.544 250.814 207.932 250.478 207.548C250.142 207.152 249.614 206.954 248.894 206.954C248.054 206.954 247.382 207.212 246.878 207.728C246.374 208.244 246.122 208.94 246.122 209.816V215H244.664V208.484C244.664 207.548 244.616 206.702 244.52 205.946H245.906L246.05 207.566C246.326 206.978 246.74 206.528 247.292 206.216C247.844 205.892 248.474 205.73 249.182 205.73ZM255.193 205.946H256.651V215H255.193V205.946ZM256.831 202.112V203.768H255.049V202.112H256.831ZM262.542 215.126C261.018 215.126 259.812 214.736 258.924 213.956L259.41 212.876C259.902 213.26 260.4 213.536 260.904 213.704C261.408 213.872 261.972 213.956 262.596 213.956C263.28 213.956 263.796 213.842 264.144 213.614C264.504 213.374 264.684 213.032 264.684 212.588C264.684 212.228 264.564 211.94 264.324 211.724C264.084 211.508 263.688 211.34 263.136 211.22L261.606 210.86C260.85 210.692 260.262 210.392 259.842 209.96C259.434 209.528 259.23 209.012 259.23 208.412C259.23 207.62 259.548 206.978 260.184 206.486C260.82 205.982 261.66 205.73 262.704 205.73C263.34 205.73 263.94 205.832 264.504 206.036C265.068 206.24 265.542 206.534 265.926 206.918L265.44 207.98C264.588 207.272 263.676 206.918 262.704 206.918C262.056 206.918 261.552 207.044 261.192 207.296C260.844 207.536 260.67 207.878 260.67 208.322C260.67 208.694 260.778 208.988 260.994 209.204C261.222 209.42 261.582 209.588 262.074 209.708L263.604 210.086C264.444 210.278 265.068 210.578 265.476 210.986C265.884 211.382 266.088 211.904 266.088 212.552C266.088 213.332 265.77 213.956 265.134 214.424C264.498 214.892 263.634 215.126 262.542 215.126ZM268.412 205.946H269.87V215H268.412V205.946ZM270.05 202.112V203.768H268.268V202.112H270.05ZM274.303 213.146V214.46C274.303 214.964 274.219 215.426 274.051 215.846C273.883 216.266 273.601 216.674 273.205 217.07L272.521 216.548C272.989 216.008 273.253 215.492 273.313 215H272.449V213.146H274.303ZM278.469 213.146V215H276.615V213.146H278.469Z" fill="#4F5464"/>
<path d="M15.456 111.432C12.896 111.432 10.368 111.096 7.872 110.424C5.376 109.752 3.344 108.84 1.776 107.688L4.608 101.304C6.272 102.36 8.032 103.176 9.888 103.752C11.776 104.296 13.664 104.568 15.552 104.568C17.472 104.568 18.944 104.312 19.968 103.8C20.992 103.256 21.504 102.504 21.504 101.544C21.504 100.68 21.04 99.976 20.112 99.432C19.184 98.856 17.44 98.296 14.88 97.752C11.648 97.112 9.136 96.328 7.344 95.4C5.552 94.44 4.288 93.32 3.552 92.04C2.848 90.76 2.496 89.208 2.496 87.384C2.496 85.304 3.088 83.432 4.272 81.768C5.456 80.072 7.12 78.76 9.264 77.832C11.408 76.872 13.856 76.392 16.608 76.392C19.072 76.392 21.456 76.744 23.76 77.448C26.096 78.12 27.92 79.016 29.232 80.136L26.448 86.52C24.944 85.464 23.36 84.664 21.696 84.12C20.032 83.544 18.368 83.256 16.704 83.256C15.072 83.256 13.76 83.576 12.768 84.216C11.776 84.824 11.28 85.656 11.28 86.712C11.28 87.288 11.456 87.768 11.808 88.152C12.16 88.536 12.816 88.92 13.776 89.304C14.736 89.656 16.176 90.04 18.096 90.456C21.2 91.128 23.632 91.944 25.392 92.904C27.184 93.832 28.448 94.936 29.184 96.216C29.92 97.464 30.288 98.968 30.288 100.728C30.288 104.056 28.992 106.68 26.4 108.6C23.808 110.488 20.16 111.432 15.456 111.432ZM60.762 109.224C61.466 110.408 62.33 111.512 63.354 112.536C64.41 113.592 65.61 114.68 66.954 115.8L60.954 120.168C57.434 117.864 54.634 114.952 52.554 111.432H51.594C48.106 111.432 45.066 110.728 42.474 109.32C39.882 107.88 37.882 105.832 36.474 103.176C35.098 100.52 34.41 97.416 34.41 93.864C34.41 90.312 35.114 87.224 36.522 84.6C37.93 81.976 39.914 79.96 42.474 78.552C45.066 77.112 48.106 76.392 51.594 76.392C55.082 76.392 58.106 77.112 60.666 78.552C63.258 79.96 65.242 81.976 66.618 84.6C67.994 87.224 68.682 90.312 68.682 93.864C68.682 97.416 67.994 100.52 66.618 103.176C65.242 105.8 63.29 107.816 60.762 109.224ZM43.434 93.864C43.434 97.384 44.154 100.056 45.594 101.88C47.034 103.672 49.034 104.568 51.594 104.568C54.154 104.568 56.154 103.656 57.594 101.832C59.066 100.008 59.802 97.352 59.802 93.864C59.802 90.408 59.066 87.784 57.594 85.992C56.154 84.168 54.154 83.256 51.594 83.256C49.034 83.256 47.034 84.152 45.594 85.944C44.154 87.736 43.434 90.376 43.434 93.864ZM73.947 76.824H82.971V103.704H97.419V111H73.947V76.824ZM123.346 84.12H113.17V76.824H142.642V84.12H132.466V111H123.346V84.12ZM157.266 86.04C158.45 86.04 159.362 86.216 160.002 86.568V94.488C158.626 93.848 157.298 93.528 156.018 93.528C152.37 93.528 150.546 95.272 150.546 98.76V111H141.858V93.624C141.858 91 141.73 88.664 141.474 86.616H149.634L150.162 90.696C150.738 89.192 151.666 88.04 152.946 87.24C154.226 86.44 155.666 86.04 157.266 86.04ZM187.694 86.616V111H179.15V107.688C178.446 108.84 177.422 109.752 176.078 110.424C174.734 111.064 173.262 111.384 171.662 111.384C169.582 111.384 167.726 110.872 166.094 109.848C164.462 108.824 163.182 107.368 162.254 105.48C161.358 103.56 160.91 101.352 160.91 98.856C160.91 96.328 161.374 94.088 162.302 92.136C163.23 90.184 164.51 88.664 166.142 87.576C167.774 86.488 169.614 85.944 171.662 85.944C173.262 85.944 174.718 86.296 176.03 87C177.374 87.672 178.414 88.584 179.15 89.736V86.616H187.694ZM174.35 104.904C175.886 104.904 177.07 104.376 177.902 103.32C178.734 102.264 179.15 100.744 179.15 98.76C179.15 96.744 178.734 95.208 177.902 94.152C177.07 93.064 175.886 92.52 174.35 92.52C172.846 92.52 171.662 93.08 170.798 94.2C169.934 95.288 169.502 96.84 169.502 98.856C169.502 100.808 169.918 102.312 170.75 103.368C171.582 104.392 172.782 104.904 174.35 104.904ZM209.178 85.944C212.058 85.944 214.202 86.824 215.61 88.584C217.05 90.312 217.77 92.936 217.77 96.456V111H209.082V96.84C209.082 95.336 208.826 94.264 208.314 93.624C207.802 92.952 207.002 92.616 205.914 92.616C204.602 92.616 203.546 93.064 202.746 93.96C201.946 94.824 201.546 95.976 201.546 97.416V111H192.858V93.624C192.858 91 192.73 88.664 192.474 86.616H200.634L201.066 90.216C201.994 88.84 203.146 87.784 204.522 87.048C205.898 86.312 207.45 85.944 209.178 85.944Z" fill="#172940"/>
<rect x="2" y="246" width="149" height="42" rx="6" fill="url(#paint0_linear)"/>
<path d="M21.5289 261.608H26.4729C27.6995 261.608 28.6542 261.907 29.3369 262.504C30.0195 263.091 30.3609 263.896 30.3609 264.92C30.3609 265.944 30.0142 266.755 29.3209 267.352C28.6382 267.949 27.6889 268.248 26.4729 268.248H23.5929V273H21.5289V261.608ZM26.2329 266.648C26.9475 266.648 27.4862 266.504 27.8489 266.216C28.2222 265.917 28.4089 265.491 28.4089 264.936C28.4089 264.371 28.2275 263.944 27.8649 263.656C27.5022 263.357 26.9582 263.208 26.2329 263.208H23.5929V266.648H26.2329ZM36.2369 264.728C36.5462 264.728 36.8129 264.771 37.0369 264.856L37.0209 266.68C36.6795 266.541 36.3275 266.472 35.9649 266.472C35.2822 266.472 34.7595 266.669 34.3969 267.064C34.0449 267.459 33.8689 267.981 33.8689 268.632V273H31.8849V267.208C31.8849 266.355 31.8422 265.592 31.7569 264.92H33.6289L33.7889 266.344C33.9915 265.821 34.3115 265.421 34.7489 265.144C35.1862 264.867 35.6822 264.728 36.2369 264.728ZM38.1505 264.92H40.1345V273H38.1505V264.92ZM40.2465 261.256V263.224H38.0225V261.256H40.2465ZM51.8584 264.712C52.7757 264.712 53.4584 264.989 53.9064 265.544C54.3544 266.088 54.5784 266.92 54.5784 268.04V273H52.5784V268.104C52.5784 267.464 52.4717 267.005 52.2584 266.728C52.0557 266.44 51.7144 266.296 51.2344 266.296C50.6797 266.296 50.2424 266.493 49.9224 266.888C49.613 267.272 49.4584 267.805 49.4584 268.488V273H47.4584V268.104C47.4584 267.475 47.3464 267.016 47.1224 266.728C46.909 266.44 46.5677 266.296 46.0984 266.296C45.5437 266.296 45.1064 266.493 44.7864 266.888C44.4664 267.272 44.3064 267.805 44.3064 268.488V273H42.3224V267.208C42.3224 266.355 42.2797 265.592 42.1944 264.92H44.0664L44.2104 266.2C44.445 265.72 44.781 265.352 45.2184 265.096C45.6664 264.84 46.1784 264.712 46.7544 264.712C47.9917 264.712 48.797 265.224 49.1704 266.248C49.4264 265.768 49.789 265.395 50.2584 265.128C50.7384 264.851 51.2717 264.712 51.8584 264.712ZM64.441 264.92V273H62.473V271.704C62.2277 272.152 61.8757 272.504 61.417 272.76C60.9583 273.005 60.4357 273.128 59.849 273.128C59.145 273.128 58.521 272.957 57.977 272.616C57.433 272.275 57.0117 271.789 56.713 271.16C56.4143 270.531 56.265 269.8 56.265 268.968C56.265 268.136 56.4143 267.4 56.713 266.76C57.0223 266.109 57.449 265.608 57.993 265.256C58.537 264.893 59.1557 264.712 59.849 264.712C60.4357 264.712 60.9583 264.84 61.417 265.096C61.8757 265.341 62.2277 265.688 62.473 266.136V264.92H64.441ZM60.393 271.56C61.0543 271.56 61.5663 271.331 61.929 270.872C62.2917 270.413 62.473 269.768 62.473 268.936C62.473 268.083 62.2917 267.427 61.929 266.968C61.5663 266.509 61.049 266.28 60.377 266.28C59.7157 266.28 59.1983 266.52 58.825 267C58.4623 267.469 58.281 268.125 58.281 268.968C58.281 269.8 58.4623 270.44 58.825 270.888C59.1983 271.336 59.721 271.56 60.393 271.56ZM70.9713 264.728C71.2806 264.728 71.5473 264.771 71.7713 264.856L71.7553 266.68C71.4139 266.541 71.0619 266.472 70.6993 266.472C70.0166 266.472 69.4939 266.669 69.1313 267.064C68.7793 267.459 68.6033 267.981 68.6033 268.632V273H66.6193V267.208C66.6193 266.355 66.5766 265.592 66.4913 264.92H68.3633L68.5233 266.344C68.7259 265.821 69.0459 265.421 69.4833 265.144C69.9206 264.867 70.4166 264.728 70.9713 264.728ZM81.0173 264.92L77.2573 273.544C76.8306 274.547 76.2866 275.277 75.6253 275.736C74.9639 276.195 74.1479 276.499 73.1773 276.648L72.7293 275.112C73.4866 274.941 74.0519 274.723 74.4253 274.456C74.8093 274.2 75.1186 273.816 75.3533 273.304L75.6093 272.712L72.2492 264.92H74.3453L76.6653 270.728L79.0333 264.92H81.0173ZM94.1754 264.92V273H92.2074V271.704C91.962 272.152 91.61 272.504 91.1514 272.76C90.6927 273.005 90.17 273.128 89.5834 273.128C88.8794 273.128 88.2554 272.957 87.7114 272.616C87.1674 272.275 86.746 271.789 86.4474 271.16C86.1487 270.531 85.9994 269.8 85.9994 268.968C85.9994 268.136 86.1487 267.4 86.4474 266.76C86.7567 266.109 87.1834 265.608 87.7274 265.256C88.2714 264.893 88.89 264.712 89.5834 264.712C90.17 264.712 90.6927 264.84 91.1514 265.096C91.61 265.341 91.962 265.688 92.2074 266.136V264.92H94.1754ZM90.1274 271.56C90.7887 271.56 91.3007 271.331 91.6634 270.872C92.026 270.413 92.2074 269.768 92.2074 268.936C92.2074 268.083 92.026 267.427 91.6634 266.968C91.3007 266.509 90.7834 266.28 90.1114 266.28C89.45 266.28 88.9327 266.52 88.5594 267C88.1967 267.469 88.0154 268.125 88.0154 268.968C88.0154 269.8 88.1967 270.44 88.5594 270.888C88.9327 271.336 89.4554 271.56 90.1274 271.56ZM100.018 273.128C99.175 273.128 98.4443 272.957 97.8256 272.616C97.207 272.275 96.7323 271.795 96.4016 271.176C96.071 270.547 95.9056 269.811 95.9056 268.968C95.9056 268.125 96.0763 267.384 96.4176 266.744C96.7696 266.104 97.2603 265.608 97.8896 265.256C98.5296 264.893 99.2656 264.712 100.098 264.712C100.674 264.712 101.228 264.803 101.762 264.984C102.306 265.165 102.738 265.416 103.058 265.736L102.498 267.144C102.156 266.867 101.794 266.659 101.41 266.52C101.026 266.371 100.647 266.296 100.274 266.296C99.5483 266.296 98.983 266.525 98.5776 266.984C98.1723 267.432 97.9696 268.083 97.9696 268.936C97.9696 269.789 98.167 270.44 98.5616 270.888C98.967 271.336 99.5376 271.56 100.274 271.56C100.647 271.56 101.026 271.485 101.41 271.336C101.794 271.187 102.156 270.973 102.498 270.696L103.058 272.104C102.716 272.424 102.274 272.675 101.73 272.856C101.186 273.037 100.615 273.128 100.018 273.128ZM106.991 266.424V270.04C106.991 270.989 107.434 271.464 108.319 271.464C108.565 271.464 108.831 271.421 109.119 271.336V272.92C108.767 273.048 108.341 273.112 107.839 273.112C106.922 273.112 106.218 272.856 105.727 272.344C105.237 271.832 104.991 271.096 104.991 270.136V266.424H103.439V264.92H104.991V262.952L106.991 262.28V264.92H109.135V266.424H106.991ZM110.51 264.92H112.494V273H110.51V264.92ZM112.606 261.256V263.224H110.382V261.256H112.606ZM118.346 273.128C117.524 273.128 116.799 272.957 116.17 272.616C115.551 272.275 115.071 271.789 114.73 271.16C114.399 270.52 114.234 269.773 114.234 268.92C114.234 268.067 114.399 267.325 114.73 266.696C115.071 266.056 115.551 265.565 116.17 265.224C116.799 264.883 117.524 264.712 118.346 264.712C119.156 264.712 119.871 264.883 120.49 265.224C121.108 265.565 121.583 266.056 121.914 266.696C122.255 267.325 122.426 268.067 122.426 268.92C122.426 269.773 122.255 270.52 121.914 271.16C121.583 271.789 121.108 272.275 120.49 272.616C119.871 272.957 119.156 273.128 118.346 273.128ZM118.33 271.56C119.012 271.56 119.53 271.341 119.882 270.904C120.244 270.456 120.426 269.795 120.426 268.92C120.426 268.056 120.244 267.4 119.882 266.952C119.519 266.493 119.007 266.264 118.346 266.264C117.674 266.264 117.156 266.493 116.794 266.952C116.431 267.4 116.25 268.056 116.25 268.92C116.25 269.795 116.426 270.456 116.778 270.904C117.14 271.341 117.658 271.56 118.33 271.56ZM128.775 264.712C130.705 264.712 131.671 265.821 131.671 268.04V273H129.671V268.136C129.671 267.496 129.548 267.032 129.303 266.744C129.057 266.445 128.679 266.296 128.167 266.296C127.559 266.296 127.068 266.493 126.695 266.888C126.321 267.272 126.135 267.784 126.135 268.424V273H124.151V267.208C124.151 266.355 124.108 265.592 124.023 264.92H125.895L126.039 266.248C126.316 265.757 126.689 265.379 127.159 265.112C127.639 264.845 128.177 264.712 128.775 264.712Z" fill="white"/>
<path d="M25.1258 14.2677C25.1258 15.2048 24.3661 15.9644 23.4291 15.9644C22.4921 15.9644 21.7324 15.2048 21.7324 14.2677C21.7324 13.3307 22.4921 12.571 23.4291 12.571C24.3661 12.571 25.1258 13.3307 25.1258 14.2677Z" fill="#3A3129"/>
<path d="M34.3769 31.3009C30.6982 31.3009 27.6869 30.3688 26.2339 28.5297C24.7485 26.6496 24.0304 24.5475 24.9287 20.6883C24.9287 20.6883 22.733 21.4867 19.7721 21.1875C16.8112 20.8879 15.7799 18.9916 16.412 16.1971C17.0441 13.4026 19.2398 10.9408 20.2045 10.2088L18.2084 8.47882C18.2084 8.47882 24.7946 5.93193 28.8162 13.5871C28.8162 13.5871 28.8227 13.5828 28.832 13.5764C30.9511 11.9012 33.6344 11.1159 35.7686 11.1159C35.9686 11.1159 36.1659 11.1231 36.3551 11.1374C36.3832 11.1396 36.4122 11.143 36.4405 11.1455C36.216 9.58149 35.2288 5.59398 30.9171 3.12255C25.461 -0.00471485 16.6912 -0.0473908 11.7241 3.61876L14.0498 5.51786C14.0498 5.51786 5.58434 7.94207 3.08641 16.6073H6.18036C6.18036 16.6073 3.03798 21.8195 2.57227 29.9037H5.63304C5.63304 29.9037 3.76993 38.2209 7.69563 44.8745C7.69563 44.8745 8.69367 37.5221 16.7447 33.7629C24.7957 30.0035 32.1147 35.1268 34.4767 36.4909C36.8387 37.8549 40.5981 39.851 45.1892 39.7512C49.7803 39.6514 52.7745 35.3929 54.3713 31.3009C54.3713 31.3009 37.406 31.3009 34.3769 31.3009Z" fill="#EF4138"/>
<path d="M35.5835 26.1412C35.5835 26.1412 34.7174 27.8092 32.9209 28.515C31.1245 29.2207 28.2374 28.4509 27.3392 26.1412C26.4409 23.8315 26.7938 20.5594 28.494 17.5118C30.1942 14.4644 33.6414 13.144 36.225 13.4699C38.3316 13.7357 40.1609 14.9477 41.4706 17.8415C42.8084 20.797 42.6528 25.0589 39.7182 28.8231C39.7182 28.8231 39.1874 26.1766 36.2892 25.243C33.8992 24.473 32.2794 25.0504 29.745 22.8423C29.745 22.8423 29.8093 24.3768 31.3811 25.2108C32.953 26.0449 35.5835 26.1412 35.5835 26.1412Z" fill="#F37D3A"/>
<path d="M40.6232 48.3217C40.3712 48.3217 40.1168 48.3094 39.8673 48.285C36.2064 47.9297 28.1 41.0591 21.9082 34.9443C22.1221 34.9295 22.3654 34.92 22.6357 34.92C24.602 34.92 27.7781 35.4074 31.7418 37.7297C37.3176 40.9965 44.4573 44.7586 46.7918 45.9787C45.731 46.8131 43.4258 48.3217 40.6232 48.3217Z" fill="#F37D3A"/>
<path d="M25.3897 59.1788C23.4213 58.6254 19.5684 56.4627 17.6517 53.3345C16.6269 51.662 16.1878 48.7483 16.4149 45.1303C16.5913 42.3184 17.1723 39.3452 18.0068 36.8994L25.3897 59.1788Z" fill="#F37D3A"/>
<path d="M15.0388 57.1958C13.4101 56.5804 12.117 55.5876 11.1843 54.2328C9.06923 51.1614 9.45841 46.8621 10.548 43.9641C11.5589 41.2752 13.5905 38.8759 15.3274 37.7206C14.8018 39.1647 14.157 41.7701 13.7584 44.7518C13.0931 49.7285 14.2551 54.9399 15.0388 57.1958Z" fill="#F37D3A"/>
<path d="M25.1258 14.2677C25.1258 15.2048 24.3661 15.9644 23.4291 15.9644C22.4921 15.9644 21.7324 15.2048 21.7324 14.2677C21.7324 13.3307 22.4921 12.571 23.4291 12.571C24.3661 12.571 25.1258 13.3307 25.1258 14.2677Z" fill="#13141A"/>
<path d="M40.6232 48.3217C40.3712 48.3217 40.1168 48.3094 39.8673 48.285C36.2064 47.9297 28.1 41.0591 21.9082 34.9443C22.1221 34.9295 22.3654 34.92 22.6357 34.92C24.602 34.92 27.7781 35.4074 31.7418 37.7297C37.3176 40.9965 44.4573 44.7586 46.7918 45.9787C45.731 46.8131 43.4258 48.3217 40.6232 48.3217Z" fill="#F37D3A"/>
<path d="M25.3897 59.1788C23.4213 58.6254 19.5684 56.4627 17.6517 53.3345C16.6269 51.662 16.1878 48.7483 16.4149 45.1303C16.5913 42.3184 17.1723 39.3452 18.0068 36.8994L25.3897 59.1788Z" fill="#F37D3A"/>
<path d="M15.0388 57.1958C13.4101 56.5804 12.117 55.5876 11.1843 54.2328C9.06923 51.1614 9.45841 46.8621 10.548 43.9641C11.5589 41.2752 13.5905 38.8759 15.3274 37.7206C14.8018 39.1647 14.157 41.7701 13.7584 44.7518C13.0931 49.7285 14.2551 54.9399 15.0388 57.1958Z" fill="#F37D3A"/>
<path d="M47.4558 37.1528C42.804 38.7623 36.186 36.5162 30.0674 34.086C32.0707 34.9766 33.6134 35.9885 34.4831 36.4908C36.8453 37.8548 40.6045 39.8509 45.1956 39.7511C49.7867 39.6513 52.7809 35.3928 54.3777 31.3008C54.3777 31.3008 51.0844 35.8975 47.4558 37.1528Z" fill="#CC4238"/>
<path d="M16.7473 33.7626C18.3184 33.0289 19.8612 32.6348 21.3452 32.4838C14.2241 33.1242 9.09033 35.9733 7.40034 40.5823C7.40034 40.5823 5.04128 37.9956 5.21547 33.593C5.09386 36.6231 5.42833 41.0268 7.69828 44.8743C7.69828 44.8743 8.69633 37.5219 16.7473 33.7626Z" fill="#CC4238"/>
<path d="M2.57227 29.9037H5.6329C5.6329 29.9037 5.4068 31.0552 5.25388 32.8376C5.50554 29.9037 9.94042 28.165 10.8088 27.6919C5.78381 27.6822 2.57227 29.9037 2.57227 29.9037Z" fill="#CC4238"/>
<path d="M4.61816 20.038C6.15122 16.5959 10.5893 15.5506 10.5893 15.5506C6.01649 15.0381 3.08496 16.6075 3.08496 16.6075H6.17891C6.17891 16.6075 5.43546 17.8409 4.61816 20.038Z" fill="#CC4238"/>
<path d="M10.292 7.29326C13.2279 5.54253 17.5252 6.72038 17.5252 6.72038C14.805 4.00037 11.7203 3.61908 11.7203 3.61908L14.046 5.51818C14.046 5.51818 12.3713 5.99847 10.292 7.29326Z" fill="#CC4238"/>
<path d="M40.6232 48.3222C43.4258 48.3222 45.731 46.8136 46.7918 45.9792C46.7918 45.9792 44.0388 46.8309 40.4909 46.5352C36.943 46.2396 21.9082 34.9448 21.9082 34.9448C28.1 41.0596 36.2064 47.9302 39.8673 48.2855C40.1168 48.3099 40.3712 48.3222 40.6232 48.3222Z" fill="#F7934B"/>
<path d="M20.2378 36.7932C21.2265 39.2471 22.8605 43.2401 23.6417 44.7959L23.675 44.8622C24.8023 47.1078 27.7966 53.0727 32.2136 54.2381C33.0052 54.447 33.7969 54.5865 34.5665 54.6526C36.5842 54.826 38.0738 54.4629 38.8635 54.1908L20.2378 36.7932Z" fill="#F37D3A"/>
<path d="M30.5509 51.6257C27.0099 49.3886 20.2378 36.7932 20.2378 36.7932C21.2265 39.2471 22.8605 43.24 23.6417 44.7959L23.675 44.8622C24.8023 47.1078 27.7966 53.0727 32.2136 54.2381C33.0052 54.4469 33.7969 54.5865 34.5665 54.6526C36.5842 54.826 38.0738 54.463 38.8635 54.1907C38.8635 54.1907 34.0917 53.8628 30.5509 51.6257Z" fill="#F7934B"/>
<path d="M16.4149 45.1303C16.1878 48.7483 16.6271 51.662 17.6517 53.3345C19.5684 56.4627 23.4213 58.6254 25.3897 59.1788C25.3897 59.1788 20.779 56.4706 18.337 51.2963C15.8948 46.1219 18.0068 36.8994 18.0068 36.8994C17.1722 39.3452 16.5912 42.3184 16.4149 45.1303Z" fill="#F7934B"/>
<path d="M10.8051 48.6641C10.4294 42.6327 15.3274 37.7206 15.3274 37.7206C13.5905 38.8759 11.5589 41.2752 10.548 43.9641C9.45841 46.8621 9.06923 51.1614 11.1843 54.2328C12.117 55.5876 13.4101 56.5804 15.0388 57.1958C15.0388 57.1958 11.1808 54.6956 10.8051 48.6641Z" fill="#F7934B"/>
<path d="M38.0596 26.199C39.4289 27.3369 39.7271 28.8232 39.7271 28.8232C42.6617 25.059 42.8173 20.797 41.4796 17.8416C40.1698 14.9478 38.3405 13.7359 36.2339 13.47C35.978 13.4378 35.7133 13.4224 35.4429 13.4225C37.494 13.4371 40.801 16.5719 40.474 20.3992C40.1463 24.2357 38.0596 26.199 38.0596 26.199Z" fill="#F7934B"/>
<defs>
<linearGradient id="paint0_linear" x1="2" y1="267" x2="151" y2="267" gradientUnits="userSpaceOnUse">
<stop stop-color="#0088CC"/>
<stop offset="1" stop-color="#006DAE"/>
</linearGradient>
</defs>
</svg>
