<svg width="735" height="612" viewBox="0 0 735 612" fill="none" xmlns="http://www.w3.org/2000/svg">
<g opacity="0.8">
<path opacity="0.5" d="M-286.414 207.991C-215.591 271.984 -223.912 340.236 -166.361 403.316C-123.232 450.588 -75.3814 436.938 -22.2117 472.828C16.5987 499.024 41.8282 566.599 81.5019 602.115C167.721 679.299 274.893 715.169 274.893 715.169L35.5953 980.006L-525.712 472.828L-286.414 207.991Z" fill="#7DBFF5"/>
<path opacity="0.3" d="M-145.414 227.991C-74.5908 291.984 -82.9114 360.236 -25.3603 423.316C17.768 470.588 65.6189 456.938 118.789 492.828C157.599 519.024 182.828 586.599 222.502 622.115C308.722 699.299 415.893 735.169 415.893 735.169L176.596 1000.01L-384.711 492.828L-145.414 227.991Z" fill="#7DBFF5"/>
<path opacity="0.2" d="M-14.4146 234.99C56.4082 298.984 48.0876 367.236 105.639 430.316C148.767 477.588 196.618 463.938 249.788 499.827C288.598 526.024 313.827 593.599 353.501 629.115C439.721 706.299 546.892 742.169 546.892 742.169L307.595 1007.01L-253.712 499.827L-14.4146 234.99Z" fill="#7DBFF5"/>
<path opacity="0.2" d="M-16.4146 57.9902C66.6589 133.053 63.4187 205.895 131.878 278.832C183.181 333.49 234.414 322.896 295.735 366.151C340.495 397.724 373.942 472.723 420.45 514.414C521.521 605.018 641.985 652.898 641.985 652.898L402.687 917.735L-255.712 322.827L-16.4146 57.9902Z" fill="#7DBFF5"/>
</g>
</svg>
