<svg width="53" height="60" viewBox="0 0 53 60" fill="none" xmlns="http://www.w3.org/2000/svg">
<path d="M23.1258 14.2677C23.1258 15.2048 22.3661 15.9644 21.4291 15.9644C20.4921 15.9644 19.7324 15.2048 19.7324 14.2677C19.7324 13.3307 20.4921 12.571 21.4291 12.571C22.3661 12.571 23.1258 13.3307 23.1258 14.2677Z" fill="#3A3129"/>
<path d="M32.3769 31.3009C28.6982 31.3009 25.6869 30.3688 24.2339 28.5297C22.7485 26.6496 22.0304 24.5475 22.9287 20.6883C22.9287 20.6883 20.733 21.4867 17.7721 21.1875C14.8112 20.8879 13.7799 18.9916 14.412 16.1971C15.0441 13.4026 17.2398 10.9408 18.2045 10.2088L16.2084 8.47882C16.2084 8.47882 22.7946 5.93193 26.8162 13.5871C26.8162 13.5871 26.8227 13.5828 26.832 13.5764C28.9511 11.9012 31.6344 11.1159 33.7686 11.1159C33.9686 11.1159 34.1659 11.1231 34.3551 11.1374C34.3832 11.1396 34.4122 11.143 34.4405 11.1455C34.216 9.58149 33.2288 5.59398 28.9171 3.12255C23.461 -0.00471485 14.6912 -0.0473908 9.72407 3.61876L12.0498 5.51786C12.0498 5.51786 3.58434 7.94207 1.08641 16.6073H4.18036C4.18036 16.6073 1.03798 21.8195 0.572266 29.9037H3.63304C3.63304 29.9037 1.76993 38.2209 5.69563 44.8745C5.69563 44.8745 6.69367 37.5221 14.7447 33.7629C22.7957 30.0035 30.1147 35.1268 32.4767 36.4909C34.8387 37.8549 38.5981 39.851 43.1892 39.7512C47.7803 39.6514 50.7745 35.3929 52.3713 31.3009C52.3713 31.3009 35.406 31.3009 32.3769 31.3009Z" fill="#EF4138"/>
<path d="M33.5835 26.1412C33.5835 26.1412 32.7174 27.8092 30.9209 28.515C29.1245 29.2207 26.2374 28.4509 25.3392 26.1412C24.4409 23.8315 24.7938 20.5594 26.494 17.5118C28.1942 14.4644 31.6414 13.144 34.225 13.4699C36.3316 13.7357 38.1609 14.9477 39.4706 17.8415C40.8084 20.797 40.6528 25.0589 37.7182 28.8231C37.7182 28.8231 37.1874 26.1766 34.2892 25.243C31.8992 24.473 30.2794 25.0504 27.745 22.8423C27.745 22.8423 27.8093 24.3768 29.3811 25.2108C30.953 26.0449 33.5835 26.1412 33.5835 26.1412Z" fill="#F37D3A"/>
<path d="M38.6232 48.3217C38.3712 48.3217 38.1168 48.3094 37.8673 48.285C34.2064 47.9297 26.1 41.0591 19.9082 34.9443C20.1221 34.9295 20.3654 34.92 20.6357 34.92C22.602 34.92 25.7781 35.4074 29.7418 37.7297C35.3176 40.9965 42.4573 44.7586 44.7918 45.9787C43.731 46.8131 41.4258 48.3217 38.6232 48.3217Z" fill="#F37D3A"/>
<path d="M23.3897 59.1788C21.4213 58.6254 17.5684 56.4627 15.6517 53.3345C14.6269 51.662 14.1878 48.7483 14.4149 45.1303C14.5913 42.3184 15.1723 39.3452 16.0068 36.8994L23.3897 59.1788Z" fill="#F37D3A"/>
<path d="M13.0388 57.1958C11.4101 56.5804 10.117 55.5876 9.18427 54.2328C7.06923 51.1614 7.45841 46.8621 8.54797 43.9641C9.55886 41.2752 11.5905 38.8759 13.3274 37.7206C12.8018 39.1647 12.157 41.7701 11.7584 44.7518C11.0931 49.7285 12.2551 54.9399 13.0388 57.1958Z" fill="#F37D3A"/>
<path d="M23.1258 14.2677C23.1258 15.2048 22.3661 15.9644 21.4291 15.9644C20.4921 15.9644 19.7324 15.2048 19.7324 14.2677C19.7324 13.3307 20.4921 12.571 21.4291 12.571C22.3661 12.571 23.1258 13.3307 23.1258 14.2677Z" fill="#13141A"/>
<path d="M38.6232 48.3217C38.3712 48.3217 38.1168 48.3094 37.8673 48.285C34.2064 47.9297 26.1 41.0591 19.9082 34.9443C20.1221 34.9295 20.3654 34.92 20.6357 34.92C22.602 34.92 25.7781 35.4074 29.7418 37.7297C35.3176 40.9965 42.4573 44.7586 44.7918 45.9787C43.731 46.8131 41.4258 48.3217 38.6232 48.3217Z" fill="#F37D3A"/>
<path d="M23.3897 59.1788C21.4213 58.6254 17.5684 56.4627 15.6517 53.3345C14.6269 51.662 14.1878 48.7483 14.4149 45.1303C14.5913 42.3184 15.1723 39.3452 16.0068 36.8994L23.3897 59.1788Z" fill="#F37D3A"/>
<path d="M13.0388 57.1958C11.4101 56.5804 10.117 55.5876 9.18427 54.2328C7.06923 51.1614 7.45841 46.8621 8.54797 43.9641C9.55886 41.2752 11.5905 38.8759 13.3274 37.7206C12.8018 39.1647 12.157 41.7701 11.7584 44.7518C11.0931 49.7285 12.2551 54.9399 13.0388 57.1958Z" fill="#F37D3A"/>
<path d="M45.4558 37.1528C40.804 38.7623 34.186 36.5162 28.0674 34.086C30.0707 34.9766 31.6134 35.9885 32.4831 36.4908C34.8453 37.8548 38.6045 39.8509 43.1956 39.7511C47.7867 39.6513 50.7809 35.3928 52.3777 31.3008C52.3777 31.3008 49.0844 35.8975 45.4558 37.1528Z" fill="#CC4238"/>
<path d="M14.7473 33.7626C16.3184 33.0289 17.8612 32.6348 19.3452 32.4838C12.2241 33.1242 7.09033 35.9733 5.40034 40.5823C5.40034 40.5823 3.04128 37.9956 3.21547 33.593C3.09386 36.6231 3.42833 41.0268 5.69828 44.8743C5.69828 44.8743 6.69633 37.5219 14.7473 33.7626Z" fill="#CC4238"/>
<path d="M0.572266 29.9037H3.6329C3.6329 29.9037 3.4068 31.0552 3.25388 32.8376C3.50554 29.9037 7.94042 28.165 8.80883 27.6919C3.78381 27.6822 0.572266 29.9037 0.572266 29.9037Z" fill="#CC4238"/>
<path d="M2.61816 20.038C4.15122 16.5959 8.58931 15.5506 8.58931 15.5506C4.01649 15.0381 1.08496 16.6075 1.08496 16.6075H4.17891C4.17891 16.6075 3.43546 17.8409 2.61816 20.038Z" fill="#CC4238"/>
<path d="M8.29199 7.29326C11.2279 5.54253 15.5252 6.72038 15.5252 6.72038C12.805 4.00037 9.72029 3.61908 9.72029 3.61908L12.046 5.51818C12.046 5.51818 10.3713 5.99847 8.29199 7.29326Z" fill="#CC4238"/>
<path d="M38.6232 48.3222C41.4258 48.3222 43.731 46.8136 44.7918 45.9792C44.7918 45.9792 42.0388 46.8309 38.4909 46.5352C34.943 46.2396 19.9082 34.9448 19.9082 34.9448C26.1 41.0596 34.2064 47.9302 37.8673 48.2855C38.1168 48.3099 38.3712 48.3222 38.6232 48.3222Z" fill="#F7934B"/>
<path d="M18.2378 36.7932C19.2265 39.2471 20.8605 43.2401 21.6417 44.7959L21.675 44.8622C22.8023 47.1078 25.7966 53.0727 30.2136 54.2381C31.0052 54.447 31.7969 54.5865 32.5665 54.6526C34.5842 54.826 36.0738 54.4629 36.8635 54.1908L18.2378 36.7932Z" fill="#F37D3A"/>
<path d="M28.5509 51.6257C25.0099 49.3886 18.2378 36.7932 18.2378 36.7932C19.2265 39.2471 20.8605 43.24 21.6417 44.7959L21.675 44.8622C22.8023 47.1078 25.7966 53.0727 30.2136 54.2381C31.0052 54.4469 31.7969 54.5865 32.5665 54.6526C34.5842 54.826 36.0738 54.463 36.8635 54.1907C36.8635 54.1907 32.0917 53.8628 28.5509 51.6257Z" fill="#F7934B"/>
<path d="M14.4149 45.1303C14.1878 48.7483 14.6271 51.662 15.6517 53.3345C17.5684 56.4627 21.4213 58.6254 23.3897 59.1788C23.3897 59.1788 18.779 56.4706 16.337 51.2963C13.8948 46.1219 16.0068 36.8994 16.0068 36.8994C15.1722 39.3452 14.5912 42.3184 14.4149 45.1303Z" fill="#F7934B"/>
<path d="M8.80511 48.6641C8.42944 42.6327 13.3274 37.7206 13.3274 37.7206C11.5905 38.8759 9.55886 41.2752 8.54797 43.9641C7.45841 46.8621 7.06923 51.1614 9.18427 54.2328C10.117 55.5876 11.4101 56.5804 13.0388 57.1958C13.0388 57.1958 9.18078 54.6956 8.80511 48.6641Z" fill="#F7934B"/>
<path d="M36.0596 26.199C37.4289 27.3369 37.7271 28.8232 37.7271 28.8232C40.6617 25.059 40.8173 20.797 39.4796 17.8416C38.1698 14.9478 36.3405 13.7359 34.2339 13.47C33.978 13.4378 33.7133 13.4224 33.4429 13.4225C35.494 13.4371 38.801 16.5719 38.474 20.3992C38.1463 24.2357 36.0596 26.199 36.0596 26.199Z" fill="#F7934B"/>
</svg>
