<svg width="721" height="612" viewBox="0 0 721 612" fill="none" xmlns="http://www.w3.org/2000/svg">
<g opacity="0.8">
<path opacity="0.5" d="M1013.37 389.944C942.547 325.951 950.868 257.699 893.317 194.618C850.189 147.346 802.338 160.997 749.168 125.107C710.358 98.9105 685.128 31.3361 645.454 -4.18014C559.235 -81.3645 452.063 -117.234 452.063 -117.234L691.361 -382.071L1252.67 125.107L1013.37 389.944Z" fill="#7DBFF5"/>
<path opacity="0.3" d="M872.37 369.944C801.547 305.951 809.867 237.699 752.316 174.619C709.188 127.347 661.337 140.997 608.167 105.107C569.357 78.9106 544.128 11.3362 504.454 -24.18C418.234 -101.364 311.063 -137.234 311.063 -137.234L550.361 -402.071L1111.67 105.107L872.37 369.944Z" fill="#7DBFF5"/>
<path opacity="0.2" d="M711.371 362.944C640.548 298.951 648.869 230.699 591.318 167.619C548.19 120.347 500.339 133.997 447.169 98.1074C408.359 71.9106 383.129 4.33621 343.455 -31.18C257.236 -108.364 150.064 -144.234 150.064 -144.234L389.362 -409.071L950.669 98.1074L711.371 362.944Z" fill="#7DBFF5"/>
<path opacity="0.2" d="M727.371 534.945C648.522 463.699 653.514 392.44 588.817 322.902C540.333 270.791 490.266 282.438 431.756 241.724C389.047 212.005 358.434 139.566 314.283 100.004C218.333 14.0276 102.453 -29.7105 102.453 -29.7105L341.751 -294.547L966.669 270.108L727.371 534.945Z" fill="#7DBFF5"/>
</g>
</svg>
