<svg width="51" height="33" viewBox="0 0 51 33" fill="none" xmlns="http://www.w3.org/2000/svg">
<path d="M14.8092 13.9974V22.0784H12.2368V11.9209L17.5476 11.9262C19.8033 11.9262 20.5717 13.5169 20.5717 14.9618V22.0784H18.0039V14.9751C18.0039 14.3698 17.6906 13.9974 16.9349 13.9974H14.8092V13.9974ZM32.3013 13.876C31.4221 13.876 30.7416 14.328 30.4574 14.9417C30.289 15.3101 30.2311 15.5924 30.2113 16.0435H34.1688C34.118 14.9417 33.6184 13.876 32.3013 13.876ZM30.2113 17.7943C30.2113 19.11 31.0292 20.0784 32.4896 20.0784C33.6258 20.0784 34.1905 19.7636 34.8474 19.11L36.4363 20.6271C35.419 21.6314 34.3515 22.2413 32.4707 22.2413C30.0082 22.2413 27.6515 20.8986 27.6515 16.9853C27.6515 13.6417 29.7091 11.7488 32.4128 11.7488C35.1533 11.7488 36.7366 13.9649 36.7366 16.8676V17.7943H30.2113ZM25.48 22.0657C23.3844 22.0657 22.4952 20.6069 22.4952 19.1661V9.15347H25.0636V11.9209H26.9998V13.9974H25.0636V19.0051C25.0636 19.5952 25.3423 19.9227 25.955 19.9227H26.9998V22.0657H25.48ZM9.94798 10.5172H7.35791V8.05689H9.94798V10.5172ZM9.9545 22.1852C8.01488 21.9989 7.35514 20.8224 7.35514 19.4648L7.35794 11.9209H9.95452V22.1852H9.9545ZM40.8245 21.9682C38.8889 21.7815 38.2323 20.6069 38.2323 19.2512V7.70674H40.8245V21.9682ZM49.8866 9.37514C47.5374 -2.07831 25.3045 -2.80338 10.974 5.92068V6.88383C25.29 -0.473374 45.5935 -0.430032 47.4433 10.1191C48.0622 13.6073 46.0966 17.2441 42.5861 19.3345V22.0695C46.8114 20.5236 51.1448 15.511 49.8866 9.37514ZM23.837 29.4143C13.9467 30.3285 3.64031 28.8929 2.19822 21.1645C1.49234 17.3546 3.22793 13.316 5.53039 10.8073V9.46585C1.38553 13.1005 -0.863985 17.702 0.43105 23.1391C2.08398 30.1112 10.9294 34.0622 24.4305 32.7502C29.7723 32.2288 36.7639 30.5112 41.6245 27.8434V24.0533C37.214 26.6796 29.9156 28.8514 23.837 29.4143Z" fill="#A2B5CD"/>
<path d="M43.8209 8.47335C43.8209 8.34766 43.7475 8.30772 43.5797 8.30772H43.4178V8.66344C43.4414 8.66344 43.559 8.66778 43.5797 8.66778C43.7475 8.66778 43.8209 8.61174 43.8209 8.49409V8.47336V8.47335ZM44.0735 9.35539H43.8816C43.8643 9.35539 43.8491 9.34454 43.8417 9.33L43.5797 8.88604C43.5751 8.87708 43.5525 8.86623 43.5435 8.86623H43.4259V9.30647C43.4259 9.33 43.4098 9.35539 43.3788 9.35539H43.2051C43.1835 9.35539 43.1618 9.33 43.1618 9.30647V8.19286C43.1618 8.12846 43.1869 8.10153 43.2414 8.09317C43.3027 8.08513 43.4692 8.07955 43.559 8.07955C43.8779 8.07955 44.0708 8.17367 44.0708 8.47335V8.49409C44.0708 8.67953 43.9785 8.77736 43.8355 8.82535L44.107 9.28448C44.1087 9.29377 44.115 9.30647 44.115 9.3173C44.115 9.33525 44.1042 9.35538 44.0735 9.35538L44.0735 9.35539ZM43.6178 7.87861C43.1454 7.87861 42.7633 8.2687 42.7633 8.73836C42.7633 9.20863 43.1454 9.59253 43.6178 9.59253C44.0878 9.59253 44.4735 9.20863 44.4735 8.73836C44.4735 8.2687 44.0878 7.87861 43.6178 7.87861ZM43.6178 9.76962C43.0438 9.76962 42.5859 9.30646 42.5859 8.73836C42.5859 8.17118 43.0438 7.70679 43.6178 7.70679C44.1856 7.70679 44.6522 8.17118 44.6522 8.73836C44.6522 9.30646 44.1856 9.76962 43.6178 9.76962Z" fill="#A2B5CD"/>
</svg>
