<svg width="116" height="25" viewBox="0 0 116 25" fill="none" xmlns="http://www.w3.org/2000/svg">
<g clip-path="url(#clip0)">
<path d="M114.6 5.90403C114.814 5.90403 115.053 5.91505 115.053 5.63604C115.053 5.41176 114.867 5.37905 114.697 5.37905H114.345V5.90437L114.6 5.90403ZM114.346 6.79681H114.125V5.19816H114.749C115.115 5.19816 115.274 5.35402 115.274 5.63971C115.274 5.92272 115.088 6.04588 114.898 6.08593L115.352 6.79681H115.105L114.664 6.08593H114.352L114.346 6.79681ZM115.778 5.99515C115.778 5.34668 115.288 4.83171 114.633 4.83171C113.978 4.83171 113.489 5.34668 113.489 5.99515C113.489 6.64362 113.978 7.15859 114.633 7.15859C115.288 7.15859 115.778 6.64128 115.778 5.99381V5.99515ZM115.999 5.99515C115.999 6.73473 115.385 7.34015 114.633 7.34015C113.877 7.34015 113.267 6.73473 113.267 5.99515C113.267 5.25556 113.877 4.65015 114.633 4.65015C115.385 4.65015 115.999 5.25556 115.999 5.99515Z" fill="#A2B5CD"/>
<path d="M103.59 17.3057C103.494 18.1628 103.445 18.5933 103.154 19.2632C103.975 19.8856 105.042 20.5528 106.882 20.5528C110.366 20.5528 112.443 18.2572 112.443 15.5352C112.443 10.6104 105.327 12.3322 105.327 8.17441C105.327 6.54706 106.54 5.40097 108.231 5.40097C109.925 5.40097 110.603 6.64518 110.942 7.50458H111.183C111.376 6.64518 111.522 6.11753 111.81 5.59221C110.888 4.92238 109.871 4.58997 108.468 4.58997C105.466 4.58997 103.527 6.30876 103.527 8.79518C103.527 14.0537 110.644 12.2838 110.644 16.3973C110.644 18.1628 109.434 19.5979 107.448 19.5979C105.513 19.5979 104.347 18.3564 103.866 17.3084H103.571L103.59 17.3057ZM100.572 12.5759C100.572 17.4986 97.861 19.7448 94.3297 19.7448C90.7951 19.7448 88.084 17.4986 88.084 12.5759C88.084 7.60637 90.7951 5.40698 94.3264 5.40698C97.8576 5.40698 100.572 7.60637 100.572 12.5792V12.5759ZM85.8548 12.5792C85.8548 17.6455 89.3436 20.5624 94.3287 20.5624C99.3138 20.5624 102.801 17.6455 102.801 12.5792C102.801 7.51292 99.3172 4.59597 94.3321 4.59597C89.347 4.59597 85.8598 7.50959 85.8598 12.5759L85.8548 12.5792ZM84.6547 20.5588C84.6063 19.5575 84.5565 14.6348 84.5565 12.3386C84.5565 10.6164 84.8005 6.17426 84.9455 4.88266C84.6541 4.92939 84.4609 4.97945 84.2203 4.97945C83.9763 4.97945 83.6848 4.93272 83.4422 4.886C83.6371 8.32693 83.6371 12.679 83.6371 16.6473C80.8785 13.9205 75.8426 8.52051 72.1656 4.60231H71.8267C71.8742 5.60356 71.8742 7.75623 71.8742 10.5764C71.8742 13.49 71.5827 19.2271 71.3895 20.2818C71.6817 20.235 71.9724 20.185 72.2618 20.185C72.5025 20.185 72.7973 20.235 73.0379 20.2851C72.9396 19.3773 72.843 14.6928 72.843 12.7791C72.843 10.3895 72.8939 9.05116 72.8939 8.23682C76.764 12.3019 80.8815 16.5571 84.3179 20.5688H84.6568L84.6547 20.5588ZM68.0511 12.5855C68.0511 17.5083 65.2925 19.7544 61.7579 19.7544C58.2233 19.7544 55.5122 17.5083 55.5122 12.5855C55.5122 7.61338 58.2233 5.41466 61.7579 5.41466C65.2925 5.41466 68.0511 7.61405 68.0511 12.5859V12.5855ZM53.2856 12.5859C53.2856 17.6522 56.7728 20.5681 61.7579 20.5681C66.743 20.5681 70.2268 17.6518 70.2268 12.5859C70.2268 7.5196 66.743 4.60398 61.7579 4.60398C56.7728 4.60398 53.2856 7.5186 53.2856 12.5852" fill="#A2B5CD"/>
<path d="M44.8734 10.6592C44.8734 9.03383 44.9707 7.40848 45.0181 5.7838C45.5021 5.73541 46.1795 5.68868 47.1972 5.68868C48.7459 5.68868 50.7318 6.26273 50.7318 8.60396C50.7318 11.2816 48.262 12.0462 46.3727 12.0462C45.7949 12.0462 45.3086 11.9975 44.8734 11.9014V10.6592ZM43.0346 14.4846C43.0346 16.3946 42.9373 18.3554 42.8414 20.2684C43.2278 20.22 43.5667 20.1696 43.953 20.1696C44.2926 20.1696 44.6782 20.2197 45.0666 20.2688C44.9707 18.3564 44.8734 16.3973 44.8734 14.4849V12.8596H45.7437C47.6822 14.8253 50.6847 18.8837 51.6031 20.2721C52.0403 20.2254 52.4741 20.1753 52.9112 20.1753C53.3484 20.1753 53.833 20.2254 54.2668 20.2754C52.9621 18.8437 49.1834 14.0143 48.0753 12.6727C49.7697 12.4357 52.7215 11.2876 52.7215 8.37401C52.7215 5.74408 50.5424 4.88635 48.0244 4.88635C47.1569 4.88635 46.2825 4.98314 45.4116 4.98314C44.5915 4.98314 43.7205 4.93641 42.8496 4.88969C42.9478 6.80206 43.0427 8.71443 43.0427 10.6735V14.4846H43.0346ZM30.7952 14.5313V10.7046C30.7952 8.79554 30.6969 6.8825 30.6021 5.01852C30.9918 5.06724 31.3307 5.11464 31.717 5.11464C32.0559 5.11464 32.3948 5.06724 32.7845 5.01852C32.6862 6.8825 32.6388 8.7952 32.6388 10.7046V11.9488C32.6388 12.0456 32.6862 12.0923 32.7371 12.0923C32.8347 12.0923 32.8828 12.0456 33.076 11.9011C35.1601 10.1289 37.7221 7.36209 39.8063 5.01585C40.0954 5.06257 40.3858 5.11263 40.7247 5.11263C41.0636 5.11263 41.45 5.06591 41.7922 5.01585C39.7589 6.78471 36.2243 10.0321 34.6281 11.8977C37.0478 14.5744 39.5166 17.3912 42.0328 20.2147C41.5977 20.1646 41.1619 20.1179 40.6773 20.1179C40.2909 20.1179 39.8538 20.1646 39.4674 20.2147C37.3372 17.6315 33.9503 13.5698 32.9811 12.6119C32.8828 12.5185 32.7879 12.4684 32.7371 12.4684C32.6896 12.4684 32.6422 12.5151 32.6422 12.5619V14.521C32.6422 16.3833 32.6896 18.3457 32.7879 20.208C32.3992 20.158 32.0593 20.1112 31.7217 20.1112C31.3354 20.1112 30.9965 20.158 30.6078 20.208C30.7027 18.3424 30.8023 16.3799 30.8023 14.5176" fill="#A2B5CD"/>
<path d="M0.194523 10.1316H11.0377C11.2783 10.1316 14.1368 10.2771 15.2975 8.6531C16.5074 7.02542 19.9461 2.24683 19.9461 2.24683C20.1854 2.38867 20.1854 2.4384 20.3789 2.58291C20.3789 2.58291 14.6211 10.5161 14.6211 10.5628C13.6034 11.8978 11.9574 12.2349 10.652 12.2349H0C0 11.6608 0.0491392 10.8465 0.194523 10.1289V10.1316ZM25.3175 12.5219C25.3175 15.6758 24.206 18.5894 22.1231 20.7421L17.4766 14.3879C17.0394 13.8138 16.2644 12.8573 15.0061 12.5239C16.2644 12.1408 17.0394 11.1856 17.4766 10.6593L22.1228 4.25398C24.206 6.40665 25.3175 9.32026 25.3175 12.5242" fill="#A2B5CD"/>
<path d="M1.01748 7.50458H10.3122C12.7299 7.50458 13.1681 6.83475 13.795 6.16692C13.8442 6.16692 17.573 0.955461 17.573 0.955461C17.573 0.955461 17.8156 1.05158 18.104 1.19576C18.104 1.19576 15.9249 4.25388 13.1189 8.0793C12.6835 8.65334 11.8589 9.60919 10.2621 9.60919H0.339355C0.534218 8.79552 0.823969 8.0793 1.01714 7.50458H1.01748ZM3.09861 4.30194H8.32769C9.24676 4.30194 9.77882 3.44088 10.1177 3.1078C10.1177 3.15452 12.393 0.000610352 12.393 0.000610352C9.24676 0.047335 5.71247 1.29021 3.09861 4.30161" fill="#A2B5CD"/>
<path d="M2.6142 4.876H9.73159C11.424 4.92272 12.4393 3.49095 12.4393 3.49095L14.8624 0.190186L15.49 0.286972C15.49 0.286972 11.9086 5.20974 11.8591 5.25847C11.0851 6.45228 10.263 6.88315 9.24698 6.93221H1.30812C1.45316 6.5484 2.03335 5.59055 2.6142 4.87633V4.876ZM0.194523 14.8684H11.0377C11.2783 14.8684 14.1368 14.7716 15.2975 16.3502C16.5074 17.9722 19.9461 22.7542 19.9461 22.7542C20.1854 22.6107 20.1854 22.5606 20.3789 22.4181C20.3789 22.4181 14.6211 14.4849 14.6211 14.4382C13.6034 13.0999 11.9574 12.7661 10.652 12.7661H0C0 13.3435 0.0491392 14.1512 0.194523 14.8721" fill="#A2B5CD"/>
<path d="M1.01748 17.4918H10.3122C12.7299 17.4918 13.1681 18.1649 13.795 18.8311C13.8442 18.8311 17.573 24.0435 17.573 24.0435C17.573 24.0435 17.8156 23.9501 18.104 23.8066C18.104 23.8066 15.9249 20.7461 13.1189 16.9247C12.6835 16.3507 11.8589 15.3928 10.2621 15.3928C10.2621 15.4429 0.339355 15.3928 0.339355 15.3928C0.533879 16.2105 0.823969 16.9247 1.01714 17.4954L1.01748 17.4918ZM3.09861 20.7027H8.32769C9.24676 20.7027 9.77882 21.5638 10.1177 21.8976L12.393 25.0081C9.24676 24.958 5.71247 23.7165 3.09861 20.7061" fill="#A2B5CD"/>
<path d="M2.61419 20.1236H9.73158C11.424 20.1236 12.4393 21.5114 12.4393 21.5114L14.8624 24.8081L15.49 24.7113C15.49 24.7113 11.9086 19.7896 11.8591 19.7412C11.0851 18.545 10.263 18.1165 9.24697 18.0677H1.30811C1.5982 18.6411 2.03333 19.4074 2.61419 20.1236Z" fill="#A2B5CD"/>
</g>
<defs>
<clipPath id="clip0">
<rect width="116" height="25" fill="white"/>
</clipPath>
</defs>
</svg>
