<svg width="39" height="41" viewBox="0 0 39 41" fill="none" xmlns="http://www.w3.org/2000/svg">
<path d="M24.0373 40.6591H8.95955C13.6562 37.7083 17.8131 34.5039 19.8527 31.5272C19.8578 34.8691 20.9214 37.6147 23.043 39.764C23.3614 40.0867 23.6929 40.385 24.0373 40.6591ZM38.1093 12.0712V39.4431C36.5656 40.0326 35.0866 40.3271 33.6727 40.3271C31.3046 40.3271 29.4983 39.6385 28.2538 38.2608C27.0097 36.8831 26.3871 34.9065 26.3871 32.3303C26.3871 29.8145 26.9565 27.0293 28.0959 23.9743C29.2348 20.9192 30.6887 18.3136 32.4576 16.1575C33.5361 14.7798 34.6376 13.7392 35.7616 13.0356C36.5554 12.5385 37.3376 12.2172 38.1093 12.0712ZM38.1093 2.32384V10.0598C36.2787 10.2947 34.435 10.9259 32.5776 11.9524C30.1691 13.2838 27.8571 15.1918 25.6427 17.6756C23.7874 19.8012 22.3587 22.0463 21.3563 24.4101C21.1235 24.96 20.9175 25.5095 20.7383 26.0593C18.7954 21.8228 10.5407 20.1995 11.3813 15.0637C12.1465 10.3853 26.8786 5.54401 38.1093 2.32384ZM0 0H35.4956C20.8396 5.0252 10.4185 10.4654 9.21237 14.461C6.79404 22.4719 30.3444 29.1012 4.93156 36.0365C4.1263 36.2566 2.35533 36.5379 0 36.8482V0Z" fill="#0088CC"/>
</svg>
