<svg width="93" height="28" viewBox="0 0 93 28" fill="none" xmlns="http://www.w3.org/2000/svg">
<g clip-path="url(#clip0)">
<path d="M0 28V0H19.0692V28H0ZM16.3098 25.1794V2.82045H2.74592V25.1794H16.3098Z" fill="#A2B5CD"/>
<path d="M31.74 12.559H30.5602C29.014 10.3189 27.4742 8.09259 25.9413 5.57268V12.559H24.6084V2.8136H25.788C27.3344 5.03992 28.874 7.25262 30.3937 9.759V2.8136H31.7267V12.559H31.74Z" fill="#A2B5CD"/>
<path d="M34.8327 8.7073C35.2126 7.43024 35.5925 6.24189 35.9324 4.73957C36.3124 6.24199 36.6524 7.43024 37.0056 8.7073H34.8327ZM35.4592 2.82046L32.1665 12.559H33.5796L34.406 9.9024H37.2721L38.0185 12.559H39.8382L36.8321 2.8136H35.4993L35.4592 2.82046Z" fill="#A2B5CD"/>
<path d="M41.3843 12.5589V4.12484H38.8848V2.82043H45.4968V4.12484H42.9974V12.5589H41.3644H41.3843Z" fill="#A2B5CD"/>
<path d="M46.0503 12.559V2.8136H47.6699V12.559H46.0503Z" fill="#A2B5CD"/>
<path d="M52.6887 11.316C50.9892 11.316 50.3892 9.39696 50.3892 7.53254C50.3892 5.66813 51.0557 4.0223 52.6887 4.0223C54.3218 4.0223 54.9816 5.73654 54.9816 7.53254C54.9816 9.32874 54.3884 11.316 52.6887 11.316ZM52.6887 12.6818C55.1748 12.6818 56.7211 10.4146 56.7211 7.50529C56.7211 4.77365 55.0082 2.60193 52.6887 2.60193C50.3693 2.60193 48.6562 4.77365 48.6562 7.50529C48.6562 10.4554 50.2027 12.7297 52.6887 12.7297V12.6818Z" fill="#A2B5CD"/>
<path d="M64.826 12.559H63.6462C62.1 10.3189 60.5602 8.09259 59.0273 5.57268V12.559H57.6943V2.8136H58.874C60.4204 5.03992 61.9601 7.25262 63.4796 9.759V2.8136H64.8127V12.559H64.826Z" fill="#A2B5CD"/>
<path d="M67.9387 8.70727C68.3187 7.43021 68.6986 6.24187 69.0385 4.73955C69.4184 6.24196 69.7582 7.43021 70.1117 8.70727H67.912H67.9387ZM68.5653 2.82043L65.2793 12.5658H66.6923L67.5188 9.90915H70.3849L71.1313 12.5658H72.951L69.9182 2.82043H68.5852H68.5653Z" fill="#A2B5CD"/>
<path d="M73.4243 2.8136H75.0441V11.2477H78.2634V12.559H73.4243V2.8136Z" fill="#A2B5CD"/>
<path d="M30.7333 20.7136V24.7359C29.8756 25.107 28.958 25.3107 28.0274 25.3369C25.2279 25.3369 23.4614 23.1106 23.4614 20.2424C23.4614 17.5857 25.2279 15.2571 28.0806 15.2571C28.9059 15.2617 29.7102 15.5238 30.3868 16.0082L29.8602 17.1624C29.3335 16.8397 28.7341 16.6633 28.1207 16.6503C26.381 16.6503 25.2012 18.0571 25.2012 20.2697C25.2012 22.4823 26.5341 23.9439 27.9607 23.9439C28.354 23.9613 28.7454 23.8791 29.1003 23.7048V20.7136H30.7333Z" fill="#A2B5CD"/>
<path d="M36.5657 16.7317H33.8463V19.402H36.5123V20.7133H33.8463V23.8615H37.0523V25.1727H32.2134V15.4138H36.5592V16.725L36.5657 16.7317Z" fill="#A2B5CD"/>
<path d="M41.5909 23.9434C39.8913 23.9434 39.2981 22.0243 39.2981 20.1601C39.2981 18.2957 39.9646 16.6497 41.5909 16.6497C43.2173 16.6497 43.8905 18.3639 43.8905 20.1601C43.8904 21.9561 43.2906 23.9434 41.5909 23.9434ZM41.5909 25.3093C44.077 25.3093 45.6234 23.0419 45.6234 20.1327C45.6234 17.4011 43.9104 15.2294 41.5909 15.2294C39.2716 15.2294 37.5586 17.4011 37.5586 20.1327C37.5586 23.0692 39.1048 25.3365 41.5909 25.3365V25.3093Z" fill="#A2B5CD"/>
<path d="M53.455 20.7132V24.7356C52.5973 25.1066 51.6795 25.3103 50.7488 25.3365C47.9495 25.3365 46.1831 23.1102 46.1831 20.242C46.1831 17.5853 47.9495 15.2567 50.8022 15.2567C51.6275 15.2614 52.4318 15.5234 53.1083 16.0079L52.5819 17.162C52.0551 16.8394 51.4556 16.663 50.8421 16.6499C49.1026 16.6499 47.9228 18.0568 47.9228 20.2694C47.9228 22.482 49.2558 23.9435 50.6822 23.9435C51.0755 23.961 51.4669 23.8787 51.822 23.7044V20.7132H53.455Z" fill="#A2B5CD"/>
<path d="M56.5812 16.7316H57.3011C58.0593 16.6547 58.7349 17.2222 58.81 17.9993C58.8198 18.1002 58.819 18.2018 58.8075 18.3025C58.9275 19.2413 58.2819 20.1018 57.3657 20.2246C57.331 20.2292 57.2962 20.2328 57.2611 20.2352L56.5946 20.2762V16.7249L56.5812 16.7316ZM60.7137 25.166L58.8274 21.1299C59.8527 20.5467 60.4844 19.4357 60.4738 18.2342C60.4738 16.3425 59.3473 15.4207 57.5277 15.4207H54.9883V25.166H56.6213V21.4917H57.3545L58.8873 25.166H60.7471H60.7137Z" fill="#A2B5CD"/>
<path d="M63.3997 21.3143C63.7796 20.0372 64.1595 18.8489 64.4995 17.3464C64.8794 18.8489 65.2192 20.0303 65.5724 21.3143H63.3731H63.3997ZM64.0261 15.4138L60.7402 25.1591H62.16L62.9865 22.5023H65.8523L66.5988 25.1591H68.4185L65.3859 15.4138H64.0529H64.0261Z" fill="#A2B5CD"/>
<path d="M71.4911 15.4138H68.9517V25.1591H70.5846V21.4917H71.318C73.0332 21.5035 74.4332 20.0883 74.4446 18.3307C74.445 18.2985 74.4446 18.2663 74.4439 18.2342C74.4172 16.3424 73.2907 15.4138 71.4911 15.4138ZM71.2578 20.2283L70.5913 20.2692V16.725H71.3245C72.0834 16.6557 72.7536 17.2299 72.8213 18.0075C72.8297 18.1035 72.8283 18.2001 72.8175 18.2956C72.9402 19.2378 72.2944 20.1034 71.3748 20.2291C71.3294 20.2353 71.2837 20.2396 71.2379 20.2421L71.2578 20.2283Z" fill="#A2B5CD"/>
<path d="M81.9754 25.166H80.3425V20.4743H76.9565V25.166H75.3369V15.4138H76.9565V19.1561H80.3425V15.441H81.9754V25.1591V25.166Z" fill="#A2B5CD"/>
<path d="M83.5356 25.166V15.4138H85.1552V25.1591H83.5356V25.166Z" fill="#A2B5CD"/>
<path d="M92.4868 17.1894C91.9843 16.8638 91.4076 16.6779 90.8138 16.65C89.1541 16.65 87.9478 18.0566 87.9478 20.2692C87.9478 22.4818 89.2809 23.9435 90.8539 23.9435C91.4318 23.9419 91.9977 23.774 92.4869 23.4586L92.9335 24.6675C92.293 25.0932 91.5505 25.3294 90.7873 25.3503C87.9878 25.3503 86.2217 23.124 86.2217 20.2556C86.2217 17.5991 87.9745 15.2704 90.8139 15.2704C91.5988 15.2954 92.3591 15.5566 93.0002 16.0216L92.4868 17.1894Z" fill="#A2B5CD"/>
</g>
<defs>
<clipPath id="clip0">
<rect width="93" height="28" fill="white"/>
</clipPath>
</defs>
</svg>
