<svg width="136" height="38" viewBox="0 0 136 38" fill="none" xmlns="http://www.w3.org/2000/svg">
<path d="M9.19357 7.54749L7.72477 10.6961L5.71197 7.65606V7.54749H3.20957L0.271973 13.8446H2.77437L4.29757 10.6418L6.41917 13.8446H8.81277L11.696 7.54749H9.19357Z" fill="#A2B5CD"/>
<path d="M0.271973 13.8446L3.20957 7.54749H5.65757L7.72477 10.6961L9.19357 7.54749H11.696L8.81277 13.8446H6.41917L4.29757 10.6418L2.77437 13.8446H0.271973Z" fill="#A2B5CD"/>
<path d="M122.455 13.8429L125.392 7.54578H127.786L129.853 10.6944L131.376 7.54578H133.879L130.887 13.8429H128.602L126.426 10.6401L124.957 13.8429H122.455Z" fill="#A2B5CD"/>
<path d="M77.2478 13.6258C76.7582 13.68 76.4862 13.7886 75.8878 13.8429C75.235 13.8972 74.9086 13.8972 74.3646 13.8972C73.875 13.8972 73.4398 13.8429 73.0046 13.7343C72.6238 13.68 72.2974 13.5172 72.0254 13.3543C71.5358 13.0829 71.2638 12.6486 71.1006 12.2143C70.9374 11.7258 71.0462 11.2372 71.3182 10.64C71.5358 10.1515 71.8078 9.71719 72.1886 9.33718C72.5694 8.95719 73.059 8.63147 73.5486 8.25147C74.147 7.98004 74.691 7.65433 75.2894 7.54576C75.8878 7.3829 76.4862 7.32861 77.139 7.32861C77.6286 7.32861 78.0638 7.3829 78.499 7.49147C78.9342 7.54576 79.3694 7.70861 79.6958 7.87147L79.043 9.39147C78.6622 9.22861 78.3902 9.12004 78.0638 9.01147C77.683 8.95718 77.3566 8.84861 76.9758 8.84861C76.2686 8.84861 75.6702 9.01147 75.1262 9.33718C74.5278 9.60861 74.2014 10.0429 73.9838 10.64C73.7662 11.1286 73.7662 11.5629 73.9838 11.8343C74.2014 12.1058 74.6366 12.3229 75.1806 12.3229C75.235 12.3229 75.3982 12.3229 75.4526 12.3229C75.6158 12.3229 75.6158 12.3229 75.7246 12.2686L76.1054 11.5629H75.3438L75.9966 10.26H78.8798L77.2478 13.6258Z" fill="#A2B5CD"/>
<path d="M62.6689 8.68578H63.2674C63.7026 8.68578 63.9746 8.74006 64.1378 8.90292C64.301 9.06578 64.301 9.28292 64.1378 9.55435C63.9746 9.82578 63.757 10.0429 63.5394 10.2058C63.2674 10.3686 62.8866 10.4229 62.4514 10.4229H61.9618L62.6689 8.68578ZM60.3298 13.8429L61.4178 11.6172H62.2882C63.3762 11.6172 64.301 11.4543 65.0081 11.1286C65.7153 10.7486 66.205 10.2601 66.5858 9.55435C66.8577 8.84863 66.8033 8.41435 66.4225 8.03435C65.9873 7.65435 65.2802 7.54578 64.1378 7.54578H60.7105L57.7729 13.8429H60.3298Z" fill="#A2B5CD"/>
<path d="M32.6396 13.8429L35.7404 7.54578H38.3517L37.318 9.82578H40.0381L41.1805 7.54578H43.9005L40.7997 13.8429H38.0797L39.2221 11.5086H36.4476L35.3053 13.8429H32.6396Z" fill="#A2B5CD"/>
<path d="M27.3633 13.8429L29.7569 9.22863H27.3633L28.1793 7.54578H35.3601L34.5441 9.22863H32.2593L29.9201 13.8429H27.3633Z" fill="#A2B5CD"/>
<path d="M14.1982 9.7171C14.6334 9.44567 15.0686 9.28281 15.5038 9.28281C15.939 9.28281 16.2654 9.44567 16.4286 9.7171C16.6462 9.98853 16.6462 10.3142 16.4286 10.6942C16.2654 11.1285 15.9934 11.4 15.5582 11.6714C15.123 11.9428 14.6878 12.1057 14.2526 12.1057C13.8174 12.1057 13.491 11.9428 13.3278 11.6714C13.1646 11.4 13.1102 11.0742 13.3278 10.6942C13.5998 10.26 13.8718 9.93424 14.1982 9.7171ZM10.499 11.9971C10.499 12.3771 10.7166 12.7028 10.9342 13.0828C11.2062 13.3542 11.587 13.68 12.0222 13.7885C12.4574 13.8971 12.947 14.0057 13.5454 14.0057C14.1438 14.0057 14.6878 13.9514 15.2862 13.7885C15.8846 13.6257 16.4286 13.4085 16.9182 13.0828C17.5166 12.8114 17.8974 12.4314 18.2782 11.9971C18.659 11.6171 18.931 11.2371 19.1486 10.6942C19.3662 10.1514 19.4206 9.77138 19.4206 9.39138C19.4206 9.01138 19.203 8.68567 18.9854 8.30567C18.7134 8.03424 18.387 7.8171 17.8974 7.59996C17.4622 7.4371 16.9726 7.38281 16.3198 7.38281C15.7214 7.38281 15.1774 7.4371 14.579 7.59996C13.9806 7.76281 13.491 7.97996 12.947 8.30567C12.3486 8.5771 11.9678 8.9571 11.587 9.39138C11.2062 9.77138 10.9342 10.1514 10.7166 10.6942C10.5534 11.1285 10.499 11.5628 10.499 11.9971Z" fill="#A2B5CD"/>
<path d="M53.9645 9.7171C54.3997 9.44567 54.8349 9.28281 55.2701 9.28281C55.7053 9.28281 56.0317 9.44567 56.1949 9.7171C56.3581 9.98853 56.4125 10.3142 56.1949 10.6942C56.0317 11.0742 55.7597 11.4 55.3245 11.6714C54.8893 11.9428 54.4541 12.1057 54.0189 12.1057C53.5837 12.1057 53.2573 11.9428 53.0941 11.6714C52.9309 11.4 52.8765 11.0742 53.0941 10.6942C53.2573 10.26 53.5293 9.93424 53.9645 9.7171ZM50.2653 11.9971C50.2653 12.3771 50.4829 12.7028 50.7005 13.0828C50.9725 13.3542 51.3533 13.68 51.7885 13.7885C52.2237 13.8971 52.7133 14.0057 53.3117 14.0057C53.9101 14.0057 54.4541 13.9514 55.0525 13.7885C55.6509 13.6257 56.1949 13.4085 56.6845 13.0828C57.2829 12.8114 57.6637 12.4314 58.0445 11.9971C58.4253 11.6171 58.6973 11.2371 58.9149 10.6942C59.1325 10.2057 59.1869 9.77138 59.1869 9.39138C59.1869 9.01138 58.9693 8.68567 58.7517 8.30567C58.4797 8.03424 58.1533 7.8171 57.6637 7.59996C57.1741 7.4371 56.6845 7.38281 56.0861 7.38281C55.4877 7.38281 54.9437 7.4371 54.3453 7.59996C53.7469 7.76281 53.2573 7.97996 52.7133 8.30567C52.1149 8.5771 51.7341 8.9571 51.3533 9.39138C50.9725 9.77138 50.7005 10.1514 50.4829 10.6942C50.2653 11.1285 50.1565 11.5628 50.2653 11.9971Z" fill="#A2B5CD"/>
<path d="M88.5634 7.54578H91.229L89.6514 10.9115C89.4338 11.3458 89.4338 11.6715 89.4882 11.8886C89.6514 12.1058 89.9234 12.2686 90.3586 12.2686C90.7938 12.2686 91.229 12.1058 91.5554 11.8886C91.9362 11.6715 92.1538 11.2915 92.317 10.9115L93.8946 7.54578H96.5602L94.9826 10.9658C94.5474 11.9429 93.8402 12.7029 92.9698 13.1915C92.045 13.6801 90.957 13.8972 89.597 13.8972C88.2914 13.8972 87.3666 13.6801 86.9314 13.1915C86.4962 12.7029 86.4962 11.9972 86.9314 10.9658L88.5634 7.54578Z" fill="#A2B5CD"/>
<path d="M119.843 9.22863L119.789 11.5629H117.667L119.843 9.22863ZM115.491 13.8429L116.47 12.7572H119.734V13.8429H122.237L121.856 7.54578H119.19L112.826 13.8429H115.491Z" fill="#A2B5CD"/>
<path d="M27.0366 7.98006C26.6014 7.70863 25.8398 7.54578 24.6974 7.54578H21.2158L18.1694 13.8429H20.835L22.1406 11.1829C22.1406 11.1829 22.8478 11.1829 22.9022 11.1829C23.555 11.1829 23.827 11.9429 23.827 13.2458C23.827 13.4086 23.827 13.6258 23.827 13.8429H26.3294L26.003 11.9429C26.003 11.7258 25.9486 11.3458 25.8398 11.2372C25.7854 11.0744 25.6222 11.0201 25.459 10.9658C25.9486 10.8029 26.1662 10.5858 26.4382 10.3686C26.7102 10.0972 26.9278 9.77149 27.091 9.50006C27.4174 8.79435 27.363 8.25149 27.0366 7.98006ZM24.7518 9.50006C24.6974 9.71721 24.371 9.93435 24.099 10.0972C23.8814 10.1515 23.3374 10.3143 22.9022 10.3143H22.4126L23.1742 8.57721H23.6638C24.099 8.57721 24.4254 8.74006 24.5886 8.79435C24.7518 8.90292 24.8062 9.12006 24.7518 9.50006Z" fill="#A2B5CD"/>
<path d="M50.5379 7.98006C50.1027 7.70863 49.3411 7.54578 48.1987 7.54578H44.7171L41.7251 13.8429H44.3907L45.6963 11.1829C45.6963 11.1829 46.4035 11.1829 46.4579 11.1829C47.1107 11.1829 47.3827 11.9429 47.3827 13.2458C47.3827 13.4086 47.3827 13.6258 47.3827 13.8429H49.8851L49.6131 11.9429C49.6131 11.7258 49.5587 11.3458 49.4499 11.2372C49.3955 11.0744 49.2323 11.0201 49.0691 10.9658C49.5587 10.8029 49.7763 10.5858 50.0483 10.3686C50.3203 10.0972 50.5379 9.77149 50.7011 9.50006C51.0275 8.79435 50.9731 8.25149 50.5379 7.98006ZM48.3075 9.50006C48.2531 9.71721 47.9267 9.93435 47.6547 10.0972C47.4371 10.1515 46.8931 10.3143 46.4579 10.3143H45.9683L46.7299 8.57721H47.2195C47.6547 8.57721 47.9811 8.74006 48.1443 8.79435C48.3075 8.90292 48.3619 9.12006 48.3075 9.50006Z" fill="#A2B5CD"/>
<path d="M86.9309 7.98006C86.4957 7.70863 85.7341 7.54578 84.5917 7.54578H81.0557L78.0093 13.8429H80.6749L81.9805 11.1829C81.9805 11.1829 82.6877 11.1829 82.7421 11.1829C83.3949 11.1829 83.6669 11.9429 83.6669 13.2458C83.6669 13.4086 83.6669 13.6258 83.6669 13.8429H86.1693L86.1149 11.9429C86.1149 11.7258 86.0605 11.3458 85.9517 11.2372C85.8429 11.1286 85.7341 11.0201 85.5709 10.9658C86.0605 10.8029 86.2781 10.5858 86.5501 10.3686C86.8221 10.0972 87.0397 9.77149 87.2029 9.50006C87.4205 8.79435 87.3661 8.25149 86.9309 7.98006ZM84.7005 9.50006C84.6461 9.71721 84.3197 9.93435 84.0477 10.0972C83.8301 10.2601 83.2861 10.3143 82.7421 10.3143H82.2525L83.0141 8.57721H83.5037C83.9389 8.57721 84.2653 8.74006 84.4285 8.79435C84.7005 8.90292 84.7549 9.12006 84.7005 9.50006Z" fill="#A2B5CD"/>
<path d="M94.2749 13.8429L97.2125 7.54578H99.6605L100.477 10.0429L103.577 7.54578H105.971L103.088 13.8429H100.585L102.217 10.2601L99.1165 12.8658L98.3549 10.4229L96.7229 13.8429H94.2749Z" fill="#A2B5CD"/>
<path d="M103.795 13.8429L106.787 7.54578H109.235L109.997 10.0429L113.097 7.54578H115.6L112.662 13.8429H110.051L111.792 10.2601L108.637 12.8658L107.929 10.4229L106.297 13.8429H103.795Z" fill="#A2B5CD"/>
<path d="M13.6544 30.2914L13.4912 30.4L13.872 30.8886L14.0352 30.8343C35.6864 15.6886 96.832 16.0686 126.099 16.2314H135.728V15.58H126.099C96.7232 15.4171 35.4688 15.0371 13.6544 30.2914Z" fill="#A2B5CD"/>
<path d="M13.8174 30.4544L14.035 30.7258C35.6318 15.5258 96.723 15.7973 126.099 16.0144H135.619V15.743H126.099C96.723 15.5801 35.523 15.2001 13.8174 30.4544Z" fill="#A2B5CD"/>
</svg>
