<svg width="108" height="29" viewBox="0 0 108 29" fill="none" xmlns="http://www.w3.org/2000/svg">
<path d="M74.8899 10.5052C77.2786 10.5052 78.9701 11.9078 79.4721 14.2686H70.1592C70.6809 12.0084 72.5446 10.5052 74.8899 10.5052ZM80.2366 19.0295L80.1038 19.2383C78.8889 21.1699 77.5575 22.4569 75.0039 22.4569C71.8506 22.4569 70.0673 19.8489 69.9163 17.3025H83.4826V17.0338V16.5197C83.4826 13.5324 82.6098 11.0709 80.9643 9.40047C79.4639 7.87813 77.4181 7.10614 74.8899 7.10614C69.3799 7.10614 65.9551 10.7548 65.9551 16.6287C65.9551 19.3157 66.8722 21.7248 68.5341 23.4127C70.1592 25.059 72.383 25.9308 74.9662 25.9308C78.5731 25.9308 81.7427 24.124 83.4465 21.0959L83.581 20.8555L80.2366 19.0295Z" fill="#A2B5CD"/>
<path d="M35.4141 22.0898C34.0433 22.0898 32.7432 21.5365 31.7539 20.5341C30.7432 19.5076 30.1633 18.0951 30.1633 16.6559C30.1633 15.1876 30.7252 13.8092 31.7457 12.7752C32.7317 11.7744 34.036 11.2237 35.4141 11.2237C36.7963 11.2237 38.1006 11.7744 39.0866 12.7752C40.1071 13.8092 40.6665 15.1876 40.6665 16.6559C40.6665 19.6515 38.3122 22.0898 35.4141 22.0898ZM41.9634 10.0716C40.2498 8.33209 37.9234 7.37292 35.4141 7.37292C30.2634 7.37292 26.2283 11.4508 26.2283 16.6559C26.2283 19.1757 27.1642 21.5124 28.868 23.2419C30.5833 24.9797 32.9097 25.9364 35.4141 25.9364C37.9234 25.9364 40.2498 24.9797 41.9634 23.2419C43.6672 21.5124 44.6048 19.1757 44.6048 16.6559C44.6048 14.1345 43.6672 11.7977 41.9634 10.0716Z" fill="#A2B5CD"/>
<path d="M59.6643 7.31L55.1616 17.721L50.6909 7.31H46.2793L55.1575 26.4599L64.0759 7.31H59.6643Z" fill="#A2B5CD"/>
<path d="M88.1333 2.37805H91.9445V25.4428H88.1333V2.37805Z" fill="#A2B5CD"/>
<path d="M96.5215 2.37805H100.334V25.4428H96.5215V2.37805Z" fill="#A2B5CD"/>
<path d="M17.4793 3.44066V17.2116L2.3479 3.02472V25.4365H6.25257V12.4358L21.3856 26.6219V3.44066H17.4793Z" fill="#A2B5CD"/>
<path d="M103.967 24.0509H104.167C104.382 24.0509 104.577 23.9669 104.577 23.7481C104.577 23.5942 104.477 23.4328 104.154 23.4328C104.071 23.4328 104.013 23.4387 103.967 23.4461V24.0509ZM103.967 24.9211H103.764V23.3056C103.907 23.2873 104.019 23.2681 104.178 23.2681C104.4 23.2681 104.554 23.318 104.648 23.3879C104.743 23.4603 104.792 23.5701 104.792 23.7157C104.792 23.937 104.648 24.0676 104.482 24.1166V24.1299C104.624 24.1549 104.715 24.2855 104.754 24.5218C104.793 24.7747 104.832 24.8695 104.865 24.9211H104.648C104.609 24.8695 104.566 24.7247 104.526 24.5093C104.484 24.2913 104.382 24.2081 104.158 24.2081H103.967V24.9211ZM104.249 22.8172C103.597 22.8172 103.075 23.3837 103.075 24.0784C103.075 24.7888 103.597 25.3545 104.259 25.3545C104.909 25.3628 105.426 24.7888 105.426 24.085C105.426 23.3837 104.909 22.8172 104.253 22.8172H104.249ZM104.253 22.6367C105.03 22.6367 105.652 23.2706 105.652 24.0784C105.652 24.9003 105.03 25.535 104.249 25.535C103.468 25.535 102.837 24.9003 102.837 24.0784C102.837 23.2706 103.468 22.6367 104.249 22.6367H104.253Z" fill="#A2B5CD"/>
</svg>
