<svg width="762" height="572" viewBox="0 0 762 572" fill="none" xmlns="http://www.w3.org/2000/svg">
<g filter="url(#filter0_dd)">
<rect x="40" y="38" width="682" height="492" rx="10" fill="white"/>
</g>
<mask id="mask0" mask-type="alpha" maskUnits="userSpaceOnUse" x="40" y="38" width="682" height="492">
<rect x="40" y="38" width="682" height="492" rx="10" fill="white"/>
</mask>
<g mask="url(#mask0)">
<rect x="40" y="38" width="61" height="492" fill="#172940"/>
<path opacity="0.25" d="M93.7628 102.743H47.8813V104.655H93.7628V102.743Z" fill="#8196B1"/>
<path d="M722 68L722 38L101 38L101 68L722 68Z" fill="#F0F4F9"/>
<path d="M722 68L722 38L586 38L586 68L722 68Z" fill="#E4EAF1"/>
<path d="M722 562L722 514L101 514L101 562L722 562Z" fill="#F0F4F9"/>
<path d="M722 562L722 514L586 514L586 562L722 562Z" fill="#E4EAF1"/>
</g>
<path d="M447.586 224H355.823C353.712 224 352 225.712 352 227.824V235.473C352 237.585 353.712 239.297 355.823 239.297H447.586C449.698 239.297 451.41 237.585 451.41 235.473V227.824C451.41 225.712 449.698 224 447.586 224Z" fill="#F0F4F9"/>
<path fill-rule="evenodd" clip-rule="evenodd" d="M381.403 118.603C380.866 118.073 380.866 117.213 381.403 116.683L388.68 109.5L381.403 102.317C380.866 101.787 380.866 100.927 381.403 100.397C381.94 99.8675 382.81 99.8675 383.347 100.397L391.597 108.54C392.134 109.07 392.134 109.93 391.597 110.46L383.347 118.603C382.81 119.132 381.94 119.132 381.403 118.603Z" fill="#A2B5CD"/>
<path d="M339.159 96H295.841C294.272 96 293 96.2595 293 96.5797V105.42C293 105.74 294.272 106 295.841 106H339.159C340.728 106 342 105.74 342 105.42V96.5797C342 96.2595 340.728 96 339.159 96Z" fill="#A2B5CD"/>
<path d="M350.308 113H285.692C284.205 113 283 114.119 283 115.5V120.5C283 121.881 284.205 123 285.692 123H350.308C351.795 123 353 121.881 353 120.5V115.5C353 114.119 351.795 113 350.308 113Z" fill="#A2B5CD"/>
<path d="M477.159 96H433.841C432.272 96 431 96.2595 431 96.5797V105.42C431 105.74 432.272 106 433.841 106H477.159C478.728 106 480 105.74 480 105.42V96.5797C480 96.2595 478.728 96 477.159 96Z" fill="#A2B5CD"/>
<path d="M488.308 113H423.692C422.205 113 421 114.119 421 115.5V120.5C421 121.881 422.205 123 423.692 123H488.308C489.795 123 491 121.881 491 120.5V115.5C491 114.119 489.795 113 488.308 113Z" fill="#A2B5CD"/>
<path d="M64.7001 84.7277C62.6467 84.7276 61.3055 83.8708 60.7124 83.3876C65.6434 81.6524 70.2492 78.8993 73.284 76.8639C75.253 75.5433 76.8267 74.35 77.8052 73.5774C77.4859 74.1911 77.075 74.9583 76.6359 75.7184C76.2099 76.4561 74.9175 78.3561 73.0762 80.2664C71.5869 81.8113 69.3119 83.7862 66.9311 84.4202C66.1654 84.6242 65.4148 84.7277 64.7005 84.7277C64.7004 84.7277 64.7003 84.7277 64.7001 84.7277Z" fill="#EF5425"/>
<path d="M77.8813 60.4462C78.6306 60.7854 78.337 61.6412 78.337 61.6412C78.337 61.6412 78.0787 61.3525 77.3192 60.9576C76.7435 60.6582 76.8939 59.7625 76.8939 59.7625C76.8939 59.7625 77.2265 60.1497 77.8813 60.4462ZM81.5319 68.4716C81.5319 68.4716 79.5724 70.7502 76.6101 71.0996C73.6479 71.449 72.2504 69.7932 71.9313 68.2437C71.6123 66.6942 72.3263 65.0688 73.2985 64.2637C73.2985 64.2637 72.0681 66.0563 72.782 68.1222C72.782 68.1222 72.615 66.0867 75.167 64.7346C77.7191 63.3827 79.8609 65.3575 80.5445 66.5119C80.5445 66.5119 81.3649 66.0715 81.6383 64.8562C81.9117 63.6409 80.9851 62.4712 79.9369 61.9091C79.9369 61.9091 80.3319 60.2078 78.7824 59.0533C77.233 57.8988 74.7265 56.6075 74.9695 54.177C74.9695 54.177 73.1314 54.0403 72.6302 56.6075C72.6302 56.6075 72.0073 55.6809 72.7517 54.3593C72.7517 54.3593 69.8503 54.815 69.5616 58.3849C69.5616 58.3849 61.7231 61.0888 60.7812 70.6287C60.7812 70.6287 72.5998 75.9455 80.1951 70.8718C80.1951 70.8718 75.3645 82.4472 68.0425 85.8803C68.0425 85.8803 70.1692 88.007 74.6353 85.8803C79.1014 83.7536 82.808 73.6668 81.5319 68.4716Z" fill="#F37C20"/>
<path d="M70.9793 74.2806C70.9793 74.2806 63.6768 73.8969 57.4645 71.0073C57.4645 71.0073 56.2315 74.7592 59.8319 75.5875C63.5477 76.4424 70.9793 74.2806 70.9793 74.2806Z" fill="#EF5425"/>
<path d="M75.2324 73.9282C75.2324 73.9282 69.9508 76.3734 57.2607 77.9917C57.2607 77.9917 58.4751 81.2812 63.032 80.3697C67.589 79.4582 71.4833 76.9354 75.2324 73.9282Z" fill="#EF5425"/>
<path d="M64.7005 84.7277C65.4149 84.7277 66.1654 84.6242 66.9311 84.4202C69.3119 83.7862 71.5869 81.8113 73.0762 80.2664C74.9175 78.3561 76.2099 76.4561 76.6359 75.7183C77.075 74.9583 77.4859 74.1911 77.8052 73.5774C75.8051 76.482 72.1338 80.6648 68.6652 82.623C66.0214 84.1155 62.3863 83.8787 60.7124 83.3876C61.3055 83.8708 62.6467 84.7276 64.7001 84.7277C64.7003 84.7277 64.7004 84.7277 64.7005 84.7277Z" fill="#F36F29"/>
<path d="M63.032 80.3697C67.589 79.4583 71.4833 76.9354 75.2324 73.9282C71.77 76.6507 63.758 79.7531 61.2722 79.6114C58.7864 79.4696 57.2607 77.9918 57.2607 77.9918C57.2607 77.9918 58.4751 81.2812 63.032 80.3697Z" fill="#F36F29"/>
<path d="M59.8319 75.5875C63.5477 76.4424 70.9793 74.2806 70.9793 74.2806C68.1033 74.9228 62.207 75.2384 60.469 74.8131C58.731 74.3877 57.3079 73.0529 57.4645 71.0073C57.4645 71.0073 56.2315 74.7592 59.8319 75.5875Z" fill="#F36F29"/>
<path d="M64.4052 62.0552C62.7148 63.9532 61.1677 66.7156 60.7812 70.6292C60.7812 70.6292 61.4684 70.9383 62.6176 71.3363C62.1401 69.1835 62.1842 64.7162 64.4052 62.0552Z" fill="#EA6124"/>
<path d="M70.8333 59.9784C70.3674 58.9859 70.3876 57.5074 70.8333 56.3124C71.2788 55.1173 72.7522 54.3574 72.7522 54.3574C72.7522 54.3574 69.8508 54.8132 69.5621 58.383C69.5621 58.383 68.3473 58.8025 66.8169 59.8925C68.6445 58.5865 70.8333 59.9784 70.8333 59.9784Z" fill="#EA6124"/>
<path d="M72.6304 56.6076C73.096 57.4984 74.3522 58.284 74.3522 58.284C74.3522 58.284 73.6382 56.9168 73.866 55.8079C74.0939 54.6989 74.9697 54.177 74.9697 54.177C74.9697 54.177 73.1316 54.0403 72.6304 56.6076Z" fill="#EA6124"/>
<path d="M75.8862 83.545C73.4721 86.0596 69.7867 86.7047 68.0425 85.8789C68.0425 85.8789 70.1692 88.0057 74.6353 85.8789C79.1014 83.7522 82.808 73.6655 81.5319 68.4702C81.7867 74.4609 78.6509 80.6652 75.8862 83.545Z" fill="#EA6124"/>
<rect x="123" y="422" width="178" height="62" rx="10" fill="#E4EAF1"/>
<path d="M199.462 439H138.538C137.137 439 136 440.119 136 441.5V446.5C136 447.881 137.137 449 138.538 449H199.462C200.863 449 202 447.881 202 446.5V441.5C202 440.119 200.863 439 199.462 439Z" fill="#A2B5CD"/>
<path d="M199.462 458H138.538C137.137 458 136 459.119 136 460.5V465.5C136 466.881 137.137 468 138.538 468H199.462C200.863 468 202 466.881 202 465.5V460.5C202 459.119 200.863 458 199.462 458Z" fill="#A2B5CD"/>
<path d="M284.462 439H223.538C222.137 439 221 440.119 221 441.5V446.5C221 447.881 222.137 449 223.538 449H284.462C285.863 449 287 447.881 287 446.5V441.5C287 440.119 285.863 439 284.462 439Z" fill="#A2B5CD"/>
<path d="M284.462 458H223.538C222.137 458 221 459.119 221 460.5V465.5C221 466.881 222.137 468 223.538 468H284.462C285.863 468 287 466.881 287 465.5V460.5C287 459.119 285.863 458 284.462 458Z" fill="#A2B5CD"/>
<path d="M241.462 343H180.538C179.137 343 178 344.007 178 345.25V349.75C178 350.993 179.137 352 180.538 352H241.462C242.863 352 244 350.993 244 349.75V345.25C244 344.007 242.863 343 241.462 343Z" fill="#F0F4F9"/>
<path d="M231.308 356H190.692C189.758 356 189 357.007 189 358.25V362.75C189 363.993 189.758 365 190.692 365H231.308C232.242 365 233 363.993 233 362.75V358.25C233 357.007 232.242 356 231.308 356Z" fill="#F0F4F9"/>
<path d="M234.87 298H187.13C185.402 298 184 298.908 184 300.029V330.971C184 332.092 185.402 333 187.13 333H234.87C236.598 333 238 332.092 238 330.971V300.029C238 298.908 236.598 298 234.87 298Z" fill="#E4EAF1"/>
<path d="M177.337 275.866C176.07 273.791 176.72 271.069 178.871 269.937C191.631 263.222 206.213 260.657 220.565 262.666C236.375 264.879 250.928 272.505 261.744 284.245C272.561 295.985 278.973 311.113 279.887 327.05C280.801 342.987 276.16 358.749 266.756 371.648C257.352 384.548 243.766 393.787 228.313 397.793C212.86 401.798 196.497 400.322 182.01 393.615C167.524 386.908 155.812 375.386 148.868 361.011C142.565 347.961 140.547 333.294 143.035 319.092C143.455 316.697 145.848 315.246 148.211 315.818C150.574 316.389 152.01 318.767 151.613 321.165C149.589 333.382 151.379 345.967 156.796 357.182C162.853 369.722 173.071 379.774 185.709 385.626C198.347 391.477 212.623 392.765 226.104 389.27C239.585 385.776 251.438 377.715 259.642 366.462C267.846 355.208 271.895 341.458 271.097 327.554C270.3 313.65 264.707 300.453 255.27 290.211C245.833 279.969 233.137 273.316 219.345 271.385C207.01 269.659 194.481 271.805 183.469 277.468C181.307 278.58 178.604 277.941 177.337 275.866Z" fill="#F37C20"/>
<rect x="342" y="259" width="345" height="10" rx="5" fill="#F0F4F9"/>
<rect x="358.829" y="289" width="39.2683" height="10" rx="4" fill="#E4EAF1"/>
<rect x="482.244" y="289" width="204.756" height="10" rx="4" fill="#E4EAF1"/>
<rect x="482.244" y="289" width="177.642" height="10" rx="4" fill="#A2B5CD"/>
<rect x="433.626" y="289" width="39.2683" height="10" rx="4" fill="#E4EAF1"/>
<rect x="358.829" y="308" width="39.2683" height="10" rx="4" fill="#E4EAF1"/>
<rect x="482.244" y="308" width="204.756" height="10" rx="4" fill="#E4EAF1"/>
<rect x="482.244" y="308" width="191.667" height="10" rx="4" fill="#A2B5CD"/>
<rect x="433.626" y="308" width="39.2683" height="10" rx="4" fill="#E4EAF1"/>
<rect x="358.829" y="327" width="39.2683" height="10" rx="4" fill="#E4EAF1"/>
<rect x="482.244" y="327" width="204.756" height="10" rx="4" fill="#E4EAF1"/>
<rect x="482.244" y="327" width="129.959" height="10" rx="4" fill="#A2B5CD"/>
<rect x="433.626" y="327" width="39.2683" height="10" rx="4" fill="#E4EAF1"/>
<rect x="358.829" y="346" width="39.2683" height="10" rx="4" fill="#E4EAF1"/>
<rect x="482.244" y="346" width="204.756" height="10" rx="4" fill="#E4EAF1"/>
<rect x="482.244" y="346" width="50.4878" height="10" rx="4" fill="#A2B5CD"/>
<rect x="433.626" y="346" width="39.2683" height="10" rx="4" fill="#E4EAF1"/>
<rect x="342" y="259" width="305.732" height="10" rx="5" fill="#FDD9BD"/>
<rect x="342" y="375" width="345" height="10" rx="5" fill="#F0F4F9"/>
<rect x="358.829" y="405" width="39.2683" height="10" rx="4" fill="#E4EAF1"/>
<rect x="482.244" y="405" width="204.756" height="10" rx="4" fill="#E4EAF1"/>
<rect x="482.244" y="405" width="143.049" height="10" rx="4" fill="#A2B5CD"/>
<rect x="433.626" y="405" width="39.2683" height="10" rx="4" fill="#E4EAF1"/>
<rect x="358.829" y="424" width="39.2683" height="10" rx="4" fill="#E4EAF1"/>
<rect x="482.244" y="424" width="204.756" height="10" rx="4" fill="#E4EAF1"/>
<rect x="482.244" y="424" width="66.3821" height="10" rx="4" fill="#A2B5CD"/>
<rect x="433.626" y="424" width="39.2683" height="10" rx="4" fill="#E4EAF1"/>
<rect x="358.829" y="443" width="39.2683" height="10" rx="4" fill="#E4EAF1"/>
<rect x="482.244" y="443" width="204.756" height="10" rx="4" fill="#E4EAF1"/>
<rect x="482.244" y="443" width="180.447" height="10" rx="4" fill="#A2B5CD"/>
<rect x="433.626" y="443" width="39.2683" height="10" rx="4" fill="#E4EAF1"/>
<rect x="342" y="375" width="219.715" height="10" rx="5" fill="#FDD9BD"/>
<rect x="342" y="473" width="345" height="10" rx="5" fill="#F0F4F9"/>
<rect x="342" y="473" width="87.8862" height="10" rx="5" fill="#FDD9BD"/>
<path d="M274.174 156H215.826C213.713 156 212 157.038 212 158.319V193.681C212 194.962 213.713 196 215.826 196H274.174C276.287 196 278 194.962 278 193.681V158.319C278 157.038 276.287 156 274.174 156Z" fill="#F0F4F9"/>
<path d="M507.174 156H448.826C446.713 156 445 157.038 445 158.319V193.681C445 194.962 446.713 196 448.826 196H507.174C509.287 196 511 194.962 511 193.681V158.319C511 157.038 509.287 156 507.174 156Z" fill="#F0F4F9"/>
<path d="M585.174 156H526.826C524.713 156 523 157.038 523 158.319V193.681C523 194.962 524.713 196 526.826 196H585.174C587.287 196 589 194.962 589 193.681V158.319C589 157.038 587.287 156 585.174 156Z" fill="#F0F4F9"/>
<path d="M352.174 156H293.826C291.713 156 290 157.038 290 158.319V193.681C290 194.962 291.713 196 293.826 196H352.174C354.287 196 356 194.962 356 193.681V158.319C356 157.038 354.287 156 352.174 156Z" fill="#F0F4F9"/>
<path d="M430.174 156H371.826C369.713 156 368 157.038 368 158.319V193.681C368 194.962 369.713 196 371.826 196H430.174C432.287 196 434 194.962 434 193.681V158.319C434 157.038 432.287 156 430.174 156Z" fill="#F0F4F9"/>
<defs>
<filter id="filter0_dd" x="0" y="0" width="762" height="572" filterUnits="userSpaceOnUse" color-interpolation-filters="sRGB">
<feFlood flood-opacity="0" result="BackgroundImageFix"/>
<feColorMatrix in="SourceAlpha" type="matrix" values="0 0 0 0 0 0 0 0 0 0 0 0 0 0 0 0 0 0 127 0"/>
<feOffset dy="2"/>
<feGaussianBlur stdDeviation="20"/>
<feColorMatrix type="matrix" values="0 0 0 0 0.0901961 0 0 0 0 0.160784 0 0 0 0 0.25098 0 0 0 0.05 0"/>
<feBlend mode="normal" in2="BackgroundImageFix" result="effect1_dropShadow"/>
<feColorMatrix in="SourceAlpha" type="matrix" values="0 0 0 0 0 0 0 0 0 0 0 0 0 0 0 0 0 0 127 0"/>
<feOffset dy="5"/>
<feGaussianBlur stdDeviation="5"/>
<feColorMatrix type="matrix" values="0 0 0 0 0.0901961 0 0 0 0 0.160784 0 0 0 0 0.25098 0 0 0 0.1 0"/>
<feBlend mode="normal" in2="effect1_dropShadow" result="effect2_dropShadow"/>
<feBlend mode="normal" in="SourceGraphic" in2="effect2_dropShadow" result="shape"/>
</filter>
</defs>
</svg>
