<svg width="46" height="60" viewBox="0 0 46 60" fill="none" xmlns="http://www.w3.org/2000/svg">
<g clip-path="url(#clip0)">
<path d="M14.0009 55.8688C10.2674 55.8686 7.82882 54.3108 6.75049 53.4323C15.716 50.2774 24.0901 45.2718 29.608 41.571C33.188 39.1699 36.0493 37.0003 37.8283 35.5955C37.2478 36.7113 36.5006 38.1063 35.7023 39.4882C34.9277 40.8295 32.5779 44.2841 29.2301 47.7573C26.5224 50.5662 22.386 54.1569 18.0571 55.3098C16.665 55.6807 15.3003 55.8688 14.0016 55.8688C14.0014 55.8688 14.0013 55.8688 14.0009 55.8688Z" fill="#EF5425"/>
<path d="M37.966 11.7204C39.3284 12.3371 38.7945 13.8932 38.7945 13.8932C38.7945 13.8932 38.3249 13.3682 36.944 12.6502C35.8972 12.1058 36.1707 10.4774 36.1707 10.4774C36.1707 10.4774 36.7754 11.1813 37.966 11.7204ZM44.6035 26.312C44.6035 26.312 41.0407 30.455 35.6547 31.0903C30.2689 31.7256 27.7279 28.715 27.1479 25.8977C26.5679 23.0805 27.866 20.1252 29.6336 18.6614C29.6336 18.6614 27.3965 21.9206 28.6945 25.6769C28.6945 25.6769 28.3908 21.9758 33.0309 19.5176C37.671 17.0596 41.5653 20.65 42.8083 22.7491C42.8083 22.7491 44.2998 21.9482 44.7968 19.7386C45.294 17.529 43.6093 15.4023 41.7034 14.3803C41.7034 14.3803 42.4216 11.2869 39.6044 9.18787C36.7872 7.08882 32.23 4.74105 32.6718 0.321975C32.6718 0.321975 29.3298 0.0733879 28.4185 4.74105C28.4185 4.74105 27.286 3.05631 28.6394 0.6533C28.6394 0.6533 23.3641 1.48193 22.8392 7.97256C22.8392 7.97256 8.58749 12.8888 6.875 30.234C6.875 30.234 28.3632 39.901 42.173 30.676C42.173 30.676 33.39 51.7223 20.0772 57.9642C20.0772 57.9642 23.944 61.831 32.0642 57.9642C40.1844 54.0975 46.9236 35.758 44.6035 26.312Z" fill="#F37C20"/>
<path d="M25.4175 36.874C25.4175 36.874 12.1402 36.1763 0.845083 30.9226C0.845083 30.9226 -1.39683 37.7442 5.14943 39.2502C11.9054 40.8046 25.4175 36.874 25.4175 36.874Z" fill="#EF5425"/>
<path d="M33.1503 36.2331C33.1503 36.2331 23.5475 40.6788 0.474609 43.6212C0.474609 43.6212 2.68253 49.6021 10.9679 47.9449C19.2533 46.2877 26.3338 41.7006 33.1503 36.2331Z" fill="#EF5425"/>
<path d="M14.0016 55.8688C15.3004 55.8688 16.665 55.6806 18.0571 55.3098C22.386 54.1569 26.5224 50.5662 29.2301 47.7573C32.5779 44.2841 34.9277 40.8295 35.7023 39.4881C36.5006 38.1063 37.2478 36.7113 37.8283 35.5955C34.1918 40.8766 27.5167 48.4817 21.2102 52.042C16.4033 54.7557 9.79402 54.3252 6.75049 53.4323C7.82882 54.3108 10.2674 55.8686 14.0009 55.8688C14.0013 55.8688 14.0014 55.8688 14.0016 55.8688Z" fill="#F36F29"/>
<path d="M10.9679 47.9449C19.2533 46.2877 26.3338 41.7006 33.1503 36.2331C26.8551 41.1831 12.2878 46.8238 7.76825 46.5661C3.24857 46.3083 0.474609 43.6213 0.474609 43.6213C0.474609 43.6213 2.68253 49.6022 10.9679 47.9449Z" fill="#F36F29"/>
<path d="M5.14943 39.2502C11.9054 40.8046 25.4175 36.874 25.4175 36.874C20.1884 38.0416 9.46789 38.6155 6.30787 37.8421C3.14773 37.0688 0.560376 34.6419 0.845083 30.9226C0.845083 30.9226 -1.39683 37.7442 5.14943 39.2502Z" fill="#F36F29"/>
<path d="M13.464 14.646C10.3906 18.097 7.57764 23.1196 6.875 30.2351C6.875 30.2351 8.12444 30.7972 10.2139 31.5207C9.34563 27.6065 9.42574 19.4841 13.464 14.646Z" fill="#EA6124"/>
<path d="M25.1521 10.8697C24.3051 9.06522 24.3419 6.377 25.1521 4.20421C25.9623 2.03141 28.6411 0.64975 28.6411 0.64975C28.6411 0.64975 23.3658 1.47838 22.8409 7.96901C22.8409 7.96901 20.6322 8.73177 17.8496 10.7135C21.1725 8.33896 25.1521 10.8697 25.1521 10.8697Z" fill="#EA6124"/>
<path d="M28.4199 4.74118C29.2665 6.36081 31.5504 7.78909 31.5504 7.78909C31.5504 7.78909 30.2523 5.30334 30.6666 3.28715C31.0809 1.27083 32.6733 0.321975 32.6733 0.321975C32.6733 0.321975 29.3313 0.0733888 28.4199 4.74118Z" fill="#EA6124"/>
<path d="M34.3394 53.7183C29.9501 58.2903 23.2494 59.4632 20.0781 57.9618C20.0781 57.9618 23.9449 61.8287 32.065 57.9618C40.1853 54.0951 46.9245 35.7556 44.6044 26.3096C45.0677 37.2017 39.3662 48.4824 34.3394 53.7183Z" fill="#EA6124"/>
</g>
<defs>
<clipPath id="clip0">
<rect width="45.5422" height="60" fill="white"/>
</clipPath>
</defs>
</svg>
