<svg width="118" height="17" viewBox="0 0 118 17" fill="none" xmlns="http://www.w3.org/2000/svg">
<path d="M49.4891 10.6748H56.726L52.8994 4.43015L45.8763 15.7207H42.6799L51.2224 2.15834C51.5938 1.61036 52.2128 1.2793 52.8994 1.2793C53.5634 1.2793 54.1824 1.59894 54.5425 2.1355L63.1187 15.7207H59.9224L58.4142 13.1978H51.0873L49.4891 10.6748ZM82.691 13.1978V1.41629H79.9785V14.3508C79.9785 14.7047 80.1136 15.0472 80.3725 15.3098C80.6313 15.5723 80.9802 15.7207 81.3629 15.7207H93.732L95.3302 13.1978H82.691ZM37.8178 11.0858C40.4515 11.0858 42.5899 8.92813 42.5899 6.25674C42.5899 3.58537 40.4515 1.41629 37.8178 1.41629H25.9518V15.7207H28.6631V3.93926H37.6377C38.8983 3.93926 39.9112 4.97813 39.9112 6.25674C39.9112 7.53535 38.8983 8.57423 37.6377 8.57423L29.9912 8.5628L38.0879 15.7207H42.0272L36.5798 11.0858H37.8178ZM9.26087 15.7207C5.36777 15.7207 2.2085 12.5242 2.2085 8.57423C2.2085 4.62423 5.36777 1.41629 9.26087 1.41629H17.4577C21.3519 1.41629 24.5089 4.62423 24.5089 8.57423C24.5089 12.5242 21.3519 15.7207 17.4577 15.7207H9.26087ZM17.2754 13.1978C19.7977 13.1978 21.8404 11.1314 21.8404 8.57423C21.8404 6.017 19.7977 3.93926 17.2754 3.93926H9.44203C6.92094 3.93926 4.877 6.017 4.877 8.57423C4.877 11.1314 6.92094 13.1978 9.44203 13.1978H17.2754ZM68.7799 15.7207C64.8857 15.7207 61.7232 12.5242 61.7232 8.57423C61.7232 4.62423 64.8857 1.41629 68.7799 1.41629H78.5154L76.9285 3.93926H68.96C66.4389 3.93926 64.3906 6.017 64.3906 8.57423C64.3906 11.1314 66.4389 13.1978 68.96 13.1978H78.7405L77.1423 15.7207H68.7799ZM101.948 13.1978C99.8659 13.1978 98.0989 11.7822 97.5586 9.82999H109.151L110.749 7.30702H97.5586C98.0989 5.36628 99.8659 3.93926 101.948 3.93926H109.905L111.515 1.41629H101.768C97.8738 1.41629 94.7112 4.62423 94.7112 8.57423C94.7112 12.5242 97.8738 15.7207 101.768 15.7207H110.13L111.728 13.1978H101.948Z" fill="#A2B5CD"/>
<path d="M112.967 2.93463C112.967 2.23823 113.518 1.67885 114.205 1.67885C114.902 1.67885 115.454 2.23823 115.454 2.93463C115.454 3.64242 114.902 4.20182 114.205 4.20182C113.518 4.20182 112.967 3.64242 112.967 2.93463ZM114.205 4.55572C115.082 4.55572 115.791 3.8365 115.791 2.94604C115.791 2.05559 115.082 1.33636 114.205 1.33636C113.338 1.33636 112.629 2.05559 112.629 2.94604C112.629 3.8365 113.338 4.55572 114.205 4.55572ZM114.058 1.98709C114.306 1.98709 114.407 1.9985 114.52 2.04416C114.835 2.14691 114.869 2.43232 114.869 2.54648C114.869 2.56931 114.869 2.62639 114.846 2.69488C114.835 2.76338 114.79 2.90038 114.632 3.00312C114.61 3.01454 114.599 3.02595 114.554 3.04878L114.959 3.79084H114.565L114.205 3.10586H113.957V3.79084H113.608V1.98709H114.058ZM114.182 2.80905C114.295 2.79764 114.407 2.79764 114.475 2.69488C114.508 2.64922 114.52 2.60356 114.52 2.53505C114.52 2.44373 114.463 2.36383 114.385 2.31816C114.306 2.28391 114.227 2.28391 114.058 2.28391H113.957V2.80905H114.182Z" fill="#A2B5CD"/>
</svg>
