<svg width="111" height="20" viewBox="0 0 111 20" fill="none" xmlns="http://www.w3.org/2000/svg">
<g clip-path="url(#clip0)">
<path d="M37.6537 0.399372H31.6901V8.03011H25.4822V0.399372H19.5187V19.5976H25.4822V12.046H31.6901V19.5976H37.6537V0.399372ZM58.3985 15.74V0.399372H52.4349V19.5976H63.2182L64.1149 15.74H58.3985ZM48.0261 0.399372H42.0625V19.5976H48.0261V0.399372ZM72.2024 0.399372H66.2416V19.5976H72.2024V0.399372ZM101.604 5.29919C101.604 4.2543 102.667 3.77141 104.38 3.77141C106.26 3.77141 108.303 4.17518 109.691 4.73992L109.203 0.560335C107.648 0.238409 106.26 -0.00167084 103.73 -0.00167084C98.9107 -0.00167084 95.643 1.86714 95.643 5.78209C95.643 12.5289 104.958 11.1648 104.958 14.2968C104.958 15.4999 104.055 16.141 101.851 16.141C99.8935 16.141 96.8673 15.4999 95.071 14.616L95.7263 19.0356C97.5225 19.6795 99.9713 19.9987 101.934 19.9987C106.915 19.9987 110.999 18.3918 110.999 13.5711C110.999 7.1489 101.604 8.35203 101.604 5.29919ZM84.7819 15.0197C90.3318 15.0197 93.8467 12.207 93.8467 7.30714C93.8467 1.92716 90.0903 -0.00167084 83.9629 -0.00167084C81.5947 -0.00167084 78.7351 0.159292 76.6945 0.399372V19.5976H82.6581V15.0197H84.7819ZM87.9664 7.38898C87.9664 9.87709 86.742 11.5658 83.6353 11.5658H82.6581V3.63227C83.0051 3.61318 83.3299 3.61317 83.6353 3.61317C86.5755 3.61317 87.9664 4.97727 87.9664 7.38898ZM8.08575 15.0197C13.6384 15.0197 17.1505 12.207 17.1505 7.30714C17.1505 1.92716 13.3941 -0.00167084 7.26951 -0.00167084C4.89852 -0.00167084 2.04167 0.159292 -0.00170898 0.399372V19.5976H5.96186V15.0197H8.08575ZM11.273 7.38898C11.273 9.87709 10.0458 11.5658 6.9419 11.5658H5.96186V3.63227C6.3089 3.61318 6.63651 3.61317 6.9419 3.61317C9.88204 3.61317 11.273 4.97727 11.273 7.38898Z" fill="#A2B5CD"/>
</g>
<defs>
<clipPath id="clip0">
<rect width="111" height="20" fill="white"/>
</clipPath>
</defs>
</svg>
