<svg width="102" height="21" viewBox="0 0 102 21" fill="none" xmlns="http://www.w3.org/2000/svg">
<path fill-rule="evenodd" clip-rule="evenodd" d="M7.42416 18.1665C8.55852 18.3129 9.70471 18.4088 10.8322 18.5222L11.1589 19.8788C9.27378 19.7625 7.34052 19.7354 5.44561 19.7354C3.64123 19.7354 1.80144 19.7557 0 19.8788L0.259732 18.5251C1.20817 18.4059 2.15856 18.3264 3.11291 18.1762C3.19949 16.5386 3.21426 11.4424 3.21426 9.12445V8.06142C3.21426 7.27165 3.19949 3.06989 3.11291 1.72975C2.16546 1.53497 1.17965 1.49426 0.22236 1.40899L0.02754 0.0891315L6.78168 0.0649397C9.74604 0.0649397 12.3247 0.297494 13.7375 0.865355C16.3438 1.93517 16.6497 3.73661 16.6497 4.52248C16.6497 9.19228 12.002 11.3222 7.95542 11.8765L8.12465 10.4201C10.5754 9.81829 12.3631 8.47131 12.3631 5.49055C12.3631 3.99629 11.6164 2.80632 10.3885 2.20454C9.6624 1.85279 8.50638 1.69193 7.4202 1.65802C7.34052 2.87511 7.31988 6.10591 7.31988 8.13604V9.26787C7.31988 11.3465 7.34052 16.7033 7.42416 18.1665ZM26.9231 18.1801C27.8568 18.3439 28.8111 18.4291 29.7409 18.5222L30.0714 19.8963C28.148 19.7151 26.1036 19.7354 24.188 19.7354C22.6089 19.7354 21.016 19.7829 19.4537 19.8788L19.7174 18.5047C20.6579 18.4573 21.6191 18.3264 22.5499 18.1694C22.6473 16.6548 22.6748 12.2283 22.6748 9.80085V8.22132C22.6748 7.40828 22.6473 3.13869 22.5637 1.75394C21.6191 1.61345 20.6855 1.5078 19.7488 1.40899L19.4222 0.0271252C21.3486 0.232554 23.4412 0.198637 25.3539 0.198637C26.9123 0.198637 28.5297 0.201571 30.0852 0.0242319L29.7409 1.40899C28.8003 1.5078 27.8568 1.66191 26.9192 1.7811C26.8503 2.71815 26.8188 5.42565 26.8188 8.36181V10.0131C26.8188 13.1954 26.8503 17.0928 26.9231 18.1801ZM46.5295 15.2982C45.0793 13.6092 43.8396 12.0606 43.1322 11.2331C42.1671 12.519 39.793 16.1907 38.7236 18.2276C39.3906 18.3506 40.0567 18.4573 40.7336 18.5251L40.9245 19.841H40.4699C40.036 19.841 37.7142 19.7354 36.1557 19.7354C34.9682 19.7354 33.8092 19.7964 32.6188 19.8895L33.0802 18.5251C33.6843 18.4398 34.3435 18.3778 34.9092 18.1665C36.0691 17.3971 40.7365 11.3048 41.9654 9.75335C41.0218 8.56338 39.7517 6.9228 38.5504 5.39752C37.3186 3.84612 36.1724 2.42745 35.5585 1.77041C34.9367 1.58243 34.2844 1.50105 33.6528 1.38086L33.455 0C34.9515 0.246136 36.6063 0.198637 38.089 0.198637C39.793 0.198637 41.5079 0.136631 43.2119 0.0649397L42.8125 1.40899C42.1464 1.48068 41.4793 1.56209 40.8172 1.68904C41.5669 2.87511 43.5514 5.75995 44.4191 6.90536C45.3429 5.67179 47.1926 3.05635 47.9983 1.67839L47.5192 1.58243C47.1158 1.51074 46.7174 1.44969 46.3287 1.39154L46.0611 0.0445657C47.4808 0.160863 48.9143 0.198637 50.3507 0.198637C51.4408 0.198637 52.5309 0.136631 53.6211 0.0445657L53.4922 1.36052C52.8497 1.52428 52.2082 1.64057 51.555 1.79854L51.3336 2.01655C50.3822 2.89255 49.5214 3.8771 48.6644 4.83066C47.4081 6.23189 46.1202 7.70867 45.5338 8.39283C48.5464 12.4541 51.4969 16.5831 54.5892 20.5727L52.3922 21C50.2396 19.3972 48.2758 17.2944 46.5295 15.2982ZM71.3942 18.2072C70.5687 15.8379 69.8357 13.3601 68.8155 11.0587C67.6152 11.0829 64.2898 11.2331 63.0816 11.3668C62.7697 12.3378 61.6619 16.2207 61.3254 18.2072C62.0584 18.3749 62.8179 18.4398 63.5647 18.5222L63.8284 19.8788C62.2139 19.7829 60.5797 19.7354 58.9721 19.7354C57.761 19.7354 56.5459 19.7829 55.3456 19.8895L55.5394 18.5222C56.359 18.4398 57.1608 18.3303 57.9656 18.1665C59.0311 16.0976 63.5125 4.22499 64.4767 1.67839C63.8077 1.54851 63.1406 1.48068 62.4707 1.40123L62.4155 0.0552149C63.8038 0.14728 65.2195 0.198637 66.6186 0.198637C68.4062 0.198637 70.2175 0.178303 71.9884 0.0552149L71.7897 1.40123C71.1512 1.47388 70.5058 1.54851 69.878 1.68904C70.3601 3.21721 71.6648 6.90922 72.6092 9.44907C73.3481 11.4657 74.9587 15.7798 76.1944 18.1665C77.0238 18.3264 77.8463 18.4291 78.6796 18.5357L78.8813 19.9263C77.2461 19.6569 75.2607 19.7354 73.6364 19.7354C71.9461 19.7354 70.2106 19.7557 68.5203 19.8895L68.847 18.5154C69.7039 18.4398 70.5471 18.3681 71.3942 18.2072ZM83.7338 1.75394C82.7854 1.61731 81.8005 1.54851 80.8452 1.47003L80.6544 0.136631L87.2353 0.109506C89.7894 0.109506 93.3716 0.136631 95.3118 0.895374C96.8633 1.50105 97.8973 2.63191 97.8973 4.31122C97.8973 6.12239 95.968 8.30756 93.9511 9.52755C95.8706 12.7235 99.5394 17.7324 102 20.2994L99.6574 20.6104C97.7035 19.7247 91.6991 13.021 89.9734 10.9666C89.2237 11.0218 88.4534 11.0829 87.9398 11.1003V11.4143C87.9398 13.0248 87.985 16.6994 88.0578 18.2004C88.9817 18.3506 89.9321 18.4398 90.8697 18.5222L91.1333 19.8895C89.4293 19.7528 87.6692 19.7354 85.9652 19.7354C84.2021 19.7354 82.3732 19.7354 80.617 19.8895L80.8767 18.5154C81.8281 18.4398 82.8001 18.3574 83.7259 18.1801C83.8095 16.8496 83.841 12.2418 83.841 9.66422V8.0304C83.841 7.12727 83.8095 2.90228 83.7338 1.75394ZM66.0637 2.9982C65.2785 5.13105 64.1786 8.07496 63.727 9.36673L68.3088 9.44907C67.7431 7.78426 66.6668 4.78899 66.0637 2.9982ZM90.7162 9.00429C91.8103 8.60794 93.5556 7.47322 93.5556 5.06322C93.5556 3.7027 92.3405 1.77041 88.0549 1.65802C87.985 3.20652 87.9398 7.3298 87.9398 9.05565V9.48298C88.8007 9.45875 89.755 9.35314 90.7162 9.00429Z" fill="#A2B5CD"/>
</svg>
