<svg width="125" height="29" viewBox="0 0 125 29" fill="none" xmlns="http://www.w3.org/2000/svg">
<path d="M24.8494 0H0V29H24.8494V0Z" fill="#A2B5CD"/>
<path d="M21.0138 14.2486C19.4113 10.6136 17.3881 6.74879 15.3218 3.30371C15.2173 3.12901 15.1579 3.05261 14.9398 3.05261H9.93487C9.69453 3.05261 9.56881 3.1611 9.4866 3.30371C7.42903 6.85626 5.53828 10.5535 3.8134 14.2985C3.74957 14.4376 3.74232 14.5542 3.83274 14.7503C5.30037 17.9295 7.48899 22.2333 9.58234 25.7462C9.68679 25.9214 9.79947 25.9473 9.93487 25.9473H14.9688C15.1318 25.9473 15.2594 25.9035 15.3503 25.7462C17.1961 22.5746 19.4843 18.1531 21.0429 14.7004C21.1028 14.568 21.1019 14.4473 21.0138 14.2486ZM12.447 20.9269C12.4281 20.8877 12.4093 20.847 12.3904 20.8072V21.2539C11.3396 19.2854 10.0504 16.6292 9.17131 14.5002C10.1056 12.3091 11.2927 9.83786 12.4567 7.56168V8.13365C12.4663 8.11328 12.4755 8.09342 12.4857 8.07406C13.2966 9.8674 14.5012 12.6351 15.1791 14.4096C14.4891 16.1143 13.2217 19.2848 12.447 20.9269Z" fill="white"/>
<path d="M112.279 8.39548V10.9227H112.627C112.917 10.3329 113.488 9.96697 114.189 9.96697H116.654V21.5473H120.375V9.96621H122.84C123.541 9.96621 124.11 10.3322 124.401 10.9219H124.75V8.39471H112.279V8.39548Z" fill="#A2B5CD"/>
<path d="M112.692 19.9621H108.715V8.39551H104.211V8.74923C104.698 9.07162 104.998 9.63543 104.998 10.3337V21.5473H114.588V19.0201H114.255C113.962 19.6099 113.393 19.9621 112.692 19.9621Z" fill="#A2B5CD"/>
<path d="M99.5114 8.74923C99.9999 9.07162 100.285 9.63543 100.285 10.3337V15.3828C100.285 17.9299 99.421 19.3211 97.1354 19.3211C94.8468 19.3211 93.9973 17.9299 93.9973 15.3828V8.39551H89.4917V8.74923C89.9802 9.07162 90.2794 9.63543 90.2794 10.3337V16.0643C90.2794 19.2615 92.2499 21.8071 96.114 21.8071C100.387 21.8071 102.157 19.8566 102.157 15.5807V8.39627H99.5107V8.74923H99.5114Z" fill="#A2B5CD"/>
<path d="M89.0014 20.2119L84.0051 8.39551H81.1142L75.4727 21.5473H77.6542L78.8686 18.5372H84.3428L85.4909 21.5473H89.97V21.1921C89.5615 21.0324 89.1921 20.6626 89.0014 20.2119ZM79.5124 16.9535L81.6683 11.8395L83.7224 16.9535H79.5124Z" fill="#A2B5CD"/>
<path d="M71.6897 8.74923C72.1805 9.07162 72.4647 9.63543 72.4647 10.3337V18.0911L66.5909 8.39551H61.5811V8.74923C62.0703 9.07162 62.368 9.63543 62.368 10.3337V21.5473H64.2277V11.8639L70.1143 21.5473H74.3371V8.39551H71.6897V8.74923Z" fill="#A2B5CD"/>
<path d="M58.1207 19.9621H53.7584V15.5532H58.6898V13.9702H53.7584V9.967H57.9662C58.6536 9.967 59.2115 10.2695 59.5288 10.7654H59.8643V8.39551H49.2656V8.74923C49.7556 9.07162 50.0398 9.63543 50.0398 10.3337V21.5473H60.0316V19.1133H59.6841C59.3924 19.6626 58.8888 19.9621 58.1207 19.9621Z" fill="#A2B5CD"/>
<path d="M47.5749 20.3939L44.3863 15.5396C45.9723 15.0308 47.2138 13.6839 47.2138 11.9558C47.2138 9.67687 45.5072 8.39569 42.8756 8.39569H34.6387V8.74941C35.1279 9.07181 35.4264 9.63562 35.4264 10.3339V21.5475H39.1442V15.9598H40.538L43.6113 21.5475H48.5684V21.1922C48.1719 21.0456 47.8259 20.7774 47.5749 20.3939ZM40.7574 14.5067H39.1442V9.86252H40.7574C42.1082 9.86252 43.2759 10.5807 43.2759 12.1384C43.2759 13.7091 42.1994 14.5067 40.7574 14.5067Z" fill="#A2B5CD"/>
</svg>
