<svg width="142" height="34" viewBox="0 0 142 34" fill="none" xmlns="http://www.w3.org/2000/svg">
<path fill-rule="evenodd" clip-rule="evenodd" d="M135.32 7.0357V10.9994C133.278 10.2242 131.46 9.8322 129.869 9.8322C128.926 9.8322 128.176 10.0077 127.611 10.347C127.047 10.6893 126.759 11.1105 126.759 11.6078C126.759 12.2689 127.396 12.8568 128.679 13.3834L132.385 15.1971C135.381 16.6334 136.867 18.5406 136.867 20.9363C136.867 22.9284 136.079 24.5168 134.488 25.6927C132.908 26.8804 130.782 27.4683 128.135 27.4683C126.913 27.4683 125.817 27.4157 124.842 27.3045C123.868 27.1993 122.748 26.9828 121.506 26.6727V22.5247C123.783 23.2999 125.857 23.6919 127.725 23.6919C129.953 23.6919 131.061 23.0425 131.061 21.732C131.061 21.0797 130.608 20.5531 129.685 20.1407L125.569 18.3767C124.051 17.6864 122.922 16.8498 122.184 15.8582C121.456 14.8577 121.087 13.7111 121.087 12.4006C121.087 10.5664 121.855 9.08916 123.373 7.96587C124.903 6.85135 126.934 6.29266 129.459 6.29266C130.279 6.29266 131.224 6.36576 132.271 6.50034C133.327 6.64368 134.342 6.81919 135.32 7.0357Z" fill="#A2B5CD"/>
<path fill-rule="evenodd" clip-rule="evenodd" d="M18.7457 7.0357V10.9994C16.7037 10.2242 14.8886 9.8322 13.2974 9.8322C12.352 9.8322 11.6045 10.0077 11.0402 10.347C10.4759 10.6893 10.1879 11.1105 10.1879 11.6078C10.1879 12.2689 10.8337 12.8568 12.1165 13.3834L15.8223 15.1971C18.8068 16.6334 20.2961 18.5406 20.2961 20.9363C20.2961 22.9284 19.5049 24.5168 17.9254 25.6927C16.3343 26.8804 14.2195 27.4683 11.5638 27.4683C10.3421 27.4683 9.24251 27.4157 8.26805 27.3045C7.2936 27.1993 6.18532 26.9828 4.93457 26.6727V22.5247C7.2209 23.2999 9.29492 23.6919 11.1507 23.6919C13.3789 23.6919 14.4872 23.0425 14.4872 21.732C14.4872 21.0797 14.0363 20.5531 13.1229 20.1407L9.00693 18.3767C7.47684 17.6864 6.34821 16.8498 5.62104 15.8582C4.88216 14.8577 4.52148 13.7111 4.52148 12.4006C4.52148 10.5664 5.28362 9.08916 6.81073 7.96587C8.32918 6.85135 10.3624 6.29266 12.8873 6.29266C13.7163 6.29266 14.6501 6.36576 15.7089 6.50034C16.7561 6.64368 17.7712 6.81919 18.7457 7.0357Z" fill="#A2B5CD"/>
<path fill-rule="evenodd" clip-rule="evenodd" d="M22.9927 6.66412H29.0286V27.0968H22.9927V6.66412Z" fill="#A2B5CD"/>
<path fill-rule="evenodd" clip-rule="evenodd" d="M48.4741 6.66412V10.4406H39.5061V14.9717H47.2844V18.3767H39.5061V23.1332H48.6574V27.0968H33.6973V6.66412H48.4741Z" fill="#A2B5CD"/>
<path fill-rule="evenodd" clip-rule="evenodd" d="M76.6518 6.66412V27.0968H71.0171V13.6203L65.1706 27.284H61.6917L56.0689 13.6203V27.0968H51.9937V6.66412H59.3617L64.3911 19.1724L69.6532 6.66412H76.6518Z" fill="#A2B5CD"/>
<path fill-rule="evenodd" clip-rule="evenodd" d="M96.0888 6.66412V10.4406H87.1698V14.9717H94.9481V18.3767H87.1698V23.1332H96.272V27.0968H81.312V6.66412H96.0888Z" fill="#A2B5CD"/>
<path fill-rule="evenodd" clip-rule="evenodd" d="M117.268 6.66412V27.0968H110.866L103.681 13.9918V27.0968H99.6084V6.66412H106.197L113.196 19.5439V6.66412H117.268Z" fill="#A2B5CD"/>
</svg>
