<svg width="121" height="20" viewBox="0 0 121 20" fill="none" xmlns="http://www.w3.org/2000/svg">
<path d="M43.1769 19.7769C38.8112 19.7769 34.7586 18.5704 32.0536 16.3328C30.0099 14.6423 29.0278 12.346 29.0278 9.98265C29.0278 7.64805 30.0522 5.33598 32.0533 3.65439C34.5655 1.54437 39.0009 0.222961 43.1769 0.222961C47.7981 0.222961 51.4968 1.2957 54.3243 3.66019C56.3361 5.34267 57.3087 7.64449 57.3087 9.98288C57.3087 12.2495 56.2766 14.6632 54.3243 16.3328C51.6914 18.5849 47.5537 19.7769 43.1769 19.7769V17.1979C45.494 17.1979 47.6435 16.4606 49.1446 15.0841C50.6353 13.7169 51.3298 12.0365 51.3298 9.98265C51.3298 8.01515 50.5806 6.17566 49.1446 4.87098C47.6635 3.5266 45.4628 2.7701 43.1769 2.7701C40.8839 2.7701 38.6817 3.51879 37.1995 4.87098C35.7712 6.17521 35.02 8.02006 35.02 9.98265C35.02 11.9392 35.7799 13.783 37.1995 15.0843C38.6829 16.4443 40.8774 17.1981 43.1769 17.1981V19.7771V19.7769ZM11.2682 0.232328C8.93289 0.232328 6.27985 0.634884 4.02562 1.56266C1.94514 2.41817 0.242188 3.80181 0.242188 6.09559C0.24122 8.16145 1.66587 9.37135 1.62715 9.3379C2.23312 9.85196 3.20862 10.7273 5.75906 11.2414C6.89888 11.4711 9.33582 11.8239 11.7626 12.0577C14.1715 12.2918 16.5421 12.5144 17.5077 12.7397C18.2748 12.9196 19.5635 13.1647 19.5635 14.4971C19.5635 15.8241 18.2058 16.2291 17.9699 16.3169C17.7342 16.4028 16.1055 17.0915 13.1778 17.0915C11.0163 17.0915 8.41767 16.4925 7.47049 16.1802C6.37858 15.8221 5.2332 15.3484 4.16477 14.1456C3.89905 13.8474 3.47991 13.0274 3.47991 12.2153H0.830248V19.0577H3.77539V18.1332C3.77539 18.028 3.91817 17.5951 4.41257 17.8009C5.02774 18.0585 6.83354 18.7211 8.72163 19.0844C10.2697 19.3828 11.268 19.5967 13.1926 19.5967C16.3328 19.5967 18.0197 19.1252 19.1859 18.8184C20.2846 18.5284 21.6422 18.0079 22.745 17.1974C23.3423 16.7592 24.652 15.6358 24.652 13.5967C24.652 11.6395 23.5122 10.4247 23.1112 10.0551C22.565 9.55155 21.8978 9.16126 21.2025 8.8604C20.5968 8.59768 19.6409 8.28211 18.8588 8.1057C17.3407 7.76224 13.9082 7.3385 12.2667 7.18015C10.5453 7.01445 7.5593 6.78652 6.36672 6.44641C6.00518 6.34315 5.26804 6.01954 5.26804 5.23093C5.26804 4.67003 5.60515 4.19455 6.27138 3.81028C7.32892 3.19964 9.46505 2.82006 11.6917 2.82006C14.3242 2.81114 16.5535 3.3658 17.9716 3.95012C18.4539 4.14861 19.0182 4.43363 19.4664 4.77084C19.9722 5.15087 20.6822 5.94059 20.939 7.0421H23.3179V1.08606H20.6617V1.77832C20.6617 2.00179 20.4112 2.29217 19.9376 2.05219C18.7489 1.47746 15.388 0.237458 11.2677 0.232328H11.2682ZM69.4774 1.31466L82.4346 12.0911L82.3015 4.83552C82.2884 3.8841 82.0982 3.4869 80.9816 3.4869H78.5454V1.31644H89.6242V3.4869H87.2477C86.1089 3.4869 86.037 3.82255 86.0232 4.83552L86.2241 18.6993H82.43L67.5058 6.42411L67.509 15.1358C67.5221 16.0828 67.5702 16.5288 68.629 16.5288H71.2897V18.6984H60.4094V16.529H62.9529C63.9029 16.529 63.8652 15.6943 63.8652 15.0865V4.91803C63.8652 4.26168 63.7652 3.48846 62.2736 3.48846H60.2098V1.31466H69.4774ZM102.284 16.5248C102.388 16.5248 102.85 16.5125 102.94 16.4873C103.196 16.4137 103.369 16.2456 103.449 16.0703C103.483 15.9967 103.5 15.6711 103.5 15.6004L103.502 12.1703C103.502 12.0878 103.496 12.0521 103.344 11.8683C103.177 11.6676 96.5567 4.75389 96.2537 4.44946C95.8774 4.07144 95.2168 3.48712 94.213 3.48712H91.9108V1.31577H104.903V3.48444H103.337C102.975 3.48444 102.734 3.80114 103.043 4.15307C103.043 4.15307 107.415 8.97192 107.456 9.02232C107.497 9.07362 107.531 9.08588 107.587 9.03905C107.642 8.9911 112.068 4.19722 112.103 4.15931C112.313 3.92692 112.171 3.4869 111.717 3.4869H110.11V1.31577H120.758V3.4869H118.379C117.516 3.4869 117.165 3.63409 116.516 4.31052C116.219 4.62008 109.528 11.658 109.346 11.8487C109.251 11.9484 109.259 12.0873 109.259 12.1698V15.5995C109.259 15.6691 109.276 15.9951 109.31 16.0683C109.391 16.2445 109.565 16.4126 109.821 16.4853C109.91 16.5107 110.366 16.5232 110.47 16.5232H112.903V18.6941H99.9781V16.523L102.284 16.5248H102.284Z" fill="#A2B5CD"/>
</svg>
