<svg width="762" height="572" viewBox="0 0 762 572" fill="none" xmlns="http://www.w3.org/2000/svg">
<g filter="url(#filter0_dd)">
<rect x="40" y="38" width="682" height="492" rx="10" fill="white"/>
</g>
<mask id="mask0" mask-type="alpha" maskUnits="userSpaceOnUse" x="40" y="38" width="682" height="492">
<rect x="40" y="38" width="682" height="492" rx="10" fill="white"/>
</mask>
<g mask="url(#mask0)">
<rect x="40" y="38" width="61" height="492" fill="#172940"/>
<path opacity="0.25" d="M93.7628 102.743H47.8813V104.655H93.7628V102.743Z" fill="#8196B1"/>
<path d="M722 562L722 514L101 514L101 562L722 562Z" fill="#F0F4F9"/>
<path d="M722 562L722 514L586 514L586 562L722 562Z" fill="#E4EAF1"/>
<path d="M722 68L722 38L101 38L101 68L722 68Z" fill="#F0F4F9"/>
<path d="M722 68L722 38L586 38L586 68L722 68Z" fill="#E4EAF1"/>
</g>
<g clip-path="url(#clip0)">
<path d="M67.5629 63.134C67.5629 63.6025 67.1831 63.9823 66.7146 63.9823C66.246 63.9823 65.8662 63.6025 65.8662 63.134C65.8662 62.6655 66.246 62.2856 66.7146 62.2856C67.1831 62.2856 67.5629 62.6655 67.5629 63.134Z" fill="#3A3129"/>
<path d="M72.1885 71.6505C70.3491 71.6505 68.8435 71.1844 68.1169 70.2649C67.3742 69.3248 67.0152 68.2738 67.4643 66.3442C67.4643 66.3442 66.3665 66.7434 64.8861 66.5937C63.4056 66.444 62.89 65.4958 63.206 64.0986C63.522 62.7013 64.6199 61.4704 65.1023 61.1044L64.1042 60.2394C64.1042 60.2394 67.3973 58.966 69.4081 62.7935C69.4081 62.7935 69.4113 62.7914 69.416 62.7882C70.4755 61.9506 71.8172 61.558 72.8843 61.558C72.9843 61.558 73.083 61.5616 73.1776 61.5687C73.1916 61.5698 73.2061 61.5715 73.2202 61.5727C73.108 60.7908 72.6144 58.797 70.4585 57.5613C67.7305 55.9977 63.3456 55.9763 60.862 57.8094L62.0249 58.7589C62.0249 58.7589 57.7922 59.9711 56.5432 64.3037H58.0902C58.0902 64.3037 56.519 66.9098 56.2861 70.9518H57.8165C57.8165 70.9518 56.885 75.1105 58.8478 78.4373C58.8478 78.4373 59.3468 74.7611 63.3723 72.8815C67.3978 71.0017 71.0574 73.5634 72.2384 74.2455C73.4194 74.9274 75.2991 75.9255 77.5946 75.8756C79.8902 75.8257 81.3872 73.6965 82.1857 71.6505C82.1857 71.6505 73.703 71.6505 72.1885 71.6505Z" fill="#EF4138"/>
<path d="M72.7915 69.0705C72.7915 69.0705 72.3584 69.9045 71.4602 70.2574C70.562 70.6103 69.1185 70.2254 68.6693 69.0705C68.2202 67.9157 68.3967 66.2796 69.2468 64.7558C70.0968 63.2321 71.8205 62.5719 73.1123 62.7348C74.1656 62.8678 75.0802 63.4737 75.7351 64.9206C76.4039 66.3984 76.3261 68.5293 74.8588 70.4114C74.8588 70.4114 74.5935 69.0882 73.1444 68.6214C71.9494 68.2364 71.1394 68.5251 69.8723 67.4211C69.8723 67.4211 69.9044 68.1883 70.6903 68.6053C71.4762 69.0223 72.7915 69.0705 72.7915 69.0705Z" fill="#F37D3A"/>
<path d="M75.3116 80.1608C75.1856 80.1608 75.0584 80.1546 74.9337 80.1425C73.1032 79.9648 69.05 76.5295 65.9541 73.4721C66.0611 73.4647 66.1827 73.46 66.3179 73.46C67.301 73.46 68.889 73.7037 70.8709 74.8648C73.6588 76.4982 77.2286 78.3792 78.3959 78.9893C77.8655 79.4065 76.7129 80.1608 75.3116 80.1608Z" fill="#F37D3A"/>
<path d="M67.6948 85.5894C66.7106 85.3127 64.7842 84.2314 63.8259 82.6673C63.3135 81.831 63.0939 80.3742 63.2074 78.5652C63.2957 77.1592 63.5861 75.6726 64.0034 74.4497L67.6948 85.5894Z" fill="#F37D3A"/>
<path d="M62.5191 84.5979C61.7048 84.2902 61.0583 83.7938 60.5919 83.1165C59.5344 81.5807 59.729 79.4311 60.2737 77.9821C60.7792 76.6376 61.795 75.438 62.6634 74.8604C62.4007 75.5824 62.0783 76.8851 61.879 78.3759C61.5463 80.8643 62.1273 83.47 62.5191 84.5979Z" fill="#F37D3A"/>
<path d="M67.5629 63.134C67.5629 63.6025 67.1831 63.9823 66.7146 63.9823C66.246 63.9823 65.8662 63.6025 65.8662 63.134C65.8662 62.6655 66.246 62.2856 66.7146 62.2856C67.1831 62.2856 67.5629 62.6655 67.5629 63.134Z" fill="#13141A"/>
<path d="M75.3116 80.1608C75.1856 80.1608 75.0584 80.1546 74.9337 80.1425C73.1032 79.9648 69.05 76.5295 65.9541 73.4721C66.0611 73.4647 66.1827 73.46 66.3179 73.46C67.301 73.46 68.889 73.7037 70.8709 74.8648C73.6588 76.4982 77.2286 78.3792 78.3959 78.9893C77.8655 79.4065 76.7129 80.1608 75.3116 80.1608Z" fill="#F37D3A"/>
<path d="M67.6948 85.5894C66.7106 85.3127 64.7842 84.2314 63.8259 82.6673C63.3135 81.831 63.0939 80.3742 63.2074 78.5652C63.2957 77.1592 63.5861 75.6726 64.0034 74.4497L67.6948 85.5894Z" fill="#F37D3A"/>
<path d="M62.5191 84.5979C61.7048 84.2902 61.0583 83.7938 60.5919 83.1165C59.5344 81.5807 59.729 79.4311 60.2737 77.9821C60.7792 76.6376 61.795 75.438 62.6634 74.8604C62.4007 75.5824 62.0783 76.8851 61.879 78.3759C61.5463 80.8643 62.1273 83.47 62.5191 84.5979Z" fill="#F37D3A"/>
<path d="M78.7279 74.5764C76.402 75.3811 73.093 74.2581 70.0337 73.043C71.0354 73.4883 71.8067 73.9942 72.2416 74.2454C73.4226 74.9274 75.3023 75.9254 77.5978 75.8755C79.8934 75.8256 81.3904 73.6964 82.1889 71.6504C82.1889 71.6504 80.5422 73.9487 78.7279 74.5764Z" fill="#CC4238"/>
<path d="M63.3739 72.8814C64.1594 72.5145 64.9309 72.3175 65.6728 72.2419C62.1123 72.5622 59.5454 73.9867 58.7004 76.2912C58.7004 76.2912 57.5209 74.9979 57.608 72.7966C57.5472 74.3116 57.7144 76.5135 58.8494 78.4372C58.8494 78.4372 59.3484 74.761 63.3739 72.8814Z" fill="#CC4238"/>
<path d="M56.2861 70.9518H57.8165C57.8165 70.9518 57.7034 71.5276 57.6269 72.4188C57.7528 70.9518 59.9702 70.0825 60.4044 69.846C57.8919 69.8411 56.2861 70.9518 56.2861 70.9518Z" fill="#CC4238"/>
<path d="M57.3091 66.019C58.0756 64.2979 60.2947 63.7753 60.2947 63.7753C58.0082 63.519 56.5425 64.3038 56.5425 64.3038H58.0895C58.0895 64.3038 57.7177 64.9205 57.3091 66.019Z" fill="#CC4238"/>
<path d="M60.146 59.6467C61.614 58.7713 63.7626 59.3602 63.7626 59.3602C62.4025 58.0002 60.8601 57.8096 60.8601 57.8096L62.023 58.7591C62.023 58.7591 61.1857 58.9993 60.146 59.6467Z" fill="#CC4238"/>
<path d="M75.3116 80.1611C76.7129 80.1611 77.8655 79.4068 78.3959 78.9896C78.3959 78.9896 77.0194 79.4155 75.2454 79.2676C73.4715 79.1198 65.9541 73.4724 65.9541 73.4724C69.05 76.5298 73.1032 79.9651 74.9337 80.1428C75.0584 80.155 75.1856 80.1611 75.3116 80.1611Z" fill="#F7934B"/>
<path d="M65.1191 74.3967C65.6135 75.6237 66.4305 77.6202 66.8211 78.3981L66.8378 78.4313C67.4014 79.5541 68.8985 82.5365 71.107 83.1192C71.5028 83.2236 71.8987 83.2934 72.2835 83.3264C73.2924 83.4131 74.0371 83.2316 74.432 83.0955L65.1191 74.3967Z" fill="#F37D3A"/>
<path d="M70.2757 81.813C68.5052 80.6945 65.1191 74.3967 65.1191 74.3967C65.6135 75.6237 66.4305 77.6202 66.8211 78.3981L66.8378 78.4313C67.4014 79.5541 68.8985 82.5365 71.107 83.1192C71.5028 83.2236 71.8987 83.2934 72.2835 83.3264C73.2924 83.4131 74.0371 83.2317 74.432 83.0955C74.432 83.0955 72.0461 82.9316 70.2757 81.813Z" fill="#F7934B"/>
<path d="M63.2074 78.5652C63.0939 80.3742 63.3135 81.831 63.8259 82.6673C64.7842 84.2314 66.7106 85.3127 67.6948 85.5894C67.6948 85.5894 65.3895 84.2353 64.1685 81.6482C62.9474 79.061 64.0034 74.4497 64.0034 74.4497C63.5861 75.6726 63.2956 77.1592 63.2074 78.5652Z" fill="#F7934B"/>
<path d="M60.4023 80.3321C60.2145 77.3164 62.6634 74.8604 62.6634 74.8604C61.795 75.438 60.7792 76.6376 60.2737 77.9821C59.729 79.4311 59.5344 81.5807 60.5919 83.1165C61.0583 83.7938 61.7048 84.2902 62.5191 84.5979C62.5191 84.5979 60.5901 83.3478 60.4023 80.3321Z" fill="#F7934B"/>
<path d="M74.03 69.0994C74.7147 69.6683 74.8638 70.4115 74.8638 70.4115C76.3311 68.5294 76.4089 66.3984 75.74 64.9207C75.0852 63.4738 74.1705 62.8678 73.1172 62.7349C72.9893 62.7188 72.8569 62.7111 72.7217 62.7112C73.7472 62.7185 75.4008 64.2858 75.2373 66.1995C75.0734 68.1178 74.03 69.0994 74.03 69.0994Z" fill="#F7934B"/>
</g>
<path d="M223 38H101V530H223V38Z" fill="#F0F4F9"/>
<path d="M465 111H463V528H465V111Z" fill="#F0F4F9"/>
<rect x="262" y="127" width="39.2683" height="10" rx="4" fill="#A2B5CD"/>
<rect x="262" y="147" width="88" height="10" rx="4" fill="#E4EAF1"/>
<rect x="272" y="167" width="88" height="10" rx="4" fill="#E4EAF1"/>
<rect x="272" y="186" width="88" height="10" rx="4" fill="#E4EAF1"/>
<rect x="272" y="205" width="88" height="10" rx="4" fill="#E4EAF1"/>
<rect x="262" y="224" width="88" height="10" rx="4" fill="#E4EAF1"/>
<rect x="358" y="147" width="34" height="10" rx="4" fill="#E4EAF1"/>
<rect x="368" y="167" width="34" height="10" rx="4" fill="#E4EAF1"/>
<rect x="368" y="186" width="34" height="10" rx="4" fill="#E4EAF1"/>
<rect x="368" y="205" width="61" height="10" rx="4" fill="#E4EAF1"/>
<rect x="410" y="186" width="34" height="10" rx="4" fill="#E4EAF1"/>
<rect width="39.2683" height="10" rx="4" transform="matrix(1 0 0 -1 262 364)" fill="#E4EAF1"/>
<rect width="39.2683" height="10" rx="4" transform="matrix(1 0 0 -1 262 470)" fill="#E4EAF1"/>
<rect width="88" height="10" rx="4" transform="matrix(1 0 0 -1 262 344)" fill="#E4EAF1"/>
<rect width="88" height="10" rx="4" transform="matrix(1 0 0 -1 262 450)" fill="#E4EAF1"/>
<rect width="88" height="10" rx="4" transform="matrix(1 0 0 -1 272 324)" fill="#E4EAF1"/>
<rect width="88" height="10" rx="4" transform="matrix(1 0 0 -1 272 430)" fill="#E4EAF1"/>
<rect width="88" height="10" rx="4" transform="matrix(1 0 0 -1 272 305)" fill="#E4EAF1"/>
<rect width="88" height="10" rx="4" transform="matrix(1 0 0 -1 272 411)" fill="#E4EAF1"/>
<rect width="88" height="10" rx="4" transform="matrix(1 0 0 -1 272 286)" fill="#E4EAF1"/>
<rect width="88" height="10" rx="4" transform="matrix(1 0 0 -1 272 392)" fill="#E4EAF1"/>
<rect width="88" height="10" rx="4" transform="matrix(1 0 0 -1 262 267)" fill="#A2B5CD"/>
<rect width="34" height="10" rx="4" transform="matrix(1 0 0 -1 358 344)" fill="#E4EAF1"/>
<rect width="34" height="10" rx="4" transform="matrix(1 0 0 -1 358 450)" fill="#E4EAF1"/>
<rect width="34" height="10" rx="4" transform="matrix(1 0 0 -1 368 324)" fill="#E4EAF1"/>
<rect width="34" height="10" rx="4" transform="matrix(1 0 0 -1 368 430)" fill="#E4EAF1"/>
<rect width="34" height="10" rx="4" transform="matrix(1 0 0 -1 368 305)" fill="#E4EAF1"/>
<rect width="34" height="10" rx="4" transform="matrix(1 0 0 -1 368 411)" fill="#E4EAF1"/>
<rect width="61" height="10" rx="4" transform="matrix(1 0 0 -1 368 286)" fill="#E4EAF1"/>
<rect width="61" height="10" rx="4" transform="matrix(1 0 0 -1 368 392)" fill="#E4EAF1"/>
<rect width="34" height="10" rx="4" transform="matrix(1 0 0 -1 410 305)" fill="#E4EAF1"/>
<rect width="34" height="10" rx="4" transform="matrix(1 0 0 -1 410 411)" fill="#E4EAF1"/>
<rect width="39.2683" height="10" rx="4" transform="matrix(1 0 0 -1 507 470)" fill="#E4EAF1"/>
<rect width="88" height="10" rx="4" transform="matrix(1 0 0 -1 507 450)" fill="#E4EAF1"/>
<rect width="88" height="10" rx="4" transform="matrix(1 0 0 -1 517 430)" fill="#E4EAF1"/>
<rect width="88" height="10" rx="4" transform="matrix(1 0 0 -1 517 411)" fill="#E4EAF1"/>
<rect width="88" height="10" rx="4" transform="matrix(1 0 0 -1 517 392)" fill="#E4EAF1"/>
<rect width="88" height="10" rx="4" transform="matrix(1 0 0 -1 507 373)" fill="#A2B5CD"/>
<rect width="34" height="10" rx="4" transform="matrix(1 0 0 -1 603 450)" fill="#E4EAF1"/>
<rect width="34" height="10" rx="4" transform="matrix(1 0 0 -1 613 430)" fill="#E4EAF1"/>
<rect width="34" height="10" rx="4" transform="matrix(1 0 0 -1 613 411)" fill="#E4EAF1"/>
<rect width="61" height="10" rx="4" transform="matrix(1 0 0 -1 613 392)" fill="#E4EAF1"/>
<rect width="34" height="10" rx="4" transform="matrix(1 0 0 -1 655 411)" fill="#E4EAF1"/>
<rect x="507" y="233" width="39.2683" height="10" rx="4" fill="#A2B5CD"/>
<rect x="507" y="127" width="39.2683" height="10" rx="4" fill="#A2B5CD"/>
<rect x="507" y="253" width="88" height="10" rx="4" fill="#E4EAF1"/>
<rect x="507" y="147" width="88" height="10" rx="4" fill="#E4EAF1"/>
<rect x="517" y="273" width="88" height="10" rx="4" fill="#E4EAF1"/>
<rect x="517" y="167" width="88" height="10" rx="4" fill="#E4EAF1"/>
<rect x="517" y="292" width="88" height="10" rx="4" fill="#E4EAF1"/>
<rect x="517" y="186" width="88" height="10" rx="4" fill="#E4EAF1"/>
<rect x="517" y="311" width="88" height="10" rx="4" fill="#E4EAF1"/>
<rect x="517" y="205" width="88" height="10" rx="4" fill="#E4EAF1"/>
<rect x="507" y="330" width="88" height="10" rx="4" fill="#E4EAF1"/>
<rect x="603" y="253" width="34" height="10" rx="4" fill="#E4EAF1"/>
<rect x="603" y="147" width="34" height="10" rx="4" fill="#E4EAF1"/>
<rect x="613" y="273" width="34" height="10" rx="4" fill="#E4EAF1"/>
<rect x="613" y="167" width="34" height="10" rx="4" fill="#E4EAF1"/>
<rect x="613" y="292" width="34" height="10" rx="4" fill="#E4EAF1"/>
<rect x="613" y="186" width="34" height="10" rx="4" fill="#E4EAF1"/>
<rect x="613" y="311" width="61" height="10" rx="4" fill="#E4EAF1"/>
<rect x="613" y="205" width="61" height="10" rx="4" fill="#E4EAF1"/>
<rect x="655" y="292" width="34" height="10" rx="4" fill="#E4EAF1"/>
<rect x="655" y="186" width="34" height="10" rx="4" fill="#E4EAF1"/>
<path d="M722 112L722 110L223 110L223 112L722 112Z" fill="#F0F4F9"/>
<path d="M209.012 269.372H117.249C115.138 269.372 113.426 267.659 113.426 265.547V257.899C113.426 255.786 115.138 254.074 117.249 254.074H209.012C211.124 254.074 212.836 255.786 212.836 257.899V265.547C212.836 267.659 211.124 269.372 209.012 269.372Z" fill="#E4EAF1"/>
<path d="M184.16 242.601H117.249C115.138 242.601 113.426 240.889 113.426 238.777V231.128C113.426 229.016 115.138 227.304 117.249 227.304H184.16C186.271 227.304 187.983 229.016 187.983 231.128V238.777C187.983 240.889 186.271 242.601 184.16 242.601Z" fill="#E4EAF1"/>
<path d="M184.16 152.729H117.249C115.138 152.729 113.426 151.017 113.426 148.905V141.257C113.426 139.144 115.138 137.432 117.249 137.432H184.16C186.271 137.432 187.983 139.144 187.983 141.257V148.905C187.983 151.017 186.271 152.729 184.16 152.729Z" fill="#E4EAF1"/>
<path d="M177.469 189.061H117.249C115.138 189.061 113.426 187.349 113.426 185.236V177.588C113.426 175.476 115.138 173.763 117.249 173.763H177.469C179.58 173.763 181.292 175.476 181.292 177.588V185.236C181.292 187.349 179.58 189.061 177.469 189.061Z" fill="#E4EAF1"/>
<path d="M195.63 215.831H117.249C115.138 215.831 113.426 214.119 113.426 212.007V204.358C113.426 202.246 115.138 200.534 117.249 200.534H195.63C197.742 200.534 199.454 202.246 199.454 204.358V212.007C199.454 214.119 197.742 215.831 195.63 215.831Z" fill="#E4EAF1"/>
<path d="M195.63 125.959H117.249C115.138 125.959 113.426 124.247 113.426 122.135V114.487C113.426 112.374 115.138 110.662 117.249 110.662H195.63C197.742 110.662 199.454 112.374 199.454 114.487V122.135C199.454 124.247 197.742 125.959 195.63 125.959Z" fill="#E4EAF1"/>
<path d="M223 38H101V99H223V38Z" fill="#E4EAF1"/>
<path d="M212.836 164.203H113.426V162.29H212.836V164.203Z" fill="#E4EAF1"/>
<path d="M181.012 53H117.925C115.813 53 114.102 54.7122 114.102 56.8243V64.473C114.102 66.5851 115.813 68.2973 117.925 68.2973H181.012C183.124 68.2973 184.836 66.5851 184.836 64.473V56.8243C184.836 54.7122 183.124 53 181.012 53Z" fill="#A2B5CD"/>
<circle cx="236" cy="133" r="4" fill="#E4EAF1"/>
<circle cx="236" cy="152" r="4" fill="#E4EAF1"/>
<circle cx="236" cy="172" r="4" fill="#E4EAF1"/>
<circle cx="236" cy="191" r="4" fill="#E4EAF1"/>
<circle cx="236" cy="210" r="4" fill="#E4EAF1"/>
<circle cx="236" cy="229" r="4" fill="#E4EAF1"/>
<circle cx="236" cy="262" r="4" fill="#E4EAF1"/>
<circle cx="236" cy="281" r="4" fill="#E4EAF1"/>
<circle cx="236" cy="300" r="4" fill="#E4EAF1"/>
<circle cx="236" cy="319" r="4" fill="#E4EAF1"/>
<circle cx="236" cy="339" r="4" fill="#E4EAF1"/>
<circle cx="236" cy="359" r="4" fill="#E4EAF1"/>
<circle cx="236" cy="388" r="4" fill="#E4EAF1"/>
<circle cx="236" cy="406" r="4" fill="#E4EAF1"/>
<circle cx="236" cy="425" r="4" fill="#E4EAF1"/>
<circle cx="236" cy="445" r="4" fill="#E4EAF1"/>
<circle cx="236" cy="465" r="4" fill="#E4EAF1"/>
<circle cx="481" cy="133" r="4" fill="#E4EAF1"/>
<circle cx="481" cy="152" r="4" fill="#E4EAF1"/>
<circle cx="481" cy="172" r="4" fill="#E4EAF1"/>
<circle cx="481" cy="191" r="4" fill="#E4EAF1"/>
<circle cx="481" cy="210" r="4" fill="#E4EAF1"/>
<circle cx="481" cy="229" r="4" fill="#E4EAF1"/>
<circle cx="481" cy="262" r="4" fill="#E4EAF1"/>
<circle cx="481" cy="281" r="4" fill="#E4EAF1"/>
<circle cx="481" cy="300" r="4" fill="#E4EAF1"/>
<circle cx="481" cy="319" r="4" fill="#E4EAF1"/>
<circle cx="481" cy="339" r="4" fill="#E4EAF1"/>
<circle cx="481" cy="359" r="4" fill="#E4EAF1"/>
<circle cx="481" cy="388" r="4" fill="#E4EAF1"/>
<circle cx="481" cy="406" r="4" fill="#E4EAF1"/>
<circle cx="481" cy="425" r="4" fill="#E4EAF1"/>
<circle cx="481" cy="445" r="4" fill="#E4EAF1"/>
<circle cx="481" cy="465" r="4" fill="#E4EAF1"/>
<rect x="229" y="92" width="53" height="18" fill="#F0F4F9"/>
<rect x="473" y="92" width="53" height="18" fill="#F0F4F9"/>
<rect x="532" y="92" width="53" height="18" fill="#F0F4F9"/>
<circle cx="123" cy="84" r="6" fill="#A2B5CD"/>
<circle cx="145" cy="84" r="6" fill="#A2B5CD"/>
<circle cx="167" cy="84" r="6" fill="#A2B5CD"/>
<circle cx="189" cy="84" r="6" fill="#A2B5CD"/>
<defs>
<filter id="filter0_dd" x="0" y="0" width="762" height="572" filterUnits="userSpaceOnUse" color-interpolation-filters="sRGB">
<feFlood flood-opacity="0" result="BackgroundImageFix"/>
<feColorMatrix in="SourceAlpha" type="matrix" values="0 0 0 0 0 0 0 0 0 0 0 0 0 0 0 0 0 0 127 0"/>
<feOffset dy="2"/>
<feGaussianBlur stdDeviation="20"/>
<feColorMatrix type="matrix" values="0 0 0 0 0.0901961 0 0 0 0 0.160784 0 0 0 0 0.25098 0 0 0 0.05 0"/>
<feBlend mode="normal" in2="BackgroundImageFix" result="effect1_dropShadow"/>
<feColorMatrix in="SourceAlpha" type="matrix" values="0 0 0 0 0 0 0 0 0 0 0 0 0 0 0 0 0 0 127 0"/>
<feOffset dy="5"/>
<feGaussianBlur stdDeviation="5"/>
<feColorMatrix type="matrix" values="0 0 0 0 0.0901961 0 0 0 0 0.160784 0 0 0 0 0.25098 0 0 0 0.1 0"/>
<feBlend mode="normal" in2="effect1_dropShadow" result="effect2_dropShadow"/>
<feBlend mode="normal" in="SourceGraphic" in2="effect2_dropShadow" result="shape"/>
</filter>
<clipPath id="clip0">
<rect width="26.4706" height="30" fill="white" transform="translate(56 56)"/>
</clipPath>
</defs>
</svg>
