<svg width="762" height="572" viewBox="0 0 762 572" fill="none" xmlns="http://www.w3.org/2000/svg">
<g filter="url(#filter0_dd)">
<rect x="40" y="38" width="682" height="492" rx="10" fill="white"/>
</g>
<mask id="mask0" mask-type="alpha" maskUnits="userSpaceOnUse" x="40" y="38" width="682" height="492">
<rect x="40" y="38" width="682" height="492" rx="10" fill="white"/>
</mask>
<g mask="url(#mask0)">
<rect x="40" y="38" width="61" height="492" fill="#172940"/>
<path opacity="0.25" d="M93.7628 102.743H47.8813V104.655H93.7628V102.743Z" fill="#8196B1"/>
<path d="M722 562L722 514L101 514L101 562L722 562Z" fill="#F0F4F9"/>
<path d="M722 68L722 38L101 38L101 68L722 68Z" fill="#F0F4F9"/>
<path d="M683 69H722V472H683V69Z" fill="#F0F4F9"/>
<path d="M683 68H722V194H683V68Z" fill="#E4EAF1"/>
<path d="M683 471H722V514H683V471Z" fill="#E4EAF1"/>
</g>
<g clip-path="url(#clip0)">
<path d="M80.538 66.3343C77.5864 69.1232 73.4078 71.1804 68.3517 71.1804C63.2956 71.1804 60.7898 69.4424 60.4164 66.3343C60.043 63.2262 62.3269 62.1371 62.3269 62.1371L61.564 61.0637C61.564 61.0637 64.0912 61.5646 65.6381 63.7886C67.1849 66.0127 68.3576 69.8499 68.3576 69.8499C68.3576 69.8499 69.5304 66.0127 71.0771 63.7886C72.624 61.5646 75.1512 61.0637 75.1512 61.0637L74.3883 62.1371C74.3883 62.1371 76.7366 63.2347 76.2988 66.3343C76.2369 66.7728 76.1166 67.2768 76.1166 67.2768C76.1166 67.2768 77.2329 66.9923 77.7913 65.2319C78.3498 63.4714 76.7944 58.6024 74.4813 56.5117C72.0963 58.3947 70.1018 58.6039 68.2676 58.6039C66.4335 58.6039 64.439 58.3947 62.054 56.5117C62.054 56.5117 61.7996 56.7211 61.45 57.2697C59.9147 59.4026 57.3328 64.443 58.2882 70.8847C59.3865 78.2909 63.0269 81.3036 63.0269 81.3036C62.7758 80.5504 61.7716 75.9686 63.9949 73.8765C66.2182 71.7843 69.2719 72.4224 72.7552 72.8304C76.2387 73.2384 78.9376 71.9203 80.1614 70.1001C81.3854 68.28 80.538 66.3343 80.538 66.3343Z" fill="#6176B9"/>
<path d="M63.3989 65.7377C63.3989 66.2442 63.8095 66.6548 64.316 66.6548C64.8225 66.6548 65.2332 66.2442 65.2332 65.7377C65.2332 65.2312 64.8225 64.8206 64.316 64.8206C63.8095 64.8206 63.3989 65.2312 63.3989 65.7377Z" fill="#4A55A5"/>
<path d="M71.5654 65.7377C71.5654 66.2442 71.9761 66.6548 72.4826 66.6548C72.9891 66.6548 73.3997 66.2442 73.3997 65.7377C73.3997 65.2312 72.9891 64.8206 72.4826 64.8206C71.9761 64.8206 71.5654 65.2312 71.5654 65.7377Z" fill="#4A55A5"/>
<path d="M69.2526 85.4884C68.5291 85.4883 67.8657 85.3709 67.281 85.1395C65.6007 84.4744 64.9988 83.0211 64.4832 81.4632C64.1562 80.4751 63.9668 79.5476 63.9116 78.6555C64.6311 79.8368 65.4548 80.9967 66.3695 82.1155C67.4775 83.4712 68.5724 84.5988 69.6333 85.4776C69.5057 85.4847 69.3787 85.4884 69.2528 85.4884H69.2526Z" fill="#4A55A5"/>
<path d="M72.5147 85.0052C71.707 85.0052 71.0369 84.7056 70.6792 84.4252C69.6953 83.6237 68.6483 82.5477 67.5717 81.2305C66.3049 79.6807 64.7226 77.6206 64.146 76.6121C65.9325 78.3597 69.8728 81.8887 73.3966 83.3508C73.9262 83.5706 74.4041 83.7422 74.8447 83.8704C74.0933 84.798 73.1804 85.0052 72.5149 85.0052C72.5148 85.0052 72.5148 85.0052 72.5147 85.0052Z" fill="#4A55A5"/>
<path d="M75.0819 81.9091C74.3115 81.909 73.4866 81.7115 72.696 81.3376C71.7872 80.8931 70.8791 80.3342 70.0006 79.678C67.9367 78.1365 65.4544 76.155 64.5269 75.231C66.6044 76.0226 71.633 78.0493 74.6934 78.7393C75.7321 78.9736 76.8098 79.0923 77.8965 79.0923C78.2599 79.0922 78.6202 79.0789 78.9735 79.0523C77.9566 81.3995 76.3154 81.9091 75.0823 81.9091C75.0821 81.9091 75.0821 81.9091 75.0819 81.9091Z" fill="#4A55A5"/>
<path d="M76.733 77.3689C75.4789 77.3579 74.1 77.1249 72.7453 76.6948C70.5045 75.9835 66.9713 74.6924 65.5229 74.158C66.1971 73.8603 66.9569 73.7288 67.9422 73.7288C68.1306 73.7288 68.3312 73.7339 68.5385 73.7439C69.2843 73.7801 70.3414 73.9122 71.5656 74.065C73.3209 74.2842 75.3106 74.5326 77.1262 74.5944C77.2077 74.5972 77.2886 74.5985 77.3695 74.5985C78.4854 74.5985 79.6536 74.3453 80.8477 73.8454C80.9113 74.6817 80.6824 75.4523 80.1868 76.0471C79.4772 76.8986 78.2507 77.3679 76.733 77.3689Z" fill="#4A55A5"/>
<path d="M76.733 77.3685C78.2507 77.3676 79.4773 76.8982 80.1868 76.0468C80.6824 75.4519 80.9113 74.6814 80.8477 73.845C80.6145 75.9271 77.4749 76.7121 75.2006 76.3901C72.9263 76.0681 65.5229 74.1576 65.5229 74.1576C66.9713 74.692 70.5045 75.9831 72.7453 76.6944C74.1 77.1245 75.4789 77.3575 76.733 77.3685Z" fill="#5B62AC"/>
<path d="M72.696 81.3376C73.4866 81.7115 74.3115 81.909 75.0819 81.9091C75.0821 81.9091 75.0821 81.9091 75.0823 81.9091C76.3154 81.9091 77.9566 81.3995 78.9735 79.0523C78.2599 80.6366 76.1871 80.9586 75.241 80.9586C72.6648 80.9586 67.1766 77.594 64.5269 75.231C65.4544 76.155 67.9367 78.1365 70.0006 79.678C70.8791 80.3342 71.7872 80.8931 72.696 81.3376Z" fill="#5B62AC"/>
<path d="M70.6792 84.4252C71.0369 84.7056 71.707 85.0052 72.5147 85.0052C72.5148 85.0052 72.5148 85.0052 72.5149 85.0052C73.1804 85.0052 74.0933 84.798 74.8447 83.8704C74.8447 83.8704 73.0429 84.8232 71.4127 83.9779C69.7825 83.1326 64.9499 77.6993 64.146 76.6121C64.7226 77.6206 66.3049 79.6808 67.5717 81.2305C68.6483 82.5477 69.6953 83.6237 70.6792 84.4252Z" fill="#5B62AC"/>
<path d="M67.281 85.1395C67.8657 85.3709 68.5291 85.4883 69.2526 85.4883H69.2528C69.3787 85.4883 69.5057 85.4847 69.6333 85.4776C67.6119 85.0645 66.2836 83.9777 65.72 82.9513C65.1565 81.9248 63.9116 78.6555 63.9116 78.6555C63.9668 79.5476 64.1562 80.4751 64.4832 81.4632C64.9988 83.0211 65.6007 84.4744 67.281 85.1395Z" fill="#5B62AC"/>
<path d="M79.2837 69.8091C77.3717 71.8217 74.6722 72.4714 69.6318 72.4714C70.6229 72.5536 71.6679 72.7032 72.7549 72.8306C76.2382 73.2385 78.9372 71.9205 80.161 70.1003C81.385 68.2801 80.5376 66.3345 80.5376 66.3345C80.5376 66.3345 80.7 68.3182 79.2837 69.8091Z" fill="#4C64AE"/>
<path d="M63.9959 73.8766C64.2345 73.652 64.4829 73.4591 64.7402 73.2937C62.6644 74.5968 61.8146 76.3903 61.7752 78.5705C61.7752 78.5705 59.7682 76.8031 58.8799 73.729C60.3316 79.072 63.0278 81.3036 63.0278 81.3036C62.7767 80.5505 61.7725 75.9688 63.9959 73.8766Z" fill="#4C64AE"/>
<path d="M66.2857 66.8685C65.8932 67.5519 65.1566 68.0126 64.3119 68.0126C63.0554 68.0126 62.0368 66.9939 62.0368 65.7375C62.0368 64.5223 62.9895 63.5298 64.1886 63.4657C63.9451 63.2348 63.6924 63.0357 63.4423 62.8655C62.2094 63.2383 61.3115 64.3828 61.3115 65.7374C61.3115 67.3945 62.6549 68.7378 64.3119 68.7378C65.2394 68.7378 66.0684 68.3169 66.6187 67.6557C66.5151 67.4001 66.4032 67.1355 66.2857 66.8685Z" fill="#6176B9"/>
<path d="M70.5289 66.8685C70.9213 67.5519 71.6579 68.0126 72.5026 68.0126C73.7591 68.0126 74.7777 66.9939 74.7777 65.7375C74.7777 64.5223 73.825 63.5298 72.6259 63.4657C72.8694 63.2348 73.1221 63.0357 73.3722 62.8655C74.6051 63.2383 75.503 64.3828 75.503 65.7374C75.503 67.3945 74.1596 68.7378 72.5026 68.7378C71.5751 68.7378 70.7461 68.3169 70.1958 67.6557C70.2994 67.4001 70.4112 67.1355 70.5289 66.8685Z" fill="#6176B9"/>
<path d="M68.1871 59.6886C72.5585 59.6886 74.4786 56.5117 74.4786 56.5117C72.0935 58.3947 70.0991 58.6039 68.2649 58.6039C66.4307 58.6039 64.4363 58.3947 62.0513 56.5117C62.0513 56.5117 63.8156 59.6886 68.1871 59.6886Z" fill="#4C64AE"/>
</g>
<path d="M67.8439 172.922C66.4105 172.922 63.5723 173.638 63.5723 175.072V176.132H72.1156V175.072C72.1156 173.638 69.2774 172.922 67.8439 172.922ZM65.0057 174.929C65.5217 174.556 66.7546 174.155 67.8439 174.155C68.9333 174.155 70.1661 174.556 70.6821 174.929H65.0057ZM67.8439 171.861C69.0194 171.861 69.9941 170.915 69.9941 169.711C69.9941 168.536 69.0194 167.591 67.8439 167.591C66.6685 167.591 65.6938 168.536 65.6938 169.711C65.6938 170.915 66.6685 171.861 67.8439 171.861ZM67.8439 168.794C68.36 168.794 68.7613 169.225 68.7613 169.711C68.7613 170.228 68.36 170.629 67.8439 170.629C67.3279 170.629 66.9265 170.228 66.9265 169.711C66.9265 169.225 67.3279 168.794 67.8439 168.794ZM72.1442 172.979C72.861 173.495 73.3483 174.155 73.3483 175.072V176.132H75.7852V175.072C75.7852 173.839 73.6637 173.122 72.1442 172.979ZM71.5135 171.861C72.689 171.861 73.6637 170.915 73.6637 169.711C73.6637 168.536 72.689 167.591 71.5135 167.591C71.1695 167.591 70.8829 167.648 70.5961 167.791C70.9689 168.336 71.1982 168.995 71.1982 169.711C71.1982 170.428 70.9689 171.116 70.5961 171.661C70.8829 171.775 71.1695 171.861 71.5135 171.861Z" fill="#8196B1"/>
<path d="M67.9586 207.328L69.1627 208.56H74.5811V214.666H64.7764V207.328H67.9586ZM68.446 206.095H64.7764C64.117 206.095 63.5723 206.669 63.5723 207.328V214.666C63.5723 215.325 64.117 215.898 64.7764 215.898H74.5811C75.2405 215.898 75.7852 215.325 75.7852 214.666V208.56C75.7852 207.873 75.2405 207.328 74.5811 207.328H69.6787L68.446 206.095Z" fill="#8196B1"/>
<path d="M69.0767 247.064H70.2808V248.297H69.0767V247.064ZM69.0767 249.53H70.2808V253.199H69.0767V249.53ZM69.6787 244.027C66.2958 244.027 63.5723 246.75 63.5723 250.132C63.5723 253.514 66.2958 256.237 69.6787 256.237C73.0616 256.237 75.7852 253.514 75.7852 250.132C75.7852 246.75 73.0616 244.027 69.6787 244.027ZM69.6787 255.033C66.9839 255.033 64.7764 252.826 64.7764 250.132C64.7764 247.437 66.9839 245.23 69.6787 245.23C72.3736 245.23 74.5811 247.437 74.5811 250.132C74.5811 252.826 72.3736 255.033 69.6787 255.033Z" fill="#8196B1"/>
<path d="M74.2368 289.869C74.2368 289.668 74.2655 289.468 74.2655 289.267C74.2655 289.066 74.2368 288.866 74.2368 288.665L75.5269 287.662C75.6416 287.576 75.6702 287.404 75.5842 287.261L74.3514 285.139C74.2941 285.053 74.2081 284.996 74.0935 284.996C74.0648 284.996 74.0074 284.996 73.9787 285.024L72.4593 285.627C72.1439 285.397 71.8 285.168 71.4273 285.024L71.1979 283.42C71.1692 283.276 71.0545 283.162 70.9112 283.162H68.4457C68.3023 283.162 68.1877 283.276 68.159 283.42L67.9296 285.024C67.5569 285.168 67.213 285.397 66.8976 285.627L65.3782 285.024C65.3208 284.996 65.2921 284.996 65.2634 284.996C65.1488 284.996 65.0627 285.053 65.0054 285.139L63.7727 287.261C63.6866 287.404 63.7153 287.576 63.83 287.662L65.1201 288.665C65.1201 288.866 65.0914 289.066 65.0914 289.267C65.0914 289.468 65.1201 289.668 65.1201 289.869L63.83 290.872C63.7153 290.958 63.6866 291.13 63.7727 291.273L65.0054 293.394C65.0627 293.481 65.1488 293.538 65.2634 293.538C65.2921 293.538 65.3495 293.538 65.3782 293.509L66.8976 292.907C67.213 293.136 67.5569 293.366 67.9296 293.509L68.159 295.114C68.1877 295.258 68.3023 295.372 68.4457 295.372H70.9112C71.0545 295.372 71.1692 295.258 71.1979 295.114L71.4273 293.509C71.8 293.366 72.1439 293.136 72.4593 292.907L73.9787 293.509C74.0361 293.538 74.0648 293.538 74.0935 293.538C74.2081 293.538 74.2941 293.481 74.3514 293.394L75.5842 291.273C75.6702 291.13 75.6416 290.958 75.5269 290.872L74.2368 289.869ZM73.004 288.808C73.0327 289.009 73.0327 289.152 73.0327 289.267C73.0327 289.382 73.0327 289.525 73.004 289.726L72.918 290.413L73.4627 290.843L74.1221 291.359L73.6921 292.076L72.918 291.761L72.2873 291.531L71.7426 291.932C71.4846 292.134 71.2265 292.277 70.9686 292.391L70.3378 292.649L70.2231 293.337L70.1085 294.169H69.2484L69.1337 293.337L69.0478 292.649L68.3883 292.391C68.1304 292.277 67.8723 292.134 67.643 291.932L67.0696 291.531L66.4389 291.789L65.6648 292.105L65.2348 291.359L65.8942 290.843L66.4389 290.413L66.3529 289.726C66.3242 289.525 66.3242 289.382 66.3242 289.267C66.3242 289.152 66.3242 289.009 66.3529 288.808L66.4389 288.12L65.8942 287.691L65.2348 287.174L65.6648 286.458L66.4389 286.773L67.0696 287.003L67.6143 286.601C67.8723 286.4 68.1304 286.257 68.3883 286.143L69.0191 285.885L69.1337 285.197L69.2484 284.365H70.1085L70.2231 285.197L70.3091 285.885L70.9686 286.143C71.2265 286.257 71.4846 286.4 71.7139 286.601L72.2587 287.003L72.918 286.745L73.6921 286.429L74.1221 287.174L73.4627 287.691L72.918 288.12L73.004 288.808ZM69.6784 286.831C68.331 286.831 67.2416 287.92 67.2416 289.267C67.2416 290.614 68.331 291.703 69.6784 291.703C71.0259 291.703 72.1153 290.614 72.1153 289.267C72.1153 287.92 71.0259 286.831 69.6784 286.831ZM69.6784 290.5C69.0191 290.5 68.4457 289.926 68.4457 289.267C68.4457 288.608 69.0191 288.034 69.6784 288.034C70.3378 288.034 70.9112 288.608 70.9112 289.267C70.9112 289.926 70.3378 290.5 69.6784 290.5Z" fill="#8196B1"/>
<path d="M69.6787 493.686C66.2958 493.686 63.5723 496.408 63.5723 499.791C63.5723 503.173 66.2958 505.896 69.6787 505.896C73.0616 505.896 75.7852 503.173 75.7852 499.791C75.7852 496.408 73.0616 493.686 69.6787 493.686ZM66.6685 503.631C66.9265 503.087 68.532 502.542 69.6787 502.542C70.8255 502.542 72.4309 503.087 72.689 503.631C71.8576 504.291 70.8255 504.692 69.6787 504.692C68.532 504.692 67.4999 504.291 66.6685 503.631ZM73.5777 502.743C72.689 501.683 70.5675 501.31 69.6787 501.31C68.79 501.31 66.6685 501.683 65.7798 502.743C65.1777 501.912 64.7764 500.908 64.7764 499.791C64.7764 497.096 66.9839 494.889 69.6787 494.889C72.3736 494.889 74.5811 497.096 74.5811 499.791C74.5811 500.908 74.1798 501.912 73.5777 502.743ZM69.6787 496.122C68.5033 496.122 67.5286 497.068 67.5286 498.272C67.5286 499.447 68.5033 500.392 69.6787 500.392C70.8542 500.392 71.8289 499.447 71.8289 498.272C71.8289 497.068 70.8542 496.122 69.6787 496.122ZM69.6787 499.189C69.1627 499.189 68.7613 498.758 68.7613 498.272C68.7613 497.756 69.1627 497.354 69.6787 497.354C70.1948 497.354 70.5961 497.756 70.5961 498.272C70.5961 498.758 70.1948 499.189 69.6787 499.189Z" fill="#8196B1"/>
<path fill-rule="evenodd" clip-rule="evenodd" d="M63.9066 136.25L69.4301 138.784C69.5957 138.86 69.7613 138.86 69.9269 138.784L75.4489 136.25C75.6791 136.145 75.7942 135.966 75.7945 135.713V129.128C75.7943 129.092 75.7909 129.057 75.7841 129.021C75.7841 129.011 75.7841 129.001 75.7841 128.99C75.778 128.964 75.77 128.939 75.7604 128.915L75.7515 128.89C75.7382 128.859 75.7224 128.829 75.7041 128.801L75.6907 128.782C75.6748 128.76 75.6575 128.739 75.6388 128.719L75.6106 128.7C75.5901 128.681 75.5684 128.663 75.5454 128.647L75.529 128.635C75.5035 128.618 75.4768 128.604 75.4489 128.591L69.9255 126.057C69.7599 125.981 69.5942 125.981 69.4286 126.057L63.9066 128.591C63.8788 128.604 63.852 128.618 63.8265 128.635L63.8102 128.647C63.7872 128.663 63.7654 128.681 63.7449 128.7L63.7257 128.721C63.7069 128.741 63.6897 128.761 63.6738 128.783L63.6604 128.802C63.6421 128.831 63.6262 128.86 63.613 128.891L63.5966 128.915C63.587 128.939 63.5791 128.964 63.5729 128.99C63.5729 129.001 63.5729 129.011 63.5729 129.021C63.5662 129.057 63.5627 129.092 63.5625 129.128V135.713C63.5625 135.965 63.6772 136.145 63.9066 136.25ZM64.7476 130.053L69.0845 132.046V137.33L64.7476 135.334V130.053ZM70.271 137.328V132.046L74.608 130.053V135.336L70.271 137.328ZM69.6778 127.241L73.7833 129.128L69.6778 131.015L65.5722 129.128L69.6778 127.241Z" fill="#8196B1"/>
<path opacity="0.25" d="M84.3569 479H55V480.223H84.3569V479Z" fill="#8196B1"/>
<path d="M704.542 494.886V491.217C704.542 490.433 704.323 489.784 703.883 489.268C703.444 488.733 702.851 488.466 702.106 488.466C701.36 488.466 700.768 488.733 700.328 489.268C699.889 489.784 699.669 490.433 699.669 491.217V494.886H704.542ZM705.775 494.255L707.008 495.488V496.09H697.203V495.488L698.436 494.255V491.217C698.436 490.261 698.675 489.43 699.153 488.724C699.65 488.016 700.328 487.557 701.188 487.348V486.917C701.188 486.669 701.275 486.459 701.446 486.287C701.618 486.096 701.838 486 702.106 486C702.374 486 702.593 486.096 702.765 486.287C702.937 486.459 703.023 486.669 703.023 486.917V487.348C703.883 487.557 704.552 488.016 705.03 488.724C705.527 489.43 705.775 490.261 705.775 491.217V494.255ZM702.966 497.58C702.717 497.81 702.43 497.924 702.106 497.924C701.781 497.924 701.494 497.81 701.246 497.58C700.998 497.332 700.873 497.045 700.873 496.721H703.339C703.339 497.045 703.214 497.332 702.966 497.58Z" fill="#182B44"/>
<path d="M701.504 90.0384H702.708V91.2709H701.504V90.0384ZM701.504 92.5034H702.708V96.1723H701.504V92.5034ZM702.106 87C698.723 87 696 89.7231 696 93.1053C696 96.4876 698.723 99.2106 702.106 99.2106C705.489 99.2106 708.213 96.4876 708.213 93.1053C708.213 89.7231 705.489 87 702.106 87ZM702.106 98.0068C699.412 98.0068 697.204 95.7997 697.204 93.1053C697.204 90.411 699.412 88.2039 702.106 88.2039C704.801 88.2039 707.009 90.411 707.009 93.1053C707.009 95.7997 704.801 98.0068 702.106 98.0068Z" fill="#182B44"/>
<path d="M702.106 136.253L697.605 132.728L696.602 133.501L702.106 137.773L707.61 133.501L706.607 132.728L702.106 136.253ZM702.106 134.677L706.607 131.18L707.61 130.406L702.106 126.135L696.602 130.406L697.605 131.18L702.106 134.677ZM702.106 127.683L705.604 130.406L702.106 133.129L698.608 130.406L702.106 127.683Z" fill="#182B44"/>
<path d="M698.436 171.977V170.774H705.776V171.977H698.436ZM696.602 167.707H707.61V168.94H696.602V167.707ZM700.873 175.045V173.812H703.339V175.045H700.873Z" fill="#182B44"/>
<path d="M223 38H101V530H223V38Z" fill="#F0F4F9"/>
<rect x="248" y="89" width="39.2683" height="10" rx="4" fill="#A2B5CD"/>
<rect x="248" y="109" width="88" height="10" rx="4" fill="#E4EAF1"/>
<rect x="258" y="129" width="88" height="10" rx="4" fill="#E4EAF1"/>
<rect x="258" y="148" width="88" height="10" rx="4" fill="#E4EAF1"/>
<rect x="258" y="167" width="88" height="10" rx="4" fill="#E4EAF1"/>
<rect x="248" y="186" width="88" height="10" rx="4" fill="#E4EAF1"/>
<rect x="344" y="109" width="34" height="10" rx="4" fill="#E4EAF1"/>
<rect x="354" y="129" width="34" height="10" rx="4" fill="#E4EAF1"/>
<rect x="354" y="148" width="34" height="10" rx="4" fill="#E4EAF1"/>
<rect x="354" y="167" width="61" height="10" rx="4" fill="#E4EAF1"/>
<rect x="396" y="148" width="34" height="10" rx="4" fill="#E4EAF1"/>
<path d="M209.012 269.372H117.249C115.138 269.372 113.426 267.659 113.426 265.547V257.899C113.426 255.786 115.138 254.074 117.249 254.074H209.012C211.124 254.074 212.836 255.786 212.836 257.899V265.547C212.836 267.659 211.124 269.372 209.012 269.372Z" fill="#E4EAF1"/>
<path d="M184.16 242.601H117.249C115.138 242.601 113.426 240.889 113.426 238.777V231.128C113.426 229.016 115.138 227.304 117.249 227.304H184.16C186.271 227.304 187.983 229.016 187.983 231.128V238.777C187.983 240.889 186.271 242.601 184.16 242.601Z" fill="#E4EAF1"/>
<path d="M184.16 152.729H117.249C115.138 152.729 113.426 151.017 113.426 148.905V141.257C113.426 139.144 115.138 137.432 117.249 137.432H184.16C186.271 137.432 187.983 139.144 187.983 141.257V148.905C187.983 151.017 186.271 152.729 184.16 152.729Z" fill="#E4EAF1"/>
<path d="M177.469 189.061H117.249C115.138 189.061 113.426 187.349 113.426 185.236V177.588C113.426 175.476 115.138 173.763 117.249 173.763H177.469C179.58 173.763 181.292 175.476 181.292 177.588V185.236C181.292 187.349 179.58 189.061 177.469 189.061Z" fill="#E4EAF1"/>
<path d="M195.63 215.831H117.249C115.138 215.831 113.426 214.119 113.426 212.007V204.358C113.426 202.246 115.138 200.534 117.249 200.534H195.63C197.742 200.534 199.454 202.246 199.454 204.358V212.007C199.454 214.119 197.742 215.831 195.63 215.831Z" fill="#E4EAF1"/>
<path d="M195.63 125.959H117.249C115.138 125.959 113.426 124.247 113.426 122.135V114.487C113.426 112.374 115.138 110.662 117.249 110.662H195.63C197.742 110.662 199.454 112.374 199.454 114.487V122.135C199.454 124.247 197.742 125.959 195.63 125.959Z" fill="#E4EAF1"/>
<path d="M223 38H101V99H223V38Z" fill="#E4EAF1"/>
<path d="M212.836 164.203H113.426V162.29H212.836V164.203Z" fill="#E4EAF1"/>
<path d="M181.012 61.9458H117.925C115.813 61.9458 114.102 63.658 114.102 65.7701V73.4188C114.102 75.5309 115.813 77.2431 117.925 77.2431H181.012C183.124 77.2431 184.836 75.5309 184.836 73.4188V65.7701C184.836 63.658 183.124 61.9458 181.012 61.9458Z" fill="#A2B5CD"/>
<rect x="265" y="204" width="196" height="96" rx="6" fill="#F0F4F9"/>
<rect width="77" height="6" rx="3" transform="matrix(1 0 0 -1 290 225)" fill="#A2B5CD"/>
<rect width="30" height="6" rx="3" transform="matrix(1 0 0 -1 418 225)" fill="#E4EAF1"/>
<rect width="30" height="6" rx="3" transform="matrix(1 0 0 -1 418 240)" fill="#E4EAF1"/>
<rect width="30" height="6" rx="3" transform="matrix(1 0 0 -1 418 255)" fill="#E4EAF1"/>
<rect width="30" height="6" rx="3" transform="matrix(1 0 0 -1 418 270)" fill="#E4EAF1"/>
<rect width="30" height="6" rx="3" transform="matrix(1 0 0 -1 418 285)" fill="#E4EAF1"/>
<rect width="77" height="6" rx="3" transform="matrix(1 0 0 -1 290 240)" fill="#A2B5CD"/>
<rect width="77" height="6" rx="3" transform="matrix(1 0 0 -1 290 255)" fill="#A2B5CD"/>
<rect width="77" height="6" rx="3" transform="matrix(1 0 0 -1 290 270)" fill="#A2B5CD"/>
<rect width="77" height="6" rx="3" transform="matrix(1 0 0 -1 290 285)" fill="#A2B5CD"/>
<rect width="10" height="10" rx="5" transform="matrix(1 0 0 -1 273 227)" fill="#A2B5CD"/>
<rect width="10" height="10" rx="5" transform="matrix(1 0 0 -1 273 242)" fill="#A2B5CD"/>
<rect width="10" height="10" rx="5" transform="matrix(1 0 0 -1 273 257)" fill="#A2B5CD"/>
<rect width="10" height="10" rx="5" transform="matrix(1 0 0 -1 273 272)" fill="#A2B5CD"/>
<rect width="10" height="10" rx="5" transform="matrix(1 0 0 -1 273 287)" fill="#A2B5CD"/>
<path d="M683 325L683 323L225 323L225 325L683 325Z" fill="#F0F4F9"/>
<rect x="259.606" y="338" width="42" height="10" rx="4" fill="#A2B5CD"/>
<rect x="398" y="338" width="78" height="10" rx="4" fill="#A2B5CD"/>
<line x1="223" y1="360.5" x2="683" y2="360.5" stroke="#F0F4F9"/>
<line x1="223" y1="389.5" x2="683" y2="389.5" stroke="#F0F4F9"/>
<line x1="223" y1="419.5" x2="683" y2="419.5" stroke="#F0F4F9"/>
<line x1="223" y1="449.5" x2="683" y2="449.5" stroke="#F0F4F9"/>
<line x1="223" y1="479.5" x2="683" y2="479.5" stroke="#F0F4F9"/>
<line x1="556.5" y1="323" x2="556.5" y2="514" stroke="#F0F4F9"/>
<line x1="383.5" y1="323" x2="383.5" y2="516" stroke="#F0F4F9"/>
<circle cx="265.405" cy="375" r="4" fill="#E4EAF1"/>
<circle cx="265.405" cy="405" r="4" fill="#E4EAF1"/>
<circle cx="265.405" cy="435" r="4" fill="#E4EAF1"/>
<circle cx="265.405" cy="465" r="4" fill="#E4EAF1"/>
<circle cx="265.405" cy="497" r="4" fill="#E4EAF1"/>
<rect width="67" height="6" rx="3" transform="matrix(1 0 0 -1 398 378)" fill="#E4EAF1"/>
<rect width="67" height="6" rx="3" transform="matrix(1 0 0 -1 398 408)" fill="#E4EAF1"/>
<rect width="67" height="6" rx="3" transform="matrix(1 0 0 -1 398 438)" fill="#E4EAF1"/>
<rect width="67" height="6" rx="3" transform="matrix(1 0 0 -1 398 468)" fill="#E4EAF1"/>
<rect width="67" height="6" rx="3" transform="matrix(1 0 0 -1 398 500)" fill="#E4EAF1"/>
<rect width="64" height="6" rx="3" transform="matrix(1 0 0 -1 576 378)" fill="#E4EAF1"/>
<rect width="64" height="6" rx="3" transform="matrix(1 0 0 -1 576 408)" fill="#E4EAF1"/>
<rect width="64" height="6" rx="3" transform="matrix(1 0 0 -1 576 438)" fill="#E4EAF1"/>
<rect width="64" height="6" rx="3" transform="matrix(1 0 0 -1 576 468)" fill="#E4EAF1"/>
<rect width="64" height="6" rx="3" transform="matrix(1 0 0 -1 576 500)" fill="#E4EAF1"/>
<rect x="576" y="338" width="64" height="10" rx="4" fill="#A2B5CD"/>
<defs>
<filter id="filter0_dd" x="0" y="0" width="762" height="572" filterUnits="userSpaceOnUse" color-interpolation-filters="sRGB">
<feFlood flood-opacity="0" result="BackgroundImageFix"/>
<feColorMatrix in="SourceAlpha" type="matrix" values="0 0 0 0 0 0 0 0 0 0 0 0 0 0 0 0 0 0 127 0"/>
<feOffset dy="2"/>
<feGaussianBlur stdDeviation="20"/>
<feColorMatrix type="matrix" values="0 0 0 0 0.0901961 0 0 0 0 0.160784 0 0 0 0 0.25098 0 0 0 0.05 0"/>
<feBlend mode="normal" in2="BackgroundImageFix" result="effect1_dropShadow"/>
<feColorMatrix in="SourceAlpha" type="matrix" values="0 0 0 0 0 0 0 0 0 0 0 0 0 0 0 0 0 0 127 0"/>
<feOffset dy="5"/>
<feGaussianBlur stdDeviation="5"/>
<feColorMatrix type="matrix" values="0 0 0 0 0.0901961 0 0 0 0 0.160784 0 0 0 0 0.25098 0 0 0 0.1 0"/>
<feBlend mode="normal" in2="effect1_dropShadow" result="effect2_dropShadow"/>
<feBlend mode="normal" in="SourceGraphic" in2="effect2_dropShadow" result="shape"/>
</filter>
<clipPath id="clip0">
<rect width="22.9412" height="30" fill="white" transform="translate(58 56)"/>
</clipPath>
</defs>
</svg>
