<svg width="46" height="60" viewBox="0 0 46 60" fill="none" xmlns="http://www.w3.org/2000/svg">
<g clip-path="url(#clip0)">
<path d="M45.0755 20.6687C39.1722 26.2464 30.815 30.361 20.7028 30.361C10.5906 30.361 5.57914 26.8848 4.8323 20.6687C4.08546 14.4526 8.65339 12.2744 8.65339 12.2744L7.12747 10.1274C7.12747 10.1274 12.182 11.1293 15.2756 15.5773C18.3693 20.0254 20.7147 27.7 20.7147 27.7C20.7147 27.7 23.0603 20.0254 26.1538 15.5773C29.2475 11.1293 34.302 10.1274 34.302 10.1274L32.7762 12.2744C32.7762 12.2744 37.4728 14.4694 36.5971 20.6687C36.4732 21.5456 36.2327 22.5536 36.2327 22.5536C36.2327 22.5536 38.4654 21.9847 39.5822 18.4638C40.6991 14.9429 37.5882 5.20485 32.9621 1.02353C28.192 4.78943 24.2032 5.20786 20.5348 5.20786C16.8664 5.20786 12.8776 4.78943 8.1075 1.02353C8.1075 1.02353 7.59863 1.44224 6.89947 2.53948C3.82891 6.80523 -1.3349 16.886 0.575847 29.7695C2.77252 44.5818 10.0532 50.6072 10.0532 50.6072C9.55105 49.1008 7.54262 39.9374 11.9894 35.7531C16.436 31.5687 22.5432 32.8449 29.51 33.6609C36.4769 34.4769 41.8746 31.8407 44.3224 28.2004C46.7703 24.56 45.0755 20.6687 45.0755 20.6687Z" fill="#6176B9"/>
<path d="M10.7974 19.4756C10.7974 20.4885 11.6185 21.3097 12.6316 21.3097C13.6446 21.3097 14.4659 20.4885 14.4659 19.4756C14.4659 18.4625 13.6446 17.6412 12.6316 17.6412C11.6185 17.6412 10.7974 18.4625 10.7974 19.4756Z" fill="#4A55A5"/>
<path d="M27.1309 19.4756C27.1309 20.4885 27.9522 21.3097 28.9651 21.3097C29.9782 21.3097 30.7994 20.4885 30.7994 19.4756C30.7994 18.4625 29.9782 17.6412 28.9651 17.6412C27.9522 17.6412 27.1309 18.4625 27.1309 19.4756Z" fill="#4A55A5"/>
<path d="M22.505 58.9769C21.0579 58.9768 19.7312 58.7421 18.5618 58.2791C15.2012 56.949 13.9973 54.0423 12.9661 50.9267C12.3121 48.9504 11.9334 47.0954 11.823 45.3113C13.2619 47.6738 14.9094 49.9935 16.7387 52.2313C18.9547 54.9426 21.1446 57.1979 23.2663 58.9553C23.0111 58.9697 22.7572 58.9769 22.5053 58.9769H22.505Z" fill="#4A55A5"/>
<path d="M29.0292 58.0107C27.4137 58.0107 26.0735 57.4114 25.3583 56.8506C23.3904 55.2476 21.2963 53.0955 19.1431 50.4612C16.6095 47.3616 13.445 43.2413 12.2917 41.2243C15.8648 44.7196 23.7455 51.7776 30.793 54.7019C31.8521 55.1415 32.8079 55.4846 33.6892 55.741C32.1864 57.5962 30.3605 58.0107 29.0295 58.0107C29.0293 58.0107 29.0293 58.0107 29.0292 58.0107Z" fill="#4A55A5"/>
<path d="M34.1628 51.8185C32.6221 51.8183 30.9721 51.4233 29.391 50.6756C27.5734 49.7865 25.7572 48.6687 24.0003 47.3563C19.8724 44.2733 14.9079 40.3103 13.0527 38.4622C17.2078 40.0455 27.2651 44.0988 33.3859 45.4789C35.4633 45.9474 37.6186 46.1849 39.792 46.1849C40.5188 46.1847 41.2395 46.1581 41.9461 46.1049C39.9122 50.7992 36.6298 51.8185 34.1636 51.8185C34.1632 51.8185 34.1632 51.8185 34.1628 51.8185Z" fill="#4A55A5"/>
<path d="M37.4648 42.7378C34.9565 42.7158 32.1988 42.2497 29.4893 41.3896C25.0078 39.9669 17.9415 37.3848 15.0447 36.3159C16.393 35.7206 17.9125 35.4575 19.8831 35.4575C20.26 35.4575 20.6612 35.4677 21.0757 35.4878C22.5673 35.5601 24.6816 35.8243 27.1299 36.1299C30.6406 36.5684 34.6199 37.0652 38.2512 37.1888C38.4141 37.1943 38.576 37.1969 38.7377 37.1969C40.9695 37.1969 43.306 36.6905 45.6942 35.6907C45.8214 37.3634 45.3637 38.9045 44.3723 40.0942C42.9532 41.7972 40.5002 42.7359 37.4648 42.7378Z" fill="#4A55A5"/>
<path d="M37.4648 42.737C40.5002 42.7352 42.9533 41.7966 44.3723 40.0936C45.3637 38.9039 45.8214 37.3628 45.6942 35.69C45.2279 39.8543 38.9485 41.4243 34.4 40.7802C29.8514 40.1362 15.0447 36.3153 15.0447 36.3153C17.9415 37.3841 25.0078 39.9663 29.4893 41.3889C32.1988 42.249 34.9565 42.7151 37.4648 42.737Z" fill="#5B62AC"/>
<path d="M29.391 50.6756C30.9721 51.4233 32.6221 51.8183 34.1628 51.8185C34.1632 51.8185 34.1632 51.8185 34.1636 51.8185C36.6298 51.8185 39.9122 50.7992 41.9461 46.1049C40.5189 49.2734 36.3732 49.9174 34.4809 49.9174C29.3286 49.9174 18.3522 43.1883 13.0527 38.4622C14.9079 40.3103 19.8724 44.2733 24.0003 47.3563C25.7572 48.6687 27.5734 49.7865 29.391 50.6756Z" fill="#5B62AC"/>
<path d="M25.3583 56.8506C26.0735 57.4114 27.4137 58.0107 29.0292 58.0107C29.0293 58.0107 29.0293 58.0107 29.0295 58.0107C30.3605 58.0107 32.1864 57.5962 33.6892 55.741C33.6892 55.741 30.0856 57.6466 26.8252 55.9559C23.5647 54.2654 13.8996 43.3987 12.2917 41.2243C13.445 43.2413 16.6095 47.3617 19.1431 50.4612C21.2963 53.0955 23.3904 55.2476 25.3583 56.8506Z" fill="#5B62AC"/>
<path d="M18.5618 58.2791C19.7312 58.7421 21.0579 58.9768 22.505 58.9768H22.5053C22.7572 58.9768 23.0111 58.9697 23.2663 58.9554C19.2235 58.1293 16.5669 55.9557 15.4397 53.9027C14.3127 51.8499 11.823 45.3113 11.823 45.3113C11.9334 47.0954 12.3121 48.9504 12.9661 50.9267C13.9973 54.0424 15.2012 56.949 18.5618 58.2791Z" fill="#5B62AC"/>
<path d="M42.5671 27.6182C38.7431 31.6434 33.3441 32.9428 23.2634 32.9428C25.2455 33.1071 27.3356 33.4064 29.5095 33.6611C36.4762 34.4769 41.8741 31.8409 44.3218 28.2006C46.7697 24.5602 45.0749 20.6689 45.0749 20.6689C45.0749 20.6689 45.3998 24.6364 42.5671 27.6182Z" fill="#4C64AE"/>
<path d="M11.9915 35.7535C12.4688 35.3043 12.9655 34.9184 13.4802 34.5877C9.32861 37.1939 7.62892 40.7808 7.5501 45.1412C7.5501 45.1412 3.53612 41.6065 1.75952 35.4583C4.66287 46.1442 10.0554 50.6075 10.0554 50.6075C9.55319 49.1013 7.54477 39.9378 11.9915 35.7535Z" fill="#4C64AE"/>
<path d="M16.5706 21.737C15.7856 23.1039 14.3124 24.0252 12.6231 24.0252C10.1101 24.0252 8.07283 21.988 8.07283 19.475C8.07283 17.0446 9.97825 15.0597 12.3766 14.9316C11.8895 14.4697 11.3841 14.0715 10.884 13.731C8.41804 14.4767 6.62231 16.7657 6.62231 19.4749C6.62231 22.789 9.309 25.4757 12.6231 25.4757C14.478 25.4757 16.136 24.6338 17.2367 23.3116C17.0295 22.8002 16.8057 22.271 16.5706 21.737Z" fill="#6176B9"/>
<path d="M25.0565 21.737C25.8414 23.1039 27.3146 24.0252 29.0039 24.0252C31.517 24.0252 33.5542 21.988 33.5542 19.475C33.5542 17.0446 31.6488 15.0597 29.2505 14.9316C29.7375 14.4697 30.243 14.0715 30.7431 13.731C33.209 14.4767 35.0048 16.7657 35.0048 19.4749C35.0048 22.789 32.3181 25.4757 29.0039 25.4757C27.1491 25.4757 25.491 24.6338 24.3904 23.3116C24.5976 22.8002 24.8213 22.271 25.0565 21.737Z" fill="#6176B9"/>
<path d="M20.3741 7.37735C29.1171 7.37735 32.9572 1.02353 32.9572 1.02353C28.187 4.78943 24.1982 5.20786 20.5298 5.20786C16.8615 5.20786 12.8726 4.78943 8.10254 1.02353C8.10254 1.02353 11.6311 7.37735 20.3741 7.37735Z" fill="#4C64AE"/>
</g>
<defs>
<clipPath id="clip0">
<rect width="45.8824" height="60" fill="white"/>
</clipPath>
</defs>
</svg>
