<svg width="11" height="6" viewBox="0 0 11 6" fill="none" xmlns="http://www.w3.org/2000/svg">
<path d="M10.1642 0.964285C10.1642 0.883928 10.124 0.793526 10.0638 0.733259L9.56152 0.231026C9.50126 0.170759 9.41085 0.13058 9.3305 0.13058C9.25014 0.13058 9.15974 0.170759 9.09947 0.231026L5.15193 4.17857L1.20438 0.231026C1.14411 0.170759 1.05371 0.13058 0.973354 0.13058C0.882952 0.13058 0.802595 0.170759 0.742327 0.231026L0.240095 0.733259C0.179827 0.793526 0.139649 0.883928 0.139649 0.964285C0.139649 1.04464 0.179827 1.13504 0.240095 1.19531L4.9209 5.87612C4.98117 5.93638 5.07157 5.97656 5.15193 5.97656C5.23228 5.97656 5.32268 5.93638 5.38295 5.87612L10.0638 1.19531C10.124 1.13504 10.1642 1.04464 10.1642 0.964285Z" fill="#172940"/>
</svg>
