<svg width="7" height="12" viewBox="0 0 7 12" fill="none" xmlns="http://www.w3.org/2000/svg">
<path d="M1.74309 0.985211C1.66274 0.985211 1.57233 1.02539 1.51207 1.08566L1.00983 1.58789C0.949567 1.64816 0.909388 1.73856 0.909388 1.81892C0.909388 1.89927 0.949567 1.98968 1.00983 2.04994L4.95738 5.99749L1.00983 9.94503C0.949567 10.0053 0.909389 10.0957 0.909389 10.1761C0.909389 10.2665 0.949567 10.3468 1.00983 10.4071L1.51207 10.9093C1.57233 10.9696 1.66274 11.0098 1.74309 11.0098C1.82345 11.0098 1.91385 10.9696 1.97412 10.9093L6.65492 6.22852C6.71519 6.16825 6.75537 6.07785 6.75537 5.99749C6.75537 5.91713 6.71519 5.82673 6.65492 5.76646L1.97412 1.08566C1.91385 1.02539 1.82345 0.985211 1.74309 0.985211Z" fill="#172940"/>
</svg>
