<svg width="16" height="17" viewBox="0 0 16 17" fill="none" xmlns="http://www.w3.org/2000/svg">
<path opacity="0.7" d="M12.5357 0.656947H2.89286C1.29576 0.656947 0 1.95271 0 3.5498V13.1927C0 14.7898 1.29576 16.0855 2.89286 16.0855H8.23661V10.109H6.22768V7.7786H8.23661V6.06096C8.23661 4.07213 9.46205 2.9873 11.24 2.9873C12.0837 2.9873 12.817 3.04757 13.0279 3.07771V5.15695L11.8025 5.16699C10.8281 5.16699 10.6473 5.619 10.6473 6.29199V7.7786H12.9475L12.6462 10.109H10.6473V16.0855H12.5357C14.1328 16.0855 15.4286 14.7898 15.4286 13.1927V3.5498C15.4286 1.95271 14.1328 0.656947 12.5357 0.656947Z" fill="white"/>
</svg>
