<svg width="60" height="59" viewBox="0 0 60 59" fill="none" xmlns="http://www.w3.org/2000/svg">
<path fill-rule="evenodd" clip-rule="evenodd" d="M29.0758 1.68068C13.9459 1.68068 1.68068 13.9459 1.68068 29.0758C1.68068 44.2058 13.9459 56.471 29.0758 56.471C33.279 56.471 37.2589 55.525 40.8162 53.8351L41.5373 55.3532C37.7594 57.1479 33.5337 58.1517 29.0758 58.1517C13.0177 58.1517 0 45.134 0 29.0758C0 13.0177 13.0177 0 29.0758 0C45.134 0 58.1517 13.0177 58.1517 29.0758C58.1517 31.3365 57.8935 33.5379 57.4047 35.6517L55.7673 35.2731C56.2275 33.2825 56.471 31.2081 56.471 29.0758C56.471 13.9459 44.2058 1.68068 29.0758 1.68068Z" fill="#478AC9"/>
<path fill-rule="evenodd" clip-rule="evenodd" d="M29.0756 6.38658C16.5447 6.38658 6.38634 16.5449 6.38634 29.0758C6.38634 41.6067 16.5447 51.765 29.0756 51.765C32.4184 51.765 35.591 51.0425 38.447 49.7455L38.864 50.6637C35.8796 52.0189 32.565 52.7735 29.0756 52.7735C15.9877 52.7735 5.37793 42.1637 5.37793 29.0758C5.37793 15.988 15.9877 5.37817 29.0756 5.37817C42.1634 5.37817 52.7732 15.988 52.7732 29.0758C52.7732 31.0898 52.5218 33.0459 52.0485 34.914L51.071 34.6663C51.524 32.8785 51.7648 31.0056 51.7648 29.0758C51.7648 16.5449 41.6065 6.38658 29.0756 6.38658Z" fill="#49C8F4"/>
<path d="M28.7393 8.57149C28.7393 8.38585 28.8898 8.23535 29.0754 8.23535C29.261 8.23535 29.4115 8.38585 29.4115 8.57149V11.2606C29.4115 11.4462 29.261 11.5967 29.0754 11.5967C28.8898 11.5967 28.7393 11.4462 28.7393 11.2606V8.57149Z" fill="#49C8F4"/>
<path d="M38.953 11.1279C39.0458 10.9671 39.2514 10.912 39.4122 11.0049C39.573 11.0977 39.6281 11.3033 39.5352 11.464L38.1907 13.7929C38.0979 13.9536 37.8923 14.0087 37.7315 13.9159C37.5707 13.8231 37.5157 13.6175 37.6085 13.4567L38.953 11.1279Z" fill="#49C8F4"/>
<path d="M46.5199 18.4485C46.6807 18.3556 46.8863 18.4107 46.9791 18.5715C47.0719 18.7323 47.0168 18.9378 46.8561 19.0307L44.5272 20.3752C44.3665 20.468 44.1609 20.413 44.0681 20.2522C43.9753 20.0914 44.0303 19.8858 44.1911 19.793L46.5199 18.4485Z" fill="#49C8F4"/>
<path d="M49.4119 28.5717C49.5976 28.5717 49.748 28.7221 49.748 28.9078C49.748 29.0934 49.5976 29.2439 49.4119 29.2439L46.7228 29.2439C46.5372 29.2439 46.3867 29.0934 46.3867 28.9078C46.3867 28.7221 46.5372 28.5717 46.7228 28.5717L49.4119 28.5717Z" fill="#49C8F4"/>
<path d="M28.7393 46.555C28.7393 46.3694 28.8898 46.2189 29.0754 46.2189C29.261 46.2189 29.4115 46.3694 29.4115 46.555V49.2441C29.4115 49.4297 29.261 49.5802 29.0754 49.5802C28.8898 49.5802 28.7393 49.4297 28.7393 49.2441V46.555Z" fill="#49C8F4"/>
<path d="M19.9613 44.0227C20.0541 43.8619 20.2597 43.8068 20.4205 43.8996C20.5813 43.9925 20.6364 44.198 20.5435 44.3588L19.199 46.6876C19.1062 46.8484 18.9006 46.9035 18.7398 46.8107C18.579 46.7178 18.524 46.5123 18.6168 46.3515L19.9613 44.0227Z" fill="#49C8F4"/>
<path d="M13.6249 37.4403C13.7857 37.3475 13.9913 37.4025 14.0841 37.5633C14.1769 37.7241 14.1218 37.9297 13.961 38.0225L11.6322 39.367C11.4715 39.4599 11.2659 39.4048 11.1731 39.244C11.0802 39.0832 11.1353 38.8777 11.2961 38.7848L13.6249 37.4403Z" fill="#49C8F4"/>
<path d="M11.429 28.5717C11.6146 28.5717 11.7651 28.7221 11.7651 28.9078C11.7651 29.0934 11.6146 29.2439 11.429 29.2439L8.73991 29.2439C8.55426 29.2439 8.40377 29.0934 8.40377 28.9078C8.40377 28.7221 8.55426 28.5717 8.73991 28.5717L11.429 28.5717Z" fill="#49C8F4"/>
<path d="M13.9613 19.7931C14.1221 19.8859 14.1772 20.0915 14.0844 20.2523C13.9916 20.4131 13.786 20.4681 13.6252 20.3753L11.2964 19.0308C11.1356 18.938 11.0805 18.7324 11.1733 18.5716C11.2662 18.4108 11.4717 18.3557 11.6325 18.4486L13.9613 19.7931Z" fill="#49C8F4"/>
<path d="M26.5175 27.4841C26.7328 27.5883 26.8228 27.8472 26.7186 28.0624C26.6144 28.2777 26.3554 28.3677 26.1402 28.2635L18.7091 24.6657C18.4939 24.5615 18.4039 24.3026 18.5081 24.0874C18.6123 23.8721 18.8712 23.7821 19.0865 23.8863L26.5175 27.4841Z" fill="#49C8F4"/>
<path d="M35.6272 41.5662C35.7069 41.7234 35.644 41.9154 35.4868 41.9952C35.3296 42.0749 35.1376 42.012 35.0579 41.8548L29.8921 31.6659C29.8124 31.5087 29.8752 31.3167 30.0324 31.237C30.1896 31.1573 30.3817 31.2201 30.4614 31.3773L35.6272 41.5662Z" fill="#49C8F4"/>
<path d="M20.5434 13.4568C20.6362 13.6176 20.5811 13.8232 20.4203 13.916C20.2596 14.0088 20.054 13.9537 19.9612 13.793L18.6166 11.4641C18.5238 11.3034 18.5789 11.0978 18.7396 11.005C18.9004 10.9121 19.106 10.9672 19.1988 11.128L20.5434 13.4568Z" fill="#49C8F4"/>
<path d="M30.7034 26.1096C30.5865 26.4046 30.2525 26.549 29.9575 26.4321C29.6624 26.3151 29.518 25.9811 29.635 25.6861L33.3178 16.3941C33.4347 16.099 33.7687 15.9546 34.0638 16.0716C34.3588 16.1885 34.5032 16.5225 34.3863 16.8175L30.7034 26.1096Z" fill="#49C8F4"/>
<path fill-rule="evenodd" clip-rule="evenodd" d="M29.0755 31.0926C30.1894 31.0926 31.0923 30.1896 31.0923 29.0758C31.0923 27.9619 30.1894 27.0589 29.0755 27.0589C27.9617 27.0589 27.0587 27.9619 27.0587 29.0758C27.0587 30.1896 27.9617 31.0926 29.0755 31.0926ZM29.0755 32.101C30.7463 32.101 32.1008 30.7466 32.1008 29.0758C32.1008 27.405 30.7463 26.0505 29.0755 26.0505C27.4047 26.0505 26.0503 27.405 26.0503 29.0758C26.0503 30.7466 27.4047 32.101 29.0755 32.101Z" fill="#49C8F4"/>
<path fill-rule="evenodd" clip-rule="evenodd" d="M42.5215 36.1347V38.1515H56.3031V36.1347H42.5215ZM41.5131 34.454C41.1418 34.454 40.8408 34.755 40.8408 35.1263V39.1599C40.8408 39.5312 41.1418 39.8322 41.5131 39.8322H57.3115C57.6828 39.8322 57.9838 39.5312 57.9838 39.1599V35.1263C57.9838 34.755 57.6828 34.454 57.3115 34.454H41.5131Z" fill="#478AC9"/>
<path fill-rule="evenodd" clip-rule="evenodd" d="M40.1685 39.8322V41.849H53.9501V39.8322H40.1685ZM39.1601 38.1515C38.7888 38.1515 38.4878 38.4525 38.4878 38.8238V42.8574C38.4878 43.2287 38.7888 43.5297 39.1601 43.5297H54.9585C55.3298 43.5297 55.6308 43.2287 55.6308 42.8574V38.8238C55.6308 38.4525 55.3298 38.1515 54.9585 38.1515H39.1601Z" fill="#478AC9"/>
<path fill-rule="evenodd" clip-rule="evenodd" d="M42.8574 43.5296V45.5464H56.639V43.5296H42.8574ZM41.849 41.8489C41.4777 41.8489 41.1768 42.1499 41.1768 42.5212V46.5548C41.1768 46.9261 41.4777 47.2271 41.849 47.2271H57.6475C58.0187 47.2271 58.3197 46.9261 58.3197 46.5548V42.5212C58.3197 42.1499 58.0187 41.8489 57.6475 41.8489H41.849Z" fill="#478AC9"/>
<path fill-rule="evenodd" clip-rule="evenodd" d="M39.1602 47.2272V49.244H52.9418V47.2272H39.1602ZM38.1518 45.5465C37.7805 45.5465 37.4795 45.8475 37.4795 46.2188V50.2524C37.4795 50.6237 37.7805 50.9247 38.1518 50.9247H53.9502C54.3215 50.9247 54.6225 50.6237 54.6225 50.2524V46.2188C54.6225 45.8475 54.3215 45.5465 53.9502 45.5465H38.1518Z" fill="#478AC9"/>
<path fill-rule="evenodd" clip-rule="evenodd" d="M44.5381 50.9246V52.9414H58.3197V50.9246H44.5381ZM43.5297 49.2439C43.1584 49.2439 42.8574 49.5449 42.8574 49.9162V53.9498C42.8574 54.3211 43.1584 54.6221 43.5297 54.6221H59.3281C59.6994 54.6221 60.0004 54.3211 60.0004 53.9498V49.9162C60.0004 49.5449 59.6994 49.2439 59.3281 49.2439H43.5297Z" fill="#478AC9"/>
<path fill-rule="evenodd" clip-rule="evenodd" d="M41.5132 54.6221V56.6389H55.2948V54.6221H41.5132ZM40.5048 52.9414C40.1335 52.9414 39.8325 53.2424 39.8325 53.6137V57.6473C39.8325 58.0186 40.1335 58.3196 40.5048 58.3196H56.3032C56.6745 58.3196 56.9755 58.0186 56.9755 57.6473V53.6137C56.9755 53.2424 56.6745 52.9414 56.3032 52.9414H40.5048Z" fill="#478AC9"/>
</svg>
