<svg width="665" height="502" viewBox="0 0 665 502" fill="none" xmlns="http://www.w3.org/2000/svg">
<g filter="url(#filter0_dd)">
<rect x="40" y="38" width="584.707" height="421.812" rx="10" fill="white"/>
</g>
<mask id="mask0" mask-type="alpha" maskUnits="userSpaceOnUse" x="40" y="38" width="585" height="422">
<rect x="40" y="38" width="584.707" height="421.812" rx="10" fill="white"/>
</mask>
<g mask="url(#mask0)">
<rect x="40" y="38" width="52.2979" height="421.812" fill="#172940"/>
<path opacity="0.25" d="M86.0939 93.5071H46.7578V95.1465H86.0939V93.5071Z" fill="#8196B1"/>
<path opacity="0.5" d="M624.708 188.035L624.708 128.878L92.2981 128.878L92.2981 188.035L624.708 188.035Z" fill="#F0F4F9"/>
<path d="M624.708 63.7203L624.708 38L92.2981 38L92.2981 63.7203L624.708 63.7203Z" fill="#F0F4F9"/>
<path d="M624.708 63.7203L624.708 38L508.109 38L508.109 63.7203L624.708 63.7203Z" fill="#E4EAF1"/>
<path d="M624.708 487.247L624.708 446.095L92.2981 446.095L92.2981 487.247L624.708 487.247Z" fill="#F0F4F9"/>
<path d="M624.708 487.247L624.708 446.095L508.109 446.095L508.109 487.247L624.708 487.247Z" fill="#E4EAF1"/>
</g>
<path d="M362.864 212.041H284.192C282.381 212.041 280.914 213.508 280.914 215.319V221.877C280.914 223.688 282.381 225.156 284.192 225.156H362.864C364.674 225.156 366.142 223.688 366.142 221.877V215.319C366.142 213.508 364.674 212.041 362.864 212.041Z" fill="#F0F4F9"/>
<path d="M411.732 92.0125H333.06C331.249 92.0125 329.782 93.4804 329.782 95.2912V101.849C329.782 103.66 331.249 105.127 333.06 105.127H411.732C413.542 105.127 415.01 103.66 415.01 101.849V95.2912C415.01 93.4804 413.542 92.0125 411.732 92.0125Z" fill="#F0F4F9"/>
<path d="M320.704 99.0508C320.704 90.9022 314.1 84.2964 305.953 84.2964C297.806 84.2964 291.202 90.9022 291.202 99.0508C291.202 107.199 297.806 113.805 305.953 113.805C314.1 113.805 320.704 107.199 320.704 99.0508Z" fill="#F0F4F9"/>
<path fill-rule="evenodd" clip-rule="evenodd" d="M349.845 166.26C349.385 165.806 349.385 165.069 349.845 164.615L356.085 158.456L349.845 152.298C349.385 151.843 349.385 151.107 349.845 150.652C350.306 150.198 351.052 150.198 351.512 150.652L358.585 157.634C359.046 158.088 359.046 158.825 358.585 159.279L351.512 166.26C351.052 166.715 350.306 166.715 349.845 166.26Z" fill="#A2B5CD"/>
<path d="M313.628 146.882H276.489C275.144 146.882 274.054 147.105 274.054 147.379V154.959C274.054 155.233 275.144 155.456 276.489 155.456H313.628C314.973 155.456 316.063 155.233 316.063 154.959V147.379C316.063 147.105 314.973 146.882 313.628 146.882Z" fill="#A2B5CD"/>
<path d="M323.187 161.457H267.789C266.514 161.457 265.481 162.417 265.481 163.601V167.887C265.481 169.071 266.514 170.031 267.789 170.031H323.187C324.461 170.031 325.495 169.071 325.495 167.887V163.601C325.495 162.417 324.461 161.457 323.187 161.457Z" fill="#A2B5CD"/>
<path d="M431.941 146.882H394.802C393.457 146.882 392.367 147.105 392.367 147.379V154.959C392.367 155.233 393.457 155.456 394.802 155.456H431.941C433.286 155.456 434.376 155.233 434.376 154.959V147.379C434.376 147.105 433.286 146.882 431.941 146.882Z" fill="#A2B5CD"/>
<path d="M441.5 161.457H386.102C384.827 161.457 383.794 162.417 383.794 163.601V167.887C383.794 169.071 384.827 170.031 386.102 170.031H441.5C442.774 170.031 443.808 169.071 443.808 167.887V163.601C443.808 162.417 442.774 161.457 441.5 161.457Z" fill="#A2B5CD"/>
<path d="M65.93 70.5427C65.52 70.5427 65.1877 70.2103 65.1877 69.8004C65.1877 69.3904 65.52 69.0581 65.93 69.0581C66.3399 69.0581 66.6723 69.3904 66.6723 69.8004C66.6723 70.2103 66.3399 70.5427 65.93 70.5427ZM75.7824 65.9113C75.3072 64.8023 73.6702 64.4062 71.9276 65.1455C70.185 65.8848 67.9407 66.8618 65.8812 66.5449C63.8218 66.2281 61.9736 64.1422 62.8977 61.2115C62.8977 61.2115 63.8218 62.7957 66.4357 63.6406C69.0497 64.4854 72.2444 63.2974 73.855 61.6867C73.855 61.6867 71.3467 61.7659 69.5513 59.5745C67.7559 57.3831 66.5414 57.4095 65.7757 57.6999C65.7757 57.6999 66.5149 56.6702 66.0661 54.9804C65.6172 53.2906 65.4852 52.2608 66.3037 50.9407C66.3037 50.9407 63.9539 50.9143 62.1849 52.6833C60.4159 54.4523 60.5655 57.7351 60.8735 58.6416C60.8735 58.6416 57.2475 62.3063 57.3179 67.5852C57.3883 72.864 59.0952 74.4482 59.0952 74.4482C59.0952 74.4482 57.3267 77.5022 60.1518 79.9313C60.1518 79.9313 62.6865 75.7332 66.3037 72.5912C69.921 69.4493 72.9045 68.7099 76.2312 68.6835C76.2312 68.6835 76.2577 67.0202 75.7824 65.9113Z" fill="#49C8F4"/>
<path d="M66.7753 79.2835C66.6197 79.2835 66.4672 79.279 66.3203 79.2703C66.394 78.6921 66.78 75.9588 67.69 74.1908C68.9602 71.7233 70.913 70.227 74.0188 69.739C73.4124 70.2242 72.0891 71.4327 70.901 73.5347C69.4647 76.0757 69.3757 78.4244 69.373 78.8924C69.0564 78.9764 68.0732 79.2835 66.7753 79.2835Z" fill="#478AC9"/>
<path d="M70.459 78.4741C70.4921 77.8442 70.6937 75.6941 71.9162 73.6419C73.0943 71.6645 74.6122 70.209 76.1018 69.6218C76.0542 73.4653 74.2067 76.3639 70.459 78.4741Z" fill="#478AC9"/>
<path d="M65.3267 79.1367C63.8044 78.8012 62.832 78.3488 62.5215 78.0706C63.4788 76.7916 65.3337 74.8 67.0718 73.252C67.0184 73.3463 65.6989 75.9319 65.3267 79.1367Z" fill="#478AC9"/>
<path d="M60.3068 72.9988C60.3068 72.9988 55.7719 68.0388 59.1663 60.9626C58.2364 62.5459 57.28 64.8481 57.3164 67.584C57.3868 72.8629 59.0937 74.447 59.0937 74.447C59.6001 73.7391 59.8525 73.4025 60.3068 72.9988Z" fill="#39A8DF"/>
<path d="M58.5738 76.1681C58.4574 77.2498 58.6894 78.6737 60.151 79.9304C60.151 79.9304 62.0013 76.8662 64.796 74.0142L64.7963 74.0137C64.1928 74.6113 60.9468 77.8782 60.3074 78.2315C59.6972 78.5687 58.4292 77.6947 58.5738 76.1681Z" fill="#39A8DF"/>
<path d="M58.5938 76.0101C58.597 75.9893 58.5993 75.9688 58.6031 75.9478C58.5999 75.9684 58.5967 75.9891 58.5938 76.0101Z" fill="#39A8DF"/>
<path d="M66.2298 62.7212C65.4676 62.3892 64.8477 61.765 64.4026 61.1725C63.7271 60.2731 62.897 61.2127 62.897 61.2127C62.897 61.2127 63.8211 62.7969 66.435 63.6418C68.1941 64.2104 70.2164 63.8582 71.8417 63.0761C70.236 63.6496 67.929 63.4614 66.2298 62.7212Z" fill="#39A8DF"/>
<path d="M62.6716 52.2485C62.5056 52.3796 62.3422 52.5236 62.1836 52.6823C60.4146 54.4513 60.5642 57.7341 60.8722 58.6406C60.8722 58.6406 61.5856 57.9154 61.4569 57.0908C61.2729 55.9119 61.222 53.8798 62.6716 52.2485Z" fill="#39A8DF"/>
<path d="M66.4254 74.739C65.7963 75.7388 65.1028 78.0884 64.7243 78.3072C64.3457 78.5259 63.4035 78.6521 62.5215 78.0694C62.832 78.3476 63.8044 78.8 65.3267 79.1355C65.5303 77.3827 66.0173 75.8151 66.4254 74.739Z" fill="#55A9DE"/>
<path d="M69.373 78.8924C69.3757 78.4244 69.4647 76.0757 70.901 73.5347C72.0891 71.4327 73.4124 70.2243 74.0188 69.739C69.737 72.4668 68.8114 78.0273 68.5843 78.4058C68.3571 78.7843 67.1165 79.2703 66.3203 79.2703C66.4672 79.279 66.6197 79.2835 66.7753 79.2835C68.0732 79.2835 69.0564 78.9764 69.373 78.8924Z" fill="#55A9DE"/>
<path d="M74.2124 74.2774C73.0033 76.1918 70.6069 77.2877 70.5979 77.2918C70.5044 77.8302 70.4708 78.2492 70.459 78.474C74.2067 76.3638 76.0542 73.4652 76.1018 69.6218C76.1018 69.6218 75.4238 72.3594 74.2124 74.2774Z" fill="#55A9DE"/>
<path d="M176.713 384.366H124.481C123.279 384.366 122.305 385.326 122.305 386.51V390.796C122.305 391.98 123.279 392.94 124.481 392.94H176.713C177.915 392.94 178.889 391.98 178.889 390.796V386.51C178.889 385.326 177.915 384.366 176.713 384.366Z" fill="#F0F4F9"/>
<path d="M176.713 400.656H124.481C123.279 400.656 122.305 401.615 122.305 402.799V407.086C122.305 408.269 123.279 409.229 124.481 409.229H176.713C177.915 409.229 178.889 408.269 178.889 407.086V402.799C178.889 401.615 177.915 400.656 176.713 400.656Z" fill="#F0F4F9"/>
<path d="M249.587 384.366H197.356C196.154 384.366 195.179 385.326 195.179 386.51V390.796C195.179 391.98 196.154 392.94 197.356 392.94H249.587C250.789 392.94 251.764 391.98 251.764 390.796V386.51C251.764 385.326 250.789 384.366 249.587 384.366Z" fill="#F0F4F9"/>
<path d="M249.587 400.656H197.356C196.154 400.656 195.179 401.615 195.179 402.799V407.086C195.179 408.269 196.154 409.229 197.356 409.229H249.587C250.789 409.229 251.764 408.269 251.764 407.086V402.799C251.764 401.615 250.789 400.656 249.587 400.656Z" fill="#F0F4F9"/>
<path d="M212.722 319.208H160.49C159.288 319.208 158.313 320.072 158.313 321.137V324.995C158.313 326.061 159.288 326.924 160.49 326.924H212.722C213.924 326.924 214.898 326.061 214.898 324.995V321.137C214.898 320.072 213.924 319.208 212.722 319.208Z" fill="#F0F4F9"/>
<path d="M204.016 330.354H169.195C168.393 330.354 167.744 331.217 167.744 332.283V336.141C167.744 337.206 168.393 338.07 169.195 338.07H204.016C204.817 338.07 205.467 337.206 205.467 336.141V332.283C205.467 331.217 204.817 330.354 204.016 330.354Z" fill="#F0F4F9"/>
<path d="M207.069 280.628H166.14C164.658 280.628 163.457 281.407 163.457 282.367V308.895C163.457 309.856 164.658 310.635 166.14 310.635H207.069C208.551 310.635 209.753 309.856 209.753 308.895V282.367C209.753 281.407 208.551 280.628 207.069 280.628Z" fill="#E4EAF1"/>
<path d="M181.617 253.763C181.43 251.687 182.961 249.839 185.045 249.784C194.389 249.537 203.678 251.508 212.142 255.559C221.743 260.154 229.927 267.254 235.83 276.111C241.734 284.967 245.138 295.253 245.684 305.883C246.231 316.513 243.899 327.093 238.935 336.509C233.971 345.924 226.559 353.826 217.48 359.381C208.4 364.936 197.991 367.939 187.347 368.072C176.704 368.205 166.223 365.465 157.007 360.139C148.882 355.444 142.008 348.894 136.931 341.044C135.8 339.294 136.459 336.987 138.278 335.969C140.097 334.951 142.385 335.609 143.533 337.349C147.935 344.018 153.835 349.589 160.783 353.604C168.823 358.25 177.968 360.641 187.253 360.525C196.538 360.408 205.62 357.789 213.54 352.943C221.461 348.096 227.928 341.203 232.258 332.988C236.589 324.774 238.623 315.544 238.146 306.27C237.67 296.997 234.7 288.024 229.55 280.297C224.399 272.57 217.26 266.376 208.884 262.367C201.645 258.903 193.715 257.182 185.725 257.319C183.641 257.354 181.805 255.838 181.617 253.763Z" fill="#68B0F4"/>
<rect x="280.912" y="246.334" width="128.601" height="8.57342" rx="4.28671" fill="#F0F4F9"/>
<rect x="427.518" y="246.334" width="36.0084" height="8.57342" rx="4" fill="#E4EAF1"/>
<rect x="516.681" y="246.334" width="36.0084" height="8.57342" rx="4" fill="#E4EAF1"/>
<rect x="472.099" y="246.334" width="36.0084" height="8.57342" rx="4" fill="#E4EAF1"/>
<rect x="561.262" y="246.334" width="36.0084" height="8.57342" rx="4" fill="#E4EAF1"/>
<rect x="280.912" y="246.334" width="93.4503" height="8.57342" rx="4.28671" fill="#CCE6FF"/>
<rect x="280.912" y="272.054" width="128.601" height="8.57342" rx="4.28671" fill="#F0F4F9"/>
<rect x="427.517" y="272.054" width="36.0084" height="8.57342" rx="4" fill="#E4EAF1"/>
<rect x="516.681" y="272.054" width="36.0084" height="8.57342" rx="4" fill="#E4EAF1"/>
<rect x="472.1" y="272.054" width="36.0084" height="8.57342" rx="4" fill="#E4EAF1"/>
<rect x="561.263" y="272.054" width="36.0084" height="8.57342" rx="4" fill="#E4EAF1"/>
<rect x="280.912" y="272.054" width="84.8769" height="8.57342" rx="4.28671" fill="#CCE6FF"/>
<rect x="280.912" y="297.775" width="128.601" height="8.57342" rx="4.28671" fill="#F0F4F9"/>
<rect x="427.517" y="297.775" width="36.0084" height="8.57342" rx="4" fill="#E4EAF1"/>
<rect x="516.681" y="297.775" width="36.0084" height="8.57342" rx="4" fill="#E4EAF1"/>
<rect x="472.1" y="297.775" width="36.0084" height="8.57342" rx="4" fill="#E4EAF1"/>
<rect x="561.263" y="297.775" width="36.0084" height="8.57342" rx="4" fill="#E4EAF1"/>
<rect x="280.912" y="297.775" width="80.5901" height="8.57342" rx="4.28671" fill="#CCE6FF"/>
<rect x="280.912" y="323.495" width="128.601" height="8.57342" rx="4.28671" fill="#F0F4F9"/>
<rect x="427.517" y="323.495" width="36.0084" height="8.57342" rx="4" fill="#E4EAF1"/>
<rect x="516.681" y="323.495" width="36.0084" height="8.57342" rx="4" fill="#E4EAF1"/>
<rect x="472.1" y="323.495" width="36.0084" height="8.57342" rx="4" fill="#E4EAF1"/>
<rect x="561.263" y="323.495" width="36.0084" height="8.57342" rx="4" fill="#E4EAF1"/>
<rect x="280.912" y="323.495" width="75.4461" height="8.57342" rx="4.28671" fill="#CCE6FF"/>
<rect x="280.912" y="349.215" width="128.601" height="8.57342" rx="4.28671" fill="#F0F4F9"/>
<rect x="427.517" y="349.215" width="36.0084" height="8.57342" rx="4" fill="#E4EAF1"/>
<rect x="516.681" y="349.215" width="36.0084" height="8.57342" rx="4" fill="#E4EAF1"/>
<rect x="472.1" y="349.215" width="36.0084" height="8.57342" rx="4" fill="#E4EAF1"/>
<rect x="561.263" y="349.215" width="36.0084" height="8.57342" rx="4" fill="#E4EAF1"/>
<rect x="280.912" y="349.215" width="70.302" height="8.57342" rx="4.28671" fill="#CCE6FF"/>
<rect x="280.912" y="374.936" width="128.601" height="8.57342" rx="4.28671" fill="#F0F4F9"/>
<rect x="427.517" y="374.936" width="36.0084" height="8.57342" rx="4" fill="#E4EAF1"/>
<rect x="516.681" y="374.936" width="36.0084" height="8.57342" rx="4" fill="#E4EAF1"/>
<rect x="472.1" y="374.936" width="36.0084" height="8.57342" rx="4" fill="#E4EAF1"/>
<rect x="561.263" y="374.936" width="36.0084" height="8.57342" rx="4" fill="#E4EAF1"/>
<rect x="280.912" y="374.936" width="66.8727" height="8.57342" rx="4.28671" fill="#CCE6FF"/>
<rect x="280.912" y="400.656" width="128.601" height="8.57342" rx="4.28671" fill="#F0F4F9"/>
<rect x="427.517" y="400.656" width="36.0084" height="8.57342" rx="4" fill="#E4EAF1"/>
<rect x="516.681" y="400.656" width="36.0084" height="8.57342" rx="4" fill="#E4EAF1"/>
<rect x="472.1" y="400.656" width="36.0084" height="8.57342" rx="4" fill="#E4EAF1"/>
<rect x="561.263" y="400.656" width="36.0084" height="8.57342" rx="4" fill="#E4EAF1"/>
<rect x="280.912" y="400.656" width="63.4433" height="8.57342" rx="4.28671" fill="#CCE6FF"/>
<path fill-rule="evenodd" clip-rule="evenodd" d="M186.606 393.797L186.606 383.509L188.321 383.509L188.321 393.797L186.606 393.797Z" fill="#F0F4F9"/>
<path fill-rule="evenodd" clip-rule="evenodd" d="M186.606 410.086L186.606 399.798L188.321 399.798L188.321 410.086L186.606 410.086Z" fill="#F0F4F9"/>
<defs>
<filter id="filter0_dd" x="0" y="0" width="664.707" height="501.812" filterUnits="userSpaceOnUse" color-interpolation-filters="sRGB">
<feFlood flood-opacity="0" result="BackgroundImageFix"/>
<feColorMatrix in="SourceAlpha" type="matrix" values="0 0 0 0 0 0 0 0 0 0 0 0 0 0 0 0 0 0 127 0"/>
<feOffset dy="2"/>
<feGaussianBlur stdDeviation="20"/>
<feColorMatrix type="matrix" values="0 0 0 0 0.0901961 0 0 0 0 0.160784 0 0 0 0 0.25098 0 0 0 0.05 0"/>
<feBlend mode="normal" in2="BackgroundImageFix" result="effect1_dropShadow"/>
<feColorMatrix in="SourceAlpha" type="matrix" values="0 0 0 0 0 0 0 0 0 0 0 0 0 0 0 0 0 0 127 0"/>
<feOffset dy="5"/>
<feGaussianBlur stdDeviation="5"/>
<feColorMatrix type="matrix" values="0 0 0 0 0.0901961 0 0 0 0 0.160784 0 0 0 0 0.25098 0 0 0 0.1 0"/>
<feBlend mode="normal" in2="effect1_dropShadow" result="effect2_dropShadow"/>
<feBlend mode="normal" in="SourceGraphic" in2="effect2_dropShadow" result="shape"/>
</filter>
</defs>
</svg>
