<svg width="71" height="60" viewBox="0 0 71 60" fill="none" xmlns="http://www.w3.org/2000/svg">
<path fill-rule="evenodd" clip-rule="evenodd" d="M68.5926 52.4693H2.22703V54.6209C2.22703 56.3185 3.55647 57.6947 5.19641 57.6947H65.6233C67.2632 57.6947 68.5926 56.3185 68.5926 54.6209V52.4693ZM0 50.1639V54.6209C0 57.5917 2.32651 60 5.19641 60H65.6233C68.4932 60 70.8197 57.5917 70.8197 54.6209V50.1639H0Z" fill="#478AC9"/>
<path d="M23.6064 50.1639H47.213V50.8054C47.213 53.1673 45.7848 55.082 44.0229 55.082H26.7965C25.0347 55.082 23.6064 53.1673 23.6064 50.8054V50.1639Z" fill="#49C8F4"/>
<path fill-rule="evenodd" clip-rule="evenodd" d="M9.83594 17.7048H18.8964V19.1698H11.2973V50.6661H59.5221V19.1698H51.4116V17.7048H60.9835V52.1311H9.83594V17.7048Z" fill="#49C8F4"/>
<path fill-rule="evenodd" clip-rule="evenodd" d="M9.49767 15.1184C7.7189 15.1184 6.27693 16.5537 6.27693 18.3242V49.7996H64.543V18.3242C64.543 16.5537 63.1011 15.1184 61.3223 15.1184H51.8549L50.8549 12.7869H61.3223C64.3947 12.7869 66.8854 15.266 66.8854 18.3242V52.1311H3.93457V18.3242C3.93457 15.266 6.42525 12.7869 9.49767 12.7869H19.6723V15.1184H9.49767Z" fill="#478AC9"/>
<path fill-rule="evenodd" clip-rule="evenodd" d="M35.4098 1.02675C26.7419 1.02675 19.7152 8.05344 19.7152 16.7213C19.7152 25.3892 26.7419 32.4159 35.4098 32.4159C44.0777 32.4159 51.1044 25.3892 51.1044 16.7213C51.1044 15.3847 50.9374 14.0878 50.6234 12.8501C50.5537 12.5752 50.72 12.2959 50.9948 12.2262C51.2696 12.1565 51.5489 12.3228 51.6186 12.5976C51.9534 13.9172 52.1311 15.2989 52.1311 16.7213C52.1311 25.9562 44.6447 33.4426 35.4098 33.4426C26.1749 33.4426 18.6885 25.9562 18.6885 16.7213C18.6885 7.48639 26.1749 0 35.4098 0C39.0466 0 42.4135 1.16161 45.158 3.13395C45.3882 3.29942 45.4407 3.6202 45.2752 3.85044C45.1098 4.08068 44.789 4.13318 44.5588 3.96772C41.9831 2.11668 38.8245 1.02675 35.4098 1.02675Z" fill="#49C8F4"/>
<path fill-rule="evenodd" clip-rule="evenodd" d="M53.6598 4.37559C54.2445 4.96378 54.2445 5.91743 53.6598 6.50562L35.6809 24.5902L26.0123 14.8648C25.4275 14.2766 25.4275 13.3229 26.0123 12.7348C26.597 12.1466 27.5451 12.1466 28.1299 12.7348L35.6809 20.3301L51.5422 4.37559C52.1269 3.7874 53.075 3.7874 53.6598 4.37559Z" fill="#49C8F4"/>
</svg>
