<svg width="62" height="65" viewBox="0 0 62 65" fill="none" xmlns="http://www.w3.org/2000/svg">
<path d="M37.618 11.6889C37.618 16.4853 33.7297 20.3736 28.9333 20.3736C24.1368 20.3736 20.2485 16.4853 20.2485 11.6889C20.2485 6.89244 24.1368 3.00415 28.9333 3.00415C33.7297 3.00415 37.618 6.89244 37.618 11.6889Z" fill="#49C8F4"/>
<path fill-rule="evenodd" clip-rule="evenodd" d="M28.9333 19.3736C33.1774 19.3736 36.618 15.933 36.618 11.6889C36.618 7.44472 33.1774 4.00415 28.9333 4.00415C24.6891 4.00415 21.2485 7.44472 21.2485 11.6889C21.2485 15.933 24.6891 19.3736 28.9333 19.3736ZM28.9333 20.3736C33.7297 20.3736 37.618 16.4853 37.618 11.6889C37.618 6.89244 33.7297 3.00415 28.9333 3.00415C24.1368 3.00415 20.2485 6.89244 20.2485 11.6889C20.2485 16.4853 24.1368 20.3736 28.9333 20.3736Z" fill="#49C8F4"/>
<path fill-rule="evenodd" clip-rule="evenodd" d="M50.9364 10.1654C51.1331 10.354 51.2443 10.6147 51.2443 10.8872V21.8462C52.0356 22.574 52.8761 23.7042 53.5982 24.78C54.3104 25.841 54.9709 26.9476 55.4445 27.7911H59.3299C60.2994 27.7911 60.9893 28.2518 61.4121 28.8213C61.8049 29.3504 61.963 29.9583 61.9968 30.3815C61.9989 30.408 62 30.4347 62 30.4613V41.9518C62 42.8954 61.5408 43.5862 61.0316 44.031C60.5421 44.4587 59.9709 44.6969 59.5632 44.7948C59.4868 44.8131 59.4085 44.8224 59.3299 44.8224H56.0395C54.4547 49.1933 51.3195 52.0037 49.4179 53.1926C49.6294 56.0221 49.99 60.9009 50.0402 61.8044C50.0921 62.7379 49.5373 63.4232 49.0768 63.8255C48.5996 64.2424 48.0389 64.525 47.6522 64.6682C47.541 64.7094 47.4234 64.7305 47.3048 64.7305H39.1545C38.026 64.7305 37.1995 64.303 36.6836 63.6475C36.2217 63.0607 36.0774 62.379 36.0828 61.8829L35.8459 58.3755C34.4025 58.8441 32.7688 59.0157 31.2691 59.0435C29.7935 59.0708 28.372 58.9596 27.2545 58.8111L27.0581 61.9312C27.0186 62.4846 26.7489 63.1918 26.1374 63.761C25.5049 64.3498 24.5743 64.7305 23.3216 64.7305H16.0684C15.577 64.7558 14.8497 64.6644 14.2195 64.2466C13.497 63.7675 13.0283 62.9386 13.1046 61.7934C13.2049 60.2901 13.5835 55.6561 13.7966 53.0881C12.1637 51.7377 10.0023 49.4855 8.28225 46.6722C6.4079 43.6064 5.00335 39.7825 5.49368 35.6868C5.69763 33.9832 6.09468 32.3613 6.64228 30.8327C5.77554 30.8866 4.82913 30.8386 3.95677 30.5941C3.1662 30.3726 2.37375 29.9715 1.78243 29.2747C1.17841 28.5629 0.86077 27.6322 0.877103 26.5052C0.878011 26.4426 0.879521 26.3805 0.881622 26.3191C0.676365 26.0682 0.530253 25.8002 0.451531 25.5378C0.442282 25.5069 0.430743 25.4702 0.41743 25.4277C0.153133 24.5852 -0.810304 21.514 1.56377 18.5464C1.90878 18.1152 2.53807 18.0452 2.96933 18.3902C3.40059 18.7352 3.47051 19.3645 3.12551 19.7958C2.26721 20.8687 2.01157 21.946 2.00038 22.8521C2.3936 22.3683 2.86828 22.0158 3.3886 21.7826C4.04565 21.4881 4.71749 21.4137 5.27626 21.4656C5.55581 21.4915 5.82841 21.5509 6.07206 21.6457C6.2914 21.7311 6.59069 21.8849 6.8083 22.1647C7.05992 22.4882 7.61337 23.2609 7.67644 24.2069C7.71033 24.7153 7.6019 25.2674 7.2537 25.7872C6.91391 26.2944 6.3916 26.7029 5.70988 27.0237C4.71052 27.494 3.79721 27.6019 3.01989 27.4855C3.09587 27.6887 3.19638 27.8498 3.30738 27.9806C3.5663 28.2858 3.96202 28.5185 4.49646 28.6683C5.43056 28.9301 6.59127 28.8819 7.521 28.7167C10.2284 23.0043 15.0091 18.8218 19.2982 16.8603C19.8005 16.6306 20.3938 16.8516 20.6235 17.3538C20.8532 17.8561 20.6323 18.4494 20.13 18.6791C16.1377 20.5049 11.5834 24.5214 9.13113 30.0013C8.31474 31.8256 7.73284 33.8084 7.4795 35.9246C7.06126 39.4181 8.251 42.7868 9.98861 45.6289C11.7254 48.4697 13.9552 50.6925 15.4497 51.8502C15.7174 52.0576 15.862 52.3863 15.8338 52.7238C15.6331 55.1331 15.2064 60.3335 15.1002 61.9264C15.0831 62.1825 15.1274 62.3253 15.1634 62.3999C15.199 62.4735 15.2503 62.5304 15.3248 62.5797C15.5019 62.6972 15.7765 62.7454 15.9754 62.7325C15.9879 62.7317 16.0005 62.7312 16.013 62.7308C16.022 62.7306 16.0309 62.7305 16.0398 62.7305H23.3216C24.1533 62.7305 24.5699 62.4877 24.7747 62.2971C24.998 62.0892 25.0569 61.8638 25.063 61.7911L25.0632 61.7887L25.6639 52.2439C25.6986 51.6927 26.1735 51.274 26.7247 51.3087C27.2759 51.3434 27.6946 51.8183 27.6599 52.3695L27.3805 56.8098C28.4218 56.9548 29.801 57.0703 31.232 57.0438C32.8891 57.0131 34.5101 56.7929 35.7495 56.2827V52.6407C35.7495 52.0885 36.1973 51.6407 36.7495 51.6407C37.3018 51.6407 37.7495 52.0885 37.7495 52.6407V56.8825L38.0813 61.7925C38.0836 61.8268 38.0842 61.8612 38.0829 61.8956C38.0785 62.0192 38.1221 62.2414 38.2551 62.4105C38.3527 62.5345 38.5729 62.7305 39.1545 62.7305H47.1075C47.3097 62.6385 47.5602 62.4947 47.7609 62.3194C48.0319 62.0826 48.0449 61.9439 48.0433 61.9154C47.9906 60.966 47.5776 55.3959 47.3765 52.7155C47.3466 52.3165 47.5574 51.9381 47.9124 51.7535C49.398 50.981 52.9122 48.1898 54.3669 43.5247C54.4971 43.1069 54.8839 42.8224 55.3215 42.8224H59.1906C59.3418 42.7711 59.5479 42.6715 59.7158 42.5248C59.9025 42.3617 60 42.1841 60 41.9518V30.5102C59.983 30.3745 59.921 30.1681 59.8063 30.0135C59.7509 29.9389 59.6922 29.8882 59.6303 29.8549C59.5718 29.8236 59.4801 29.7911 59.3299 29.7911H54.8539C54.4863 29.7911 54.1483 29.5894 53.9738 29.2659C53.5297 28.4427 52.7678 27.1315 51.9376 25.8946C51.0804 24.6176 50.2398 23.5576 49.6443 23.111C49.3925 22.9221 49.2443 22.6257 49.2443 22.311V12.0221C47.1943 12.4471 44.2088 13.9236 43.262 17.553C43.193 17.8176 43.0186 18.0424 42.7794 18.1751C42.5402 18.3077 42.2572 18.3366 41.9961 18.255C40.8134 17.8854 39.4951 17.4936 38.54 17.2144C38.0099 17.0594 37.7057 16.5041 37.8607 15.974C38.0156 15.4439 38.571 15.1398 39.1011 15.2947C39.8124 15.5026 40.727 15.7735 41.6406 16.0523C43.3972 11.3411 48.0091 9.98043 50.2022 9.88809C50.4745 9.87663 50.7397 9.97678 50.9364 10.1654ZM2.98591 25.4249C3.36656 25.5668 3.9818 25.6265 4.85829 25.2141C5.31227 25.0004 5.50812 24.7994 5.59213 24.674C5.66772 24.5612 5.68872 24.4578 5.68087 24.3399C5.66289 24.0702 5.49445 23.7568 5.3071 23.4962C5.25858 23.4816 5.18613 23.4658 5.09149 23.457C4.84025 23.4337 4.51835 23.4679 4.20672 23.6076C3.78572 23.7963 3.22102 24.2556 2.98591 25.4249ZM5.37124 23.5207C5.37124 23.5207 5.36735 23.5192 5.36095 23.5154C5.36826 23.5187 5.37124 23.5207 5.37124 23.5207ZM37.5022 21.5895C29.8824 19.0496 22.4149 22.1518 19.6734 24.0076C19.2161 24.3171 18.5943 24.1974 18.2847 23.74C17.9752 23.2827 18.0949 22.6609 18.5523 22.3513C21.6006 20.2878 29.7211 16.8876 38.1347 19.6921C38.6586 19.8668 38.9418 20.4331 38.7671 20.9571C38.5925 21.481 38.0262 21.7642 37.5022 21.5895Z" fill="#478AC9"/>
<path fill-rule="evenodd" clip-rule="evenodd" d="M28.8664 2C23.4046 2 18.9771 6.4276 18.9771 11.8893C18.9771 15.4603 20.8691 18.5902 23.7101 20.3298L22.6657 22.0355C19.2558 19.9475 16.9771 16.185 16.9771 11.8893C16.9771 5.32303 22.3001 0 28.8664 0C35.4327 0 40.7557 5.32303 40.7557 11.8893C40.7557 15.469 39.1724 18.6801 36.6713 20.8583L35.3578 19.3501C37.4413 17.5356 38.7557 14.8665 38.7557 11.8893C38.7557 6.4276 34.3281 2 28.8664 2Z" fill="#478AC9"/>
<path d="M47.1045 29.6596C47.1045 28.811 47.7924 28.123 48.641 28.123C49.4896 28.123 50.1776 28.811 50.1776 29.6596V32.0646C50.1776 32.9132 49.4896 33.6011 48.641 33.6011C47.7924 33.6011 47.1045 32.9132 47.1045 32.0646V29.6596Z" fill="#49C8F4"/>
<path d="M31.0742 13.7422C31.0742 13.3828 30.9473 13.0801 30.6934 12.834C30.4434 12.5879 30.0195 12.3652 29.4219 12.166C28.5898 11.9121 27.9824 11.582 27.5996 11.1758C27.2207 10.7656 27.0312 10.2461 27.0312 9.61719C27.0312 8.97656 27.2168 8.45117 27.5879 8.04102C27.9629 7.63086 28.4766 7.38672 29.1289 7.30859V6.02539H30.002V7.31445C30.6582 7.4043 31.168 7.67969 31.5312 8.14062C31.8984 8.60156 32.082 9.23242 32.082 10.0332H31.0039C31.0039 9.48242 30.873 9.04492 30.6113 8.7207C30.3496 8.39648 29.9961 8.23438 29.5508 8.23438C29.0859 8.23438 28.7305 8.35547 28.4844 8.59766C28.2383 8.83594 28.1152 9.16992 28.1152 9.59961C28.1152 9.99805 28.2441 10.3164 28.502 10.5547C28.7637 10.7891 29.1914 11.0039 29.7852 11.1992C30.3828 11.3906 30.8477 11.6035 31.1797 11.8379C31.5156 12.0684 31.7617 12.3379 31.918 12.6465C32.0781 12.9551 32.1582 13.3164 32.1582 13.7305C32.1582 14.3906 31.959 14.9219 31.5605 15.3242C31.166 15.7266 30.6113 15.9648 29.8965 16.0391V17.1582H29.0293V16.0391C28.3027 15.9727 27.7324 15.7148 27.3184 15.2656C26.9082 14.8125 26.7031 14.1992 26.7031 13.4258H27.7871C27.7871 13.9688 27.9297 14.3867 28.2148 14.6797C28.5 14.9727 28.9043 15.1191 29.4277 15.1191C29.9395 15.1191 30.3418 14.9961 30.6348 14.75C30.9277 14.5039 31.0742 14.168 31.0742 13.7422Z" fill="white"/>
</svg>
