<svg width="41" height="60" viewBox="0 0 41 60" fill="none" xmlns="http://www.w3.org/2000/svg">
<path d="M18.5563 40.5133C17.7124 40.5133 17.0284 39.8293 17.0284 38.9854C17.0284 38.1415 17.7124 37.4575 18.5563 37.4575C19.4002 37.4575 20.0842 38.1415 20.0842 38.9854C20.0842 39.8293 19.4002 40.5133 18.5563 40.5133ZM38.8361 30.9803C37.8579 28.6976 34.4884 27.8824 30.9014 29.4041C27.3146 30.9259 22.6952 32.9368 18.456 32.2845C14.217 31.6324 10.4128 27.339 12.3149 21.3065C12.3149 21.3065 14.217 24.5673 19.5974 26.3065C24.9777 28.0455 31.5536 25.6 34.8687 22.2848C34.8687 22.2848 29.7058 22.4478 26.0103 17.937C22.3147 13.4263 19.8148 13.4807 18.2387 14.0785C18.2387 14.0785 19.7604 11.9589 18.8365 8.48081C17.9126 5.00258 17.6408 2.88302 19.3256 0.165695C19.3256 0.165695 14.4889 0.111393 10.8476 3.75264C7.20639 7.39376 7.51432 14.151 8.1484 16.0168C8.1484 16.0168 0.684804 23.56 0.82972 34.4258C0.974636 45.2914 4.488 48.5522 4.488 48.5522C4.488 48.5522 0.847818 54.8384 6.66292 59.8383C6.66292 59.8383 11.8801 51.1972 19.3256 44.73C26.7711 38.2627 32.9123 36.7409 39.7599 36.6866C39.7599 36.6866 39.8143 33.2629 38.8361 30.9803Z" fill="#49C8F4"/>
<path d="M20.2998 58.5049C19.9796 58.5049 19.6656 58.4957 19.3633 58.4777C19.5149 57.2876 20.3094 51.6615 22.1826 48.0222C24.797 42.9433 28.8166 39.8634 35.2095 38.859C33.9612 39.8578 31.2374 42.3451 28.7919 46.6719C25.8356 51.9022 25.6523 56.7365 25.6469 57.6999C24.9952 57.8727 22.9713 58.5049 20.2998 58.5049Z" fill="#478AC9"/>
<path d="M27.8818 56.8389C27.95 55.5423 28.3649 51.1166 30.8814 46.8925C33.3061 42.8223 36.4305 39.8264 39.4968 38.6179C39.3987 46.529 35.596 52.4954 27.8818 56.8389Z" fill="#478AC9"/>
<path d="M17.3157 58.2025C14.1822 57.5118 12.1806 56.5806 11.5415 56.0081C13.5119 53.3755 17.3299 49.276 20.9077 46.0896C20.7977 46.2839 18.0818 51.6059 17.3157 58.2025Z" fill="#478AC9"/>
<path d="M6.98484 45.5686C6.98484 45.5686 -2.34939 35.3593 4.63738 20.7941C2.72327 24.053 0.754617 28.7917 0.82972 34.4232C0.974636 45.2889 4.488 48.5497 4.488 48.5497C5.53027 47.0924 6.04976 46.3997 6.98484 45.5686Z" fill="#39A8DF"/>
<path d="M3.41631 52.0924C3.17666 54.319 3.65419 57.2498 6.66265 59.8365C6.66265 59.8365 10.4713 53.5293 16.2236 47.659L16.2243 47.6579C14.982 48.888 8.30057 55.6124 6.98457 56.3397C5.72851 57.0337 3.1186 55.2348 3.41631 52.0924Z" fill="#39A8DF"/>
<path d="M3.45801 51.7662C3.46459 51.7235 3.46941 51.6817 3.47717 51.6387C3.47059 51.6809 3.46412 51.7233 3.45801 51.7662Z" fill="#39A8DF"/>
<path d="M19.1748 24.4142C17.606 23.7307 16.3299 22.4461 15.4139 21.2265C14.0234 19.3752 12.3147 21.3092 12.3147 21.3092C12.3147 21.3092 14.2169 24.57 19.5972 26.3091C23.2181 27.4795 27.3806 26.7545 30.7261 25.1446C27.4209 26.3252 22.6724 25.9378 19.1748 24.4142Z" fill="#39A8DF"/>
<path d="M11.852 2.85736C11.5105 3.12721 11.1741 3.42363 10.8476 3.75025C7.20634 7.39137 7.51427 14.1486 8.14836 16.0144C8.14836 16.0144 9.61668 14.5218 9.35188 12.8244C8.97307 10.3978 8.86824 6.215 11.852 2.85736Z" fill="#39A8DF"/>
<path d="M19.5771 49.1507C18.2823 51.2086 16.8548 56.045 16.0756 56.4952C15.2964 56.9454 13.357 57.2051 11.5415 56.0058C12.1806 56.5783 14.1822 57.5095 17.3157 58.2003C17.7347 54.5923 18.737 51.3657 19.5771 49.1507Z" fill="#55A9DE"/>
<path d="M25.6469 57.6998C25.6523 56.7365 25.8356 51.9022 28.7919 46.6719C31.2374 42.3451 33.9612 39.8579 35.2095 38.859C26.396 44.4737 24.4908 55.9192 24.0233 56.6982C23.5557 57.4774 21.002 58.4777 19.3633 58.4777C19.6656 58.4957 19.9796 58.5049 20.2998 58.5049C22.9713 58.5049 24.9952 57.8727 25.6469 57.6998Z" fill="#55A9DE"/>
<path d="M35.6076 48.2007C33.1189 52.1411 28.1862 54.3968 28.1677 54.4053C27.9754 55.5135 27.9062 56.376 27.8818 56.8388C35.596 52.4953 39.3987 46.5289 39.4968 38.6179C39.4968 38.6179 38.1011 44.2527 35.6076 48.2007Z" fill="#55A9DE"/>
</svg>
