<svg width="12" height="6" viewBox="0 0 12 6" fill="none" xmlns="http://www.w3.org/2000/svg">
<path d="M0.985212 5.03571C0.985212 5.11607 1.02539 5.20647 1.08566 5.26674L1.58789 5.76897C1.64816 5.82924 1.73856 5.86942 1.81892 5.86942C1.89927 5.86942 1.98968 5.82924 2.04994 5.76897L5.99749 1.82143L9.94503 5.76897C10.0053 5.82924 10.0957 5.86942 10.1761 5.86942C10.2665 5.86942 10.3468 5.82924 10.4071 5.76897L10.9093 5.26674C10.9696 5.20647 11.0098 5.11607 11.0098 5.03571C11.0098 4.95536 10.9696 4.86496 10.9093 4.80469L6.22852 0.123884C6.16825 0.0636157 6.07785 0.0234373 5.99749 0.0234372C5.91713 0.0234372 5.82673 0.0636156 5.76646 0.123884L1.08566 4.80469C1.02539 4.86495 0.985212 4.95536 0.985212 5.03571Z" fill="#373F41"/>
</svg>
