<svg width="47" height="46" viewBox="0 0 47 46" fill="none" xmlns="http://www.w3.org/2000/svg">
<g clip-path="url(#clip0)">
<path d="M2.30176 30.9472C5.54596 39.6906 13.9621 45.9217 23.8345 45.9217C33.7068 45.9217 42.1229 39.6906 45.3672 30.9472L23.8345 28.9507L2.30176 30.9472Z" fill="#FFDA44"/>
<path d="M23.8345 0C13.9621 0 5.54596 6.231 2.30176 14.9745L23.8345 16.971L45.3672 14.9744C42.1229 6.231 33.7068 0 23.8345 0Z" fill="black"/>
<path d="M2.30168 14.9745C1.37876 17.4619 0.873535 20.1523 0.873535 22.9608C0.873535 25.7694 1.37876 28.4598 2.30168 30.9472H45.3672C46.2901 28.4598 46.7952 25.7694 46.7952 22.9608C46.7952 20.1523 46.2901 17.4619 45.3671 14.9745H2.30168Z" fill="#D80027"/>
</g>
<defs>
<clipPath id="clip0">
<rect width="45.9217" height="45.9217" fill="white" transform="translate(0.873535)"/>
</clipPath>
</defs>
</svg>
