<svg width="46" height="46" viewBox="0 0 46 46" fill="none" xmlns="http://www.w3.org/2000/svg">
<g clip-path="url(#clip0)">
<path d="M22.5964 45.1928C35.076 45.1928 45.1928 35.076 45.1928 22.5964C45.1928 10.1167 35.076 0 22.5964 0C10.1167 0 0 10.1167 0 22.5964C0 35.076 10.1167 45.1928 22.5964 45.1928Z" fill="#F0F0F0"/>
<path d="M4.67148 8.83925C2.89651 11.1486 1.55812 13.8103 0.778809 16.7018H12.534L4.67148 8.83925ZM44.4147 16.7018C43.6354 13.8104 42.2969 11.1487 40.5221 8.83934L32.6597 16.7018H44.4147ZM0.778809 28.4912C1.55821 31.3827 2.8966 34.0444 4.67148 36.3536L12.5338 28.4912H0.778809ZM36.3539 4.67118C34.0446 2.89622 31.383 1.55783 28.4914 0.778427V12.5336L36.3539 4.67118ZM8.83963 40.5216C11.149 42.2966 13.8107 43.6349 16.7021 44.4143V32.6593L8.83963 40.5216ZM16.702 0.778427C13.8106 1.55783 11.1489 2.89622 8.83963 4.6711L16.702 12.5335V0.778427ZM28.4915 44.4143C31.383 43.6349 34.0447 42.2966 36.3539 40.5217L28.4915 32.6593V44.4143ZM32.6597 28.4912L40.5221 36.3537C42.2969 34.0445 43.6354 31.3827 44.4147 28.4912H32.6597Z" fill="#0052B4"/>
<path d="M45.0015 19.6491H25.5438V0.191275C24.5665 0.0639412 23.582 4.90948e-05 22.5964 0C21.5973 0 20.6138 0.0656708 19.6491 0.191275V19.649H0.191275C0.0639412 20.6263 4.90948e-05 21.6108 0 22.5964C0 23.5955 0.0656708 24.579 0.191275 25.5437H19.649V45.0015C21.6056 45.2565 23.5871 45.2565 25.5437 45.0015V25.5438H45.0015C45.1288 24.5665 45.1927 23.582 45.1928 22.5964C45.1928 21.5975 45.1271 20.6138 45.0015 19.6491Z" fill="#D80027"/>
<path d="M28.4911 28.4912L38.5743 38.5745C39.0379 38.1104 39.481 37.6264 39.9026 37.1238L31.2699 28.4911H28.4911V28.4912ZM16.7016 28.4912H16.7014L6.6182 38.5744C7.08229 39.038 7.56631 39.4811 8.06887 39.9027L16.7016 31.2698V28.4912ZM16.7016 16.7018V16.7016L6.61828 6.61827C6.15474 7.08237 5.71157 7.56638 5.29004 8.06894L13.9228 16.7017H16.7016V16.7018ZM28.4911 16.7018L38.5744 6.61836C38.1104 6.15482 37.6263 5.71168 37.1238 5.2902L28.4911 13.923V16.7018Z" fill="#D80027"/>
</g>
<defs>
<clipPath id="clip0">
<rect width="45.1928" height="45.1928" fill="white"/>
</clipPath>
</defs>
</svg>
