<svg width="24" height="15" viewBox="0 0 24 15" fill="none" xmlns="http://www.w3.org/2000/svg">
<path d="M14.4342 7.54199C14.4342 7.05985 14.3839 6.6882 14.3136 6.31655H7.36272V8.8478H11.5413C11.3705 9.92257 10.2757 12.0219 7.36272 12.0219C4.85156 12.0219 2.80246 9.94266 2.80246 7.37123C2.80246 4.7998 4.85156 2.72056 7.36272 2.72056C8.79911 2.72056 9.75335 3.33329 10.2958 3.85561L12.2946 1.93708C11.0089 0.731724 9.35156 0.00850928 7.36272 0.00850928C3.29464 0.00850928 0 3.30315 0 7.37123C0 11.4393 3.29464 14.734 7.36272 14.734C11.6116 14.734 14.4342 11.7507 14.4342 7.54199ZM23.1429 6.31655H21.0435V4.21721H18.9342V6.31655H16.8348V8.42592H18.9342V10.5253H21.0435V8.42592H23.1429V6.31655Z" fill="#373F41"/>
</svg>
