<svg width="46" height="46" viewBox="0 0 46 46" fill="none" xmlns="http://www.w3.org/2000/svg">
<g clip-path="url(#clip0)">
<path d="M23.039 45.1928C35.7199 45.1928 45.9998 35.076 45.9998 22.5964C45.9998 10.1167 35.7199 0 23.039 0C10.358 0 0.078125 10.1167 0.078125 22.5964C0.078125 35.076 10.358 45.1928 23.039 45.1928Z" fill="#F0F0F0"/>
<path d="M45.9999 22.5964C45.9999 12.8807 39.7689 4.59819 31.0254 1.40548V43.7874C39.7689 40.5946 45.9999 32.312 45.9999 22.5964Z" fill="#D80027"/>
<path d="M0.078125 22.5964C0.078125 32.312 6.30912 40.5946 15.0526 43.7873V1.40548C6.30912 4.59819 0.078125 12.8807 0.078125 22.5964Z" fill="#6DA544"/>
</g>
<defs>
<clipPath id="clip0">
<rect width="45.9217" height="45.1928" fill="white" transform="translate(0.078125)"/>
</clipPath>
</defs>
</svg>
