<svg width="47" height="46" viewBox="0 0 47 46" fill="none" xmlns="http://www.w3.org/2000/svg">
<g clip-path="url(#clip0)">
<path d="M0.476074 22.9608C0.476074 32.8331 6.70707 41.2492 15.4504 44.4935L17.4471 22.9608L15.4504 1.42815C6.70707 4.67244 0.476074 13.0885 0.476074 22.9608Z" fill="#6DA544"/>
<path d="M46.3976 22.9608C46.3976 10.28 36.1176 0 23.4367 0C20.6281 0 17.9377 0.505228 15.4502 1.42815V44.4935C17.9377 45.4165 20.6281 45.9217 23.4367 45.9217C36.1176 45.9217 46.3976 35.6417 46.3976 22.9608Z" fill="#D80027"/>
<path d="M15.4507 30.9472C19.8614 30.9472 23.437 27.3716 23.437 22.9608C23.437 18.5501 19.8614 14.9745 15.4507 14.9745C11.04 14.9745 7.46436 18.5501 7.46436 22.9608C7.46436 27.3716 11.04 30.9472 15.4507 30.9472Z" fill="#FFDA44"/>
<path d="M10.958 18.9676V23.9591C10.958 26.4401 12.9692 28.4514 15.4503 28.4514C17.9315 28.4514 19.9427 26.4402 19.9427 23.9591V18.9676H10.958Z" fill="#D80027"/>
<path d="M15.4506 25.4566C14.6249 25.4566 13.9531 24.7848 13.9531 23.9591V21.9626H16.948V23.9592C16.948 24.7848 16.2762 25.4566 15.4506 25.4566Z" fill="#F0F0F0"/>
</g>
<defs>
<clipPath id="clip0">
<rect width="45.9217" height="45.9217" fill="white" transform="translate(0.476074)"/>
</clipPath>
</defs>
</svg>
